<svg width="38" height="38" viewBox="0 0 38 38" fill="none" xmlns="http://www.w3.org/2000/svg">
<path d="M2 19C2 28.4 9.6 36 19 36C28.4 36 36 28.4 36 19C36 9.6 28.4 2 19 2C9.6 2 2 9.6 2 19ZM34 19C34 27.3 27.3 34 19 34C10.7 34 4 27.3 4 19C4 10.7 10.7 4 19 4C27.3 4 34 10.7 34 19Z" fill="white"/>
<path d="M13.6764 18.3034C13.2997 18.6914 13.2997 19.3086 13.6764 19.6966L21.0895 27.3314C21.4449 27.6974 22.0325 27.6974 22.3879 27.3314C22.7288 26.9803 22.7288 26.4218 22.3879 26.0707L16.1989 19.6966C15.8222 19.3086 15.8222 18.6914 16.1989 18.3034L22.3879 11.9293C22.7288 11.5782 22.7288 11.0197 22.3879 10.6686C22.0325 10.3026 21.4449 10.3026 21.0895 10.6686L13.6764 18.3034Z" fill="white"/>
</svg>
