<svg width="38" height="38" viewBox="0 0 38 38" fill="none" xmlns="http://www.w3.org/2000/svg">
<path d="M36 19C36 28.4 28.4 36 19 36C9.6 36 2 28.4 2 19C2 9.6 9.6 2 19 2C28.4 2 36 9.6 36 19ZM4 19C4 27.3 10.7 34 19 34C27.3 34 34 27.3 34 19C34 10.7 27.3 4 19 4C10.7 4 4 10.7 4 19Z" fill="white"/>
<path d="M24.3236 18.3034C24.7003 18.6914 24.7003 19.3086 24.3236 19.6966L16.9105 27.3314C16.5551 27.6974 15.9675 27.6974 15.6121 27.3314C15.2712 26.9803 15.2712 26.4218 15.6121 26.0707L21.8011 19.6966C22.1778 19.3086 22.1778 18.6914 21.8011 18.3034L15.6121 11.9293C15.2712 11.5782 15.2712 11.0197 15.6121 10.6686C15.9675 10.3026 16.5551 10.3026 16.9105 10.6686L24.3236 18.3034Z" fill="white"/>
</svg>
