<svg width="24" height="22" viewBox="0 0 24 22" fill="none" xmlns="http://www.w3.org/2000/svg">
<path d="M15.0101 21.5458C15.0324 21.7383 14.8914 21.9125 14.6952 21.9344C13.81 22.0349 12.9008 22.0193 12.0192 21.8918C10.8429 21.7217 9.70188 21.3526 8.65534 20.7994L8.82664 21.4768C8.87389 21.6648 8.75653 21.8548 8.56494 21.9011C8.37335 21.9475 8.17971 21.8323 8.13246 21.6443L7.7557 20.1536C7.70845 19.9656 7.82581 19.7756 8.0174 19.7293L9.53675 19.3596C9.72833 19.3132 9.92198 19.4284 9.96923 19.6164C10.0165 19.8044 9.89912 19.9943 9.70753 20.0407L9.03466 20.2045C10 20.7085 11.0409 21.0408 12.1232 21.1973C12.953 21.3173 13.781 21.3316 14.6143 21.2371C14.8105 21.215 14.9877 21.3533 15.0101 21.5458ZM20.8574 16.5064V17.4649C20.8574 17.6015 20.7436 17.7131 20.6044 17.7131H20.1434C19.8648 17.7131 19.6267 17.8691 19.5198 18.1218C19.4133 18.3746 19.469 18.65 19.6662 18.8435L19.9921 19.1633C20.0905 19.2598 20.0905 19.4178 19.9921 19.5146L19.3013 20.1924C19.2029 20.2889 19.0419 20.2889 18.9433 20.1924L18.6174 19.8726C18.4201 19.6791 18.1394 19.6244 17.8818 19.729C17.6243 19.8336 17.4653 20.0672 17.4653 20.3408V20.7931C17.4653 20.9297 17.3515 21.0413 17.2123 21.0413H16.2354C16.0962 21.0413 15.9824 20.9297 15.9824 20.7931V20.3408C15.9824 20.0674 15.8234 19.8338 15.5658 19.729C15.3083 19.6244 15.0276 19.6791 14.8303 19.8726L14.5044 20.1924C14.406 20.2889 14.245 20.2889 14.1464 20.1924L13.4556 19.5146C13.3572 19.4181 13.3572 19.2601 13.4556 19.1633L13.7815 18.8435C13.9787 18.65 14.0344 18.3746 13.9279 18.1218C13.8213 17.8691 13.5832 17.7131 13.3043 17.7131H12.8433C12.7041 17.7131 12.5903 17.6015 12.5903 17.4649V16.5064C12.5903 16.3698 12.7041 16.2582 12.8433 16.2582H13.3043C13.5829 16.2582 13.821 16.1022 13.9279 15.8494C14.0344 15.5967 13.9787 15.3213 13.7815 15.1278L13.4556 14.808C13.3572 14.7115 13.3572 14.5535 13.4556 14.4567L14.1464 13.7789C14.2448 13.6824 14.4058 13.6824 14.5044 13.7789L14.8303 14.0987C15.0276 14.2922 15.3083 14.3469 15.5658 14.2423C15.8234 14.1377 15.9824 13.9041 15.9824 13.6305V13.1782C15.9824 13.0416 16.0962 12.9299 16.2354 12.9299H17.2123C17.3515 12.9299 17.4653 13.0416 17.4653 13.1782V13.6305C17.4653 13.9041 17.6243 14.1375 17.8818 14.2423C18.1394 14.3469 18.4201 14.2922 18.6174 14.0987L18.9433 13.7789C19.0416 13.6824 19.2027 13.6824 19.3013 13.7789L19.9921 14.4567C20.0905 14.5532 20.0905 14.7112 19.9921 14.808L19.6662 15.1278C19.469 15.3213 19.4133 15.5967 19.5198 15.8494C19.6264 16.1022 19.8645 16.2582 20.1434 16.2582H20.6044C20.7433 16.2579 20.8574 16.3698 20.8574 16.5064ZM18.7651 16.9856C18.7651 15.8794 17.8513 14.9829 16.7238 14.9829C15.5964 14.9829 14.6826 15.8794 14.6826 16.9856C14.6826 18.0919 15.5964 18.9884 16.7238 18.9884C17.851 18.9884 18.7651 18.0916 18.7651 16.9856ZM3.45628 5.58684C3.61397 5.70276 3.83766 5.67151 3.9558 5.51679C5.23784 3.84033 7.04559 2.64542 9.10812 2.10315C10.1639 1.82546 11.2554 1.72542 12.3446 1.81185L11.7929 2.22435C11.636 2.34178 11.6059 2.56201 11.7256 2.71598C11.8453 2.86994 12.0698 2.89942 12.2267 2.782L13.4715 1.85091C13.6284 1.73349 13.6584 1.51325 13.5388 1.35929L12.5898 0.137916C12.4701 -0.0160467 12.2457 -0.045529 12.0888 0.0718961C11.9318 0.189321 11.9018 0.409556 12.0215 0.563519L12.4517 1.11738C11.2667 1.01734 10.072 1.12293 8.9232 1.42506C6.70146 2.00916 4.76529 3.29126 3.38463 5.09673C3.26675 5.25145 3.29859 5.47093 3.45628 5.58684ZM13.7702 3.03398L14.0961 3.35375C14.2933 3.54728 14.574 3.60196 14.8316 3.49738C15.0892 3.39281 15.2482 3.15922 15.2482 2.88556V2.43325C15.2482 2.29667 15.3619 2.18504 15.5011 2.18504H16.4781C16.6173 2.18504 16.731 2.29667 16.731 2.43325V2.88556C16.731 3.15922 16.89 3.39256 17.1476 3.49738C17.4052 3.60196 17.6859 3.54728 17.8831 3.35375L18.209 3.03398C18.3074 2.93747 18.4684 2.93747 18.567 3.03398L19.2579 3.71182C19.3563 3.80833 19.3563 3.96633 19.2579 4.06309L18.932 4.38286C18.7347 4.57638 18.679 4.8518 18.7856 5.10454C18.8922 5.35729 19.1303 5.51326 19.4092 5.51326H19.8701C20.0093 5.51326 20.1231 5.62489 20.1231 5.76147V6.72002C20.1231 6.8566 20.0093 6.96823 19.8701 6.96823H19.4092C19.1305 6.96823 18.8924 7.12421 18.7856 7.37695C18.679 7.62969 18.7347 7.90511 18.932 8.09863L19.2579 8.4184C19.3563 8.51491 19.3563 8.67291 19.2579 8.76967L18.567 9.44751C18.4687 9.54402 18.3077 9.54402 18.209 9.44751L17.8831 9.12774C17.6859 8.93422 17.4052 8.87953 17.1476 8.98411C16.89 9.08868 16.731 9.32227 16.731 9.59593V10.0482C16.731 10.1848 16.6173 10.2964 16.4781 10.2964H15.5011C15.3619 10.2964 15.2482 10.1848 15.2482 10.0482V9.59593C15.2482 9.32227 15.0892 9.08893 14.8316 8.98411C14.574 8.87953 14.2933 8.93422 14.0961 9.12774L13.7702 9.44751C13.6718 9.54402 13.5108 9.54402 13.4122 9.44751L12.7213 8.76967C12.6229 8.67316 12.6229 8.51516 12.7213 8.4184L13.0472 8.09863C13.2445 7.90511 13.3002 7.62969 13.1936 7.37695C13.087 7.12421 12.849 6.96823 12.57 6.96823H12.1091C11.9699 6.96823 11.8561 6.8566 11.8561 6.72002V5.76147C11.8561 5.62489 11.9699 5.51326 12.1091 5.51326H12.57C12.849 5.51326 13.0868 5.35729 13.1936 5.10454C13.3002 4.8518 13.2445 4.57638 13.0472 4.38286L12.7213 4.06309C12.6229 3.96658 12.6229 3.80858 12.7213 3.71182L13.4122 3.03398C13.5105 2.93747 13.6715 2.93747 13.7702 3.03398ZM13.9484 6.24075C13.9484 7.34696 14.8622 8.24352 15.9896 8.24352C17.117 8.24352 18.0308 7.34696 18.0308 6.24075C18.0308 5.13453 17.117 4.23797 15.9896 4.23797C14.8622 4.23797 13.9484 5.13478 13.9484 6.24075ZM7.52688 17.5395V18.2378C7.52688 18.4487 7.35095 18.621 7.13625 18.621H5.62769C5.41273 18.621 5.23707 18.4484 5.23707 18.2378V17.5395C5.23707 17.1172 4.99155 16.7566 4.59374 16.5951C4.19618 16.4335 3.76267 16.518 3.45808 16.8168L2.95497 17.3105C2.80293 17.4596 2.55433 17.4596 2.40229 17.3105L1.33572 16.264C1.18368 16.1148 1.18368 15.8709 1.33572 15.7217L1.83883 15.228C2.14316 14.9294 2.22945 14.5041 2.06483 14.1138C1.90021 13.7237 1.5327 13.4825 1.10227 13.4825H0.390623C0.175665 13.4825 0 13.3099 0 13.0993V11.6191C0 11.4082 0.175922 11.2358 0.390623 11.2358H1.10227C1.5327 11.2358 1.90021 10.995 2.06483 10.6046C2.22945 10.2146 2.14342 9.7892 1.83883 9.49035L1.33572 8.99671C1.18368 8.84753 1.18368 8.60361 1.33572 8.45444L2.40229 7.40794C2.55433 7.25877 2.80293 7.25877 2.95497 7.40794L3.45808 7.90158C3.76241 8.20018 4.19592 8.28485 4.59374 8.12333C4.99129 7.9618 5.23707 7.60121 5.23707 7.17889V6.48064C5.23707 6.26972 5.41299 6.09737 5.62769 6.09737H7.13625C7.35121 6.09737 7.52688 6.26998 7.52688 6.48064V7.17889C7.52688 7.60121 7.7724 7.9618 8.17021 8.12333C8.56777 8.28485 9.00128 8.20043 9.30587 7.90158L9.80898 7.40794C9.96101 7.25877 10.2096 7.25877 10.3617 7.40794L11.4282 8.45444C11.5803 8.60361 11.5803 8.84753 11.4282 8.99671L10.9251 9.49035C10.6208 9.78895 10.5345 10.2143 10.6991 10.6046C10.8637 10.9947 11.2312 11.2358 11.6617 11.2358H12.3733C12.5883 11.2358 12.7639 11.4085 12.7639 11.6191V13.0993C12.7639 13.3102 12.588 13.4825 12.3733 13.4825H11.6617C11.2312 13.4825 10.8637 13.7234 10.6991 14.1138C10.5345 14.5038 10.6205 14.9292 10.9251 15.228L11.4282 15.7217C11.5803 15.8709 11.5803 16.1148 11.4282 16.264L10.3617 17.3105C10.2096 17.4596 9.96101 17.4596 9.80898 17.3105L9.30587 16.8168C9.00153 16.5182 8.56802 16.4335 8.17021 16.5951C7.7724 16.7566 7.52688 17.1172 7.52688 17.5395ZM9.53366 12.3589C9.53366 10.651 8.1227 9.26658 6.38197 9.26658C4.64125 9.26658 3.23028 10.651 3.23028 12.3589C3.23028 14.0669 4.64125 15.4513 6.38197 15.4513C8.1227 15.4513 9.53366 14.0669 9.53366 12.3589ZM23.9806 14.9191C23.9163 14.7364 23.7135 14.6392 23.5273 14.7022L22.8554 14.9297C23.3233 13.8567 23.5961 12.7092 23.6639 11.5438C23.7949 9.2938 23.1608 7.08288 21.8479 5.23306C21.7352 5.0738 21.512 5.03449 21.3497 5.14511C21.1874 5.25574 21.1473 5.47471 21.2601 5.63397C22.482 7.35603 23.0719 9.41072 22.9499 11.5055C22.8875 12.5764 22.6425 13.6244 22.2165 14.6122L21.9899 13.9686C21.9257 13.7859 21.7228 13.6887 21.5367 13.7517C21.3505 13.8147 21.2513 14.0137 21.3155 14.1964L21.8263 15.6481C21.8906 15.8308 22.0934 15.9281 22.2796 15.8651L23.7592 15.3639C23.9456 15.3011 24.0445 15.1021 23.9806 14.9191Z" fill="white"/>
</svg>
