<svg width="9" height="9" viewBox="0 0 9 9" fill="none" xmlns="http://www.w3.org/2000/svg">
<path d="M8.50024 2.09507C8.5133 2.08799 8.52414 2.07786 8.53167 2.06568C8.53921 2.05351 8.54317 2.03971 8.54317 2.02567C8.54317 2.01162 8.53921 1.99783 8.53167 1.98565C8.52414 1.97347 8.5133 1.96334 8.50024 1.95627L5.19577 0.173717C4.98433 0.0599263 4.74428 0 4.49989 0C4.25551 0 4.01545 0.0599263 3.80402 0.173717L0.500194 1.95627C0.487131 1.96334 0.476292 1.97347 0.46876 1.98565C0.461228 1.99783 0.457264 2.01162 0.457264 2.02567C0.457264 2.03971 0.461228 2.05351 0.46876 2.06568C0.476292 2.07786 0.487131 2.08799 0.500194 2.09507L4.45673 4.25606C4.47004 4.26334 4.4852 4.26718 4.50065 4.26718C4.5161 4.26718 4.53126 4.26334 4.54457 4.25606L8.50024 2.09507ZM0.129809 2.64164C0.116613 2.63457 0.101638 2.63086 0.0863997 2.63088C0.0711613 2.6309 0.0561994 2.63466 0.0430272 2.64177C0.0298551 2.64889 0.0189396 2.6591 0.0113846 2.67139C0.00382961 2.68368 -9.70267e-05 2.6976 1.82118e-06 2.71175V6.20473C0.00032844 6.37306 0.0481105 6.53837 0.138596 6.68423C0.229081 6.8301 0.359117 6.95142 0.515771 7.03615L4.02404 8.98924C4.03719 8.99628 4.0521 9 4.06729 9C4.08247 9 4.09739 8.9963 4.11054 8.98926C4.12369 8.98221 4.13462 8.97208 4.14222 8.95988C4.14982 8.94768 4.15383 8.93383 4.15385 8.91973V4.86712C4.15383 4.85303 4.14983 4.83919 4.14223 4.82699C4.13464 4.81479 4.12372 4.80466 4.11058 4.79762L0.129809 2.64164ZM4.84615 4.88118V8.91873C4.84617 8.93283 4.85018 8.94667 4.85778 8.95887C4.86538 8.97108 4.87631 8.98121 4.88946 8.98825C4.90262 8.99529 4.91753 8.999 4.93272 8.999C4.9479 8.99899 4.96281 8.99528 4.97596 8.98823L8.48401 7.03514C8.64055 6.95053 8.77053 6.82937 8.86104 6.6837C8.95156 6.53803 8.99946 6.37291 9 6.20473V2.71175C8.99995 2.69767 8.99591 2.68385 8.98829 2.67167C8.98067 2.6595 8.96975 2.6494 8.9566 2.64238C8.94345 2.63536 8.92855 2.63167 8.91339 2.63168C8.89822 2.6317 8.88333 2.63541 8.87019 2.64245L4.88942 4.81188C4.87631 4.81891 4.86542 4.829 4.85782 4.84117C4.85023 4.85333 4.84621 4.86712 4.84615 4.88118Z" fill="#32C5FF"/>
</svg>
