<svg width="44" height="44" viewBox="0 0 44 44" fill="none" xmlns="http://www.w3.org/2000/svg">
<path d="M33.9942 12C36.9018 12 39.275 12.9554 41.1137 14.8662C43.0379 16.7346 44 19.1125 44 22C44 24.8875 43.0379 27.2866 41.1137 29.1975C39.2323 31.0658 36.8591 32 33.9942 32C31.6851 32 29.5899 31.3843 27.7085 30.1529C25.8698 28.879 23.967 26.9894 22 24.4841C20.033 26.9894 18.1302 28.879 16.2915 30.1529C14.4529 31.3843 12.3576 32 10.0058 32C7.18367 32 4.78912 31.0658 2.82216 29.1975C0.940719 27.2442 0 24.845 0 22C0 19.1125 0.940719 16.7346 2.82216 14.8662C4.74636 12.9554 7.14091 12 10.0058 12C12.3576 12 14.4529 12.6369 16.2915 13.9108C18.1302 15.1423 20.033 17.0106 22 19.5159C23.967 17.0106 25.8698 15.1423 27.7085 13.9108C29.5899 12.6369 31.6851 12 33.9942 12ZM10.07 29.0701C11.9086 29.0701 13.619 28.4756 15.2012 27.2866C16.7833 26.0977 18.4295 24.3355 20.1399 22C18.4295 19.6645 16.7833 17.9023 15.2012 16.7134C13.619 15.5244 11.9086 14.9299 10.07 14.9299C8.06025 14.9299 6.41399 15.5881 5.13119 16.9045C3.8484 18.2208 3.207 19.9193 3.207 22C3.207 24.0807 3.8484 25.7792 5.13119 27.0955C6.41399 28.4119 8.06025 29.0701 10.07 29.0701ZM33.9942 29.0701C36.0039 29.0701 37.6501 28.4119 38.9329 27.0955C40.2157 25.7792 40.8571 24.0807 40.8571 22C40.8571 19.9193 40.2157 18.2208 38.9329 16.9045C37.6501 15.5881 36.0039 14.9299 33.9942 14.9299C32.1555 14.9299 30.4451 15.5244 28.863 16.7134C27.3236 17.8599 25.6774 19.6221 23.9242 22C25.6774 24.3779 27.3236 26.1614 28.863 27.3503C30.4451 28.4968 32.1555 29.0701 33.9942 29.0701Z" fill="#FF1422"/>
</svg>
