<svg width="14" height="14" viewBox="0 0 14 14" fill="none" xmlns="http://www.w3.org/2000/svg">
<path d="M14 6.99805C14 7.98479 14 8.97153 14 9.95827C14 11.6329 13.1873 12.7944 11.7312 13.5415C11.133 13.8488 10.4868 13.987 9.81515 13.987C7.91039 13.9898 6.00562 14.0208 4.10085 13.9757C2.56857 13.9419 1.34387 13.2709 0.519883 11.9515C0.175614 11.4017 0.00912317 10.7928 0.00630129 10.1472C0.00347941 8.06091 -0.00780812 5.97466 0.00912315 3.88841C0.0204107 2.45905 0.717415 1.40183 1.90825 0.651905C2.61372 0.209282 3.39538 0.00911467 4.22501 0.00629542C6.07899 0.00347616 7.93014 -0.00780086 9.78411 0.00911468C11.2148 0.023211 12.4056 0.575785 13.2804 1.72886C13.763 2.36601 14 3.0962 14 3.89687C14 4.93154 14 5.96339 14 6.99805ZM12.9559 7.01215C12.9559 5.97466 12.9559 4.93436 12.9559 3.89687C12.9559 3.33302 12.7894 2.81991 12.4564 2.37165C11.8102 1.5005 10.9157 1.07197 9.84902 1.05788C7.96682 1.03532 6.08745 1.04942 4.20526 1.05224C3.62113 1.05224 3.06522 1.19038 2.5601 1.48077C1.58655 2.0418 1.04193 2.86502 1.04757 4.0181C1.05322 6.04232 1.04757 8.06937 1.0504 10.0936C1.0504 10.6603 1.21689 11.179 1.55551 11.6329C2.20455 12.5041 3.09908 12.9298 4.16575 12.941C6.05641 12.9636 7.94707 12.9495 9.83773 12.9467C10.2695 12.9467 10.6871 12.8536 11.085 12.693C12.146 12.2644 12.9982 11.2749 12.9644 9.94699C12.9362 8.96871 12.9559 7.99043 12.9559 7.01215Z" fill="white"/>
<path d="M7.00402 9.98675C5.17827 9.98111 3.71935 8.52355 3.72782 6.71077C3.73346 4.94028 5.22059 3.49682 7.03224 3.50246C8.84106 3.5081 10.3084 4.96847 10.3028 6.7587C10.2972 8.54611 8.81849 9.98957 7.00402 9.98675ZM7.02377 4.54558C5.78215 4.54276 4.77474 5.52668 4.77192 6.74178C4.76909 7.95124 5.77368 8.9408 7.0012 8.94644C8.24565 8.94926 9.25588 7.96816 9.2587 6.7587C9.26152 5.53796 8.25976 4.54558 7.02377 4.54558Z" fill="white"/>
<path d="M11.3756 3.23735C11.3756 3.63487 11.0624 3.95627 10.6786 3.95345C10.2976 3.95063 9.99004 3.62359 9.99568 3.22326C9.9985 2.8342 10.3089 2.51562 10.687 2.51562C11.0652 2.51562 11.3756 2.83984 11.3756 3.23735Z" fill="white"/>
</svg>
