<svg width="20" height="20" viewBox="0 0 20 20" fill="none" xmlns="http://www.w3.org/2000/svg">
<path d="M20 9.99722C20 11.4068 20 12.8165 20 14.2261C20 16.6184 18.839 18.2778 16.7589 19.3451C15.9042 19.7841 14.9811 19.9814 14.0216 19.9814C11.3005 19.9854 8.57945 20.0297 5.85835 19.9653C3.66938 19.917 1.91982 18.9584 0.74269 17.0736C0.250877 16.2882 0.0130331 15.4182 0.00900184 14.4959C0.00497058 11.5156 -0.0111545 8.53523 0.0130331 5.55487C0.0291581 3.51293 1.02488 2.00261 2.72607 0.931293C3.73388 0.298974 4.85054 0.013021 6.03573 0.00899345C8.68426 0.00496594 11.3288 -0.0111441 13.9773 0.013021C16.0211 0.0331585 17.7223 0.82255 18.972 2.4698C19.6614 3.38002 20 4.42314 20 5.56696C20 7.04505 20 8.51912 20 9.99722ZM18.5084 10.0174C18.5084 8.53523 18.5084 7.04908 18.5084 5.56696C18.5084 4.76146 18.2706 4.02845 17.7949 3.38807C16.8717 2.14357 15.5938 1.53139 14.07 1.51125C11.3812 1.47903 8.69636 1.49917 6.00751 1.5032C5.17304 1.5032 4.37888 1.70055 3.65729 2.11538C2.2665 2.91686 1.48847 4.09289 1.49654 5.74014C1.5046 8.63189 1.49654 11.5277 1.50057 14.4194C1.50057 15.229 1.73841 15.97 2.22216 16.6184C3.14935 17.8629 4.42726 18.4711 5.95107 18.4872C8.65201 18.5194 11.353 18.4993 14.0539 18.4953C14.6707 18.4953 15.2673 18.3624 15.8357 18.1328C17.3515 17.5206 18.5689 16.107 18.5205 14.21C18.4802 12.8124 18.5084 11.4149 18.5084 10.0174Z" fill="white"/>
<path d="M10.0059 14.2667C7.39768 14.2587 5.31352 12.1764 5.32561 9.58675C5.33368 7.05747 7.45815 4.99539 10.0462 5.00344C12.6302 5.0115 14.7265 7.09775 14.7184 9.65522C14.7104 12.2087 12.598 14.2707 10.0059 14.2667ZM10.0341 6.49362C8.26037 6.48959 6.82121 7.89519 6.81718 9.63105C6.81315 11.3589 8.24827 12.7725 10.0019 12.7806C11.7797 12.7846 13.2228 11.383 13.2269 9.65522C13.2309 7.9113 11.7998 6.49362 10.0341 6.49362Z" fill="white"/>
<path d="M16.2508 4.62479C16.2508 5.19267 15.8033 5.65181 15.255 5.64778C14.7108 5.64375 14.2714 5.17656 14.2795 4.60465C14.2835 4.04886 14.7269 3.59375 15.2671 3.59375C15.8073 3.59375 16.2508 4.05691 16.2508 4.62479Z" fill="white"/>
</svg>
