<svg width="14" height="14" viewBox="0 0 14 14" fill="none" xmlns="http://www.w3.org/2000/svg">
<path fill-rule="evenodd" clip-rule="evenodd" d="M6.76268 1.68461C6.91366 1.6175 7.08601 1.6175 7.23699 1.68461L12.0182 3.8096C12.2291 3.90332 12.365 4.11244 12.365 4.3432C12.365 4.57396 12.2291 4.78308 12.0182 4.8768L7.23699 7.0018C7.08601 7.0689 6.91366 7.0689 6.76268 7.0018L1.98144 4.8768C1.77057 4.78308 1.63467 4.57396 1.63467 4.3432C1.63467 4.11244 1.77057 3.90332 1.98144 3.8096L6.76268 1.68461ZM3.65635 4.3432L6.99984 5.82919L10.3433 4.3432L6.99984 2.85721L3.65635 4.3432ZM1.685 6.76235C1.81597 6.46765 2.16105 6.33492 2.45575 6.4659L6.99984 8.48549L11.5439 6.4659C11.8386 6.33492 12.1837 6.46765 12.3147 6.76235C12.4457 7.05704 12.3129 7.40212 12.0182 7.5331L7.23699 9.6581C7.08601 9.7252 6.91366 9.7252 6.76268 9.6581L1.98144 7.5331C1.68674 7.40212 1.55402 7.05704 1.685 6.76235ZM2.45575 9.12209C2.16105 8.99111 1.81597 9.12384 1.685 9.41854C1.55402 9.71324 1.68674 10.0583 1.98144 10.1893L6.76268 12.3143C6.91366 12.3814 7.08601 12.3814 7.23699 12.3143L12.0182 10.1893C12.3129 10.0583 12.4457 9.71324 12.3147 9.41854C12.1837 9.12384 11.8386 8.99111 11.5439 9.12209L6.99984 11.1417L2.45575 9.12209Z" fill="#4B4B4B"/>
</svg>
