<svg width="30" height="30" viewBox="0 0 30 30" fill="none" xmlns="http://www.w3.org/2000/svg">
<path d="M17.8537 4.37627L8.1375 14.3438C7.96685 14.5188 7.87134 14.7537 7.87134 14.9981C7.87134 15.2426 7.96685 15.4774 8.1375 15.6525L17.8537 25.6238C17.9332 25.7054 18.0283 25.7703 18.1333 25.8146C18.2382 25.8589 18.351 25.8817 18.465 25.8817C18.5789 25.8817 18.6917 25.8589 18.7967 25.8146C18.9017 25.7703 18.9968 25.7054 19.0762 25.6238C19.2398 25.4563 19.3313 25.2316 19.3313 24.9975C19.3313 24.7635 19.2398 24.5387 19.0762 24.3713L9.93937 14.9981L19.0762 5.62689C19.2392 5.45954 19.3304 5.23518 19.3304 5.00158C19.3304 4.76798 19.2392 4.54362 19.0762 4.37627C18.9968 4.29462 18.9017 4.22973 18.7967 4.18542C18.6917 4.14111 18.5789 4.11829 18.465 4.11829C18.351 4.11829 18.2382 4.14111 18.1333 4.18542C18.0283 4.22973 17.9332 4.29462 17.8537 4.37627Z" fill="white"/>
</svg>
