<svg width="12" height="13" viewBox="0 0 12 13" fill="none" xmlns="http://www.w3.org/2000/svg">
<path d="M3.9945 2.43914L7.6485 6.50001L3.9945 10.5609C3.92908 10.6334 3.89246 10.7308 3.89246 10.8323C3.89246 10.9337 3.92908 11.0311 3.9945 11.1036C4.02627 11.1388 4.0642 11.1667 4.10605 11.1857C4.1479 11.2048 4.19285 11.2146 4.23825 11.2146C4.28365 11.2146 4.32859 11.2048 4.37045 11.1857C4.4123 11.1667 4.45022 11.1388 4.482 11.1036L8.37 6.78358C8.43826 6.70771 8.47646 6.60596 8.47646 6.50001C8.47646 6.39407 8.43826 6.29232 8.37 6.21645L4.48275 1.89639C4.45095 1.86101 4.41293 1.83289 4.37094 1.81369C4.32895 1.79449 4.28383 1.7846 4.23825 1.7846C4.19267 1.7846 4.14755 1.79449 4.10556 1.81369C4.06356 1.83289 4.02554 1.86101 3.99375 1.89639C3.92833 1.96894 3.89171 2.06634 3.89171 2.16777C3.89171 2.26919 3.92833 2.36659 3.99375 2.43914L3.9945 2.43914Z" fill="white"/>
</svg>
