<svg width="20" height="20" viewBox="0 0 20 20" fill="none" xmlns="http://www.w3.org/2000/svg">
<path fill-rule="evenodd" clip-rule="evenodd" d="M13.066 1.11476L13.1289 1.11477L15.733 1.11477L15.7542 1.11477C16.0452 1.11476 16.2962 1.11475 16.5029 1.13164C16.7211 1.14947 16.9381 1.18883 17.147 1.29524C17.4585 1.45398 17.7118 1.70728 17.8706 2.01883C17.977 2.22766 18.0163 2.44469 18.0341 2.66288C18.051 2.86962 18.051 3.12061 18.051 3.41155V3.43282V6.0369L18.051 6.09979V6.09981V6.09982V6.09984V6.09986C18.0512 6.5793 18.0513 6.91118 17.9748 7.22979C17.9072 7.51136 17.7957 7.78055 17.6444 8.02745C17.4732 8.30684 17.2384 8.54146 16.8993 8.8804L16.8993 8.88041L16.8548 8.92486L14.0536 11.726L14.126 11.8273L14.1384 11.8447C14.437 12.2625 14.6791 12.6011 14.8562 12.8932C15.0394 13.1953 15.1746 13.4813 15.2388 13.8002C15.3417 14.3107 15.298 14.8399 15.1128 15.3266C14.997 15.6306 14.8167 15.8905 14.5865 16.1585C14.3638 16.4176 14.0695 16.7119 13.7063 17.075L13.6912 17.0902L12.8911 17.8903C12.7764 18.005 12.617 18.0635 12.4553 18.0501C12.2936 18.0367 12.146 17.9529 12.0517 17.8208L10.3437 15.4297C10.2482 15.5208 10.1586 15.6029 10.0737 15.675C9.85988 15.8565 9.63937 16.0072 9.37446 16.0933C8.96801 16.2253 8.53019 16.2253 8.12374 16.0933C7.85883 16.0072 7.63832 15.8565 7.4245 15.675C7.21948 15.501 6.98749 15.2689 6.70954 14.991L6.69371 14.9752L4.19063 12.4721L4.17478 12.4562C3.89684 12.1783 3.66484 11.9463 3.49079 11.7413C3.30927 11.5275 3.1586 11.307 3.07253 11.042C2.94047 10.6356 2.94047 10.1978 3.07253 9.79133C3.1586 9.52642 3.30927 9.30591 3.49079 9.09208C3.56281 9.00725 3.64476 8.91779 3.73578 8.82237L1.34635 7.11557C1.21433 7.02127 1.1305 6.87366 1.11712 6.71197C1.10374 6.55029 1.16217 6.39091 1.2769 6.27619L2.07721 5.4759L2.09233 5.46078C2.45543 5.09768 2.74974 4.80337 3.00882 4.58074C3.27674 4.3505 3.53662 4.17019 3.84065 4.05449C4.32732 3.86929 4.85645 3.82556 5.36692 3.92836C5.68581 3.99258 5.97177 4.12778 6.27385 4.31091C6.56596 4.48799 6.90459 4.72999 7.32237 5.02855L7.33977 5.04099L7.4396 5.11233L10.2409 2.311L10.2854 2.26653L10.2854 2.26651L10.2854 2.26651C10.6243 1.92738 10.8589 1.69263 11.1383 1.52142C11.3852 1.37012 11.6544 1.25862 11.936 1.19102C12.2546 1.11452 12.5865 1.11462 13.066 1.11476ZM4.52344 8.02848L6.47234 6.07959L6.64827 5.90356C6.23549 5.60864 5.94421 5.4019 5.70162 5.25484C5.45534 5.10554 5.29338 5.03954 5.14901 5.01047C4.84273 4.94879 4.52525 4.97503 4.23325 5.08615C4.0956 5.13853 3.94667 5.23022 3.72824 5.41792C3.50455 5.61015 3.23953 5.87465 2.85773 6.25644L2.51811 6.59605L4.52344 8.02848ZM4.33229 9.80646C4.47051 9.64364 4.6644 9.44863 4.95133 9.16166C4.95911 9.1547 4.96674 9.1475 4.97419 9.14004L7.25331 6.85968L11.0214 3.09153C11.4218 2.69114 11.5609 2.55705 11.7151 2.4626C11.8632 2.37181 12.0247 2.30492 12.1937 2.26435C12.3695 2.22215 12.5626 2.21861 13.1289 2.21861L15.733 2.21861C16.0512 2.21861 16.2566 2.21903 16.413 2.23181C16.563 2.24406 16.6185 2.26486 16.6458 2.27876C16.7497 2.33167 16.8341 2.41611 16.887 2.51996C16.9009 2.54725 16.9217 2.60284 16.934 2.75277C16.9468 2.90915 16.9472 3.11461 16.9472 3.43282V6.0369C16.9472 6.60315 16.9436 6.79632 16.9014 6.9721C16.8609 7.14105 16.794 7.30256 16.7032 7.4507C16.6087 7.60484 16.4747 7.74394 16.0743 8.14434L10.024 14.1946C9.7261 14.4925 9.52587 14.6921 9.35933 14.8335C9.19772 14.9707 9.10449 15.0203 9.03335 15.0435C8.84861 15.1035 8.6496 15.1035 8.46485 15.0435C8.39371 15.0203 8.30049 14.9707 8.13887 14.8335C7.97233 14.6921 7.7721 14.4925 7.47424 14.1946L6.61332 13.3337L7.89007 12.057C8.1056 11.8414 8.1056 11.492 7.89007 11.2764C7.67453 11.0609 7.32507 11.0609 7.10954 11.2764L5.83279 12.5532L4.97116 11.6916C4.6733 11.3937 4.47367 11.1935 4.33229 11.0269C4.19509 10.8653 4.14545 10.7721 4.12234 10.7009C4.06231 10.5162 4.06231 10.3172 4.12234 10.1324C4.14545 10.0613 4.19509 9.96807 4.33229 9.80646ZM12.5712 16.6491L11.1383 14.6429L13.2626 12.5176C13.558 12.9311 13.7651 13.2227 13.9123 13.4655C14.0616 13.7118 14.1277 13.8738 14.1567 14.0182C14.2184 14.3245 14.1922 14.642 14.0811 14.934C14.0287 15.0717 13.937 15.2206 13.7493 15.439C13.557 15.6628 13.2925 15.9278 12.9107 16.3096L12.5712 16.6491ZM10.554 7.50001C10.554 6.88435 11.0531 6.38526 11.6687 6.38526C12.2844 6.38526 12.7835 6.88435 12.7835 7.50001C12.7835 8.11566 12.2844 8.61475 11.6688 8.61475C11.0531 8.61476 10.554 8.11567 10.554 7.50001ZM11.6687 5.28142C10.4435 5.28142 9.45016 6.27472 9.45016 7.50001C9.45017 8.7253 10.4435 9.71859 11.6688 9.71859C12.894 9.71859 13.8873 8.7253 13.8873 7.50001C13.8873 6.27472 12.894 5.28142 11.6687 5.28142Z" fill="white"/>
</svg>
