<svg width="18" height="22" viewBox="0 0 18 22" fill="none" xmlns="http://www.w3.org/2000/svg">
<path d="M10.6959 3.49648C10.8084 3.38604 10.8716 3.23626 10.8716 3.08009C10.8716 2.92392 10.8084 2.77414 10.6959 2.66369L8.15114 0.165328C8.038 0.0580442 7.88646 -0.00131963 7.72917 2.22642e-05C7.57188 0.00136416 7.42142 0.0633044 7.31019 0.172502C7.19897 0.2817 7.13588 0.429419 7.13451 0.583842C7.13314 0.738265 7.19361 0.887038 7.30289 0.998117L8.49908 2.1725C6.65483 2.27314 4.8868 2.92854 3.43504 4.04971C1.98328 5.17089 0.918114 6.70351 0.38417 8.43951C-0.149775 10.1755 -0.126633 12.0308 0.450453 13.7534C1.02754 15.476 2.13061 16.9826 3.6099 18.0685C3.73719 18.1622 3.89718 18.2025 4.05468 18.1804C4.21219 18.1583 4.3543 18.0757 4.44976 17.9507C4.54523 17.8258 4.58622 17.6687 4.56371 17.5141C4.54121 17.3594 4.45707 17.2199 4.32978 17.1262C2.90203 16.0784 1.88299 14.582 1.44239 12.8862C1.00179 11.1904 1.16622 9.39763 1.9083 7.80641C2.65037 6.21519 3.92529 4.92158 5.52075 4.14101C7.1162 3.36045 8.93587 3.14004 10.6767 3.51651L10.6959 3.49648ZM7.30289 18.489L7.32208 18.4702C7.8116 18.5762 8.31911 18.6351 8.83863 18.6469L8.83143 18.654C8.86086 18.6502 8.89054 18.6487 8.92021 18.6492C10.5649 18.666 12.1729 18.1718 13.5143 17.2373C14.8557 16.3028 15.8618 14.9758 16.3888 13.4461C16.9158 11.9164 16.9366 10.2623 16.4483 8.7203C15.96 7.17828 14.9877 5.8273 13.6702 4.86052C13.6072 4.81411 13.5541 4.75597 13.514 4.68942C13.4738 4.62287 13.4474 4.5492 13.4363 4.47264C13.4251 4.39607 13.4295 4.3181 13.449 4.24318C13.4686 4.16825 13.503 4.09785 13.5502 4.03597C13.5975 3.9741 13.6567 3.92197 13.7245 3.88256C13.7923 3.84316 13.8673 3.81724 13.9453 3.80631C14.0233 3.79537 14.1027 3.79962 14.179 3.81881C14.2554 3.83801 14.3271 3.87177 14.3901 3.91818C15.8694 5.00411 16.9725 6.51067 17.5495 8.2333C18.1266 9.95594 18.1498 11.8112 17.6158 13.5472C17.0819 15.2832 16.0167 16.8158 14.565 17.937C13.1132 19.0582 11.3452 19.7136 9.50092 19.8142L10.6959 20.9874C10.7532 21.0417 10.7989 21.1067 10.8304 21.1786C10.8618 21.2504 10.8783 21.3277 10.879 21.4059C10.8797 21.4841 10.8645 21.5617 10.8344 21.6341C10.8042 21.7064 10.7597 21.7722 10.7034 21.8275C10.647 21.8828 10.58 21.9265 10.5063 21.9561C10.4326 21.9858 10.3536 22.0007 10.2739 22C10.1943 21.9993 10.1156 21.9831 10.0424 21.9522C9.96919 21.9213 9.903 21.8765 9.84766 21.8202L7.30289 19.323C7.24702 19.2683 7.20269 19.2033 7.17245 19.1318C7.14221 19.0602 7.12664 18.9835 7.12664 18.906C7.12664 18.8286 7.14221 18.7518 7.17245 18.6803C7.20269 18.6087 7.24702 18.5438 7.30289 18.489ZM11.8237 8.8089C11.8796 8.86361 11.9239 8.9286 11.9542 9.00015C11.9844 9.07171 12 9.14841 12 9.22588C12 9.30335 11.9844 9.38006 11.9542 9.45161C11.9239 9.52317 11.8796 9.58816 11.8237 9.64287L8.22433 13.1766C8.1686 13.2315 8.1024 13.275 8.02952 13.3047C7.95664 13.3344 7.87851 13.3497 7.7996 13.3497C7.72069 13.3497 7.64256 13.3344 7.56968 13.3047C7.4968 13.275 7.4306 13.2315 7.37487 13.1766L5.57517 11.4097C5.46253 11.2992 5.39925 11.1492 5.39925 10.9928C5.39925 10.8364 5.46253 10.6864 5.57517 10.5758C5.68782 10.4652 5.8406 10.4031 5.9999 10.4031C6.15921 10.4031 6.31199 10.4652 6.42463 10.5758L7.7996 11.9269L10.9743 8.8089C11.03 8.75405 11.0962 8.71054 11.1691 8.68085C11.242 8.65115 11.3201 8.63587 11.399 8.63587C11.4779 8.63587 11.556 8.65115 11.6289 8.68085C11.7018 8.71054 11.768 8.75405 11.8237 8.8089ZM3.00041 10.9939C3.00041 9.43192 3.63244 7.93388 4.75747 6.82937C5.8825 5.72485 7.40837 5.10434 8.9994 5.10434C10.5904 5.10434 12.1163 5.72485 13.2413 6.82937C14.3664 7.93388 14.9984 9.43192 14.9984 10.9939C14.9984 12.556 14.3664 14.054 13.2413 15.1585C12.1163 16.263 10.5904 16.8835 8.9994 16.8835C7.40837 16.8835 5.8825 16.263 4.75747 15.1585C3.63244 14.054 3.00041 12.556 3.00041 10.9939ZM8.9994 6.28226C7.72657 6.28226 6.50588 6.77867 5.60586 7.66228C4.70583 8.54589 4.20021 9.74433 4.20021 10.9939C4.20021 12.2436 4.70583 13.442 5.60586 14.3256C6.50588 15.2092 7.72657 15.7056 8.9994 15.7056C10.2722 15.7056 11.4929 15.2092 12.3929 14.3256C13.293 13.442 13.7986 12.2436 13.7986 10.9939C13.7986 9.74433 13.293 8.54589 12.3929 7.66228C11.4929 6.77867 10.2722 6.28226 8.9994 6.28226Z" fill="white"/>
</svg>
