<svg width="18" height="17" viewBox="0 0 18 17" fill="none" xmlns="http://www.w3.org/2000/svg">
<path d="M1.23741 7.31846C6.06923 4.91938 9.29121 3.33777 10.9033 2.57361C15.5063 0.391777 16.4627 0.0127698 17.0861 0.000121329C17.2232 -0.00249777 17.5298 0.0362269 17.7284 0.219862C17.8961 0.37492 17.9422 0.584381 17.9643 0.731393C17.9864 0.878405 18.0139 1.2133 17.992 1.47498C17.7426 4.46174 16.6633 11.7098 16.1142 15.055C15.8818 16.4705 15.4244 16.9451 14.9815 16.9916C14.0189 17.0925 13.288 16.2667 12.3558 15.5702C10.897 14.4805 10.0729 13.8021 8.65691 12.7387C7.02048 11.5097 8.08131 10.8343 9.0139 9.73042C9.25797 9.44153 13.4988 5.04555 13.5809 4.64677C13.5912 4.59689 13.6007 4.41098 13.5038 4.31282C13.4069 4.21465 13.2639 4.24822 13.1606 4.27492C13.0143 4.31276 10.6839 6.06814 6.16938 9.54106C5.5079 10.0587 4.90875 10.3109 4.37193 10.2977C3.78013 10.2831 2.64175 9.91637 1.79548 9.60288C0.757494 9.21836 -0.0674757 9.01506 0.00436067 8.36203C0.0417775 8.02189 0.452793 7.67404 1.23741 7.31846Z" fill="white"/>
</svg>
