<svg width="24" height="18" viewBox="0 0 24 18" fill="none" xmlns="http://www.w3.org/2000/svg">
<path d="M0.0105417 9.5312C0.0206383 9.76672 0.0206383 10.0023 0.0307349 10.2275C0.050928 10.7191 0.313439 11.0673 0.777881 11.2106C1.63609 11.4666 2.31256 12.0196 2.89816 12.9412C3.47366 13.8526 3.6756 14.7845 3.50395 15.7778C3.42318 16.2181 3.60492 16.6073 4.00878 16.8326C4.66506 17.2012 5.22037 17.5084 5.78578 17.8156C5.94732 17.8976 6.09877 17.9488 6.27041 17.9488C6.43196 17.9488 6.5935 17.9078 6.75505 17.8156C6.84592 17.7644 6.92669 17.6928 6.99737 17.6006C7.13872 17.4368 7.32046 17.2934 7.51229 17.1705C8.13828 16.7814 9.05707 16.5766 9.95566 16.6278C10.8745 16.679 11.662 16.9759 12.1264 17.4265C12.3485 17.6518 12.5909 17.7644 12.8736 17.7644C13.0755 17.7644 13.2774 17.703 13.4996 17.5596C13.7318 17.4163 13.964 17.2729 14.1356 17.1603L14.2568 17.0886C14.4486 16.9759 14.7313 16.7916 15.0342 16.6073C15.3169 16.4332 15.7511 16.0338 15.529 15.317C15.3371 14.6821 15.4381 13.8424 15.8117 12.9924C16.1852 12.1425 16.7607 11.4257 17.3968 11.0365C17.5988 10.9136 17.8007 10.8215 18.0127 10.76C18.4267 10.6474 18.5983 10.3914 18.6791 10.1866C18.7296 10.0535 18.7599 9.89985 18.7498 9.75648C18.7397 9.06014 18.7195 8.3638 18.6993 7.70841C18.6892 7.2476 18.4368 6.89943 18.0127 6.77654C17.0536 6.47957 16.3266 5.87539 15.7915 4.94352C15.2463 3.98092 15.0645 3.12073 15.2261 2.22982C15.3169 1.74853 15.1251 1.34915 14.701 1.11362C14.4991 1.00098 14.2972 0.888336 14.0953 0.785933L13.9741 0.71425C13.6712 0.550405 13.3279 0.366079 13.0048 0.181752C12.601 -0.053776 12.187 0.0281467 11.9447 0.191992C11.874 0.232954 11.8033 0.294396 11.7226 0.366078L11.6418 0.437761C11.4802 0.570886 11.3187 0.71425 11.1572 0.816654C11.0865 0.857615 11.0259 0.888336 10.9552 0.919057C10.2081 1.22627 9.50132 1.37987 8.86523 1.36963C8.01712 1.35939 7.24978 1.06242 6.53293 0.468482C6.14926 0.151031 5.70501 0.13055 5.29105 0.396799C4.74583 0.744972 4.20062 1.0829 3.6655 1.41059C3.24144 1.6666 3.0799 2.05574 3.19096 2.55751C3.52415 4.15501 3.01932 5.48626 1.58561 6.75606C1.53512 6.80726 1.47454 6.84822 1.40387 6.88918C1.22213 7.00183 1.00001 7.09399 0.777881 7.18615L0.737495 7.20664C0.656722 7.23736 0.565853 7.27832 0.495177 7.32952C0.151894 7.54457 -0.00965139 7.87226 0.00044518 8.28187C0.0105418 8.66077 0.0206383 9.06014 0.0307349 9.40831L0.0105417 9.5312ZM0.979812 8.15899C1.00001 8.14875 1.0303 8.12827 1.08078 8.10779L1.13126 8.08731C1.38368 7.9849 1.64619 7.87226 1.8885 7.72889C1.99957 7.65721 2.11063 7.58553 2.2015 7.49337C3.88762 6.00851 4.5338 4.26765 4.11985 2.34247C4.10975 2.30151 4.10975 2.28102 4.10975 2.27078C4.11985 2.26054 4.12994 2.2503 4.15014 2.24006C4.69535 1.91237 5.25066 1.57444 5.79588 1.21603C5.82617 1.19555 5.84636 1.18531 5.84636 1.18531C5.85646 1.18531 5.87665 1.19555 5.90694 1.22627C6.80553 1.96357 7.76471 2.33223 8.83494 2.34247C9.59219 2.35271 10.4302 2.17862 11.2985 1.83045C11.4096 1.78949 11.5307 1.72805 11.6519 1.65636C11.8841 1.513 12.086 1.33891 12.2577 1.18531L12.3687 1.09314C12.399 1.07266 12.4293 1.04194 12.4495 1.0317C12.4697 1.02146 12.5 1.02146 12.5303 1.04194C12.8635 1.22627 13.2068 1.42083 13.5097 1.58468L13.6308 1.65636C13.8327 1.76901 14.0347 1.87141 14.2265 1.98405C14.2467 1.99429 14.2669 2.00454 14.2669 2.00454C14.2669 2.01478 14.2669 2.02502 14.2669 2.05574C14.0549 3.19242 14.277 4.26765 14.9434 5.44529C15.5996 6.60246 16.5083 7.33976 17.7199 7.72889C17.7199 7.72889 17.7199 7.73913 17.7199 7.74937V7.75961C17.7401 8.40476 17.7704 9.09086 17.7704 9.79745C17.7704 9.80769 17.7704 9.80769 17.7704 9.81793H17.7603C17.4574 9.89985 17.1646 10.0227 16.892 10.2071C16.0843 10.7088 15.3674 11.5793 14.9232 12.6135C14.4587 13.6785 14.3477 14.7743 14.6102 15.6344C14.6304 15.6857 14.6304 15.7164 14.6304 15.7164C14.6304 15.7164 14.6102 15.7471 14.5496 15.7881C14.2467 15.9724 13.9539 16.1567 13.7621 16.2694L13.6409 16.341C13.4592 16.4537 13.227 16.597 12.9947 16.7404C12.9241 16.7814 12.8938 16.7916 12.8837 16.7916C12.8837 16.7916 12.8635 16.7814 12.813 16.7404C12.187 16.1157 11.1673 15.7164 10.0162 15.6549C8.90562 15.5935 7.81519 15.8495 7.01756 16.341C6.74495 16.5151 6.50264 16.7199 6.29061 16.9555L6.28051 16.9657C6.27041 16.9657 6.27042 16.9555 6.26032 16.9555C5.70501 16.6585 5.1497 16.3513 4.50352 15.9826C4.49342 15.9724 4.48332 15.9724 4.48332 15.9724C4.48332 15.9724 4.48332 15.9724 4.48332 15.9621C4.70545 14.7026 4.45303 13.5454 3.73618 12.419C3.00922 11.2823 2.16111 10.5962 1.08078 10.2787C1.05049 10.2685 1.0303 10.2583 1.0303 10.2583C1.0303 10.248 1.0202 10.2275 1.0202 10.1968C1.0101 9.97153 1.0101 9.736 1.00001 9.51072V9.37759C0.989909 9.02942 0.979812 8.63004 0.969716 8.23067C0.969716 8.19995 0.969716 8.17947 0.969716 8.17947L0.979812 8.15899Z" fill="white"/>
<path d="M9.2589 14.3032C9.28919 14.3032 9.30938 14.3032 9.33967 14.3032C10.2988 14.3032 11.2479 14.0369 12.0859 13.5249C14.4889 11.9888 15.2866 8.86552 13.9033 6.40784C13.1764 5.12779 12.0153 4.2164 10.6421 3.86823C10.2484 3.76583 9.8445 3.71463 9.43054 3.70439C8.46127 3.69415 7.492 3.96039 6.63379 4.49289C5.40201 5.26092 4.5539 6.4488 4.24091 7.84149C3.92791 9.24442 4.20052 10.6985 4.99815 11.9376C5.94723 13.3918 7.53239 14.2724 9.2589 14.3032ZM4.63467 7.92341C4.91738 6.63313 5.70491 5.53741 6.84582 4.82058C7.61316 4.33929 8.48147 4.09352 9.35987 4.09352C9.38006 4.09352 9.41035 4.09352 9.43054 4.09352C9.80412 4.10376 10.1878 4.15496 10.5513 4.24712C11.8234 4.57482 12.8937 5.41452 13.5701 6.60241C14.8524 8.87576 14.1154 11.7635 11.8941 13.187C11.0965 13.6683 10.1878 13.914 9.269 13.9038C7.67374 13.8833 6.20974 13.0641 5.34143 11.7226C4.59429 10.5757 4.34187 9.22394 4.63467 7.92341Z" fill="white" stroke="white" stroke-width="0.6"/>
<path d="M23.99 4.54412V4.44172C23.99 4.16523 23.7678 3.95018 23.5053 3.95018C23.2327 3.95018 23.0207 4.16523 23.0207 4.44172V4.54412C23.0207 5.31215 23.0005 10.207 23.0005 13.2382C23.0005 13.5044 22.9197 13.7502 22.8188 14.0369L22.7885 14.1393C22.5361 14.8971 22.2836 15.6447 22.0211 16.3922C21.7182 15.4706 21.4052 14.549 21.1023 13.6171C21.0822 13.5556 21.0721 13.4737 21.0721 13.3918C21.0721 10.6167 21.1023 5.87537 21.1124 4.43148C21.1124 4.15499 20.9004 3.93994 20.6278 3.93994C20.3552 3.93994 20.1432 4.15499 20.1432 4.43148C20.1331 5.87537 20.1028 10.6167 20.1028 13.3918C20.1028 13.5761 20.1331 13.7707 20.1836 13.9345C20.5571 15.0712 20.9307 16.1976 21.3043 17.3138C21.3447 17.4572 21.4052 17.5801 21.486 17.6927C21.6173 17.8873 21.8192 17.9999 22.0211 17.9999H22.0312C22.2433 17.9999 22.4452 17.8771 22.5663 17.6723C22.6471 17.5494 22.6976 17.406 22.738 17.2831L22.8894 16.8326C23.162 16.0338 23.4347 15.2453 23.6972 14.4465L23.7275 14.3441C23.8385 14.0267 23.9597 13.658 23.9597 13.2279C23.9698 10.1968 23.9799 5.31215 23.99 4.54412Z" fill="white"/>
<path d="M24 1.23652C23.9899 0.519698 23.5456 0.00768027 22.9096 0.00768027C22.324 -0.00256009 21.7485 -0.00256009 21.1729 0.00768027C20.5369 0.0179206 20.0825 0.519698 20.0825 1.24676V2.43464L20.1027 2.93642H20.5974C21.5667 2.92618 22.4855 2.92618 23.5053 2.93642H24V1.23652ZM23.0206 1.93287C22.3643 1.93287 21.7283 1.93287 21.0518 1.93287V1.24676C21.0518 1.08292 21.0922 0.990754 21.183 0.990754C21.4658 0.990754 21.7485 0.990754 22.0312 0.990754C22.0312 0.990754 22.0312 0.990754 22.0413 0.990754C22.324 0.990754 22.6067 0.990754 22.8995 0.990754C22.9802 0.990754 23.0307 1.07268 23.0307 1.23652L23.0206 1.93287Z" fill="white"/>
</svg>
