<svg width="12" height="10" viewBox="0 0 12 10" fill="none" xmlns="http://www.w3.org/2000/svg">
<path fill-rule="evenodd" clip-rule="evenodd" d="M4.88486 2.34369C4.88486 1.141 5.85985 0.166016 7.06254 0.166016C8.06293 0.166016 8.90577 0.840575 9.16102 1.75965H10.7814C11.1039 1.75965 11.3654 2.02109 11.3654 2.34358C11.3654 2.66608 11.1039 2.92751 10.7814 2.92751L9.16108 2.92751C8.90591 3.8467 8.06301 4.52137 7.06254 4.52137C5.85985 4.52137 4.88486 3.54639 4.88486 2.34369ZM7.06254 1.33387C6.50483 1.33387 6.05272 1.78599 6.05272 2.34369C6.05272 2.9014 6.50483 3.35352 7.06254 3.35352C7.62025 3.35352 8.07237 2.9014 8.07237 2.34369C8.07237 1.78599 7.62025 1.33387 7.06254 1.33387ZM0.687688 1.75965C0.365193 1.75965 0.10376 2.02109 0.10376 2.34358C0.10376 2.66608 0.365193 2.92751 0.687688 2.92751L3.87519 2.92751C4.19768 2.92751 4.45912 2.66608 4.45912 2.34358C4.45912 2.02109 4.19768 1.75965 3.87519 1.75965L0.687688 1.75965ZM0.687688 7.07204C0.365193 7.07204 0.10376 7.33347 0.10376 7.65596C0.10376 7.97846 0.365193 8.23989 0.687688 8.23989H2.30782C2.56299 9.15909 3.40588 9.83375 4.40635 9.83375C5.60905 9.83375 6.58403 8.85877 6.58403 7.65608C6.58403 6.45338 5.60905 5.4784 4.40635 5.4784C3.40596 5.4784 2.56313 6.15296 2.30788 7.07204H0.687688ZM3.39656 7.66406C3.3966 7.66136 3.39662 7.65867 3.39662 7.65596C3.39662 7.65329 3.3966 7.65062 3.39656 7.64795C3.40093 7.09398 3.85135 6.64625 4.40635 6.64625C4.96406 6.64625 5.41618 7.09837 5.41618 7.65608C5.41618 8.21378 4.96406 8.6659 4.40635 8.6659C3.85131 8.6659 3.40085 8.21809 3.39656 7.66406ZM7.59394 7.07204C7.27145 7.07204 7.01001 7.33347 7.01001 7.65596C7.01001 7.97846 7.27145 8.23989 7.59394 8.23989L10.7814 8.23989C11.1039 8.23989 11.3654 7.97846 11.3654 7.65596C11.3654 7.33347 11.1039 7.07204 10.7814 7.07204H7.59394Z" fill="#4B4B4B"/>
</svg>
