<svg width="20" height="20" viewBox="0 0 20 20" fill="none" xmlns="http://www.w3.org/2000/svg">
<path fill-rule="evenodd" clip-rule="evenodd" d="M17.0837 2.90577C15.2047 1.03265 12.7023 -2.44283e-09 10.0395 -1.93074e-09C4.55116 -8.75251e-10 0.083721 4.44547 0.0813954 9.9097C0.0813954 11.6555 0.539535 13.3619 1.41163 14.8646L3.84627e-09 20L5.27907 18.6224C6.73256 19.4119 8.37209 19.8287 10.0372 19.8287L10.0419 19.8287C15.5302 19.8287 19.9977 15.3832 20 9.91665C20 7.26789 18.9651 4.77888 17.086 2.90577L17.0837 2.90577ZM10.0395 18.1547L10.0372 18.1547C8.55116 18.1547 7.09535 17.7564 5.82558 17.0063L5.52326 16.828L2.3907 17.6453L3.22791 14.6052L3.03023 14.2927C2.20233 12.9822 1.76512 11.4656 1.76512 9.9097C1.76512 5.36698 5.47907 1.67168 10.0465 1.67168C12.2581 1.67168 14.3349 2.53068 15.8977 4.08659C17.4605 5.64482 18.3209 7.71243 18.3186 9.91433C18.3186 14.457 14.6047 18.1523 10.0419 18.1523L10.0395 18.1547ZM14.5791 11.9843C14.3302 11.8592 13.107 11.2619 12.8791 11.1785C12.6512 11.0952 12.486 11.0535 12.3186 11.3035C12.1535 11.5513 11.6767 12.1093 11.5302 12.2737C11.386 12.4381 11.2395 12.4589 10.9907 12.3362C10.7419 12.2112 9.93954 11.9518 8.9907 11.1067C8.25116 10.4492 7.75116 9.6388 7.60698 9.39106C7.46279 9.14332 7.5907 9.00903 7.71628 8.88632C7.82791 8.77518 7.96512 8.5969 8.08837 8.45335C8.21163 8.30979 8.25349 8.2056 8.33721 8.04121C8.42093 7.87682 8.37907 7.73096 8.31628 7.60824C8.25349 7.48321 7.75581 6.26534 7.54884 5.76985C7.34651 5.28595 7.14186 5.35309 6.98837 5.34383C6.84419 5.33688 6.67674 5.33457 6.51163 5.33457C6.34651 5.33457 6.07674 5.39708 5.84884 5.64482C5.62093 5.89257 4.97907 6.49224 4.97907 7.71012C4.97907 8.92799 5.86977 10.1065 5.99535 10.2709C6.11861 10.4353 7.74884 12.9382 10.2465 14.0102C10.8395 14.2649 11.3047 14.4177 11.6651 14.5311C12.2605 14.7187 12.8047 14.6932 13.2326 14.6284C13.7116 14.5566 14.7047 14.0287 14.9116 13.4499C15.1186 12.871 15.1186 12.3755 15.0558 12.2714C14.993 12.1672 14.8279 12.107 14.5791 11.9819L14.5791 11.9843Z" fill="white"/>
</svg>
