<?xml version="1.0" encoding="utf-8"?><svg xmlns="http://www.w3.org/2000/svg" xmlns:xlink="http://www.w3.org/1999/xlink"><symbol viewBox="-2 -2 24 24" id="icon-Cart" xmlns="http://www.w3.org/2000/svg"><path d="M13.765 16.951c.78 0 1.411-.63 1.411-1.406 0-.777-.632-1.406-1.411-1.406-.78 0-1.412.63-1.412 1.406a1.41 1.41 0 001.412 1.406zm-4.706 0c.78 0 1.412-.63 1.412-1.406a1.41 1.41 0 00-1.412-1.406c-.78 0-1.412.63-1.412 1.406a1.41 1.41 0 001.412 1.406zm6.306-4.687H7.74L5.765 5.7h11.294l-1.694 6.563z"/><path fill-rule="evenodd" clip-rule="evenodd" d="M1.998 2.938A.94.94 0 012.94 2H4c.78 0 1.485.503 1.714 1.262L6.332 5H17.06c.294 0 .571.137.75.37a.934.934 0 01.156.819l-1.467 5.513a2.068 2.068 0 01-1.996 1.499H8.304a2.067 2.067 0 01-1.985-1.46L3.933 4H2.94C2.42 4 2 3.455 2 2.937zm4.899 4.197l1.225 4.068a.186.186 0 00.182.123h6.198a.186.186 0 00.183-.127l1.135-4.064H6.897z"/></symbol><symbol viewBox="-2 -2 24 24" id="icon-Catalog" xmlns="http://www.w3.org/2000/svg"><path d="M3 12a1 1 0 112 0v2.177a.824.824 0 01-.824.823h-.352A.824.824 0 013 14.177V12zm6-6a1 1 0 012 0v8.177a.824.824 0 01-.823.823h-.353A.824.824 0 019 14.177V6zm3 0a1 1 0 112 0v8.177a.824.824 0 01-.823.823h-.354a.824.824 0 01-.823-.823V6zM6 6a1 1 0 012 0v8.177a.824.824 0 01-.824.823h-.352A.824.824 0 016 14.177V6zm9 6a1 1 0 112 0v2.177a.824.824 0 01-.823.823h-.354a.824.824 0 01-.823-.823V12z"/></symbol><symbol viewBox="-2 -2 24 24" id="icon-Mail" xmlns="http://www.w3.org/2000/svg"><path fill-rule="evenodd" clip-rule="evenodd" d="M10 9.182c-1.138 0-7-2.605-7-2.605V6.09C3 5.489 3.522 5 4.166 5h11.667C16.478 5 17 5.489 17 6.09l-.01.546S11.193 9.182 10 9.182zm0 1.5c1.247 0 6.99-2.41 6.99-2.41L17 13.91c0 .602-.522 1.091-1.167 1.091H4.166C3.523 15 3 14.511 3 13.91l.01-5.637s5.852 2.409 6.99 2.409z"/></symbol><symbol viewBox="-2 -2 29 29" id="icon-New" xmlns="http://www.w3.org/2000/svg"><path d="M19.803 9.873c-.447-.735-1.42-1.712-2.16-2.407-.15-.14-.307-.137-.405-.07-.206.118-.149.325-.149.325l-.012-.007c.398.76.655 1.637.684 2.78a11.49 11.49 0 01-.032 1.064 4.24 4.24 0 01-.05.252c-.05.253-.386.999-.862.794-.476-.204-.505-.988-.505-.988l-.007.002c-.365-4.35-2.32-6.927-3.818-8.279l-.005-.004-.005-.005a9.082 9.082 0 00-1.441-1.07 1.22 1.22 0 01-.119-.067c-.076-.051-.135-.074-.2-.105.002 0 .002.002.002.002-.043-.022-.087-.04-.13-.061-.285-.09-.426.043-.496.205-.002.014-.059.34.162 1v.002c.607 1.688 1.346 4.675.57 7.877-.145.533-.618.925-.811.925-.686.072-1.003-.445-1.128-.743-.022-.063-.05-.121-.07-.19l-.002-.011c-.41-1.505.093-3.755.445-5.01.236-.929-.874 0-.874 0l-.004.003c-.219.189-.454.403-.701.64l-.002-.01a21.75 21.75 0 00-1.152 1.169c-.23.253-3.299 3.718-2.342 8.45C5.104 20.161 8.455 23 12.466 23c4.35 0 7.931-3.336 8.472-7.649.02-.174.04-.347.048-.52.004-.054.005-.11.008-.167.075-1.984-.556-3.642-1.19-4.79z"/></symbol><symbol viewBox="-2 -2 24 24" id="icon-Search" xmlns="http://www.w3.org/2000/svg"><path d="M16.738 15.512l-2.717-2.716a6.095 6.095 0 001.229-3.671 6.125 6.125 0 10-6.125 6.125 6.09 6.09 0 003.67-1.23l2.717 2.718a.794.794 0 00.613.262.874.874 0 00.875-.875.81.81 0 00-.262-.613zM4.75 9.125a4.374 4.374 0 118.75 0 4.374 4.374 0 11-8.75 0z"/></symbol><symbol viewBox="-2 -2 29 29" id="icon-bookmark" xmlns="http://www.w3.org/2000/svg"><path fill-rule="evenodd" clip-rule="evenodd" d="M8.571 5h7.858C17.293 5 18 5.742 18 6.667V7H7v-.333c0-.442.166-.866.46-1.179A1.527 1.527 0 018.571 5zM7 8v10.036a1 1 0 001.588.809l3.324-2.417a1 1 0 011.176 0l3.324 2.417A1 1 0 0018 18.036V8H7z"/></symbol><symbol viewBox="-2 -2 29 29" id="icon-calendar" xmlns="http://www.w3.org/2000/svg"><path d="M17.188 5h-1.875v1.875h1.874V5zm1.875 0h-.938v2.813h-3.75V5h-3.75v2.813h-3.75V5h-.938A.937.937 0 005 5.938v13.125c0 .518.42.937.938.937h13.125c.518 0 .937-.42.937-.938V5.938A.937.937 0 0019.062 5zm-.938 13.125H6.875V9.687h11.25v8.438zM9.687 5H7.813v1.875h1.875V5zm3.75 6.563h-1.874v1.874h1.874v-1.874zm2.813 0h-1.875v1.874h1.875v-1.874zm-5.625 2.812H8.75v1.875h1.875v-1.875zm0-2.813H8.75v1.876h1.875v-1.876zm2.813 2.813h-1.876v1.875h1.876v-1.875zm2.812 0h-1.875v1.875h1.875v-1.875z"/></symbol><symbol viewBox="-2 -2 24 24" id="icon-clock" xmlns="http://www.w3.org/2000/svg"><path fill-rule="evenodd" clip-rule="evenodd" d="M10 3c-3.85 0-7 3.15-7 7s3.15 7 7 7 7-3.15 7-7-3.15-7-7-7zm0 12.6c-3.08 0-5.6-2.52-5.6-5.6 0-3.08 2.52-5.6 5.6-5.6 3.08 0 5.6 2.52 5.6 5.6 0 3.08-2.52 5.6-5.6 5.6zm.35-9.1H9.3v4.2l3.64 2.24.56-.91-3.15-1.89V6.5z"/></symbol><symbol viewBox="-2 -2 24 24" id="icon-close" xmlns="http://www.w3.org/2000/svg"><path d="M17 4.41L15.59 3 10 8.59 4.41 3 3 4.41 8.59 10 3 15.59 4.41 17 10 11.41 15.59 17 17 15.59 11.41 10 17 4.41z"/></symbol><symbol viewBox="-2 -2 24 24" id="icon-delete" xmlns="http://www.w3.org/2000/svg"><path d="M6 5.5A2.5 2.5 0 018.5 3h3a2.5 2.5 0 010 5h-3A2.5 2.5 0 016 5.5z"/><path fill-rule="evenodd" clip-rule="evenodd" d="M4 5a1 1 0 000 2h1v8a2 2 0 002 2h6a2 2 0 002-2V7h1a1 1 0 100-2H4zm4 3a1 1 0 00-1 1v5a1 1 0 102 0V9a1 1 0 00-1-1zm4 0a1 1 0 00-1 1v5a1 1 0 102 0V9a1 1 0 00-1-1z"/></symbol><symbol viewBox="-2 -2 26 22" id="icon-di" xmlns="http://www.w3.org/2000/svg"><path d="M20.29 4.269c-.822-1.357-1.978-2.407-3.467-3.15C15.333.374 13.62 0 11.686 0H2.183A1.829 1.829 0 00.888.545a1.86 1.86 0 00-.535 1.307v1.562h3.563l3.793.006h3.774c1.785 0 3.213.501 4.27 1.505C16.812 5.928 17.348 7.284 17.348 9c0 1.716-.53 3.073-1.594 4.075-1.065 1.003-2.487 1.505-4.271 1.505H6.968v-4.294H5.363a1.79 1.79 0 00-1.19.453c-.33.293-.541.696-.595 1.134V18h8.11c1.937 0 3.65-.373 5.137-1.119 1.486-.746 2.642-1.796 3.468-3.15.828-1.356 1.236-2.932 1.236-4.733 0-1.8-.41-3.373-1.238-4.73z"/><path d="M6.951 7.524a1.694 1.694 0 00-1.033-1.559 1.659 1.659 0 00-1.823.367 1.7 1.7 0 00.256 2.596 1.662 1.662 0 002.111-.212c.314-.318.49-.746.489-1.192z"/></symbol><symbol viewBox="-2 -2 19 19" id="icon-down" xmlns="http://www.w3.org/2000/svg"><path fill-rule="evenodd" clip-rule="evenodd" d="M5.783 5.933L3.59 8.403a1 1 0 000 1.328l.379.427a1 1 0 001.495 0l1.288-1.45a1 1 0 011.496 0l1.288 1.45a1 1 0 001.495 0l.38-.427a1 1 0 000-1.328l-2.194-2.47-.97-1.091a1 1 0 00-1.495 0l-.969 1.091z"/></symbol><symbol viewBox="-2 -2 29 29" id="icon-home" xmlns="http://www.w3.org/2000/svg"><path d="M10.8 20v-5.865h3.4V20h4.25v-7.526H21L12.5 5 4 12.474h2.55V20h4.25z"/></symbol><symbol viewBox="-2 -2 24 24" id="icon-icon" xmlns="http://www.w3.org/2000/svg"><path d="M10 9.65c-.474 0-.928-.184-1.263-.513A1.732 1.732 0 018.214 7.9c0-.464.188-.91.523-1.237.335-.329.79-.513 1.263-.513.474 0 .928.184 1.263.513a1.732 1.732 0 01.387 1.907 1.75 1.75 0 01-.387.567A1.789 1.789 0 0110 9.65zM10 3a5.052 5.052 0 00-3.536 1.435A4.85 4.85 0 005 7.9c0 3.675 5 9.1 5 9.1s5-5.425 5-9.1a4.85 4.85 0 00-1.464-3.465A5.052 5.052 0 0010 3z"/></symbol><symbol viewBox="-2 -2 19 19" id="icon-minus" xmlns="http://www.w3.org/2000/svg"><rect x="2" y="6" width="11" height="3" rx="1.5"/></symbol><symbol viewBox="-2 -2 24 24" id="icon-phone" xmlns="http://www.w3.org/2000/svg"><path d="M8.925 11.075c1.386 1.385 2.99 2.71 3.624 2.075.908-.907 1.468-1.698 3.47-.09 2.001 1.61.464 2.682-.416 3.562-1.015 1.015-4.799.053-8.539-3.686-3.739-3.74-4.701-7.524-3.685-8.54.88-.88 1.952-2.416 3.56-.414 1.61 2 .819 2.56-.09 3.469-.633.634.69 2.238 2.076 3.624z"/></symbol><symbol viewBox="-2 -2 19 19" id="icon-plus" xmlns="http://www.w3.org/2000/svg"><path fill-rule="evenodd" clip-rule="evenodd" d="M5.286 6.286a1 1 0 001-1V3.35a1 1 0 011-1h.428a1 1 0 011 1v1.936a1 1 0 001 1h1.936a1 1 0 011 1v.428a1 1 0 01-1 1H9.714a1 1 0 00-1 1v1.936a1 1 0 01-1 1h-.428a1 1 0 01-1-1V9.714a1 1 0 00-1-1H3.35a1 1 0 01-1-1v-.428a1 1 0 011-1h1.936z"/></symbol><symbol viewBox="-2 -2 19 19" id="icon-right" xmlns="http://www.w3.org/2000/svg"><path fill-rule="evenodd" clip-rule="evenodd" d="M8.343 5.783L6.376 3.746a1 1 0 00-1.439 0l-.267.276a1 1 0 000 1.39l1.346 1.394a1 1 0 010 1.388L4.67 9.59a1 1 0 000 1.389l.267.277a1 1 0 001.44 0l1.966-2.038.987-1.023a1 1 0 000-1.388l-.987-1.023z"/></symbol><symbol viewBox="-2 -2 29 29" id="icon-star" xmlns="http://www.w3.org/2000/svg"><path d="M11.984 17.777a1 1 0 011.032 0l3.326 2.002c.758.456 1.691-.224 1.49-1.085l-.881-3.765a1 1 0 01.32-.985l2.935-2.535c.67-.579.313-1.677-.568-1.753l-3.87-.333a1 1 0 01-.834-.605L13.42 5.162c-.345-.811-1.495-.811-1.84 0l-1.514 3.556a1 1 0 01-.834.605l-3.873.333c-.88.076-1.237 1.174-.569 1.752l2.931 2.537a1 1 0 01.32.983l-.877 3.77c-.2.86.733 1.539 1.49 1.083l3.33-2.004z"/></symbol><symbol viewBox="-2 -2 29 29" id="icon-tag" xmlns="http://www.w3.org/2000/svg"><path d="M8.45 9.5a1.05 1.05 0 110-2.1 1.05 1.05 0 010 2.1zm11.137 3.206l-6.3-6.3A1.391 1.391 0 0012.3 6H7.4C6.623 6 6 6.623 6 7.4v4.9c0 .385.154.735.413.987l6.293 6.3c.259.252.609.413.994.413s.735-.161.987-.413l4.9-4.9c.259-.252.413-.602.413-.987 0-.392-.161-.742-.413-.994z"/></symbol></svg>