<svg width="84" height="48" viewBox="0 0 84 48" fill="none" xmlns="http://www.w3.org/2000/svg">
<path fill-rule="evenodd" clip-rule="evenodd" d="M67.2314 13.688C64.2841 13.6985 61.396 14.5455 58.8809 16.1369C56.3659 17.7284 54.3201 20.0034 52.966 22.7147C51.6115 20.0035 49.5655 17.7285 47.0504 16.1371C44.5352 14.5456 41.647 13.6986 38.6997 13.688C35.1528 13.6806 31.7066 14.9094 28.9157 17.1765C26.5159 19.1207 24.6779 21.7103 23.6022 24.6627C22.4586 23.095 21.0234 21.7806 19.3812 20.797C17.3028 19.5529 14.9453 18.8962 12.5448 18.8925C10.5375 18.8923 8.55556 19.3561 6.7434 20.2502L7.50533 16.3987H20.3506L21.1699 12.3595H4.67519L1.96338 25.9138L5.33788 25.9223L5.52907 25.7262C6.53519 24.6872 7.74488 23.884 9.07645 23.3708C10.408 22.8576 11.8304 22.6464 13.2475 22.7515C15.8708 22.9915 18.3055 24.264 20.0503 26.3071C21.7951 28.3502 22.7173 31.0084 22.627 33.7344C22.5367 36.4605 21.4408 39.0469 19.565 40.9614C17.6891 42.8758 15.176 43.9725 12.543 44.0258C10.7355 44.017 8.96353 43.5047 7.41299 42.5426C5.86245 41.5804 4.59042 40.2039 3.73029 38.5573L0.571533 40.443C1.74304 42.6759 3.47211 44.542 5.57802 45.8461C7.68393 47.1502 10.0894 47.8446 12.543 47.8566C15.1319 47.8339 17.6641 47.0685 19.8584 45.6453C22.0527 44.2221 23.8231 42.1968 24.9732 39.7943C26.4417 42.3335 28.5395 44.4194 31.0489 45.8356C33.5583 47.2518 36.3879 47.9467 39.244 47.8481C42.1002 47.7496 44.8789 46.8613 47.2917 45.2754C49.7046 43.6894 51.6638 41.4636 52.966 38.8288C54.3201 41.5403 56.3658 43.8155 58.8809 45.4071C61.3959 46.9987 64.284 47.8459 67.2314 47.8566C71.5541 47.7751 75.6731 45.9393 78.7023 42.7443C81.7315 39.5492 83.4287 35.2502 83.4287 30.7723C83.4287 26.2943 81.7315 21.9953 78.7023 18.8003C75.6731 15.6052 71.5541 13.7695 67.2314 13.688ZM39.8312 43.7646C37.2484 44.0584 34.6412 43.5177 32.3667 42.2168C30.0923 40.9159 28.2618 38.9184 27.1262 36.4979C25.9906 34.0774 25.6055 31.3524 26.0235 28.6964C26.4415 26.0403 27.6423 23.5831 29.4613 21.6615C31.2803 19.7399 33.6285 18.4479 36.1841 17.9625C38.7398 17.4771 41.3778 17.8221 43.7367 18.9502C46.0957 20.0783 48.0601 21.9343 49.3608 24.2639C50.6616 26.5935 51.2349 29.2828 51.0024 31.9631C50.762 34.9717 49.5132 37.7984 47.4724 39.9537C45.4315 42.109 42.7271 43.4572 39.8275 43.7646H39.8312ZM68.362 43.7646C65.7794 44.0574 63.1725 43.5159 60.8986 42.2143C58.6247 40.9128 56.7949 38.9149 55.6601 36.4943C54.5252 34.0737 54.1407 31.3489 54.5592 28.6931C54.9778 26.0374 56.1789 23.5806 57.9981 21.6595C59.8172 19.7383 62.1654 18.4467 64.7208 17.9617C67.2763 17.4767 69.9141 17.8219 72.2728 18.95C74.6314 20.0782 76.5956 21.9342 77.8962 24.2636C79.1968 26.593 79.7702 29.282 79.5378 31.9621C79.2974 34.9716 78.0481 37.7992 76.0062 39.9548C73.9644 42.1104 71.2588 43.4582 68.3583 43.7646H68.362ZM29.5475 1.75161C29.5417 1.8086 29.5226 1.86328 29.4919 1.91095L28.9366 2.75196C28.9191 2.78383 28.8944 2.81084 28.8646 2.8307C28.8348 2.85056 28.8008 2.86269 28.7655 2.86605C28.702 2.86368 28.6406 2.84204 28.5889 2.80382C28.184 2.48893 27.7018 2.29806 27.1974 2.25293C26.6929 2.2078 26.1863 2.31021 25.7352 2.54852C25.2842 2.78683 24.9067 3.15147 24.6458 3.60097C24.385 4.05046 24.2511 4.56677 24.2595 5.09115C24.2552 5.45953 24.321 5.82518 24.4533 6.16717C24.5855 6.50916 24.7816 6.82079 25.0303 7.08421C25.2789 7.34763 25.5753 7.55767 25.9025 7.70233C26.2296 7.84698 26.581 7.9234 26.9367 7.92722C27.5052 7.91957 28.0583 7.73422 28.5234 7.39546L28.7054 7.29363C28.7218 7.29363 28.7327 7.28797 28.75 7.28797C29.1016 7.59629 29.3755 7.98844 29.5484 8.4307C29.5465 8.47573 29.5333 8.51948 29.5102 8.55766C29.487 8.59584 29.4547 8.62714 29.4164 8.64849C28.8752 9.04396 28.2517 9.30179 27.5963 9.40108C26.941 9.50038 26.2722 9.43834 25.6443 9.22C25.0165 9.00166 24.4471 8.63316 23.9824 8.14437C23.5177 7.65559 23.1707 7.06026 22.9696 6.40666C22.7685 5.75306 22.7188 5.05957 22.8248 4.38241C22.9307 3.70525 23.1892 3.06346 23.5793 2.50908C23.9694 1.9547 24.4801 1.50332 25.0701 1.19152C25.66 0.879731 26.3126 0.716302 26.9749 0.714482C27.8489 0.713147 28.7009 0.997206 29.41 1.52627C29.4499 1.54813 29.4836 1.58043 29.5077 1.61996C29.5318 1.6595 29.5455 1.70489 29.5475 1.75161ZM34.2046 1.09162C34.2037 1.05747 34.2098 1.02353 34.2224 0.991948C34.2349 0.96037 34.2537 0.931861 34.2776 0.908248C34.3014 0.884636 34.3297 0.86644 34.3607 0.854829C34.3917 0.843218 34.4248 0.838447 34.4577 0.840823H35.4717C35.5041 0.839537 35.5364 0.845102 35.5666 0.857178C35.5969 0.869253 35.6244 0.887586 35.6476 0.911056C35.6708 0.934527 35.6891 0.962643 35.7014 0.993688C35.7138 1.02473 35.7198 1.05805 35.7193 1.09162V7.85179H39.123C39.1557 7.85083 39.1882 7.8569 39.2186 7.86963C39.2489 7.88236 39.2763 7.90147 39.2992 7.92575C39.322 7.95003 39.3398 7.97895 39.3513 8.01068C39.3628 8.04242 39.3678 8.07628 39.366 8.11013V9.06994C39.3669 9.10355 39.3612 9.137 39.3494 9.16831C39.3375 9.19962 39.3198 9.22815 39.2971 9.25223C39.2745 9.27631 39.2474 9.29545 39.2175 9.30851C39.1876 9.32157 39.1554 9.32829 39.123 9.32828H34.4467C34.4137 9.33284 34.3802 9.32942 34.3486 9.31831C34.3171 9.30719 34.2885 9.28867 34.2651 9.2642C34.2416 9.23973 34.224 9.20997 34.2135 9.17725C34.203 9.14453 34.1999 9.10974 34.2046 9.0756V1.08596V1.09162ZM44.8688 5.91331C44.8549 6.18185 44.894 6.4505 44.9837 6.70287C45.0734 6.95525 45.2117 7.18606 45.3903 7.38124C45.569 7.57641 45.7841 7.73184 46.0226 7.83807C46.2612 7.94429 46.5181 7.99907 46.7777 7.99907C47.0374 7.99907 47.2943 7.94429 47.5328 7.83807C47.7713 7.73184 47.9865 7.57641 48.1651 7.38124C48.3437 7.18606 48.4821 6.95525 48.5717 6.70287C48.6614 6.4505 48.7005 6.18185 48.6866 5.91331V1.08596C48.6867 1.05209 48.6934 1.01859 48.7063 0.98746C48.7192 0.956332 48.738 0.928218 48.7617 0.904802C48.7853 0.881386 48.8132 0.863149 48.8438 0.851184C48.8744 0.839218 48.907 0.833771 48.9397 0.835166H49.9256C49.9937 0.831538 50.0606 0.85579 50.1116 0.9027C50.1627 0.949609 50.194 1.01542 50.1986 1.08596V5.9416C50.2311 6.41512 50.1645 6.89032 50.0034 7.33476C49.8423 7.7792 49.5906 8.18242 49.2653 8.51688C48.9401 8.85135 48.549 9.10919 48.1187 9.27282C47.6885 9.43644 47.2292 9.50199 46.7722 9.46499C46.3178 9.49087 45.8632 9.41765 45.4378 9.25008C45.0125 9.08251 44.6258 8.82432 44.3028 8.49221C43.9799 8.1601 43.7278 7.76147 43.563 7.32211C43.3981 6.88274 43.3242 6.41243 43.3459 5.9416V1.08596C43.3455 1.02222 43.3687 0.960746 43.4107 0.914124C43.4526 0.867501 43.5102 0.839254 43.5716 0.835166H44.6076C44.6724 0.838327 44.734 0.865305 44.7814 0.911263C44.8288 0.957222 44.8588 1.01916 44.8661 1.08596V5.90765L44.8688 5.91331ZM54.8185 1.10482C54.8148 1.06958 54.8186 1.03394 54.8297 1.00039C54.8407 0.966838 54.8587 0.936194 54.8823 0.910598C54.906 0.885002 54.9348 0.865073 54.9667 0.852206C54.9986 0.839339 55.0328 0.833845 55.0669 0.836108H58.476C58.7577 0.822961 59.0391 0.867645 59.3041 0.967588C59.569 1.06753 59.8123 1.22076 60.0198 1.41845C60.2274 1.61615 60.3951 1.85441 60.5134 2.11951C60.6316 2.38461 60.6981 2.67133 60.709 2.96316C60.7286 3.61751 60.5183 4.25701 60.1173 4.76304C60.4631 4.95751 60.749 5.24896 60.9422 5.60399C61.1354 5.95902 61.2281 6.36326 61.2097 6.77035C61.2188 7.10091 61.1641 7.43002 61.049 7.73844C60.9338 8.04686 60.7604 8.32839 60.5389 8.56657C60.3174 8.80475 60.0523 8.99479 59.759 9.12558C59.4658 9.25637 59.1503 9.32528 58.8311 9.32828H55.0697C55.0366 9.33206 55.003 9.32816 54.9715 9.31687C54.94 9.30557 54.9114 9.28717 54.8876 9.26299C54.8638 9.2388 54.8455 9.20944 54.834 9.17703C54.8225 9.14463 54.8181 9.10998 54.8212 9.0756V1.10388L54.8185 1.10482ZM57.9362 2.14194H56.3396V4.32556H58.1938C58.335 4.32505 58.4746 4.29507 58.6044 4.23741C58.7341 4.17976 58.8513 4.09562 58.9489 3.99001C59.0465 3.8844 59.1226 3.7595 59.1726 3.62276C59.2226 3.48602 59.2454 3.34025 59.2398 3.19416C59.2304 3.03237 59.188 2.8745 59.1152 2.731C59.0425 2.5875 58.9411 2.46166 58.8178 2.36181C58.6946 2.26196 58.5522 2.19039 58.4003 2.15183C58.2483 2.11328 58.0901 2.10862 57.9362 2.13817V2.14194ZM58.5644 5.52109H56.3396V8.02056H58.5644C58.7276 8.02658 58.8902 7.99691 59.0416 7.93347C59.193 7.87003 59.3299 7.77425 59.4432 7.65238C59.5564 7.53051 59.6437 7.38528 59.6991 7.22615C59.7546 7.06703 59.777 6.89759 59.765 6.72887C59.7761 6.56408 59.7523 6.39878 59.6955 6.24446C59.6386 6.09015 59.5499 5.95052 59.4356 5.8353C59.3213 5.72008 59.1842 5.63203 59.0337 5.57728C58.8833 5.52252 58.7231 5.50238 58.5644 5.51826V5.52109Z" fill="#383838"/>
</svg>
