<svg width="72" height="24" viewBox="0 0 72 24" fill="none" xmlns="http://www.w3.org/2000/svg">
<path d="M15.8803 0H2.72537C1.31346 0.00192323 0.169307 1.2063 0.16748 2.69252V16.5078C0.169307 17.9941 1.31346 19.1984 2.72537 19.2004H6.74492V18.4311H2.72537C1.71683 18.4298 0.899494 17.5695 0.898306 16.5078V10.0008H3.24499C3.46155 9.98413 3.62429 9.78581 3.60844 9.55781C3.60538 9.51385 3.5957 9.47072 3.57971 9.42998C3.25495 8.652 3.59076 7.7443 4.32981 7.40242C5.06886 7.06055 5.93124 7.41404 6.25598 8.19202C6.42068 8.58644 6.42068 9.0355 6.25598 9.42998C6.16574 9.62874 6.24566 9.86691 6.43448 9.96189C6.48332 9.98646 6.53666 9.99973 6.59072 10.0009H8.93738V12.3087C8.81666 12.2871 8.69444 12.2764 8.57198 12.2768C7.36112 12.2764 6.37916 13.3093 6.37874 14.5839C6.37844 15.5022 6.89534 16.3332 7.69502 16.7002L7.98734 15.9956C7.24706 15.6566 6.90806 14.7501 7.23002 13.971C7.46234 13.4087 7.98956 13.0454 8.57198 13.0461C8.7734 13.046 8.97254 13.0903 9.15662 13.1761C9.3416 13.2611 9.557 13.1721 9.6377 12.9774C9.6578 12.9289 9.66818 12.8766 9.66824 12.8238V10.0008H11.5264C11.5056 10.1278 11.4952 10.2565 11.4953 10.3854C11.4975 11.4814 12.2296 12.4255 13.2493 12.6472L13.3954 11.8936C12.7157 11.7456 12.2276 11.1161 12.2261 10.3854C12.2261 10.1735 12.2682 9.96379 12.3496 9.77002C12.4303 9.57531 12.3459 9.34857 12.1609 9.26362C12.1149 9.24246 12.0652 9.23154 12.0149 9.23147H9.66824V7.2756C9.7889 7.29745 9.91118 7.30844 10.0336 7.30825C11.2445 7.30825 12.2261 6.27502 12.2261 5.00039C12.2261 3.72577 11.2445 2.69252 10.0336 2.69252C9.91118 2.69238 9.7889 2.70334 9.66824 2.72521V0.769288H15.8803C16.8888 0.770539 17.7061 1.6309 17.7073 2.69252V9.23147H15.3606C15.1588 9.2316 14.9953 9.4039 14.9954 9.61636C14.9955 9.66922 15.0058 9.72152 15.0259 9.77002C15.1074 9.96379 15.1495 10.1735 15.1494 10.3854H15.8803C15.8804 10.2565 15.87 10.1278 15.8492 10.0008H18.0727C18.2745 10.0008 18.4381 9.82857 18.4381 9.61617V2.69252C18.4363 1.2063 17.2921 0.00192323 15.8803 0ZM10.0336 3.46181C10.8409 3.46181 11.4953 4.15066 11.4953 5.00039C11.4953 5.85013 10.8409 6.53899 10.0336 6.53899C9.83228 6.53905 9.63308 6.49472 9.449 6.40895C9.26402 6.324 9.04862 6.41293 8.96792 6.60764C8.94782 6.65608 8.93744 6.70844 8.93738 6.76131V9.19958H7.08182C7.10012 9.08299 7.10966 8.96501 7.11032 8.84684C7.11032 8.83996 7.11032 8.83377 7.11032 8.82682C7.11032 8.81994 7.11032 8.8188 7.11032 8.81495C7.11032 7.5403 6.12872 6.50703 4.91786 6.50703C3.70697 6.50703 2.72537 7.5403 2.72537 8.81495C2.72537 8.8188 2.72537 8.82303 2.72537 8.82682C2.72537 8.83067 2.72537 8.83996 2.72537 8.84684C2.72606 8.96501 2.73556 9.08299 2.75388 9.19958H0.898306V2.69252C0.899494 1.6309 1.71683 0.770539 2.72537 0.769288H8.93738V3.23949C8.9375 3.45191 9.10118 3.62404 9.30302 3.62394C9.35324 3.62389 9.40292 3.61298 9.449 3.59182C9.63308 3.50605 9.83228 3.46177 10.0336 3.46181Z" fill="#FF1422"/>
<path d="M21.3098 16.5329L18.2378 14.3062L17.0579 10.9879C16.9875 10.7888 16.7771 10.6875 16.588 10.7616C16.5812 10.7642 16.5745 10.7671 16.5679 10.7702L14.1926 11.876C14.0146 11.9587 13.9295 12.1739 13.999 12.3653C14.0384 12.473 14.0753 12.5545 14.1145 12.6391C14.1536 12.7238 14.1897 12.803 14.2339 12.928C14.5176 13.7258 14.1357 14.615 13.3792 14.9178C12.6232 15.2155 11.7809 14.8116 11.4982 14.0157C11.4272 13.8161 11.3965 13.6031 11.4079 13.3904C11.4184 13.1782 11.2636 12.9972 11.0621 12.986C11.0116 12.9833 10.9611 12.9915 10.9138 13.0103L8.37493 14.0169C8.18641 14.0917 8.09095 14.313 8.16151 14.5116L9.07285 17.0745C8.95201 17.0977 8.83339 17.1321 8.71837 17.1776C7.58125 17.6236 7.00303 18.9555 7.42675 20.1525C7.85047 21.3495 9.11581 21.9582 10.2529 21.5122C10.37 21.4663 10.4831 21.4099 10.5911 21.3437L11.2445 23.1807C11.3153 23.3797 11.5259 23.4805 11.7149 23.406L11.7155 23.4058L15.336 21.9699C15.5635 22.4844 15.982 22.8778 16.4933 23.0576L16.7242 22.3268C16.423 22.22 16.1728 21.9948 16.0256 21.6983L17.1273 21.2617C17.4892 22.3332 18.4532 23.0484 19.5335 23.0469V22.2776C18.527 22.2711 17.7127 21.4138 17.7065 20.3544C17.7065 20.2524 17.6679 20.1545 17.5994 20.0824L16.327 18.7431C16.1384 18.5428 16.1171 18.2275 16.277 18.0011C16.37 17.8688 16.5137 17.7864 16.6698 17.7757C16.826 17.7619 16.9799 17.8224 17.0893 17.9407L19.6406 20.6263L20.1573 20.0824L19.4024 19.2878C19.5883 18.7023 19.5769 18.0672 19.3698 17.4895L18.685 15.5643L20.8933 17.1649C21.1859 17.3811 21.3603 17.7339 21.3606 18.1104V23.0788H22.0914V18.1104C22.0909 17.4818 21.7992 16.8931 21.3098 16.5329ZM18.6854 17.7591C18.7864 18.0416 18.8229 18.345 18.7921 18.645L17.606 17.3968C17.1164 16.8683 16.3124 16.8576 15.8104 17.373C15.3082 17.8884 15.2981 18.7346 15.7877 19.2631C15.7951 19.2711 15.8027 19.2792 15.8104 19.287L16.9661 20.5036L11.8021 22.5511L11.1056 20.5921C11.0623 20.4703 10.9634 20.3799 10.8429 20.3516C10.8169 20.3456 10.7903 20.3425 10.7636 20.3424C10.668 20.3424 10.5762 20.3817 10.5078 20.4521C9.92107 21.0356 8.99593 21.008 8.44153 20.3903C7.88719 19.7726 7.91341 18.7988 8.50027 18.2153C8.63827 18.078 8.80033 17.9704 8.97745 17.8983C9.09379 17.853 9.21529 17.824 9.33889 17.8122C9.41485 17.8024 9.49153 17.7997 9.56797 17.8041C9.76951 17.8152 9.94147 17.6523 9.95203 17.4401C9.95467 17.3874 9.94699 17.3347 9.92935 17.2852L8.97493 14.6027L10.715 13.913C10.9434 15.1647 12.0925 15.9846 13.2817 15.7442C13.4032 15.7196 13.5225 15.6843 13.6383 15.6386C14.7714 15.186 15.3442 13.8548 14.9198 12.6598C14.8862 12.5652 14.8559 12.4903 14.8267 12.4233L16.5076 11.6398L18.6854 17.7591Z" fill="#111111"/>
<path d="M29.6044 8.94095C29.5352 8.94095 29.4763 8.91544 29.4279 8.8644C29.3794 8.8207 29.3551 8.75874 29.3551 8.67853V7.86942C27.2915 7.86942 26.1766 6.91447 26.0104 5.00463L26 4.611L26.0104 4.21737C26.0589 3.28431 26.3774 2.57358 26.9661 2.08519C27.5547 1.5895 28.351 1.34166 29.3551 1.34166V0.652804C29.3551 0.572619 29.3794 0.510658 29.4279 0.466921C29.4763 0.415894 29.5352 0.390381 29.6044 0.390381H30.5497C30.6259 0.390381 30.6847 0.415894 30.7263 0.466921C30.7748 0.510658 30.799 0.572619 30.799 0.652804V1.34166C31.8031 1.34166 32.5995 1.5895 33.1882 2.08519C33.7768 2.57358 34.0953 3.28431 34.1438 4.21737C34.1508 4.33399 34.1542 4.48343 34.1542 4.66567C34.1542 4.80417 34.1508 4.91716 34.1438 5.00463C33.9984 6.91447 32.8834 7.86942 30.799 7.86942V8.67853C30.799 8.75874 30.7748 8.8207 30.7263 8.8644C30.6847 8.91544 30.6259 8.94095 30.5497 8.94095H29.6044ZM29.3656 2.58816C28.7908 2.58816 28.3476 2.72302 28.0359 2.99273C27.7243 3.26244 27.5443 3.68523 27.4958 4.2611L27.4854 4.60006L27.4958 4.94996C27.5581 6.05796 28.1814 6.61194 29.3656 6.61194V2.58816ZM30.7887 6.61194C31.9867 6.61194 32.6099 6.05796 32.6584 4.94996C32.6653 4.87706 32.6688 4.74221 32.6688 4.54539C32.6688 3.86747 32.5095 3.37178 32.191 3.05834C31.8793 2.74488 31.4119 2.58816 30.7887 2.58816V6.61194Z" fill="#111111"/>
<path d="M36.9651 8.70037C36.612 8.70037 36.2865 8.62748 35.9888 8.48171C35.6979 8.32862 35.4659 8.12449 35.2928 7.8694C35.1266 7.61424 35.0435 7.33363 35.0435 7.02744C35.0435 6.53178 35.2339 6.13084 35.6148 5.82468C35.9957 5.51852 36.5185 5.31077 37.1833 5.20143L38.6064 4.98274V4.75312C38.6064 4.43239 38.5302 4.19183 38.3778 4.03146C38.2255 3.8711 37.9797 3.79091 37.6403 3.79091C37.4118 3.79091 37.2248 3.83829 37.0794 3.93306C36.9409 4.02053 36.8301 4.108 36.747 4.19548C36.6639 4.29024 36.6085 4.3522 36.5808 4.38136C36.5531 4.46883 36.5012 4.51257 36.425 4.51257H35.6252C35.5628 4.51257 35.5074 4.4907 35.459 4.44697C35.4174 4.40323 35.3966 4.34492 35.3966 4.27202C35.4036 4.08978 35.4867 3.88203 35.6459 3.64876C35.8121 3.4155 36.0649 3.21504 36.4043 3.04738C36.7436 2.87973 37.1591 2.7959 37.6508 2.7959C38.4679 2.7959 39.0635 2.98907 39.4374 3.37541C39.8114 3.76175 39.9983 4.26837 39.9983 4.89527V8.32862C39.9983 8.4015 39.9741 8.46346 39.9256 8.51449C39.8841 8.56552 39.8252 8.59104 39.749 8.59104H38.9076C38.8384 8.59104 38.7795 8.56552 38.7311 8.51449C38.6826 8.46346 38.6583 8.4015 38.6583 8.32862V7.90218C38.506 8.13542 38.2878 8.32862 38.0039 8.48171C37.7269 8.62748 37.3806 8.70037 36.9651 8.70037ZM37.3184 7.66161C37.6992 7.66161 38.0108 7.53043 38.2532 7.26801C38.4956 7.00559 38.6168 6.62285 38.6168 6.1199V5.89029L37.578 6.06523C37.1764 6.13084 36.8717 6.23654 36.6639 6.38234C36.4631 6.52811 36.3627 6.70672 36.3627 6.91811C36.3627 7.15136 36.4562 7.33363 36.6431 7.46481C36.8301 7.59605 37.0552 7.66161 37.3184 7.66161Z" fill="#111111"/>
<path d="M46.3687 5.61702C46.3756 5.6972 46.3791 5.82112 46.3791 5.98878C46.3791 6.14915 46.3756 6.26578 46.3687 6.33866C46.3341 7.06763 46.0952 7.64351 45.652 8.06629C45.2157 8.48906 44.589 8.70045 43.7719 8.70045C42.9131 8.70045 42.2726 8.46721 41.8501 8.00066C41.4346 7.52685 41.2096 6.83073 41.1749 5.91224L41.1646 5.25619L41.1749 4.60014C41.1957 3.56502 41.3481 2.78869 41.632 2.27114C41.9159 1.7463 42.328 1.36724 42.8681 1.13398C43.4083 0.893425 44.2808 0.620072 45.4858 0.313913L45.5377 0.302979C45.5931 0.302979 45.6451 0.324847 45.6935 0.368584C45.742 0.405032 45.7697 0.456058 45.7766 0.521663L45.9116 1.24333L45.922 1.30893C45.922 1.36724 45.9047 1.41827 45.8701 1.46201C45.8355 1.49845 45.7905 1.52397 45.7351 1.53854L45.4027 1.61509C44.5786 1.8119 43.9865 1.97956 43.6264 2.11806C43.2732 2.24927 43.0031 2.45338 42.8162 2.73038C42.6292 3.00738 42.5219 3.42288 42.4942 3.97688C42.6604 3.7582 42.8785 3.58325 43.1486 3.45204C43.4256 3.32083 43.7164 3.25522 44.0212 3.25522C44.7482 3.25522 45.3127 3.46662 45.7143 3.88941C46.1159 4.3122 46.3341 4.88807 46.3687 5.61702ZM44.956 6.28401C44.9629 6.23298 44.9664 6.13821 44.9664 5.99971C44.9664 5.84664 44.9629 5.73729 44.956 5.67169C44.9422 5.21974 44.8383 4.87349 44.6444 4.63293C44.4505 4.38509 44.1874 4.26117 43.855 4.26117C43.4741 4.26117 43.1728 4.38509 42.9512 4.63293C42.7296 4.87349 42.6119 5.21974 42.598 5.67169L42.5876 5.99971L42.598 6.28401C42.6119 6.74325 42.7192 7.09315 42.92 7.33372C43.1209 7.57422 43.4048 7.69454 43.7719 7.69454C44.1389 7.69454 44.4228 7.57789 44.6236 7.34464C44.8313 7.10407 44.9422 6.75052 44.956 6.28401Z" fill="#111111"/>
<path d="M47.7884 10.6686C47.7191 10.6686 47.6602 10.643 47.6117 10.592C47.5633 10.5482 47.5391 10.4863 47.5391 10.4061V3.16766C47.5391 3.08747 47.5633 3.02552 47.6117 2.98178C47.6602 2.93075 47.7191 2.90524 47.7884 2.90524H48.6089C48.6851 2.90524 48.744 2.93075 48.7856 2.98178C48.834 3.02552 48.8582 3.08747 48.8582 3.16766V3.60503C49.2461 3.06561 49.8 2.7959 50.5203 2.7959C51.2197 2.7959 51.7563 3.02916 52.1303 3.49569C52.5043 3.95493 52.7051 4.57818 52.7328 5.36544C52.7397 5.45291 52.7432 5.58048 52.7432 5.74814C52.7432 5.92309 52.7397 6.0543 52.7328 6.14177C52.7051 6.90719 52.5043 7.52677 52.1303 8.00058C51.7563 8.46712 51.2197 8.70037 50.5203 8.70037C49.8208 8.70037 49.2876 8.44161 48.9206 7.92403V10.4061C48.9206 10.4863 48.8963 10.5482 48.8478 10.592C48.8063 10.643 48.7475 10.6686 48.6713 10.6686H47.7884ZM50.1359 7.53043C50.8838 7.53043 51.282 7.04569 51.3305 6.07617C51.3374 6.00327 51.3408 5.89393 51.3408 5.74814C51.3408 5.60235 51.3374 5.49301 51.3305 5.42012C51.282 4.45061 50.8838 3.96586 50.1359 3.96586C49.7343 3.96586 49.4365 4.10072 49.2426 4.37042C49.0487 4.64013 48.9413 4.97181 48.9206 5.36544L48.9102 5.78094L48.9206 6.20738C48.9344 6.57188 49.0418 6.88527 49.2426 7.14769C49.4504 7.40285 49.7481 7.53043 50.1359 7.53043Z" fill="#111111"/>
<path d="M58.8334 2.90527C58.8957 2.90527 58.9511 2.93079 58.9996 2.98181C59.048 3.02555 59.0722 3.08022 59.0722 3.14583V8.32865C59.0722 8.40154 59.048 8.4635 58.9996 8.51453C58.9511 8.56556 58.8923 8.59107 58.823 8.59107H57.9608C57.8916 8.59107 57.8327 8.56556 57.7842 8.51453C57.7358 8.4635 57.7115 8.40154 57.7115 8.32865V4.81877L55.2185 8.41613C55.1562 8.53278 55.0627 8.59107 54.938 8.59107H54.1486C54.0862 8.59107 54.0309 8.56922 53.9824 8.52545C53.9339 8.47442 53.9097 8.41246 53.9097 8.33958V3.16769C53.9097 3.0948 53.9339 3.03284 53.9824 2.98181C54.0309 2.93079 54.0897 2.90527 54.159 2.90527H55.0212C55.0973 2.90527 55.1562 2.93079 55.1978 2.98181C55.2462 3.02555 55.2704 3.08751 55.2704 3.16769V6.68851L57.7635 3.08022C57.8396 2.96359 57.9331 2.90527 58.0439 2.90527H58.8334Z" fill="#111111"/>
<path d="M65.3571 8.25211C65.3919 8.28855 65.4093 8.33592 65.4093 8.39427C65.4093 8.45257 65.3883 8.49994 65.3469 8.53638C65.3049 8.57282 65.2533 8.59107 65.1909 8.59107H64.1415C64.0311 8.59107 63.9339 8.53638 63.8511 8.42705L62.5005 6.28396H61.7319V8.32865C61.7319 8.40154 61.7073 8.4635 61.6593 8.51453C61.6107 8.56556 61.5519 8.59107 61.4823 8.59107H60.6309C60.5613 8.59107 60.5025 8.56556 60.4539 8.51453C60.4059 8.4635 60.3813 8.40154 60.3813 8.32865V3.16769C60.3813 3.0948 60.4059 3.03284 60.4539 2.98181C60.5025 2.93079 60.5613 2.90527 60.6309 2.90527H61.4823C61.5519 2.90527 61.6107 2.93079 61.6593 2.98181C61.7073 3.03284 61.7319 3.0948 61.7319 3.16769V5.12493H62.5005L63.7467 3.08022C63.7887 3.02191 63.8301 2.97817 63.8715 2.94901C63.9129 2.91985 63.9687 2.90527 64.0377 2.90527H64.9623C65.0313 2.90527 65.0871 2.9235 65.1286 2.95994C65.17 2.99639 65.1909 3.04377 65.1909 3.10209C65.1909 3.14583 65.1735 3.19321 65.1387 3.24424L63.6537 5.64977L65.3571 8.25211Z" fill="#111111"/>
<path d="M67.8842 8.70037C67.5308 8.70037 67.2056 8.62748 66.908 8.48171C66.617 8.32862 66.3848 8.12449 66.212 7.8694C66.0458 7.61424 65.9624 7.33363 65.9624 7.02744C65.9624 6.53178 66.1526 6.13084 66.5336 5.82468C66.9146 5.51852 67.4372 5.31077 68.102 5.20143L69.5252 4.98274V4.75312C69.5252 4.43239 69.449 4.19183 69.2966 4.03146C69.1442 3.8711 68.8988 3.79091 68.5592 3.79091C68.3306 3.79091 68.144 3.83829 67.9982 3.93306C67.8596 4.02053 67.7492 4.108 67.6658 4.19548C67.583 4.29024 67.5272 4.3522 67.4996 4.38136C67.472 4.46883 67.4204 4.51257 67.3442 4.51257H66.5444C66.482 4.51257 66.4262 4.4907 66.3782 4.44697C66.3362 4.40323 66.3158 4.34492 66.3158 4.27202C66.3224 4.08978 66.4058 3.88203 66.5648 3.64876C66.731 3.4155 66.9836 3.21504 67.3232 3.04738C67.6628 2.87973 68.078 2.7959 68.57 2.7959C69.3866 2.7959 69.9824 2.98907 70.3562 3.37541C70.7306 3.76175 70.9172 4.26837 70.9172 4.89527V8.32862C70.9172 8.4015 70.8932 8.46346 70.8446 8.51449C70.8032 8.56552 70.7444 8.59104 70.6682 8.59104H69.8264C69.7574 8.59104 69.6986 8.56552 69.65 8.51449C69.6014 8.46346 69.5774 8.4015 69.5774 8.32862V7.90218C69.425 8.13542 69.2066 8.32862 68.9228 8.48171C68.6456 8.62748 68.2994 8.70037 67.8842 8.70037ZM68.2376 7.66161C68.618 7.66161 68.93 7.53043 69.1724 7.26801C69.4148 7.00559 69.536 6.62285 69.536 6.1199V5.89029L68.4968 6.06523C68.0954 6.13084 67.7906 6.23654 67.583 6.38234C67.382 6.52811 67.2818 6.70672 67.2818 6.91811C67.2818 7.15136 67.3754 7.33363 67.562 7.46481C67.7492 7.59605 67.9742 7.66161 68.2376 7.66161Z" fill="#111111"/>
<path d="M27.2389 20.9462C27.1696 20.9462 27.1108 20.9207 27.0623 20.8696C27.0208 20.8259 27 20.7676 27 20.6947V13.4343C27 13.3614 27.0208 13.3031 27.0623 13.2594C27.1108 13.2083 27.1696 13.1828 27.2389 13.1828H27.7167C27.7859 13.1828 27.8414 13.2083 27.8829 13.2594C27.9314 13.3031 27.9556 13.3614 27.9556 13.4343V13.9154C28.3435 13.3542 28.9113 13.0735 29.6592 13.0735C30.3863 13.0735 30.9299 13.3141 31.29 13.7952C31.6571 14.2763 31.8544 14.8958 31.8821 15.654C31.889 15.7341 31.8925 15.8581 31.8925 16.0257C31.8925 16.1934 31.889 16.3173 31.8821 16.3975C31.8544 17.1483 31.6571 17.768 31.29 18.2564C30.923 18.7374 30.3794 18.978 29.6592 18.978C28.939 18.978 28.3781 18.7046 27.9764 18.158V20.6947C27.9764 20.7676 27.9556 20.8259 27.9141 20.8696C27.8725 20.9207 27.8171 20.9462 27.7479 20.9462H27.2389ZM29.441 18.0923C29.9327 18.0923 30.2894 17.932 30.511 17.6112C30.7395 17.2905 30.8641 16.8677 30.8849 16.3429C30.8918 16.27 30.8953 16.1642 30.8953 16.0257C30.8953 14.648 30.4106 13.9591 29.441 13.9591C28.9632 13.9591 28.6031 14.1268 28.3607 14.4621C28.1253 14.7902 27.9972 15.1838 27.9764 15.6431L27.966 16.0585L27.9764 16.485C27.9902 16.9151 28.1218 17.2905 28.3711 17.6112C28.6204 17.932 28.9771 18.0923 29.441 18.0923Z" fill="#111111"/>
<path d="M35.3382 18.978C34.625 18.978 34.0536 18.7484 33.6243 18.2891C33.2019 17.8226 32.9699 17.1884 32.9283 16.3866L32.918 16.0148L32.9283 15.654C32.9768 14.8667 33.2123 14.2398 33.6347 13.7733C34.064 13.3068 34.6284 13.0735 35.3279 13.0735C36.0965 13.0735 36.6921 13.3323 37.1145 13.8498C37.537 14.3601 37.7481 15.0526 37.7481 15.9273V16.1132C37.7481 16.1861 37.7239 16.2481 37.6754 16.2991C37.6339 16.3429 37.5785 16.3647 37.5092 16.3647H33.9152V16.4631C33.9359 16.9369 34.071 17.3415 34.3203 17.6768C34.5765 18.0049 34.9124 18.1689 35.3279 18.1689C35.6464 18.1689 35.9061 18.1033 36.1069 17.972C36.3147 17.8335 36.467 17.6914 36.564 17.5456C36.6263 17.4582 36.6713 17.4071 36.699 17.3925C36.7336 17.3707 36.7925 17.3597 36.8756 17.3597H37.3846C37.4469 17.3597 37.4988 17.3779 37.5404 17.4144C37.5819 17.4508 37.6027 17.5019 37.6027 17.5675C37.6027 17.7278 37.5057 17.921 37.3119 18.147C37.1249 18.3729 36.8583 18.5698 36.512 18.7374C36.1727 18.8978 35.7815 18.978 35.3382 18.978ZM36.7613 15.6102V15.5774C36.7613 15.0745 36.6297 14.6663 36.3666 14.3528C36.1104 14.0321 35.7641 13.8717 35.3279 13.8717C34.8916 13.8717 34.5453 14.0321 34.2891 14.3528C34.0398 14.6663 33.9152 15.0745 33.9152 15.5774V15.6102H36.7613Z" fill="#111111"/>
<path d="M39.2292 18.8685C39.1599 18.8685 39.101 18.8466 39.0525 18.8028C39.011 18.7518 38.9902 18.6899 38.9902 18.617V13.4341C38.9902 13.3612 39.011 13.3029 39.0525 13.2592C39.101 13.2081 39.1599 13.1826 39.2292 13.1826H39.7069C39.7762 13.1826 39.8316 13.2081 39.8731 13.2592C39.9216 13.3029 39.9459 13.3612 39.9459 13.4341V17.9937H41.8468V13.4341C41.8468 13.3612 41.8675 13.3029 41.9091 13.2592C41.9576 13.2081 42.0165 13.1826 42.0857 13.1826H42.522C42.5913 13.1826 42.6466 13.2081 42.6882 13.2592C42.7366 13.3029 42.7609 13.3612 42.7609 13.4341V17.9937H44.6618V13.4341C44.6618 13.3612 44.6826 13.3029 44.7241 13.2592C44.7726 13.2081 44.8315 13.1826 44.9007 13.1826H45.3786C45.4478 13.1826 45.5032 13.2081 45.5448 13.2592C45.5932 13.3029 45.6175 13.3612 45.6175 13.4341V18.617C45.6175 18.6899 45.5932 18.7518 45.5448 18.8028C45.5032 18.8466 45.4478 18.8685 45.3786 18.8685H39.2292Z" fill="#111111"/>
<path d="M49.3265 18.978C48.6132 18.978 48.042 18.7484 47.6126 18.2891C47.1902 17.8226 46.9582 17.1884 46.9166 16.3866L46.9062 16.0148L46.9166 15.654C46.9651 14.8667 47.2005 14.2398 47.623 13.7733C48.0524 13.3068 48.6167 13.0735 49.3162 13.0735C50.0849 13.0735 50.6804 13.3323 51.1028 13.8498C51.5252 14.3601 51.7364 15.0526 51.7364 15.9273V16.1132C51.7364 16.1861 51.7122 16.2481 51.6638 16.2991C51.6222 16.3429 51.5668 16.3647 51.4976 16.3647H47.9035V16.4631C47.9242 16.9369 48.0593 17.3415 48.3086 17.6768C48.5648 18.0049 48.9007 18.1689 49.3162 18.1689C49.6347 18.1689 49.8944 18.1033 50.0953 17.972C50.303 17.8335 50.4553 17.6914 50.5523 17.5456C50.6146 17.4582 50.6596 17.4071 50.6873 17.3925C50.7219 17.3707 50.7808 17.3597 50.8639 17.3597H51.3729C51.4352 17.3597 51.4872 17.3779 51.5287 17.4144C51.5703 17.4508 51.591 17.5019 51.591 17.5675C51.591 17.7278 51.4941 17.921 51.3002 18.147C51.1132 18.3729 50.8466 18.5698 50.5004 18.7374C50.161 18.8978 49.7697 18.978 49.3265 18.978ZM50.7497 15.6102V15.5774C50.7497 15.0745 50.6181 14.6663 50.3549 14.3528C50.0987 14.0321 49.7525 13.8717 49.3162 13.8717C48.8799 13.8717 48.5336 14.0321 48.2774 14.3528C48.0281 14.6663 47.9035 15.0745 47.9035 15.5774V15.6102H50.7497Z" fill="#111111"/>
<path d="M53.2174 18.8685C53.1482 18.8685 53.0893 18.8466 53.0409 18.8028C52.9993 18.7518 52.9785 18.6899 52.9785 18.617V13.4341C52.9785 13.3612 52.9993 13.3029 53.0409 13.2592C53.0893 13.2081 53.1482 13.1826 53.2174 13.1826H53.716C53.7853 13.1826 53.8407 13.2081 53.8822 13.2592C53.9307 13.3029 53.955 13.3612 53.955 13.4341V15.5335H56.7804V13.4341C56.7804 13.3612 56.8011 13.3029 56.8427 13.2592C56.8912 13.2081 56.95 13.1826 57.0193 13.1826H57.5075C57.5767 13.1826 57.6321 13.2081 57.6737 13.2592C57.7222 13.3029 57.7464 13.3612 57.7464 13.4341V18.617C57.7464 18.6899 57.7222 18.7518 57.6737 18.8028C57.6321 18.8466 57.5767 18.8685 57.5075 18.8685H57.0193C56.95 18.8685 56.8912 18.8466 56.8427 18.8028C56.8011 18.7518 56.7804 18.6899 56.7804 18.617V16.4082H53.955V18.617C53.955 18.6899 53.9307 18.7518 53.8822 18.8028C53.8407 18.8466 53.7853 18.8685 53.716 18.8685H53.2174Z" fill="#111111"/>
<path d="M63.8998 13.1826C63.9556 13.1826 64.0036 13.2045 64.0456 13.2482C64.0936 13.292 64.1182 13.343 64.1182 13.4013V18.617C64.1182 18.6899 64.0936 18.7518 64.0456 18.8028C64.0036 18.8466 63.9484 18.8685 63.8794 18.8685H63.391C63.3214 18.8685 63.2626 18.8466 63.2146 18.8028C63.1726 18.7518 63.1522 18.6899 63.1522 18.617V14.6478L60.2746 18.7044C60.1984 18.8138 60.1084 18.8685 60.0046 18.8685H59.5372C59.4748 18.8685 59.4196 18.8466 59.371 18.8028C59.3296 18.7518 59.3086 18.6971 59.3086 18.6388V13.4341C59.3086 13.3612 59.3296 13.3029 59.371 13.2592C59.4196 13.2081 59.4784 13.1826 59.5474 13.1826H60.046C60.1156 13.1826 60.1708 13.2081 60.2122 13.2592C60.2608 13.3029 60.2848 13.3612 60.2848 13.4341V17.3814L63.1522 13.3466C63.2284 13.2373 63.3184 13.1826 63.4222 13.1826H63.8998Z" fill="#111111"/>
<path d="M70.2299 13.1827C70.2851 13.1827 70.3337 13.2046 70.3751 13.2483C70.4237 13.2921 70.4483 13.3431 70.4483 13.4014V18.6171C70.4483 18.6899 70.4237 18.7519 70.3751 18.8029C70.3337 18.8466 70.2785 18.8686 70.2089 18.8686H69.7211C69.6515 18.8686 69.5927 18.8466 69.5441 18.8029C69.5027 18.7519 69.4823 18.6899 69.4823 18.6171V14.6479L66.6047 18.7045C66.5285 18.8139 66.4385 18.8686 66.3347 18.8686H65.8673C65.8049 18.8686 65.7497 18.8466 65.7011 18.8029C65.6591 18.7519 65.6387 18.6972 65.6387 18.6389V13.4342C65.6387 13.3613 65.6591 13.303 65.7011 13.2593C65.7497 13.2082 65.8085 13.1827 65.8775 13.1827H66.3761C66.4451 13.1827 66.5009 13.2082 66.5423 13.2593C66.5909 13.303 66.6149 13.3613 66.6149 13.4342V17.3815L69.4823 13.3467C69.5579 13.2374 69.6485 13.1827 69.7523 13.1827H70.2299ZM68.0693 12.4283C67.5155 12.4283 67.1171 12.3007 66.8747 12.0455C66.6323 11.7905 66.5111 11.4624 66.5111 11.0615C66.5111 11.0032 66.5285 10.9558 66.5633 10.9194C66.5975 10.8756 66.6461 10.8538 66.7085 10.8538H67.0619C67.1243 10.8538 67.1723 10.8756 67.2071 10.9194C67.2419 10.9558 67.2593 11.0032 67.2593 11.0615C67.2593 11.5207 67.5293 11.7504 68.0693 11.7504C68.6093 11.7504 68.8793 11.5207 68.8793 11.0615C68.8793 11.0032 68.8967 10.9558 68.9315 10.9194C68.9663 10.8756 69.0143 10.8538 69.0767 10.8538H69.4403C69.5027 10.8538 69.5513 10.8756 69.5861 10.9194C69.6203 10.9558 69.6377 11.0032 69.6377 11.0615C69.6377 11.4552 69.5129 11.7831 69.2639 12.0455C69.0215 12.3007 68.6231 12.4283 68.0693 12.4283Z" fill="#111111"/>
</svg>
