<svg width="93" height="26" viewBox="0 0 93 26" fill="none" xmlns="http://www.w3.org/2000/svg">
<path fill-rule="evenodd" clip-rule="evenodd" d="M2.58887 9.95374C2.58887 9.95374 3.09334 13.145 4.5199 15.7296C5.94646 18.31 6.50468 18.9083 6.50468 18.9083L5.24352 25.0623C5.24352 25.0623 3.10988 21.6508 1.30703 17.7906C-0.495809 13.9262 0.0913545 11.6449 0.0913545 11.6449L2.59301 9.95789L2.58887 9.95374Z" fill="url(#paint0_linear_1_599)"/>
<path fill-rule="evenodd" clip-rule="evenodd" d="M17.5408 10.12L17.2348 11.5536C16.6104 14.8155 15.2748 21.0899 15.0061 22.3531L18.6366 21.0567C18.6366 21.0567 19.0211 20.9403 19.5876 20.6869L21.4318 11.6907C21.4483 11.6118 21.4607 11.5328 21.4731 11.4622C21.6344 10.5605 21.9404 9.34717 22.2009 8.06735C22.4862 6.40109 22.5772 4.80131 22.0396 3.75419C22.2092 3.49656 22.3994 3.25555 22.5979 3.03533C22.4035 1.95496 21.899 1.14884 20.8653 0.899521C20.4394 0.79564 20.0466 0.833037 19.6868 0.96185L19.7861 0.949384C19.2982 1.12391 18.8599 1.46464 18.4794 1.90094C18.8268 3.32204 18.5373 5.32903 18.1569 7.19059C17.9874 8.19201 17.76 9.20174 17.5491 10.12H17.5408Z" fill="url(#paint1_linear_1_599)"/>
<path fill-rule="evenodd" clip-rule="evenodd" d="M13.4761 9.28055C13.5588 8.91904 13.6457 8.54507 13.7284 8.16278C14.2121 5.38291 14.2866 2.58226 12.1819 2.07117C11.7518 1.96729 11.3632 2.00468 11.0034 2.12934L11.1027 2.11687C10.3832 2.3745 9.7836 2.97701 9.29154 3.72081C10.1847 5.44524 9.44453 8.73621 8.8615 11.2875L5.84298 25.6273L10.379 24.0068L13.4803 9.27639L13.4761 9.28055Z" fill="url(#paint2_linear_1_599)"/>
<path fill-rule="evenodd" clip-rule="evenodd" d="M12.7939 12.6297C12.2853 15.4636 10.7265 22.7727 10.4701 23.9777L14.9483 22.3738L17.2349 11.5493C17.3011 11.2003 17.3631 10.8845 17.4086 10.6186C17.574 9.70441 17.88 8.4786 18.1487 7.19047C18.4423 5.40787 18.5415 3.6585 17.9709 2.5532C18.1239 2.32051 18.2935 2.10028 18.4713 1.90082C18.2397 0.970046 17.7352 0.288583 16.8007 0.0600436C16.3707 -0.043838 15.982 -0.0064406 15.6181 0.122373L15.7174 0.109907C14.9979 0.367533 14.4025 0.974201 13.9063 1.71384C14.6754 3.19727 14.2371 5.8317 13.7285 8.1628C13.439 9.82491 13.0007 11.4745 12.7939 12.6339V12.6297Z" fill="url(#paint3_linear_1_599)"/>
<path fill-rule="evenodd" clip-rule="evenodd" d="M21.5148 11.2627L21.4279 11.6865C21.0351 13.8306 20.1544 18.0482 19.5961 20.6785C20.3942 20.3211 21.552 19.6937 22.5402 18.7338C24.2356 17.08 25.3975 12.5882 25.3975 12.5882C25.3975 12.5882 25.4264 12.609 25.4678 12.6422C26.0467 9.51746 28.2589 2.91475 24.9261 2.10447C24.4961 2.00059 24.1074 2.03383 23.7477 2.16264L23.8469 2.15018C23.3838 2.32054 22.962 2.63219 22.594 3.03525C22.8421 4.44388 22.5609 6.31791 22.2012 8.06312C22.0151 9.14764 21.7505 10.2571 21.5189 11.2627H21.5148Z" fill="url(#paint4_linear_1_599)"/>
<path fill-rule="evenodd" clip-rule="evenodd" d="M19.7777 0.949219L16.6558 1.32319C13.3065 1.01986 11.4623 9.97445 11.4623 9.97445L15.5642 9.47166L15.6138 9.23066C15.6138 9.23066 17.152 1.89246 19.7777 0.949219Z" fill="url(#paint5_linear_1_599)"/>
<path fill-rule="evenodd" clip-rule="evenodd" d="M12.3927 2.06702L9.27083 2.44099C5.92151 2.13766 4.07732 11.0922 4.07732 11.0922L8.1792 10.5895L8.22882 10.3485C8.22882 10.3485 9.76703 3.01026 12.3927 2.06702Z" fill="url(#paint6_linear_1_599)"/>
<path fill-rule="evenodd" clip-rule="evenodd" d="M23.8424 2.15015L20.7205 2.52412C17.3712 2.22079 16.1142 8.93153 16.1142 8.93153L20.216 8.42875L20.1664 8.66975C20.1664 8.66975 21.2167 3.09755 23.8424 2.15015Z" fill="url(#paint7_linear_1_599)"/>
<path fill-rule="evenodd" clip-rule="evenodd" d="M15.7173 0.105713L12.5954 0.479686C9.24606 0.176352 6.64104 11.4745 6.64104 11.4745L10.6189 10.9468L11.2681 8.4661C11.2681 8.4661 13.0916 1.04896 15.7173 0.105713Z" fill="url(#paint8_linear_1_599)"/>
<path fill-rule="evenodd" clip-rule="evenodd" d="M34.3201 12.715V6.29927C34.3201 5.79233 34.4814 5.3768 34.7998 5.05269C35.1182 4.73274 35.5234 4.57068 36.0155 4.57068C37.6984 4.57068 38.8934 4.61223 39.5922 4.69949L39.5095 6.01671H36.7391C36.5117 6.01671 36.3504 6.06657 36.2512 6.16215C36.1519 6.26187 36.1064 6.42808 36.1064 6.66078V12.7108H34.3201V12.715Z" fill="#FAFAFA"/>
<path fill-rule="evenodd" clip-rule="evenodd" d="M45.2281 10.5876H42.4577L41.8747 12.7151H40.0511L42.3791 5.0777C42.4122 4.93642 42.4866 4.82423 42.6024 4.73697C42.7182 4.64971 42.8505 4.60815 42.9994 4.60815H44.6823C45.0172 4.60815 45.224 4.76606 45.3025 5.0777L47.6305 12.7151H45.8153L45.2322 10.5876H45.2281ZM44.8436 9.19972L44.1654 6.71903C44.0703 6.32843 44.0166 6.07496 44 5.95446H43.6858C43.6692 6.03341 43.6403 6.15807 43.6031 6.32844C43.5659 6.50296 43.5328 6.63177 43.5121 6.71488L42.834 9.19556H44.8477L44.8436 9.19972Z" fill="#FAFAFA"/>
<path fill-rule="evenodd" clip-rule="evenodd" d="M55.2512 4.60815H56.9714C57.3932 4.60815 57.6123 4.83254 57.6371 5.27715L57.939 12.7151H56.256L55.9997 6.00432H55.7888L54.5731 11.0197C54.4946 11.4062 54.2547 11.5973 53.8578 11.5973H52.6876C52.2906 11.5973 52.0467 11.4062 51.9515 11.0197L50.7235 6.00432H50.525L50.2934 12.7151H48.6229L48.9165 5.27715C48.933 4.82838 49.1563 4.60815 49.5822 4.60815H51.3024C51.6745 4.60815 51.9102 4.7993 52.0012 5.18158L52.9812 9.22465C53.0142 9.38255 53.0556 9.59863 53.1052 9.88118C53.1548 10.1637 53.1879 10.3258 53.192 10.3632H53.345C53.3533 10.3258 53.3822 10.1637 53.4319 9.88118C53.4815 9.59863 53.5228 9.3784 53.5559 9.22465L54.5276 5.18158C54.6145 4.7993 54.8543 4.60815 55.2554 4.60815H55.2512Z" fill="#FAFAFA"/>
<path fill-rule="evenodd" clip-rule="evenodd" d="M66.2295 4.60815H67.9497C68.3714 4.60815 68.5906 4.83254 68.6154 5.27715L68.9214 12.7151H67.2384L66.9821 6.00432H66.7712L65.5555 11.0197C65.4769 11.4062 65.2412 11.5973 64.8443 11.5973H63.6741C63.2771 11.5973 63.0332 11.4062 62.9381 11.0197L61.71 6.00432H61.5115L61.28 12.7151H59.6053L59.8989 5.27715C59.9154 4.82838 60.1387 4.60815 60.5646 4.60815H62.2847C62.6569 4.60815 62.8926 4.7993 62.9836 5.18158L63.9677 9.22465C63.9966 9.38255 64.038 9.59863 64.0917 9.88118C64.1413 10.1637 64.1703 10.3258 64.1786 10.3632H64.3316C64.3398 10.3258 64.3688 10.1637 64.4184 9.88118C64.4721 9.59863 64.5094 9.3784 64.5424 9.22465L65.5142 5.18158C65.601 4.7993 65.8408 4.60815 66.2419 4.60815H66.2295Z" fill="#FAFAFA"/>
<path fill-rule="evenodd" clip-rule="evenodd" d="M75.0825 10.5876H72.3121L71.729 12.7151H69.9014L72.2294 5.0777C72.2624 4.93642 72.3327 4.82423 72.4485 4.73697C72.5643 4.64971 72.6966 4.60815 72.8455 4.60815H74.5284C74.8633 4.60815 75.0701 4.76606 75.1486 5.0777L77.4725 12.7151H75.6614L75.0784 10.5876H75.0825ZM74.6979 9.19972L74.0198 6.71903C73.9288 6.32843 73.8709 6.07496 73.8585 5.95446H73.5401C73.5236 6.03341 73.4988 6.15807 73.4575 6.32844C73.4202 6.50296 73.3872 6.63177 73.3665 6.71488L72.6883 9.19556H74.7021L74.6979 9.19972Z" fill="#FAFAFA"/>
<path d="M81.9466 9.15393H78.4609V10.2925H81.9466V9.15393Z" fill="#FAFAFA"/>
<path fill-rule="evenodd" clip-rule="evenodd" d="M90.2371 4.60815H91.9572C92.379 4.60815 92.6023 4.83254 92.6229 5.27715L92.9289 12.7151H91.246L90.9855 6.00432H90.7746L89.5589 11.0197C89.4804 11.4062 89.2447 11.5973 88.8477 11.5973H87.6775C87.2806 11.5973 87.0366 11.4062 86.9415 11.0197L85.7134 6.00432H85.5149L85.2792 12.7151H83.6046L83.8982 5.27715C83.9147 4.82838 84.138 4.60815 84.5639 4.60815H86.284C86.6562 4.60815 86.8919 4.7993 86.987 5.18158L87.967 9.22465C88.0001 9.38255 88.0373 9.59863 88.091 9.88118C88.1406 10.1637 88.1696 10.3258 88.1779 10.3632H88.3308C88.3391 10.3258 88.3681 10.1637 88.4177 9.88118C88.4673 9.59863 88.5087 9.3784 88.5417 9.22465L89.5134 5.18158C89.6003 4.7993 89.8401 4.60815 90.2371 4.60815Z" fill="#FAFAFA"/>
<path fill-rule="evenodd" clip-rule="evenodd" d="M47.7257 16.6708H46.5307V19.513H45.9559V16.6708H44.7526V16.193H47.7257V16.6708Z" fill="#FAFAFA"/>
<path fill-rule="evenodd" clip-rule="evenodd" d="M51.3396 19.513H50.8186V17.3108C50.8186 17.2567 50.8186 17.1736 50.8269 17.0698C50.8352 16.9617 50.8352 16.8952 50.8352 16.8703H50.8228C50.7731 16.995 50.6946 17.1238 50.5912 17.2567L48.9083 19.513H48.4327V16.193H48.9538V18.3953C48.9538 18.5282 48.9496 18.6737 48.9331 18.8399H48.9455C49.0199 18.6903 49.0985 18.5615 49.1853 18.4576L50.8641 16.1971H51.3314V19.5172L51.3396 19.513Z" fill="#FAFAFA"/>
<path fill-rule="evenodd" clip-rule="evenodd" d="M55.2472 16.193V19.513H54.6766V16.6625H52.9813V19.513H52.4189V16.193H55.2472Z" fill="#FAFAFA"/>
<path fill-rule="evenodd" clip-rule="evenodd" d="M57.7198 16.1099C58.2863 16.1099 58.6874 16.2428 58.919 16.5046C59.1547 16.7664 59.2705 17.2193 59.2705 17.8551C59.2705 18.4908 59.1547 18.9396 58.919 19.2055C58.6833 19.4673 58.2822 19.6003 57.7198 19.6003C57.1575 19.6003 56.7481 19.4673 56.5124 19.2055C56.2767 18.9396 56.161 18.4908 56.161 17.8551C56.161 17.2193 56.2767 16.7706 56.5124 16.5046C56.7481 16.2428 57.1492 16.1099 57.7198 16.1099ZM57.7198 16.6002C57.356 16.6002 57.1037 16.6874 56.9673 16.8661C56.835 17.0448 56.7647 17.3731 56.7647 17.8551C56.7647 18.3371 56.835 18.6654 56.9673 18.844C57.1037 19.0227 57.356 19.11 57.7198 19.11C58.0837 19.11 58.3318 19.0227 58.4683 18.844C58.6047 18.6654 58.6709 18.3371 58.6709 17.8551C58.6709 17.3731 58.6006 17.0448 58.4683 16.8661C58.3318 16.6916 58.0837 16.6002 57.7198 16.6002Z" fill="#FAFAFA"/>
<path fill-rule="evenodd" clip-rule="evenodd" d="M60.1761 19.5131V16.9036C60.1761 16.4215 60.4201 16.1805 60.908 16.1805C61.6978 16.1805 62.2767 16.1972 62.6365 16.2346L62.6158 16.6418H61.1437C61.0031 16.6418 60.9039 16.675 60.8377 16.7415C60.7757 16.808 60.7426 16.9119 60.7426 17.0531V19.5131H60.172H60.1761Z" fill="#FAFAFA"/>
<path fill-rule="evenodd" clip-rule="evenodd" d="M63.7983 16.1931L63.8438 16.725C64.0257 16.5338 64.2366 16.3842 64.4847 16.2762C64.7328 16.1682 64.9726 16.1141 65.2124 16.1141C65.6094 16.1141 65.8989 16.2596 66.0808 16.5504C66.2627 16.8413 66.3537 17.2818 66.3537 17.8718C66.3537 18.4993 66.2545 18.9439 66.056 19.2057C65.8575 19.4674 65.5391 19.5962 65.1049 19.5962C64.6708 19.5962 64.2531 19.4841 63.8851 19.2555C63.9017 19.4467 63.9058 19.6669 63.8975 19.9245V20.8844H63.3269V16.1972H63.7942L63.7983 16.1931ZM63.8975 17.128V18.8857C64.3606 19.0228 64.7121 19.0893 64.9561 19.0893C65.2538 19.0893 65.4605 19.0062 65.5805 18.8358C65.7004 18.6696 65.7583 18.3455 65.7583 17.8677C65.7583 17.3898 65.7045 17.0782 65.5929 16.8953C65.4812 16.7083 65.2951 16.6169 65.0346 16.6169C64.7328 16.6169 64.3524 16.7873 63.9017 17.128H63.8975Z" fill="#FAFAFA"/>
<path fill-rule="evenodd" clip-rule="evenodd" d="M67.2965 16.6916L67.2427 16.2595C67.8589 16.1597 68.3923 16.1099 68.843 16.1099C69.2275 16.1099 69.5128 16.1888 69.6948 16.3509C69.8767 16.5129 69.9677 16.7872 69.9677 17.1736V19.513H69.5128L69.4425 18.9687C69.2854 19.1307 69.0869 19.2762 68.8512 19.3967C68.6114 19.5172 68.355 19.5795 68.0821 19.5795C67.7803 19.5795 67.5405 19.5006 67.3627 19.3385C67.1849 19.1764 67.098 18.9479 67.098 18.6529V18.2914C67.098 18.0337 67.1807 17.8301 67.3378 17.6889C67.4991 17.5434 67.7224 17.4728 68.016 17.4728H69.3929V17.1819C69.3888 16.9742 69.3392 16.8246 69.2441 16.7373C69.149 16.65 68.9753 16.6085 68.7231 16.6085C68.4005 16.6085 67.9291 16.6376 67.3006 16.6958L67.2965 16.6916ZM67.681 18.3662V18.5781C67.681 18.7526 67.7224 18.8773 67.8092 18.9562C67.8919 19.0352 68.0242 19.0767 68.1979 19.0767C68.3757 19.0809 68.5701 19.0393 68.7892 18.9521C69.0084 18.8648 69.2068 18.7401 69.3929 18.5781V17.9091H68.1194C67.8299 17.9216 67.6852 18.0753 67.6852 18.3662H67.681Z" fill="#FAFAFA"/>
<path fill-rule="evenodd" clip-rule="evenodd" d="M73.1929 14.7386V16.114C73.838 16.139 74.3011 16.2886 74.5782 16.5587C74.8552 16.8246 74.9917 17.2567 74.9917 17.8509C74.9917 18.4451 74.8552 18.869 74.5782 19.1391C74.3011 19.4092 73.8421 19.5546 73.1929 19.5837V20.8801H72.6595V19.5837C72.0103 19.5546 71.5472 19.4092 71.2743 19.1391C70.9973 18.869 70.8608 18.441 70.8608 17.8509C70.8608 17.2609 70.9973 16.8246 71.2743 16.5587C71.5514 16.2886 72.0145 16.1431 72.6595 16.114V14.7386H73.1929ZM72.6761 19.0934V16.6002C72.2047 16.621 71.878 16.7249 71.692 16.9118C71.5059 17.0947 71.4149 17.4105 71.4149 17.8551C71.4149 18.2997 71.5059 18.6072 71.692 18.79C71.878 18.9729 72.2047 19.0726 72.6761 19.0975V19.0934ZM73.1723 16.6002V19.0934C73.6354 19.0684 73.962 18.9687 74.1481 18.7859C74.3342 18.603 74.4252 18.2914 74.4252 17.8509C74.4252 17.4105 74.3301 17.0988 74.1481 16.9118C73.962 16.7249 73.6354 16.621 73.1723 16.5961V16.6002Z" fill="#FAFAFA"/>
<path fill-rule="evenodd" clip-rule="evenodd" d="M78.8 19.513H78.279V17.3108C78.279 17.2567 78.279 17.1736 78.2914 17.0698C78.2956 16.9617 78.3038 16.8952 78.3038 16.8703H78.2914C78.2418 16.995 78.1633 17.1238 78.0599 17.2567L76.3769 19.513H75.9014V16.193H76.4224V18.3953C76.4224 18.5282 76.4142 18.6737 76.4018 18.8399H76.4142C76.4845 18.6903 76.563 18.5615 76.654 18.4576L78.3328 16.1971H78.8V19.5172V19.513Z" fill="#FAFAFA"/>
<path fill-rule="evenodd" clip-rule="evenodd" d="M80.5571 18.0961V18.0671C80.2924 18.0297 80.0981 17.9382 79.9782 17.7845C79.8582 17.6308 79.8045 17.4188 79.8045 17.1404C79.8045 16.8122 79.8955 16.567 80.0774 16.405C80.2593 16.2387 80.5777 16.1598 81.0326 16.1598C81.6776 16.1598 82.1656 16.1764 82.4922 16.2055V19.5131H81.9299V18.2873H81.0408C80.7183 18.2873 80.5281 18.3995 80.4661 18.628L80.2139 19.5131H79.6184L79.9161 18.5158C79.9947 18.2707 80.2056 18.1294 80.5612 18.092L80.5571 18.0961ZM81.9257 17.851V16.6293C81.8596 16.6293 81.7273 16.6293 81.5288 16.6293C81.3303 16.6293 81.169 16.6293 81.045 16.6293C80.7803 16.6293 80.5984 16.675 80.5074 16.7623C80.4123 16.8496 80.3669 17.0075 80.3669 17.2277C80.3669 17.4479 80.4165 17.6224 80.5157 17.7139C80.6108 17.8053 80.7969 17.851 81.0657 17.851H81.9257Z" fill="#FAFAFA"/>
<defs>
<linearGradient id="paint0_linear_1_599" x1="-0.00374947" y1="13.8015" x2="7.14939" y2="20.4981" gradientUnits="userSpaceOnUse">
<stop stop-color="#C2E1F5"/>
<stop offset="1" stop-color="#00A4E4"/>
</linearGradient>
<linearGradient id="paint1_linear_1_599" x1="13.9682" y1="19.9929" x2="23.3733" y2="3.97714" gradientUnits="userSpaceOnUse">
<stop stop-color="#F7BE12"/>
<stop offset="1" stop-color="#E45D4F"/>
</linearGradient>
<linearGradient id="paint2_linear_1_599" x1="4.61076" y1="22.6813" x2="14.8565" y2="5.56415" gradientUnits="userSpaceOnUse">
<stop stop-color="#00A4E4"/>
<stop offset="1" stop-color="#3B529C"/>
</linearGradient>
<linearGradient id="paint3_linear_1_599" x1="8.89881" y1="21.0358" x2="19.7136" y2="3.61444" gradientUnits="userSpaceOnUse">
<stop stop-color="#EA88AD"/>
<stop offset="1" stop-color="#BE3A8A"/>
</linearGradient>
<linearGradient id="paint4_linear_1_599" x1="18.7692" y1="18.2186" x2="26.4604" y2="4.02658" gradientUnits="userSpaceOnUse">
<stop stop-color="#FFE600"/>
<stop offset="1" stop-color="#EFA035"/>
</linearGradient>
<linearGradient id="paint5_linear_1_599" x1="16.6103" y1="0.999082" x2="14.6069" y2="9.91625" gradientUnits="userSpaceOnUse">
<stop stop-color="#F0A435"/>
<stop offset="1" stop-color="#E45D4F"/>
</linearGradient>
<linearGradient id="paint6_linear_1_599" x1="9.22948" y1="2.11688" x2="7.22193" y2="11.034" gradientUnits="userSpaceOnUse">
<stop stop-color="#C2E1F5"/>
<stop offset="1" stop-color="#00A4E4"/>
</linearGradient>
<linearGradient id="paint7_linear_1_599" x1="20.5923" y1="2.13353" x2="19.3525" y2="8.95018" gradientUnits="userSpaceOnUse">
<stop stop-color="#FFE600"/>
<stop offset="1" stop-color="#F6B723"/>
</linearGradient>
<linearGradient id="paint8_linear_1_599" x1="12.5954" y1="0.259458" x2="9.72847" y2="11.3181" gradientUnits="userSpaceOnUse">
<stop stop-color="#EEB2C8"/>
<stop offset="1" stop-color="#E30D7C"/>
</linearGradient>
</defs>
</svg>
