<svg width="102" height="32" viewBox="0 0 102 32" fill="none" xmlns="http://www.w3.org/2000/svg">
<path fill-rule="evenodd" clip-rule="evenodd" d="M17.2891 22.2309L14.7342 23.7536L11.7893 18.4835L12.8342 17.3082L14.3442 16.9608L17.2891 22.2309Z" fill="url(#paint0_linear_1_699)"/>
<path fill-rule="evenodd" clip-rule="evenodd" d="M16.3444 13.3797H10.4546V10.3307H16.3444L16.8095 11.857L16.3444 13.3797Z" fill="url(#paint1_linear_1_699)"/>
<path fill-rule="evenodd" clip-rule="evenodd" d="M7.95695 20.7711L6.29665 17.785C5.87485 17.0304 5.65265 16.1745 5.65234 15.3032C5.65204 14.4319 5.87364 13.5759 6.29491 12.821C6.71618 12.0661 7.3223 11.439 8.05241 11.0025C8.78253 10.566 9.61096 10.3356 10.4546 10.3344V13.3796C10.1277 13.3792 9.80657 13.4677 9.52338 13.6362C9.24019 13.8047 9.00496 14.0472 8.84137 14.3395C8.67778 14.6317 8.59159 14.9633 8.59149 15.3008C8.59138 15.6384 8.67736 15.97 8.84077 16.2623L10.5082 19.2485L9.46339 20.4237L7.95695 20.7711Z" fill="url(#paint2_linear_1_699)"/>
<path fill-rule="evenodd" clip-rule="evenodd" d="M18.3481 16.9608L21.293 11.6907L23.8479 13.2133L20.903 18.4834L19.393 18.136L18.3481 16.9608Z" fill="url(#paint3_linear_1_699)"/>
<path fill-rule="evenodd" clip-rule="evenodd" d="M16.3443 5.75903H19.6792C20.5249 5.75834 21.3558 5.98781 22.0883 6.42432C22.8207 6.86083 23.4289 7.48897 23.8516 8.24549C24.2742 9.00201 24.4964 9.8602 24.4958 10.7336C24.4951 11.6071 24.2716 12.4649 23.8479 13.2207L21.293 11.6981C21.4564 11.4058 21.5424 11.0741 21.5423 10.7366C21.5422 10.399 21.456 10.0675 21.2924 9.77524C21.1288 9.48301 20.8936 9.24045 20.6104 9.07196C20.3272 8.90346 20.0061 8.81498 19.6792 8.81541H16.3443L15.8792 7.29277L16.3443 5.75903Z" fill="url(#paint4_linear_1_699)"/>
<path fill-rule="evenodd" clip-rule="evenodd" d="M24.7353 20.7712L23.0678 23.7536C22.646 24.5097 22.0388 25.1377 21.3073 25.5743C20.5758 26.0109 19.7458 26.2408 18.901 26.2408C18.0561 26.2408 17.2262 26.0109 16.4947 25.5743C15.7632 25.1377 15.156 24.5097 14.7341 23.7536L17.289 22.231C17.4525 22.5226 17.6873 22.7646 17.9699 22.9329C18.2525 23.1012 18.573 23.1898 18.8992 23.1898C19.2254 23.1898 19.5459 23.1012 19.8285 22.9329C20.1111 22.7646 20.3459 22.5226 20.5094 22.231L22.1769 19.2485L23.6869 19.5922L24.7353 20.7712Z" fill="url(#paint5_linear_1_699)"/>
<path fill-rule="evenodd" clip-rule="evenodd" d="M13.0094 5.75904H16.3443V8.80802H13.0094C12.6826 8.80759 12.3614 8.89607 12.0783 9.06457C11.7951 9.23306 11.5598 9.47563 11.3962 9.76785C11.2327 10.0601 11.1465 10.3916 11.1464 10.7292C11.1463 11.0667 11.2322 11.3984 11.3956 11.6907L14.3441 16.9608L11.7893 18.4835L8.84437 13.2207C8.41959 12.4653 8.19521 11.6076 8.19385 10.7341C8.1925 9.8605 8.41422 9.00203 8.83666 8.24524C9.25909 7.48845 9.8673 6.86011 10.5999 6.4236C11.3325 5.9871 12.1637 5.75787 13.0094 5.75904Z" fill="#67BEEB"/>
<path fill-rule="evenodd" clip-rule="evenodd" d="M26.4029 17.785L24.7354 20.7711L22.1806 19.2485L23.848 16.2623C24.0113 15.9703 24.0973 15.639 24.0973 15.3017C24.0974 14.9645 24.0115 14.6332 23.8483 14.3411C23.6852 14.049 23.4504 13.8063 23.1678 13.6376C22.8851 13.4688 22.5643 13.3799 22.2378 13.3796H16.3445V10.3344H22.2378C23.082 10.3343 23.9114 10.5638 24.6425 10.9997C25.3736 11.4357 25.9807 12.0627 26.4028 12.8178C26.825 13.5729 27.0472 14.4294 27.0472 15.3014C27.0472 16.1733 26.825 17.0299 26.4029 17.785Z" fill="#67BEEB"/>
<path fill-rule="evenodd" clip-rule="evenodd" d="M9.62449 23.7536L7.95703 20.7711L10.5083 19.2485L12.1793 22.2309C12.3428 22.5225 12.5776 22.7646 12.8602 22.9328C13.1429 23.1011 13.4633 23.1897 13.7896 23.1897C14.1158 23.1897 14.4362 23.1011 14.7189 22.9328C15.0015 22.7646 15.2363 22.5225 15.3998 22.2309L18.3446 16.9608L20.8995 18.4835L17.9546 23.7536C17.5326 24.5088 16.9254 25.1359 16.1943 25.5719C15.4632 26.008 14.6338 26.2375 13.7896 26.2375C12.9453 26.2375 12.1159 26.008 11.3848 25.5719C10.6537 25.1359 10.0465 24.5088 9.62449 23.7536Z" fill="#67BEEB"/>
<path fill-rule="evenodd" clip-rule="evenodd" d="M14.7305 15.0686C14.7073 15.027 14.6951 14.9799 14.6951 14.9319C14.6951 14.8839 14.7073 14.8368 14.7305 14.7952C14.7537 14.7536 14.7871 14.7191 14.8273 14.6951C14.8675 14.6711 14.9131 14.6584 14.9595 14.6583H17.747C17.7919 14.6615 17.8353 14.6764 17.8731 14.7017C17.9109 14.7269 17.9418 14.7618 17.963 14.8028C17.9841 14.8439 17.9947 14.8898 17.9939 14.9363C17.993 14.9828 17.9807 15.0283 17.9581 15.0686L17.2675 16.3103L16.5733 17.5484C16.5501 17.5898 16.5166 17.6242 16.4765 17.6481C16.4363 17.672 16.3907 17.6846 16.3443 17.6846C16.298 17.6846 16.2524 17.672 16.2122 17.6481C16.172 17.6242 16.1386 17.5898 16.1153 17.5484L15.4211 16.3177L14.7305 15.0686Z" fill="#0E1B2E"/>
<path d="M41.7464 25.3686H39.9036C39.8914 25.3686 39.8793 25.3661 39.868 25.3613C39.8567 25.3564 39.8464 25.3494 39.8378 25.3404C39.8292 25.3315 39.8223 25.3209 39.8176 25.3093C39.813 25.2976 39.8105 25.2851 39.8105 25.2725V22.6559C39.8105 22.6304 39.8203 22.606 39.8378 22.588C39.8552 22.5699 39.8789 22.5598 39.9036 22.5598H41.7213C41.746 22.5598 41.7697 22.5699 41.7871 22.588C41.8046 22.606 41.8144 22.6304 41.8144 22.6559V22.9774C41.8144 23.0029 41.8046 23.0274 41.7871 23.0454C41.7697 23.0634 41.746 23.0735 41.7213 23.0735H40.3401V23.6944H41.6533C41.6783 23.6954 41.702 23.7063 41.7193 23.7249C41.7367 23.7435 41.7464 23.7684 41.7464 23.7942V24.112C41.7464 24.1246 41.744 24.1371 41.7393 24.1488C41.7346 24.1605 41.7278 24.171 41.7191 24.18C41.7105 24.1889 41.7002 24.196 41.6889 24.2008C41.6777 24.2056 41.6656 24.2081 41.6533 24.2081H40.3401V24.8549H41.7356C41.7603 24.8549 41.784 24.865 41.8014 24.883C41.8189 24.901 41.8287 24.9255 41.8287 24.951V25.2725C41.8288 25.2962 41.8205 25.3191 41.8053 25.3368C41.7901 25.3545 41.7691 25.3658 41.7464 25.3686Z" fill="#383838"/>
<path d="M45.8363 25.3686H44.0471C44.0349 25.3686 44.0228 25.3661 44.0115 25.3613C44.0002 25.3564 43.99 25.3494 43.9814 25.3404C43.9727 25.3315 43.9659 25.3209 43.9612 25.3093C43.9565 25.2976 43.9541 25.2851 43.9541 25.2725V22.6559C43.9541 22.6304 43.9639 22.606 43.9814 22.588C43.9988 22.5699 44.0225 22.5598 44.0471 22.5598H44.405C44.4296 22.5598 44.4533 22.5699 44.4707 22.588C44.4882 22.606 44.498 22.6304 44.498 22.6559V24.8438H45.8398C45.8655 24.8438 45.89 24.8543 45.9081 24.873C45.9263 24.8917 45.9364 24.9171 45.9364 24.9436V25.2725C45.936 25.2856 45.933 25.2985 45.9277 25.3104C45.9225 25.3223 45.9149 25.3331 45.9056 25.342C45.8963 25.3509 45.8854 25.3579 45.8735 25.3624C45.8616 25.367 45.8489 25.3691 45.8363 25.3686Z" fill="#383838"/>
<path d="M49.7973 25.3686H47.9545C47.9295 25.3686 47.9055 25.3586 47.8874 25.3407C47.8694 25.3227 47.8588 25.2983 47.8579 25.2725V22.6559C47.8588 22.6301 47.8694 22.6056 47.8874 22.5877C47.9055 22.5698 47.9295 22.5598 47.9545 22.5598H49.7794C49.8044 22.5598 49.8285 22.5698 49.8465 22.5877C49.8645 22.6056 49.8751 22.6301 49.876 22.6559V22.9774C49.8751 23.0033 49.8645 23.0277 49.8465 23.0456C49.8285 23.0635 49.8044 23.0735 49.7794 23.0735H48.4018V23.6944H49.7114C49.7241 23.6944 49.7367 23.697 49.7484 23.702C49.7601 23.707 49.7708 23.7144 49.7798 23.7236C49.7887 23.7329 49.7958 23.7439 49.8007 23.756C49.8056 23.7681 49.8081 23.7811 49.8081 23.7942V24.112C49.8081 24.125 49.8055 24.1378 49.8006 24.1497C49.7957 24.1616 49.7886 24.1723 49.7795 24.1813C49.7705 24.1903 49.7598 24.1973 49.7481 24.2019C49.7364 24.2065 49.724 24.2086 49.7114 24.2081H48.4018V24.8549H49.7973C49.822 24.8549 49.8457 24.865 49.8631 24.883C49.8805 24.901 49.8903 24.9255 49.8903 24.951V25.2725C49.8903 25.298 49.8805 25.3224 49.8631 25.3404C49.8457 25.3585 49.822 25.3686 49.7973 25.3686Z" fill="#383838"/>
<path d="M54.363 23.1992L54.0553 23.3951C54.0347 23.4065 54.011 23.4102 53.9881 23.4055C53.9653 23.4007 53.9447 23.3879 53.93 23.3692C53.8526 23.2679 53.7536 23.1864 53.6406 23.1313C53.5276 23.0762 53.4037 23.0488 53.2788 23.0514C53.1295 23.0493 52.982 23.0859 52.85 23.158C52.718 23.2301 52.6056 23.3353 52.5232 23.464C52.4408 23.5926 52.3911 23.7406 52.3786 23.8943C52.366 24.048 52.3911 24.2025 52.4515 24.3436C52.5119 24.4847 52.6056 24.6078 52.7241 24.7017C52.8426 24.7956 52.982 24.8572 53.1296 24.8809C53.2772 24.9046 53.4282 24.8896 53.5686 24.8372C53.7091 24.7849 53.8346 24.6969 53.9336 24.5814C53.9479 24.562 53.9687 24.5489 53.992 24.5448C54.0152 24.5407 54.0391 24.5459 54.0588 24.5593L54.3523 24.7773C54.3626 24.7847 54.3713 24.7941 54.378 24.805C54.3847 24.816 54.3892 24.8282 54.3912 24.841C54.3932 24.8537 54.3927 24.8668 54.3897 24.8794C54.3867 24.8919 54.3813 24.9037 54.3737 24.9141C54.2221 25.1108 54.0245 25.2644 53.7994 25.3602C53.5743 25.456 53.3293 25.491 53.0875 25.4618C52.8457 25.4326 52.6151 25.3402 52.4176 25.1933C52.22 25.0464 52.062 24.8498 51.9584 24.6223C51.8549 24.3947 51.8092 24.1436 51.8258 23.8928C51.8424 23.6419 51.9207 23.3996 52.0532 23.1887C52.1858 22.9778 52.3682 22.8053 52.5833 22.6875C52.7984 22.5697 53.039 22.5105 53.2824 22.5155C53.4967 22.5082 53.7096 22.5541 53.9032 22.6492C54.0968 22.7444 54.2655 22.8861 54.3952 23.0625C54.4084 23.0851 54.4125 23.1121 54.4064 23.1377C54.4004 23.1633 54.3848 23.1855 54.363 23.1992Z" fill="#383838"/>
<path d="M58.3994 23.0846H57.6515V25.2725C57.6515 25.2851 57.6491 25.2976 57.6445 25.3093C57.6398 25.3209 57.6329 25.3315 57.6243 25.3404C57.6157 25.3494 57.6054 25.3564 57.5941 25.3613C57.5828 25.3661 57.5707 25.3686 57.5585 25.3686H57.2007C57.1885 25.3686 57.1764 25.3661 57.1651 25.3613C57.1538 25.3564 57.1435 25.3494 57.1349 25.3404C57.1263 25.3315 57.1194 25.3209 57.1147 25.3093C57.1101 25.2976 57.1076 25.2851 57.1076 25.2725V23.0846H56.3562C56.3315 23.0846 56.3079 23.0745 56.2904 23.0565C56.273 23.0384 56.2632 23.014 56.2632 22.9885V22.6559C56.2632 22.6304 56.273 22.606 56.2904 22.588C56.3079 22.5699 56.3315 22.5598 56.3562 22.5598H58.3958C58.4205 22.5598 58.4441 22.5699 58.4616 22.588C58.479 22.606 58.4888 22.6304 58.4888 22.6559V22.9885C58.4889 23.0134 58.4796 23.0373 58.4629 23.0552C58.4462 23.0731 58.4234 23.0837 58.3994 23.0846Z" fill="#383838"/>
<path d="M61.5697 22.5598C62.2209 22.5598 62.568 22.8776 62.568 23.4135C62.5671 23.5248 62.5447 23.6348 62.5021 23.737C62.4594 23.8392 62.3975 23.9315 62.3198 24.0087C62.2421 24.0858 62.1503 24.1461 62.0498 24.1861C61.9492 24.226 61.842 24.2448 61.7343 24.2414L62.4964 25.2688C62.5045 25.2775 62.5098 25.2885 62.5116 25.3004C62.5135 25.3123 62.5117 25.3245 62.5067 25.3353C62.5016 25.3462 62.4935 25.3552 62.4833 25.3611C62.4732 25.3671 62.4615 25.3697 62.4499 25.3686H61.9919C61.9682 25.369 61.9448 25.3635 61.9236 25.3526C61.9024 25.3417 61.8841 25.3256 61.8702 25.3057L61.1224 24.2525H60.9649V25.2725C60.964 25.2983 60.9534 25.3227 60.9354 25.3407C60.9174 25.3586 60.8934 25.3686 60.8683 25.3686H60.5105C60.4858 25.3686 60.4622 25.3585 60.4447 25.3404C60.4273 25.3224 60.4175 25.298 60.4175 25.2725V22.6559C60.4175 22.6304 60.4273 22.606 60.4447 22.588C60.4622 22.5699 60.4858 22.5598 60.5105 22.5598H61.5697ZM60.9649 23.0772V23.7646H61.5625C61.8559 23.7646 62.0098 23.6501 62.0098 23.3951C62.0098 23.14 61.8488 23.0587 61.5625 23.0587L60.9649 23.0772Z" fill="#383838"/>
<path d="M65.0692 25.3686H64.7114C64.6863 25.3686 64.6623 25.3586 64.6443 25.3407C64.6263 25.3227 64.6157 25.2983 64.6147 25.2725V22.6559C64.6157 22.6301 64.6263 22.6056 64.6443 22.5877C64.6623 22.5698 64.6863 22.5598 64.7114 22.5598H65.0692C65.0939 22.5598 65.1175 22.5699 65.135 22.588C65.1524 22.606 65.1622 22.6304 65.1622 22.6559V25.2725C65.1622 25.2851 65.1598 25.2976 65.1551 25.3093C65.1505 25.3209 65.1436 25.3315 65.135 25.3404C65.1263 25.3494 65.1161 25.3564 65.1048 25.3613C65.0935 25.3661 65.0814 25.3686 65.0692 25.3686Z" fill="#383838"/>
<path d="M69.7136 23.1992L69.4023 23.3951C69.3823 23.4062 69.3592 23.4097 69.3369 23.405C69.3147 23.4003 69.2948 23.3876 69.2807 23.3692C69.2029 23.2683 69.1037 23.1871 68.9908 23.132C68.8779 23.0769 68.7543 23.0493 68.6294 23.0514C68.3922 23.0514 68.1646 23.1487 67.9969 23.322C67.8291 23.4952 67.7349 23.7302 67.7349 23.9753C67.7349 24.2203 67.8291 24.4553 67.9969 24.6286C68.1646 24.8019 68.3922 24.8992 68.6294 24.8992C68.7535 24.9011 68.8765 24.8741 68.9892 24.8204C69.1019 24.7667 69.2015 24.6875 69.2807 24.5888C69.2956 24.5691 69.317 24.5559 69.3409 24.5518C69.3647 24.5477 69.3892 24.553 69.4095 24.5666L69.6993 24.7847C69.71 24.7916 69.7192 24.8009 69.7262 24.8118C69.7332 24.8228 69.7379 24.8351 69.7399 24.848C69.7419 24.861 69.7413 24.8742 69.738 24.8868C69.7347 24.8995 69.7288 24.9113 69.7208 24.9214C69.5687 25.1187 69.3702 25.2724 69.1443 25.3681C68.9184 25.4638 68.6726 25.4982 68.4302 25.4681C68.1877 25.438 67.9568 25.3443 67.7594 25.1959C67.5619 25.0476 67.4045 24.8496 67.302 24.6207C67.1996 24.3918 67.1555 24.1396 67.1741 23.8881C67.1926 23.6367 67.2731 23.3943 67.4079 23.1841C67.5428 22.9738 67.7274 22.8027 67.9444 22.687C68.1613 22.5712 68.4033 22.5147 68.6473 22.5229C68.8611 22.5155 69.0735 22.5614 69.2665 22.6566C69.4596 22.7518 69.6276 22.8935 69.7566 23.0698C69.7621 23.0812 69.7653 23.0936 69.7661 23.1063C69.7669 23.119 69.7653 23.1317 69.7613 23.1438C69.7573 23.1558 69.751 23.1669 69.7428 23.1764C69.7346 23.1859 69.7247 23.1937 69.7136 23.1992Z" fill="#383838"/>
<path d="M76.7203 23.1991L76.409 23.395C76.3891 23.4061 76.3659 23.4096 76.3437 23.4049C76.3214 23.4002 76.3015 23.3875 76.2874 23.3691C76.21 23.2678 76.1109 23.1863 75.9979 23.1312C75.8849 23.076 75.7611 23.0487 75.6361 23.0513C75.3989 23.0513 75.1714 23.1486 75.0036 23.3219C74.8358 23.4952 74.7416 23.7302 74.7416 23.9752C74.7416 24.2203 74.8358 24.4553 75.0036 24.6285C75.1714 24.8018 75.3989 24.8991 75.6361 24.8991C75.7603 24.901 75.8832 24.874 75.9959 24.8203C76.1086 24.7666 76.2082 24.6874 76.2874 24.5887C76.3023 24.569 76.3238 24.5558 76.3476 24.5517C76.3715 24.5476 76.3959 24.5529 76.4162 24.5665L76.706 24.7846C76.7168 24.7916 76.7259 24.8008 76.7329 24.8118C76.7399 24.8227 76.7446 24.835 76.7466 24.8479C76.7487 24.8609 76.748 24.8741 76.7447 24.8868C76.7414 24.8994 76.7356 24.9112 76.7275 24.9213C76.54 25.1506 76.2884 25.3144 76.0073 25.3904C75.7261 25.4663 75.4291 25.4507 75.1569 25.3456C74.8847 25.2405 74.6506 25.0511 74.4866 24.8033C74.3226 24.5555 74.2368 24.2614 74.2409 23.9613C74.2449 23.6611 74.3387 23.3696 74.5093 23.1267C74.68 22.8837 74.9191 22.7011 75.1941 22.604C75.469 22.5068 75.7663 22.4997 76.0453 22.5838C76.3243 22.6678 76.5713 22.8388 76.7526 23.0735C76.7626 23.0949 76.7649 23.1194 76.759 23.1424C76.7531 23.1655 76.7394 23.1856 76.7203 23.1991Z" fill="#383838"/>
<path d="M81.1928 25.3686H80.835C80.8092 25.3687 80.7841 25.3606 80.7629 25.3453C80.7418 25.3301 80.7257 25.3086 80.7169 25.2836L80.5093 24.7144H79.35L79.146 25.2836C79.1372 25.3086 79.1211 25.3301 79.1 25.3453C79.0789 25.3606 79.0537 25.3687 79.028 25.3686H78.6701C78.657 25.3682 78.6442 25.3647 78.6327 25.3582C78.6212 25.3517 78.6114 25.3425 78.604 25.3313C78.5967 25.3201 78.592 25.3072 78.5904 25.2938C78.5889 25.2803 78.5904 25.2667 78.595 25.254L79.579 22.6411C79.5892 22.6174 79.6057 22.5971 79.6266 22.5827C79.6475 22.5683 79.672 22.5604 79.6971 22.5598H80.1873C80.212 22.5602 80.2361 22.5681 80.2565 22.5826C80.2769 22.597 80.2926 22.6174 80.3018 22.6411L81.2858 25.254C81.2913 25.2683 81.2929 25.2838 81.2905 25.2989C81.2882 25.314 81.2819 25.3282 81.2724 25.3399C81.2628 25.3517 81.2504 25.3605 81.2364 25.3656C81.2224 25.3706 81.2073 25.3717 81.1928 25.3686ZM79.5253 24.2007H80.309L79.9189 23.1142L79.5253 24.2007Z" fill="#383838"/>
<path d="M89.3116 23.1992C89.306 23.2104 89.2983 23.2203 89.2888 23.2283C89.2794 23.2362 89.2684 23.2421 89.2567 23.2456C89.245 23.2491 89.2327 23.25 89.2206 23.2484C89.2085 23.2468 89.1969 23.2426 89.1864 23.2362C88.9756 23.1128 88.738 23.0466 88.4958 23.044C88.188 23.044 87.9733 23.1696 87.9733 23.3803C87.9733 23.5909 88.2095 23.6501 88.5351 23.7055L88.689 23.7314C89.1756 23.8164 89.5549 24.0307 89.5549 24.5186C89.5549 25.1395 89.0254 25.4351 88.4421 25.4351C88.0623 25.4406 87.6892 25.3314 87.3686 25.121C87.349 25.1061 87.3355 25.0842 87.3309 25.0595C87.3262 25.0349 87.3308 25.0093 87.3436 24.9879L87.5225 24.6775C87.5376 24.656 87.5602 24.6413 87.5855 24.6364C87.6108 24.6316 87.6369 24.6371 87.6585 24.6516C87.8911 24.81 88.1635 24.8947 88.4421 24.8955C88.7463 24.8955 88.9788 24.7736 88.9788 24.5555C88.9788 24.3375 88.7785 24.2894 88.4027 24.2266L88.2274 24.2007C87.7479 24.1231 87.4008 23.9014 87.4008 23.3951C87.4008 22.8111 87.9054 22.5044 88.4743 22.5044C88.8083 22.4989 89.1378 22.5843 89.4297 22.752C89.4408 22.7585 89.4505 22.7672 89.4583 22.7777C89.4661 22.7881 89.4718 22.8 89.4751 22.8127C89.4785 22.8254 89.4793 22.8387 89.4777 22.8517C89.476 22.8648 89.4719 22.8774 89.4655 22.8888L89.3116 23.1992Z" fill="#383838"/>
<path d="M84.3595 22.5598C85.0107 22.5598 85.3578 22.8776 85.3578 23.4135C85.3569 23.5248 85.3345 23.6348 85.2918 23.737C85.2492 23.8392 85.1873 23.9315 85.1096 24.0087C85.0319 24.0858 84.9401 24.1461 84.8396 24.1861C84.739 24.226 84.6317 24.2448 84.5241 24.2414L85.2862 25.2688C85.2943 25.2775 85.2996 25.2885 85.3014 25.3004C85.3032 25.3123 85.3015 25.3245 85.2965 25.3353C85.2914 25.3462 85.2833 25.3552 85.2731 25.3611C85.263 25.3671 85.2513 25.3697 85.2397 25.3686H84.7781C84.755 25.3687 84.7322 25.3631 84.7116 25.3522C84.691 25.3412 84.6733 25.3253 84.66 25.3057L83.9122 24.2525H83.7512V25.2725C83.7512 25.298 83.7414 25.3224 83.7239 25.3404C83.7065 25.3585 83.6828 25.3686 83.6581 25.3686H83.3003C83.2756 25.3686 83.252 25.3585 83.2345 25.3404C83.2171 25.3224 83.2073 25.298 83.2073 25.2725V22.6559C83.2073 22.6304 83.2171 22.606 83.2345 22.588C83.252 22.5699 83.2756 22.5598 83.3003 22.5598H84.3595ZM83.7512 23.0772V23.7646H84.3523C84.6457 23.7646 84.7996 23.6501 84.7996 23.3951C84.7996 23.14 84.6386 23.0587 84.3523 23.0587L83.7512 23.0772Z" fill="#383838"/>
<path d="M32.4177 18.9602V9.38828C32.4173 9.33603 32.4268 9.28422 32.4459 9.23581C32.4649 9.18741 32.493 9.14338 32.5286 9.10626C32.5642 9.06915 32.6066 9.03969 32.6533 9.01959C32.6999 8.99948 32.75 8.98913 32.8006 8.98914H34.1818C34.2837 8.99011 34.3811 9.03259 34.4528 9.10734C34.5245 9.18209 34.5647 9.28305 34.5647 9.38828V13.1062H36.182L38.5151 9.32914C38.5791 9.2261 38.6668 9.14108 38.7705 9.08173C38.8742 9.02239 38.9905 8.99057 39.109 8.98914H40.6799C40.7212 8.99014 40.7616 9.00234 40.7969 9.0245C40.8322 9.04667 40.8613 9.07802 40.8812 9.11544C40.9012 9.15285 40.9112 9.19501 40.9104 9.2377C40.9096 9.28039 40.898 9.32212 40.8767 9.35871L37.8602 14.0338L41.0592 18.975C41.0815 19.0111 41.0941 19.0527 41.0956 19.0956C41.0971 19.1384 41.0876 19.1808 41.0678 19.2185C41.0481 19.2562 41.019 19.2878 40.9835 19.31C40.948 19.3321 40.9074 19.3441 40.8659 19.3446H39.2987C39.183 19.344 39.0692 19.3144 38.967 19.2584C38.8648 19.2024 38.7772 19.1217 38.7119 19.0231L36.1856 15.1204H34.5647V18.9602C34.5647 19.0125 34.5547 19.0642 34.5352 19.1124C34.5157 19.1607 34.4872 19.2044 34.4513 19.2412C34.4153 19.2779 34.3727 19.307 34.3258 19.3267C34.279 19.3463 34.2288 19.3562 34.1782 19.3557H32.8006C32.6991 19.3557 32.6017 19.314 32.5299 19.2399C32.4581 19.1657 32.4177 19.0651 32.4177 18.9602Z" fill="#383838"/>
<path d="M46.5018 18.9787L42.9057 9.42154C42.8877 9.37345 42.8813 9.32156 42.8871 9.27034C42.8928 9.21913 42.9105 9.17013 42.9387 9.12757C42.9669 9.08501 43.0047 9.05017 43.0488 9.02606C43.0929 9.00194 43.142 8.98927 43.192 8.98914H44.6626C44.7811 8.98965 44.8966 9.0279 44.9933 9.09866C45.09 9.16943 45.1632 9.26927 45.2029 9.38458L47.7506 16.7502L50.3091 9.38458C50.3488 9.26927 50.422 9.16943 50.5187 9.09866C50.6154 9.0279 50.7309 8.98965 50.8494 8.98914H52.32C52.3699 8.98927 52.4191 9.00194 52.4632 9.02606C52.5073 9.05017 52.5451 9.08501 52.5733 9.12757C52.6014 9.17013 52.6192 9.21913 52.6249 9.27034C52.6307 9.32156 52.6243 9.37345 52.6063 9.42154L48.9959 18.9787C48.9523 19.0886 48.8779 19.1825 48.7823 19.2484C48.6866 19.3142 48.5741 19.349 48.4591 19.3483H47.0278C46.9147 19.3468 46.8045 19.311 46.711 19.2453C46.6174 19.1796 46.5447 19.0869 46.5018 18.9787Z" fill="#383838"/>
<path d="M53.3505 18.9233L57.1327 9.35871C57.1764 9.2497 57.2503 9.15647 57.3452 9.09071C57.4401 9.02496 57.5516 8.98962 57.6659 8.98914H59.2152C59.3296 8.98913 59.4413 9.02428 59.5363 9.09009C59.6312 9.15591 59.7051 9.24941 59.7484 9.35871L63.5163 18.9196C63.5351 18.9674 63.5422 19.0192 63.537 19.0705C63.5318 19.1217 63.5145 19.1709 63.4866 19.2136C63.4586 19.2564 63.4209 19.2913 63.3768 19.3155C63.3327 19.3396 63.2835 19.3521 63.2336 19.352H61.8595C61.7446 19.3527 61.632 19.3179 61.5364 19.2521C61.4407 19.1862 61.3664 19.0923 61.3228 18.9824L60.736 17.4191H56.1487L55.5475 18.9861C55.5036 19.0957 55.4291 19.1893 55.3335 19.2551C55.238 19.3209 55.1257 19.3559 55.0108 19.3557H53.6332C53.5833 19.3558 53.5341 19.3433 53.49 19.3192C53.4458 19.295 53.4081 19.2601 53.3802 19.2173C53.3523 19.1746 53.3349 19.1254 53.3298 19.0741C53.3246 19.0229 53.3317 18.9711 53.3505 18.9233ZM56.8214 15.5971H60.0633L58.657 11.8792C58.5609 11.6145 58.4891 11.341 58.4423 11.0624C58.3991 11.3435 58.3222 11.6178 58.2133 11.8792L56.8214 15.5971Z" fill="#383838"/>
<path d="M66.2608 18.9602V9.38828C66.2603 9.33603 66.2698 9.28422 66.2889 9.23581C66.3079 9.18741 66.336 9.14338 66.3716 9.10626C66.4072 9.06915 66.4496 9.03969 66.4963 9.01959C66.543 8.99948 66.593 8.98913 66.6436 8.98914H67.9354C68.0424 8.98984 68.1478 9.01665 68.243 9.06739C68.3381 9.11812 68.4203 9.19135 68.4828 9.2811L72.9556 15.7597C72.927 15.3273 72.9127 14.8099 72.9127 14.3369V9.38828C72.9122 9.33603 72.9218 9.28422 72.9408 9.23581C72.9598 9.18741 72.988 9.14338 73.0236 9.10626C73.0592 9.06915 73.1015 9.03969 73.1482 9.01959C73.1949 8.99948 73.245 8.98913 73.2956 8.98914H74.6803C74.7309 8.98913 74.781 8.99948 74.8277 9.01959C74.8744 9.03969 74.9167 9.06915 74.9523 9.10626C74.9879 9.14338 75.0161 9.18741 75.0351 9.23581C75.0541 9.28422 75.0637 9.33603 75.0632 9.38828V18.9602C75.0632 19.0651 75.0229 19.1657 74.9511 19.2399C74.8793 19.314 74.7819 19.3557 74.6803 19.3557H73.3886C73.2813 19.3562 73.1755 19.3299 73.0802 19.2791C72.9849 19.2282 72.9028 19.1544 72.8411 19.0637L68.3683 12.5888C68.397 13.0175 68.4113 13.5386 68.4113 14.0116V18.9602C68.4113 19.0125 68.4013 19.0642 68.3818 19.1124C68.3623 19.1607 68.3338 19.2044 68.2979 19.2412C68.2619 19.2779 68.2193 19.307 68.1724 19.3267C68.1256 19.3463 68.0754 19.3562 68.0248 19.3557H66.6436C66.5421 19.3557 66.4447 19.314 66.3729 19.2399C66.3011 19.1657 66.2608 19.0651 66.2608 18.9602Z" fill="#383838"/>
<path d="M86.0912 9.38831V10.5931C86.0932 10.6475 86.0843 10.7018 86.0651 10.7525C86.0458 10.8032 86.0166 10.8493 85.9794 10.8878C85.9421 10.9263 85.8975 10.9565 85.8484 10.9764C85.7993 10.9962 85.7467 11.0054 85.694 11.0033H82.9961V18.9603C82.9961 19.0125 82.986 19.0642 82.9666 19.1125C82.9471 19.1607 82.9186 19.2044 82.8826 19.2412C82.8467 19.278 82.8041 19.307 82.7572 19.3267C82.7104 19.3463 82.6602 19.3562 82.6096 19.3557H81.2427C81.1412 19.3557 81.0438 19.3141 80.972 19.2399C80.9002 19.1657 80.8598 19.0652 80.8598 18.9603V11.0033H78.1583C78.0567 11.0033 77.9594 10.9617 77.8875 10.8875C77.8157 10.8134 77.7754 10.7128 77.7754 10.6079V9.38831C77.7749 9.33607 77.7845 9.28425 77.8035 9.23584C77.8225 9.18744 77.8507 9.14341 77.8863 9.1063C77.9219 9.06918 77.9642 9.03972 78.0109 9.01962C78.0576 8.99952 78.1077 8.98917 78.1583 8.98917H85.694C85.7458 8.98717 85.7974 8.99604 85.8458 9.01524C85.8942 9.03445 85.9382 9.0636 85.9754 9.10091C86.0125 9.13823 86.0419 9.18294 86.0618 9.23234C86.0817 9.28174 86.0917 9.3348 86.0912 9.38831Z" fill="#383838"/>
<path d="M86.7426 18.9233L90.5248 9.35871C90.5675 9.24971 90.6407 9.15633 90.735 9.09049C90.8293 9.02466 90.9405 8.98938 91.0544 8.98914H92.6073C92.7213 8.98888 92.8327 9.02397 92.9271 9.08986C93.0215 9.15576 93.0946 9.24942 93.1369 9.35871L96.9083 18.9196C96.9271 18.9674 96.9343 19.0192 96.9291 19.0705C96.9239 19.1217 96.9066 19.1709 96.8786 19.2136C96.8507 19.2564 96.813 19.2914 96.7689 19.3155C96.7248 19.3396 96.6756 19.3521 96.6257 19.352H95.248C95.1335 19.353 95.0213 19.3183 94.9262 19.2523C94.831 19.1864 94.7574 19.0923 94.7149 18.9824L94.1245 17.4191H89.5372L88.9539 18.9824C88.9104 19.0923 88.836 19.1862 88.7403 19.2521C88.6447 19.3179 88.5322 19.3527 88.4172 19.352H87.0432C86.9922 19.355 86.9413 19.3448 86.8952 19.3222C86.8491 19.2996 86.8092 19.2653 86.7792 19.2226C86.7493 19.1799 86.7302 19.1301 86.7238 19.0778C86.7174 19.0255 86.7239 18.9723 86.7426 18.9233ZM90.2099 15.5971H93.4518L92.0455 11.8792C91.9494 11.6145 91.8776 11.341 91.8308 11.0624C91.7876 11.3435 91.7107 11.6178 91.6018 11.8792L90.2099 15.5971Z" fill="#383838"/>
<defs>
<linearGradient id="paint0_linear_1_699" x1="13.3136" y1="18.1693" x2="15.6413" y2="22.066" gradientUnits="userSpaceOnUse">
<stop stop-color="#67BEEB"/>
<stop offset="1" stop-color="#124F99"/>
</linearGradient>
<linearGradient id="paint1_linear_1_699" x1="16.3444" y1="11.857" x2="10.4546" y2="11.857" gradientUnits="userSpaceOnUse">
<stop stop-color="#67BEEB"/>
<stop offset="1" stop-color="#124F99"/>
</linearGradient>
<linearGradient id="paint2_linear_1_699" x1="8.06788" y1="18.9898" x2="8.12131" y2="10.6116" gradientUnits="userSpaceOnUse">
<stop stop-color="#67BEEB"/>
<stop offset="1" stop-color="#124F99"/>
</linearGradient>
<linearGradient id="paint3_linear_1_699" x1="19.8725" y1="17.2786" x2="22.2002" y2="13.3783" gradientUnits="userSpaceOnUse">
<stop stop-color="#67BEEB"/>
<stop offset="1" stop-color="#124F99"/>
</linearGradient>
<linearGradient id="paint4_linear_1_699" x1="17.9116" y1="6.92689" x2="24.8152" y2="10.6294" gradientUnits="userSpaceOnUse">
<stop stop-color="#67BEEB"/>
<stop offset="1" stop-color="#124F99"/>
</linearGradient>
<linearGradient id="paint5_linear_1_699" x1="23.2897" y1="21.6692" x2="16.1996" y2="24.8966" gradientUnits="userSpaceOnUse">
<stop stop-color="#67BEEB"/>
<stop offset="1" stop-color="#124F99"/>
</linearGradient>
</defs>
</svg>
