<svg width="94" height="19" viewBox="0 0 94 19" fill="none" xmlns="http://www.w3.org/2000/svg">
<g clip-path="url(#clip0_1_653)">
<path fill-rule="evenodd" clip-rule="evenodd" d="M9.86777 9.44811L10.3049 9.20129L15.7161 12.8493L9.86777 9.44811Z" fill="white"/>
<path fill-rule="evenodd" clip-rule="evenodd" d="M9.55626 9.25068L9.15431 9.0236L9.6065 2.06335L9.55626 9.25068Z" fill="white"/>
<path fill-rule="evenodd" clip-rule="evenodd" d="M9.07392 9.22607L7.28024 10.6872L9.43065 9.44327L9.07392 9.22607Z" fill="white"/>
<path fill-rule="evenodd" clip-rule="evenodd" d="M9.66679 0C4.33096 0 0 4.25513 0 9.49753C0 14.7399 4.33096 18.9951 9.66679 18.9951C15.0026 18.9951 19.3336 14.7399 19.3336 9.49753C19.3336 4.25513 15.0076 0 9.66679 0ZM9.66679 18.4916C7.45609 18.4916 5.3911 17.7659 3.84863 16.438C2.35138 15.1447 1.18574 13.0912 0.899353 10.9044C1.58266 15.0608 5.24539 18.2299 9.66679 18.2299C14.5705 18.2299 18.5498 14.3253 18.5498 9.50247C18.5498 7.50325 17.7911 5.54352 16.6405 4.07249C17.8062 4.95609 18.8161 7.47363 18.8161 9.50247C18.8161 14.4635 14.7213 18.4866 9.67182 18.4866L9.66679 18.4916ZM8.82773 8.82125L9.61152 0.942842C9.61152 0.942842 9.65172 0.942842 9.66679 0.942842C9.67182 0.942842 9.68186 0.942842 9.68689 0.942842L9.76225 9.23097L11.1088 8.44115L9.75723 0.947779C14.5253 0.992206 18.3739 4.80307 18.3739 9.50247C18.3739 11.0081 17.977 12.4248 17.2786 13.6589L11.2344 8.69291L10.6616 9.01377L17.2334 13.7329C17.2183 13.7625 17.1982 13.7872 17.1832 13.8168L9.7924 9.63575V11.1117L17.1329 13.9008C15.6106 16.3936 12.8371 18.0572 9.66177 18.0572C6.4864 18.0572 3.718 16.3936 2.19563 13.9057L9.53113 11.0969V9.62094L2.14036 13.7971C2.12529 13.7675 2.11021 13.7428 2.09012 13.7132L8.64183 9.00883L8.06906 8.68797L2.0449 13.6293C1.35657 12.405 0.964669 10.9982 0.964669 9.49753C0.964669 4.84256 4.75301 1.05144 9.46582 0.947779L8.2851 8.50533L8.82773 8.82619V8.82125ZM9.66679 0.508444C4.61735 0.508444 0.522529 4.53157 0.522529 9.49259C0.522529 11.5066 1.26613 13.4121 2.40162 15.0608C2.7885 15.7667 3.20552 16.206 3.75819 16.7836C1.58266 15.0756 0.175851 12.4445 0.175851 9.49259C0.175851 4.34398 4.42643 0.167836 9.66679 0.167836C14.9072 0.167836 19.2431 4.52663 19.0874 9.49259C18.9568 4.6451 14.6358 0.508444 9.66679 0.508444Z" fill="white"/>
<path fill-rule="evenodd" clip-rule="evenodd" d="M52.1374 10.1294C52.1374 8.4609 51.3887 7.11328 49.7408 7.11328C48.2134 7.11328 47.3442 8.46584 47.3442 10.1294C47.3442 11.7929 48.0677 13.1455 49.7408 13.1455C51.4139 13.1455 51.8409 12.3557 52.0871 11.092H51.5294C51.4792 11.556 51.1727 12.6124 49.9769 12.6371C48.6153 12.6617 48.5199 10.9488 48.545 10.1294L48.5701 9.66044C48.5701 9.14706 48.5199 7.62172 49.786 7.62172C50.7858 7.62172 50.9315 8.88543 50.9315 9.66044H48.5701L48.545 10.1294H52.1323H52.1374Z" fill="white"/>
<path fill-rule="evenodd" clip-rule="evenodd" d="M23.9158 5.03503L23.8906 5.4102H24.2474C24.5086 5.4102 24.8453 5.43488 24.8453 5.76068L24.7247 12.1138C24.7247 12.3458 24.6041 12.6074 24.1268 12.6074H23.7701L23.7449 12.9826H26.1566V12.6074H25.7496C25.4381 12.6074 25.2271 12.5136 25.2271 12.1138L25.3477 6.01737L27.9252 12.5827H28.1864L30.789 5.94826L30.9096 12.1138C30.9096 12.326 30.6936 12.6074 30.362 12.6074H29.8595V12.9826H32.8892V12.6074H32.5325C32.2712 12.6074 31.9597 12.4642 31.9597 12.1384L31.8391 5.85447C31.8391 5.6422 32.0803 5.4102 32.3164 5.4102H32.7686V5.03503H30.5981L28.3573 10.8007L26.1164 5.03503H23.9208H23.9158Z" fill="white"/>
<path fill-rule="evenodd" clip-rule="evenodd" d="M40.697 12.9875V12.6815H40.4558C40.2398 12.6815 39.8579 12.6124 39.8579 12.1879V9.11745C39.8579 8.15486 40.3604 7.80438 40.8578 7.80438C41.0487 7.80438 41.1693 7.89817 41.119 8.24866C41.0688 8.59914 41.3803 8.83608 41.6416 8.8114C41.9028 8.78672 42.2395 8.74229 42.1892 8.08576C42.144 7.42922 41.7621 7.12317 41.0939 7.12317C40.5714 7.12317 40.1393 7.44897 40.0187 7.6168C39.878 7.80932 39.7072 7.73528 39.6821 7.52301C39.657 7.31075 39.5615 7.10342 39.3253 7.17253C38.8028 7.33543 38.3205 7.40948 37.9185 7.42922V7.66617C38.9184 7.6168 38.8229 8.11044 38.8229 8.34738V12.1928C38.8229 12.6124 38.4411 12.6864 38.225 12.6864H37.8934V12.9925H40.6869L40.697 12.9875Z" fill="white"/>
<path fill-rule="evenodd" clip-rule="evenodd" d="M46.0127 7.48353C45.661 7.23178 45.2189 7.08863 44.6813 7.08863C43.1539 7.08863 42.2847 8.44118 42.2847 10.1047C42.2847 11.7683 43.0082 13.1159 44.6813 13.1208C46.1584 13.1258 46.5202 12.3063 46.7664 11.0426H46.2087C46.1584 11.5067 45.9926 12.5877 44.9225 12.6124C43.5609 12.642 43.4654 10.9242 43.4905 10.1047C43.4905 9.59135 43.5609 7.52796 44.7064 7.52796C45.6861 7.52796 46.279 8.20918 46.279 8.97925H46.5905V7.00964H46.3293L46.0127 7.48353Z" fill="white"/>
<path fill-rule="evenodd" clip-rule="evenodd" d="M80.5348 12.6371C79.1732 12.6617 79.0778 10.9488 79.1029 10.1294H82.6903C82.6903 8.4609 81.9416 7.11328 80.2937 7.11328C78.7663 7.11328 77.8971 8.46584 77.8971 10.1294C77.8971 11.7929 78.6206 13.1455 80.2937 13.1455C81.9668 13.1455 82.3938 12.3557 82.64 11.092H82.0823C82.0371 11.556 81.7256 12.6124 80.5298 12.6371H80.5348ZM80.3439 7.62172C81.3488 7.62172 81.4895 8.88543 81.4895 9.66044H79.128C79.128 9.14706 79.0828 7.62172 80.3439 7.62172Z" fill="white"/>
<path fill-rule="evenodd" clip-rule="evenodd" d="M60.9149 12.6371C59.5533 12.6617 59.4578 10.9488 59.4829 10.1294H63.0703C63.0703 8.4609 62.3217 7.11328 60.6737 7.11328C59.1463 7.11328 58.2771 8.46584 58.2771 10.1294C58.2771 11.7929 59.0006 13.1455 60.6737 13.1455C62.3468 13.1455 62.7739 12.3557 63.02 11.092H62.4623C62.4121 11.556 62.1056 12.6124 60.9098 12.6371H60.9149ZM60.7239 7.62172C61.7238 7.62172 61.8695 8.88543 61.8695 9.66044H59.508C59.508 9.14706 59.4578 7.62172 60.7239 7.62172Z" fill="white"/>
<path fill-rule="evenodd" clip-rule="evenodd" d="M35.5923 12.6371C34.2307 12.6617 34.1352 10.9488 34.1604 10.1294H37.7477C37.7477 8.4609 36.9991 7.11328 35.3511 7.11328C33.8237 7.11328 32.9545 8.46584 32.9545 10.1294C32.9545 11.7929 33.678 13.1455 35.3511 13.1455C37.0242 13.1455 37.4513 12.3557 37.6975 11.092H37.1398C37.0895 11.556 36.783 12.6124 35.5873 12.6371H35.5923ZM35.4014 7.62172C36.4012 7.62172 36.5469 8.88543 36.5469 9.66044H34.1855C34.1855 9.14706 34.1352 7.62172 35.4014 7.62172Z" fill="white"/>
<path fill-rule="evenodd" clip-rule="evenodd" d="M57.3375 11.7634V5.22269C57.3375 4.95119 57.1918 4.72906 56.9557 4.8031C56.4332 4.966 55.9559 5.04005 55.5489 5.05979V5.29674C56.2422 5.24738 56.3126 5.45964 56.3126 5.69658V7.71061C56.0011 7.42924 55.6443 7.14787 55.0012 7.14787C54.1923 7.14787 52.685 7.77972 52.685 10.006C52.685 12.9382 54.4285 13.1258 54.951 13.1258C55.4735 13.1258 56.1669 12.7062 56.3126 12.4791C56.3226 12.4298 56.398 12.3755 56.4181 12.4791C56.4432 12.6914 56.599 13.0073 56.8351 12.9382C57.3576 12.7753 57.8349 12.7062 58.2419 12.6815V12.4495C57.2371 12.4939 57.3375 12.0052 57.3375 11.7683V11.7634ZM56.3126 11.0624C56.2875 12.3508 55.5991 12.7506 55.0264 12.7506C53.7401 12.7259 53.8356 10.8057 53.8356 9.98627C53.8356 9.16683 53.8858 7.54771 55.0515 7.69087C56.2221 7.83402 56.3176 9.04836 56.3176 9.77894V11.0673L56.3126 11.0624Z" fill="white"/>
<path fill-rule="evenodd" clip-rule="evenodd" d="M71.3403 9.63084V9.09277H68.1901V9.63084H71.3403Z" fill="white"/>
<path fill-rule="evenodd" clip-rule="evenodd" d="M63.8541 10.9932V12.9875H64.1153L64.3515 12.4741C64.5927 12.6864 65.0901 13.0369 65.7332 13.0369C66.3763 13.0369 67.2857 12.6864 67.6424 12.0298C67.9991 11.3733 67.8333 10.2972 67.0244 9.96646C66.316 9.68015 65.688 9.3346 65.2106 9.09766C64.8288 8.91008 64.7384 8.53491 64.7836 8.30291C64.8539 7.92774 65.1906 7.5279 65.9542 7.50815C66.7179 7.48347 67.0998 8.11533 67.1953 8.8459H67.4565V6.97009H67.2204L66.9591 7.41436C66.4567 7.08857 66.2457 7.0392 65.7884 7.0392C65.3312 7.0392 64.5726 7.27121 64.1405 7.92774C63.7134 8.58428 63.829 9.61597 64.8539 10.0356C65.8789 10.4552 66.3562 10.7168 66.6426 10.855C66.929 10.9932 67.0948 11.556 66.9038 11.8867C66.7129 12.2174 66.3562 12.5877 65.7834 12.5877C65.2106 12.5877 64.3063 12.1878 64.0902 10.9932H63.8541Z" fill="white"/>
<path fill-rule="evenodd" clip-rule="evenodd" d="M75.827 8.69294C76.3998 8.55472 76.9726 7.54277 76.9726 6.86649C76.9726 6.19021 76.7113 5.04004 75.0382 5.04004H71.4609V5.34609C71.8176 5.34609 72.4406 5.4152 72.4406 6.00263V11.793C72.4406 12.1237 72.4155 12.6618 71.4609 12.6618V12.9925H74.3951C75.2794 12.9925 77.3042 12.9234 77.3544 10.623C77.3544 9.84804 76.9726 8.93482 75.827 8.70281V8.69294ZM73.4656 5.41027H74.6564C75.5407 5.41027 75.8974 6.04212 75.8974 6.86155C75.8974 7.86857 75.5859 8.64357 74.6564 8.64357H73.4656V5.41027ZM74.6815 12.6075H73.4656V9.01873H74.8272C75.616 9.01873 76.3044 9.5568 76.3044 10.7316C76.3044 11.9065 75.5909 12.6075 74.6815 12.6075Z" fill="white"/>
<path fill-rule="evenodd" clip-rule="evenodd" d="M87.0966 8.72249V12.1927C87.0966 12.6123 86.7148 12.6864 86.4987 12.6864H86.353V12.9924H88.9556V12.6864H88.7195C88.5034 12.6864 88.1216 12.6173 88.1216 12.1927V8.74717C88.0964 7.17742 86.6645 7.12805 86.1671 7.12805C85.6697 7.12805 85.0718 7.45385 84.9512 7.62169C84.8105 7.8142 84.6397 7.74016 84.6196 7.5279C84.5945 7.31563 84.499 7.10831 84.2629 7.17742C83.7404 7.34031 83.263 7.41436 82.8561 7.43411V7.67105C83.8559 7.62169 83.7605 8.11532 83.7605 8.35227V12.1977C83.7605 12.6173 83.3786 12.6913 83.1626 12.6913H82.8259V12.9974H85.6194V12.6913H85.3783C85.1622 12.6913 84.7804 12.6222 84.7804 12.1977V9.12727C84.7804 8.61389 84.9713 7.78952 85.9511 7.72041C86.9308 7.6513 87.0966 8.28316 87.0966 8.72743V8.72249Z" fill="white"/>
<path fill-rule="evenodd" clip-rule="evenodd" d="M89.5133 8.84102L89.9454 7.24658H94L90.5181 12.6618H92.3822C92.8092 12.6618 93.1459 12.4989 93.598 11.4178H93.789L93.4071 12.9876H89.257L92.7188 7.57238H91.1663C90.7844 7.57238 90.3523 7.57238 89.7595 8.83609H89.5183L89.5133 8.84102Z" fill="white"/>
</g>
<defs>
<clipPath id="clip0_1_653">
<rect width="94" height="19" fill="white"/>
</clipPath>
</defs>
</svg>
