<svg width="86" height="52" viewBox="0 0 86 52" fill="none" xmlns="http://www.w3.org/2000/svg">
<path d="M9.72197 41.869H11.2538V41.9662C10.7372 41.9917 10.4776 42.2602 10.4776 42.7715C10.4776 42.8814 10.4905 43.0323 10.5162 43.224L11.5366 50.5333C11.5982 50.8963 11.6676 51.1315 11.7447 51.2312C11.8218 51.3335 11.9812 51.3949 12.2228 51.4179V51.515H10.0432V51.4179C10.3337 51.4255 10.4802 51.2875 10.4802 51.0011C10.4802 50.9372 10.4673 50.8068 10.4416 50.6177L9.44696 43.5308L5.96944 51.5176H5.90262L2.40454 43.5461L1.42014 50.6739C1.40215 50.7813 1.39444 50.9066 1.39444 51.0446C1.39444 51.2952 1.54351 51.4204 1.83909 51.4204V51.5176H0.358643V51.4204C0.582252 51.4204 0.726185 51.3923 0.79044 51.3386C0.854696 51.2849 0.903529 51.198 0.939512 51.0778C0.975495 50.9577 1.0012 50.8247 1.01919 50.6739L2.12953 42.8789C1.94961 42.4468 1.7697 42.186 1.58721 42.0991C1.40472 42.0122 1.23252 41.9687 1.06545 41.9687V41.8716H2.89545L6.30614 49.7638L9.72968 41.8716L9.72197 41.869Z" fill="#383838"/>
<path d="M14.1137 51.5179V51.3083L14.1806 51.3134C14.2063 51.3134 14.232 51.3134 14.2551 51.3134C14.5635 51.3134 14.7075 51.1856 14.7075 50.9094L14.6972 50.6921V47.4453L12.8055 44.3288C12.6256 44.0297 12.4251 43.8763 12.2143 43.8763H12.127V43.6718H14.088V43.8763H14.0238C13.831 43.8763 13.831 43.9632 13.831 44.0067C13.831 44.0373 13.8464 44.1115 13.9518 44.2802L15.4657 46.7652L17.1235 44.2521L17.1286 44.247C17.1466 44.2316 17.1774 44.1959 17.2186 44.1115C17.2674 44.0169 17.27 43.9888 17.27 43.9888C17.27 43.9479 17.27 43.8763 17.1081 43.8763H17.013V43.6718H18.3058V43.8737L18.2467 43.8788C18.1104 43.8891 17.9973 43.9197 17.9125 43.9734C17.8251 44.0271 17.7223 44.1447 17.6041 44.3211L15.7176 47.1666V50.6819C15.7176 51.0168 15.769 51.1498 15.8152 51.2035C15.8564 51.2546 15.9669 51.3134 16.2496 51.3134H16.3139V51.5179H14.1112H14.1137Z" fill="#383838"/>
<path d="M22.2539 41.9663V41.8691H26.7055C27.839 41.8691 28.7334 41.9586 29.3889 42.135C30.0443 42.3114 30.6174 42.5901 31.1058 42.971C31.5941 43.352 31.9796 43.8377 32.2649 44.4283C32.5502 45.0214 32.6916 45.681 32.6916 46.4096C32.6916 47.1383 32.5425 47.803 32.2469 48.483C31.9514 49.1631 31.5478 49.7485 31.0389 50.2394C30.53 50.7303 29.9929 51.0677 29.4274 51.2493C28.8645 51.4308 27.9906 51.5203 26.8109 51.5203H22.2539V51.4231H22.3721C22.6086 51.4231 22.7654 51.3285 22.8399 51.1393C22.9145 50.9501 22.953 50.605 22.953 50.109V43.0861C22.953 42.562 22.9067 42.245 22.8168 42.1376C22.7268 42.0277 22.5392 41.974 22.2539 41.974V41.9663ZM25.5592 42.0711H24.0711V49.5594C24.0711 50.0298 24.1507 50.38 24.3101 50.6101C24.4694 50.8402 24.7445 51.0064 25.13 51.1086C25.5155 51.2109 26.0373 51.262 26.6901 51.262C28.5073 51.262 29.7847 50.7967 30.5197 49.8687C31.2548 48.9407 31.6224 47.9283 31.6224 46.8315C31.6224 45.543 31.1186 44.4283 30.1111 43.4849C29.1036 42.5415 27.5846 42.0711 25.5566 42.0711H25.5592Z" fill="#383838"/>
<path d="M33.5735 51.5178V51.3133H33.6377C33.9307 51.3133 34.0336 51.2493 34.0695 51.1931C34.1081 51.1317 34.1544 50.9707 34.1544 50.5488V44.684C34.1544 44.2443 34.103 44.0679 34.0593 43.9963C34.0104 43.9171 33.8948 43.8736 33.7174 43.8736C33.6943 43.8736 33.6686 43.8736 33.6429 43.8736H33.5761V43.6691H35.7736V43.8813L35.7042 43.8736C35.6862 43.8736 35.6682 43.871 35.6477 43.871C35.5706 43.871 35.4832 43.8864 35.3906 43.9171C35.2878 43.9528 35.2261 43.9989 35.2107 44.0577C35.1953 44.1088 35.1799 44.2469 35.1799 44.6124V50.5361C35.1799 50.9247 35.2004 51.0602 35.2159 51.1036C35.2364 51.1624 35.2801 51.211 35.3418 51.2493C35.3855 51.2775 35.4857 51.3107 35.7119 51.3107H35.7762V51.5152H33.5786L33.5735 51.5178Z" fill="#383838"/>
<path d="M42.0112 51.5177V51.3132H42.0754C42.2374 51.3132 42.2605 51.2493 42.2605 51.1828C42.2605 51.1291 42.2399 51.0192 42.1474 50.7968C42.1294 50.7763 42.1165 50.7482 42.1037 50.715C42.1011 50.7022 42.0986 50.692 42.096 50.6843L40.9934 47.9641H38.801L37.6418 50.8377C37.5364 51.1112 37.5261 51.1828 37.5261 51.2007C37.5261 51.2339 37.5261 51.3106 37.7215 51.3106H37.7857V51.5152H36.5032V51.3106H36.5674C36.7062 51.3106 36.827 51.2774 36.9195 51.2109C36.9838 51.1649 37.0943 51.0294 37.2434 50.6536L40.0732 43.554H40.2994L43.0881 50.4235V50.4363C43.0881 50.4363 43.1112 50.5207 43.2937 50.9041C43.4248 51.1777 43.6176 51.3106 43.8849 51.3106H43.9491V51.5152H42.0086L42.0112 51.5177ZM40.8391 47.6215L39.8856 45.226L38.9295 47.6215H40.8417H40.8391Z" fill="#383838"/>
<path d="M52.2052 51.5179V51.3108H52.29C52.4725 51.3108 52.5547 51.229 52.5547 51.0424C52.5547 50.9938 52.5444 50.8941 52.5239 50.7433L51.7579 45.2978L49.0489 51.5179H48.9127L46.1883 45.308L45.4326 50.7867C45.4198 50.8711 45.4121 50.9683 45.4121 51.0756C45.4121 51.183 45.4455 51.3134 45.7025 51.3134H45.7668V51.5179H44.4534V51.3134H44.5176C44.7387 51.3134 44.8029 51.2776 44.8209 51.2623C44.862 51.2265 44.8954 51.1677 44.9186 51.0833C44.9443 50.9913 44.9674 50.8865 44.9803 50.7714L45.8644 44.5512C45.6948 44.1524 45.556 44.0195 45.4686 43.976C45.3324 43.9095 45.2039 43.8788 45.0779 43.8788H45.0137V43.6743H46.5841L49.2725 49.8919L51.9687 43.6743H53.3001V43.8763H53.2384C52.8554 43.8993 52.6781 44.0834 52.6781 44.4617C52.6781 44.5461 52.6884 44.6637 52.7089 44.8146L53.5263 50.6615C53.5854 51.0092 53.6419 51.1421 53.6805 51.1907C53.7293 51.2572 53.8424 51.2981 54.0172 51.3134L54.0763 51.3185V51.5179H52.2052Z" fill="#383838"/>
<path d="M58.0935 51.6377C57.0063 51.6377 56.1016 51.2797 55.4077 50.5716C54.7137 49.8634 54.3616 49.0018 54.3616 48.0124C54.3616 47.3451 54.5312 46.6523 54.8628 45.9518C55.1969 45.2487 55.7058 44.6684 56.3766 44.2261C57.0475 43.7838 57.8545 43.5588 58.7721 43.5588C59.8721 43.5588 60.7871 43.8963 61.4862 44.5636C62.1879 45.2308 62.5452 46.0771 62.5452 47.0741C62.5452 48.3524 62.1365 49.4441 61.3269 50.3185C60.5173 51.1954 59.4301 51.6377 58.0935 51.6377ZM58.0524 44.0906C57.3045 44.0906 56.6131 44.3769 56.0014 44.9394C55.3897 45.5018 55.0812 46.2075 55.0812 47.0409C55.0812 48.1121 55.4616 49.0683 56.2121 49.8813C56.9626 50.6917 57.8134 51.1033 58.7412 51.1033C59.263 51.1033 59.7822 50.9627 60.2911 50.684C60.7974 50.4054 61.2035 50.0193 61.4939 49.531C61.7844 49.0427 61.9335 48.5365 61.9335 48.0226C61.9335 47.2915 61.733 46.6165 61.3397 46.0183C60.9439 45.4175 60.4273 44.942 59.7976 44.6045C59.1679 44.2645 58.5819 44.0932 58.0498 44.0932L58.0524 44.0906Z" fill="#383838"/>
<path d="M64.3107 45.152V50.6998C64.3107 50.8737 64.3235 51.004 64.3493 51.0833C64.3724 51.1549 64.4032 51.2035 64.4418 51.2265C64.4675 51.2418 64.5497 51.2725 64.8145 51.3134L64.8684 51.3211V51.5179H63.2492V51.3134H63.3135C63.6167 51.3134 63.7221 51.252 63.7581 51.1983C63.7967 51.1421 63.8455 50.9836 63.8455 50.5592V45.3386C63.8455 44.8912 63.7838 44.5231 63.6579 44.2444C63.5473 43.9964 63.3057 43.8763 62.9202 43.8763C62.8919 43.8763 62.8611 43.8763 62.8303 43.8763H62.7634V43.6718H64.3133L70.0397 49.736V44.4489C70.0397 44.114 69.9703 44.0016 69.9112 43.9658C69.8161 43.907 69.6902 43.8788 69.5385 43.8788H69.4743V43.6743H71.1038V43.8788H71.0421C70.8314 43.8865 70.6874 43.93 70.6103 44.0067C70.5589 44.0604 70.4972 44.1933 70.4972 44.5257V51.7148L64.3056 45.1571L64.3107 45.152Z" fill="#383838"/>
<path d="M71.8491 51.5179V51.3134H72.0085C72.173 51.3134 72.2732 51.2546 72.322 51.1268C72.3786 50.9836 72.4069 50.7126 72.4069 50.324V44.7046C72.4069 44.178 72.3477 44.0271 72.3143 43.9862C72.2552 43.9146 72.1164 43.8788 71.9134 43.8788H71.8491V43.6743H75.4757C76.383 43.6743 77.1104 43.7459 77.6398 43.8891C78.1719 44.0322 78.6397 44.2598 79.0355 44.5691C79.4313 44.8785 79.75 45.2773 79.9813 45.7579C80.2126 46.2386 80.3309 46.7806 80.3309 47.3711C80.3309 47.9617 80.2101 48.5063 79.971 49.0559C79.732 49.603 79.4004 50.0837 78.9892 50.48C78.5754 50.8788 78.1359 51.1549 77.6758 51.3006C77.2209 51.4463 76.5089 51.5205 75.5631 51.5205H71.8543L71.8491 51.5179ZM73.4298 49.8868C73.4298 50.2499 73.4915 50.5209 73.6097 50.6921C73.7279 50.8609 73.9361 50.9887 74.2291 51.0654C74.5324 51.1447 74.9462 51.1856 75.4603 51.1856C76.8868 51.1856 77.902 50.82 78.4752 50.0965C79.0509 49.3678 79.3439 48.5651 79.3439 47.7061C79.3439 46.6988 78.9429 45.8116 78.1539 45.0753C77.3648 44.3365 76.1517 43.9607 74.553 43.9607H73.4272V49.8868H73.4298Z" fill="#383838"/>
<path d="M81.0657 51.5175V49.1475H81.2713V49.2114C81.279 49.9324 81.4486 50.4412 81.7776 50.7198C82.1092 51.0011 82.6361 51.1442 83.3429 51.1442C83.9829 51.1442 84.4764 50.9934 84.8054 50.6943C85.1318 50.3977 85.2988 50.0347 85.2988 49.6205C85.2988 49.3674 85.2423 49.1527 85.1292 48.9762C85.0161 48.7973 84.8516 48.6388 84.646 48.5033C84.4378 48.3652 84.0317 48.1939 83.4431 47.992C82.8468 47.7849 82.4228 47.5982 82.1786 47.4423C81.9293 47.2812 81.7185 47.0384 81.5515 46.7162C81.387 46.3967 81.3021 46.0643 81.3021 45.7319C81.3021 45.1209 81.518 44.5994 81.9395 44.1852C82.3636 43.771 82.9239 43.5588 83.6102 43.5588C83.8724 43.5588 84.1602 43.5895 84.4661 43.6483C84.9287 43.7404 84.9698 43.7608 84.9878 43.7685C84.993 43.7685 84.9981 43.771 85.0007 43.771H85.0444L85.4556 44.8474L85.2423 44.8831V44.832C85.2166 44.8039 85.1498 44.7323 84.9673 44.5431C84.7796 44.3463 84.5612 44.1954 84.3196 44.0881C84.078 43.9832 83.8004 43.9295 83.4945 43.9295C82.9831 43.9295 82.5744 44.0753 82.2762 44.3642C81.9807 44.6531 81.829 45.0059 81.829 45.4124C81.829 45.6808 81.8984 45.9186 82.0372 46.118C82.176 46.3174 82.4716 46.5091 82.9214 46.6855C83.713 46.9514 84.2656 47.156 84.5612 47.2889C84.8619 47.427 85.1549 47.6622 85.4325 47.9894C85.7126 48.3218 85.8566 48.7513 85.8566 49.2651C85.8566 49.4799 85.8309 49.6844 85.7795 49.8813C85.7281 50.0756 85.6458 50.2673 85.5353 50.4488C85.4248 50.6304 85.2886 50.7965 85.1318 50.9423C84.975 51.0905 84.8131 51.2056 84.6486 51.2823C84.4815 51.3615 84.2322 51.4178 83.8801 51.4587C83.5331 51.497 83.3121 51.5175 83.199 51.5175H81.0657Z" fill="#383838"/>
<path d="M49.8128 9.20017C48.0804 6.74073 46.3713 5.39852 46.2993 5.34228L46.1194 5.20422L45.9395 5.34228C45.8675 5.39852 44.1583 6.74073 42.426 9.20017C41.9916 9.8163 41.5341 10.5373 41.0997 11.3528L41.0226 11.3963V11.4985C39.8891 13.6691 38.9202 16.4916 38.9202 19.8049C38.9202 23.5222 40.8838 25.322 42.5288 26.1785C44.2945 27.0988 46.0371 27.1423 46.1117 27.1423H46.1168H46.1219C46.1965 27.1423 47.9365 27.0963 49.7048 26.1785C51.3524 25.322 53.3134 23.5196 53.3134 19.8049C53.3134 15.1545 51.4063 11.4704 49.8076 9.19761L49.8128 9.20017ZM52.7274 19.2322L51.3035 17.0131L52.3213 16.1285C52.5449 17.1051 52.6889 18.1406 52.7274 19.2297V19.2322ZM51.2161 12.8433C51.5862 13.6665 51.9101 14.5537 52.1645 15.5022L51.2161 16.3279V12.8459V12.8433ZM42.0481 20.5668L42.629 22.2541L41.6652 21.8195L42.0456 20.5668H42.0481ZM42.0379 18.5343L41.6369 17.0387L42.8269 15.7195L42.0379 18.5343ZM42.336 19.6208L43.7034 14.748L46.1219 11.813L48.5405 14.748L49.9079 19.6208L48.8901 22.5737L46.1219 23.6577L43.3538 22.5737L42.336 19.6208ZM44.1172 13.3367L45.0399 10.1972L45.7647 11.3349L44.1172 13.3342V13.3367ZM46.4792 11.3375L47.204 10.1998L48.1267 13.3393L46.4792 11.34V11.3375ZM50.1957 20.5693L50.5761 21.822L49.6123 22.2567L50.1932 20.5693H50.1957ZM49.417 15.722L50.607 17.0412L50.206 18.5368L49.417 15.722ZM49.0648 14.4693L47.7849 10.1103L50.6378 11.7363V16.2103L49.0623 14.4667L49.0648 14.4693ZM50.1418 10.7904L47.8646 9.49418L48.8412 8.87548C49.273 9.44304 49.7177 10.0822 50.1418 10.7904ZM48.4814 8.41785L47.4713 9.057L46.6925 6.46718C47.1552 6.90947 47.7926 7.56651 48.4788 8.41785H48.4814ZM46.1219 6.57966L46.9881 9.46094L46.1219 10.8185L45.2558 9.46094L46.1219 6.57966ZM45.5514 6.46718L44.7726 9.057L43.7625 8.41785C44.4487 7.56651 45.0861 6.90947 45.5488 6.46718H45.5514ZM43.4052 8.87548L44.3819 9.49418L42.1047 10.7904C42.5313 10.0822 42.9734 9.44304 43.4052 8.87548ZM41.6061 11.7389L44.459 10.1129L43.179 14.4719L41.6035 16.2154V11.7414L41.6061 11.7389ZM41.0252 12.8484V16.3305L40.0768 15.5047C40.3312 14.5588 40.6576 13.6691 41.0252 12.8459V12.8484ZM39.92 16.1362L40.9378 17.0208L39.5139 19.2399C39.5524 18.1508 39.6964 17.1154 39.92 16.1387V16.1362ZM39.5679 20.894L40.7682 21.9013L39.8686 22.2822C39.7272 21.8502 39.627 21.3874 39.5679 20.894ZM41.0278 24.3198C40.6345 23.8775 40.3158 23.3764 40.0742 22.8217L41.0278 22.4177V24.3173V24.3198ZM39.6064 20.1705L41.2077 17.6727L41.732 19.6259L41.1691 21.4795L39.6064 20.1705ZM43.197 25.8666C43.0608 25.8052 42.922 25.7387 42.7858 25.6671C42.539 25.5393 42.3103 25.3987 42.0918 25.2479L43.5774 25.1507L43.197 25.864V25.8666ZM41.6061 24.7033V22.4305L42.8886 23.0083V23.016L42.9092 23.0236L43.6365 24.5704L41.6086 24.7033H41.6061ZM45.3534 23.9824L44.22 24.4579L43.6905 23.3304L45.3534 23.9824ZM43.7368 26.0839L44.148 25.3118L45.3355 26.4929C44.9088 26.4265 44.3433 26.3037 43.7342 26.0839H43.7368ZM46.1219 26.4571L44.5875 24.9308L46.1219 24.2866L47.6564 24.9308L46.1219 26.4571ZM46.9059 26.4929L48.0933 25.3118L48.5045 26.0839C47.8954 26.3037 47.3325 26.4239 46.9033 26.4929H46.9059ZM48.0213 24.4579L46.8879 23.9824L48.5508 23.3304L48.0213 24.4579ZM49.4581 25.6697C49.3219 25.7413 49.1831 25.8078 49.0469 25.8691L48.6665 25.1558L50.1521 25.253C49.9336 25.4038 49.7048 25.5444 49.4581 25.6723V25.6697ZM50.6353 24.7033L48.6073 24.5704L49.3347 23.0236L49.3527 23.016V23.0083L50.6378 22.4305V24.7033H50.6353ZM50.5119 19.6285L51.0362 17.6753L52.6375 20.173L51.0748 21.482L50.5119 19.6285ZM51.2161 24.3198V22.4203L52.1697 22.8242C51.9281 23.379 51.6119 23.8801 51.2161 24.3224V24.3198ZM52.3727 22.2822L51.4732 21.9013L52.6734 20.894C52.6143 21.3874 52.5141 21.8502 52.3727 22.2822Z" fill="#383838"/>
<path d="M83.5759 9.77103C82.3371 7.2349 80.6048 5.18452 78.3815 3.61988C76.0452 1.976 73.2025 1.0275 69.8509 0.774402C69.0567 0.710487 67.2062 0.67981 64.2993 0.67981H51.1911V1.22436C52.6998 1.30361 53.8436 1.66665 54.6224 2.31602C55.2418 2.83757 55.6582 3.50228 55.8741 4.3076C56.0874 5.11293 56.1953 6.38611 56.1953 8.12459V23.4104C56.1953 31.3103 50.0885 32.3585 49.3508 32.517V33.0411C50.9881 33.3888 61.4129 31.9008 61.4129 23.2442V19.054C61.4283 18.7242 61.4412 18.3944 61.4412 18.0595C61.4412 17.8677 61.4257 17.6811 61.4129 17.4945V1.41866H64.2967C66.3631 1.41866 68.0621 1.60018 69.396 1.96321C71.8429 2.64327 73.9479 4.03405 75.7111 6.13556C76.9833 7.65162 77.96 9.42334 78.6411 11.4456C79.3248 13.4679 79.6666 15.6026 79.6666 17.8473C79.6666 19.8695 79.3839 21.7793 78.821 23.5715C78.2581 25.3662 77.4357 26.9564 76.3536 28.3472C75.2561 29.7866 73.8271 30.5586 72.3569 30.9856C68.9771 31.9673 61.4643 32.4991 60.7472 32.4889C60.4773 32.4863 60.5596 32.9542 60.6907 33.0411H68.7972C70.8456 33.0411 72.8555 32.8596 74.8269 32.4965C77.4639 32.0057 79.6641 30.8603 81.4272 29.0605C82.6815 27.7796 83.6633 26.1715 84.3701 24.2362C85.077 22.3009 85.4316 20.2428 85.4316 18.062C85.4316 15.0759 84.8122 12.3123 83.5734 9.77614L83.5759 9.77103Z" fill="#383838"/>
<path d="M85.4565 38.1312H0.35376V38.5582H85.4565V38.1312Z" fill="#383838"/>
<path d="M41.7985 0.843227C40.8809 0.891802 40.1458 1.01452 39.5906 1.21393C39.0355 1.41334 38.5266 1.7457 38.0588 2.20844C37.7041 2.54336 37.4394 2.91662 37.262 3.32312C37.0847 3.72961 36.9639 4.24604 36.8996 4.86985C36.7865 5.70074 36.73 6.68503 36.73 7.82015V25.5015C36.73 27.1479 36.8276 28.3726 37.0204 29.1728C37.2132 29.973 37.5602 30.6121 38.0562 31.0928C38.9404 31.9415 40.1869 32.4043 41.7933 32.4835V33.0358H26.3822V32.4835C27.3152 32.435 28.0657 32.3046 28.6363 32.0873C29.2069 31.87 29.7184 31.5402 30.1682 31.0928C30.6668 30.5814 31.0087 29.9295 31.1937 29.137C31.3788 28.3444 31.4713 27.1326 31.4713 25.5015V4.0543L19.0494 33.0332H18.5431L6.1957 4.48636V25.5015C6.1957 27.1479 6.28823 28.3649 6.47329 29.1472C6.65834 29.9321 7.00018 30.5789 7.49881 31.0902C7.9486 31.5529 8.46007 31.8904 9.03066 32.0975C9.60125 32.3046 10.344 32.4324 11.2616 32.481V33.0332H0.142822V32.481C1.06039 32.4324 1.80319 32.3046 2.37378 32.0975C2.94437 31.8904 3.45584 31.5529 3.90563 31.0902C4.40426 30.5789 4.74609 29.927 4.93115 29.1344C5.11621 28.3419 5.20873 27.13 5.20873 25.4989V7.8176C5.20873 7.0813 5.1856 6.38591 5.13677 5.73142C5.05709 4.54772 4.87203 3.68359 4.5816 3.1416C4.18064 2.38996 3.62805 1.83518 2.92895 1.4747C2.22985 1.11423 1.30199 0.902027 0.142822 0.838112V0.285889H10.6088L21.0516 25.931L31.88 0.285889H41.7933V0.838112L41.7985 0.843227Z" fill="#383838"/>
</svg>
