<svg width="52" height="34" viewBox="0 0 52 34" fill="none" xmlns="http://www.w3.org/2000/svg">
<g clip-path="url(#clip0_1_633)">
<path d="M0.523852 31.5273C0.523852 32.2545 0.733389 32.7636 1.01277 33.0909C1.362 33.5636 1.81599 33.7091 2.20015 33.7091V33.9273H2.16522C1.74615 33.9273 1.01277 33.8546 0.488929 33.2C0.139702 32.7636 -0.0349121 32.1818 -0.0349121 31.6727C-0.0349121 31.2727 0.0349334 30.7636 0.454007 30.2545C0.733389 29.8545 1.22231 29.4182 2.16522 29.3818V29.6C2.16522 29.5636 2.1303 29.5636 2.1303 29.5636C1.81599 29.5636 1.29215 29.6364 0.942925 30.0727C0.663543 30.4727 0.523852 30.9455 0.523852 31.5273ZM2.20015 29.6364C2.54937 29.6364 2.96845 29.7455 3.31767 30.1091C3.63198 30.4727 3.87644 30.9818 3.87644 31.7455C3.87644 32.2182 3.80659 32.7636 3.45736 33.2C3.24783 33.4546 2.8986 33.7091 2.33984 33.7091C2.30491 33.7091 2.23507 33.7091 2.20015 33.7091V33.9273C3.03829 33.9273 3.52721 33.5273 3.84152 33.2C4.15582 32.8364 4.40028 32.3273 4.40028 31.5636C4.40028 31.0909 4.29551 30.4 3.77167 29.9273C3.28275 29.4909 2.68906 29.3455 2.20015 29.3455C2.20015 29.3455 2.20015 29.3455 2.16522 29.3455V29.6364H2.20015Z" fill="white"/>
<path d="M8.55607 29.8909C8.55607 29.8545 8.55607 29.8181 8.52114 29.7818C8.48622 29.7454 8.4513 29.7454 8.41638 29.7454H6.32101C6.28609 29.7454 6.25116 29.7454 6.21624 29.7818C6.18132 29.8181 6.18132 29.8545 6.18132 29.8909V32.909C6.18132 33.0181 6.21624 33.4909 6.25116 33.6363C6.28609 33.7454 6.32101 33.7818 6.49562 33.8181H6.56547C6.63531 33.8181 6.70516 33.7818 6.70516 33.8545C6.70516 33.8909 6.63531 33.8909 6.63531 33.8909C6.60039 33.8909 6.60039 33.8909 6.60039 33.8909C6.53055 33.8909 6.4607 33.8545 6.39085 33.8545C6.04163 33.8545 5.97178 33.8545 5.93686 33.8545H5.83209C5.72732 33.8545 5.58763 33.8545 5.48286 33.8545C5.34317 33.8909 5.34317 33.8909 5.30825 33.8909C5.27333 33.8909 5.27333 33.8545 5.27333 33.8545C5.27333 33.8181 5.30825 33.8181 5.34317 33.8181H5.41302C5.55271 33.7818 5.58763 33.7454 5.62255 33.6363C5.65748 33.5272 5.6924 33.3454 5.6924 32.7636V30.2909C5.6924 30.2181 5.6924 29.9272 5.65748 29.8181C5.65748 29.7818 5.62255 29.709 5.58763 29.6727C5.51779 29.5999 5.44794 29.6 5.37809 29.6H5.27333C5.27333 29.6 5.2384 29.6 5.2384 29.5636C5.2384 29.5272 5.27333 29.5272 5.30825 29.5272C5.34317 29.5272 5.44794 29.5272 5.51779 29.5272C5.58763 29.5272 5.79717 29.5636 6.0067 29.5636H8.83545C8.94022 29.5636 9.07991 29.5636 9.32437 29.5272C9.35929 29.5272 9.35929 29.5272 9.35929 29.5272C9.39421 29.5272 9.42914 29.5636 9.42914 29.5636C9.42914 29.6 9.39421 29.6 9.35929 29.6H9.32437C9.18468 29.6363 9.11483 29.6363 9.07991 29.7454C9.04499 29.7818 9.04499 29.8909 9.01006 30.1454V32.7636C9.01006 32.909 9.01006 33.4545 9.07991 33.6363C9.11483 33.7454 9.14975 33.7818 9.32437 33.8181H9.42914C9.49898 33.8181 9.56883 33.7818 9.56883 33.8545C9.56883 33.8909 9.5339 33.8909 9.49898 33.8909C9.46406 33.8909 9.46406 33.8909 9.46406 33.8909C9.39421 33.8909 9.28944 33.8545 9.2196 33.8545C8.90529 33.8545 8.83545 33.8545 8.80053 33.8545H8.73068C8.59099 33.8545 8.48622 33.8545 8.38145 33.8545C8.27668 33.8909 8.24176 33.8909 8.24176 33.8909C8.20684 33.8909 8.17192 33.8545 8.17192 33.8545C8.17192 33.8181 8.20684 33.8181 8.24176 33.8181H8.34653C8.4513 33.7818 8.48622 33.7454 8.52114 33.6363C8.59099 33.4545 8.59099 33.1272 8.59099 32.909V29.8909H8.55607Z" fill="white"/>
<path d="M10.9308 31.5273C10.8959 32.2545 11.1404 32.7636 11.3848 33.0909C11.7341 33.5636 12.223 33.7091 12.5722 33.7091V33.9273C12.5373 33.9273 12.5373 33.9273 12.5373 33.9273C12.1182 33.9273 11.3848 33.8546 10.861 33.2C10.5118 32.7636 10.3372 32.1818 10.3372 31.6727C10.3372 31.2727 10.4419 30.7636 10.8261 30.2545C11.1404 29.8545 11.6293 29.4182 12.5722 29.3818V29.6C12.5722 29.5636 12.5373 29.5636 12.5373 29.5636C12.223 29.5636 11.7341 29.6364 11.3499 30.0727C11.0705 30.4727 10.9308 30.9455 10.9308 31.5273ZM12.6071 29.6364C12.9564 29.6364 13.3754 29.7455 13.7247 30.1091C14.039 30.4727 14.2834 30.9818 14.2834 31.7455C14.2834 32.2182 14.2136 32.7636 13.8644 33.2C13.6548 33.4546 13.3056 33.7091 12.7468 33.7091C12.7119 33.7091 12.677 33.7091 12.6421 33.7091V33.9273C13.4802 33.9273 13.9691 33.5273 14.2485 33.2C14.5628 32.8364 14.8422 32.3273 14.8422 31.5636C14.8422 31.0909 14.7025 30.4 14.1787 29.9273C13.7247 29.4909 13.131 29.3455 12.6421 29.3455V29.6364H12.6071Z" fill="white"/>
<path d="M16.2042 30.3636C16.2042 29.9272 16.1693 29.7818 16.1693 29.7454C16.1343 29.709 16.0994 29.6 15.9248 29.6H15.855C15.82 29.6 15.7153 29.6 15.7153 29.5636C15.7153 29.5272 15.7502 29.5272 15.7851 29.5272H15.82C16.0645 29.5636 16.2391 29.5636 16.3788 29.5636H16.4137C16.4836 29.5636 16.5534 29.5636 16.6582 29.5636C16.7979 29.5272 16.9026 29.5272 17.0773 29.5272C17.7059 29.5272 17.9853 29.6727 18.1948 29.8545C18.4043 30.0727 18.4742 30.3272 18.4742 30.5454C18.4742 30.8 18.4392 31.1636 18.1249 31.5272C17.8106 31.8545 17.4614 31.9272 17.0423 31.9272H17.0074C16.9725 31.9272 16.9376 31.9272 16.9376 31.8909C16.9376 31.8545 17.0074 31.8545 17.0074 31.8545C17.0423 31.8545 17.0423 31.8545 17.0773 31.8545C17.4614 31.8181 17.8106 31.6363 17.9503 31.309C18.0202 31.1636 18.0202 30.9818 18.0202 30.8363C18.0551 30.509 17.9853 30.2181 17.7408 29.9636C17.4614 29.709 17.1122 29.6727 17.0074 29.6727C16.9725 29.6727 16.9725 29.6727 16.9376 29.6727C16.8328 29.6727 16.6931 29.6727 16.6931 29.8181V32.7636C16.6931 32.909 16.6931 33.4545 16.728 33.6363C16.763 33.7454 16.8328 33.7818 17.0074 33.8181H17.0773C17.1122 33.8181 17.1471 33.8181 17.182 33.8181C17.217 33.8181 17.2169 33.8181 17.2169 33.8181C17.2519 33.8181 17.2519 33.8181 17.2519 33.8545C17.2519 33.9272 17.0773 33.8909 16.9725 33.8909C16.6582 33.8909 16.5534 33.8909 16.5534 33.8909H16.4137C16.3788 33.8909 16.1343 33.8909 15.9947 33.9272C15.9597 33.9272 15.9248 33.9272 15.8899 33.9272C15.855 33.8909 15.855 33.8909 15.855 33.8909C15.855 33.8545 15.8899 33.8545 15.8899 33.8545H15.9597C16.0645 33.8181 16.1693 33.8181 16.2042 33.6727C16.2391 33.5999 16.274 33.4181 16.274 32.7999V30.3636H16.2042Z" fill="white"/>
<path d="M20.0806 31.9637H20.6044V32.1455H20.0107C19.9758 32.1455 19.9758 32.1455 19.9758 32.2182L19.6615 33.2364C19.5567 33.4546 19.5567 33.5637 19.5567 33.6C19.5567 33.7818 19.6964 33.7818 19.7663 33.7818C19.8012 33.7818 19.8012 33.7818 19.8361 33.7818C19.8361 33.7818 19.8711 33.7818 19.8711 33.8182C19.8711 33.8546 19.8012 33.8546 19.7663 33.8546C19.6964 33.8546 19.6266 33.8182 19.5218 33.8182H19.4869C19.4171 33.8182 19.3821 33.8182 19.3123 33.8182H19.2424C18.8583 33.8182 18.9281 33.8182 18.7186 33.8546C18.6837 33.8546 18.6837 33.8546 18.6837 33.8546C18.6488 33.8546 18.6138 33.8182 18.6138 33.8182C18.6138 33.7455 18.6837 33.7818 18.7535 33.7818C18.9281 33.7455 19.1027 33.7091 19.2774 33.2364L20.5346 29.6364C20.5695 29.6 20.5695 29.5637 20.5695 29.4909V30.2909C20.5346 30.2909 20.5346 30.3273 20.5346 30.3273L20.0107 31.8909C20.0457 31.9637 20.0457 31.9637 20.0806 31.9637ZM20.6044 30.2909C20.6394 30.2909 20.6394 30.3273 20.6394 30.3273L21.1632 31.8909C21.1632 31.9273 21.1632 31.9273 21.1283 31.9273H20.6044V32.1091H21.233C21.233 32.1091 21.268 32.1091 21.268 32.1455L21.7918 33.5637C21.7918 33.6 21.7918 33.6727 21.7569 33.7091C21.722 33.7455 21.687 33.7091 21.687 33.7455C21.687 33.7818 21.7569 33.7818 21.7918 33.7818C21.8616 33.7818 22.1061 33.8182 22.176 33.8182H22.6998C22.7347 33.8182 22.8395 33.8182 22.8395 33.7818C22.8395 33.7455 22.8395 33.7455 22.8046 33.7455C22.7696 33.7455 22.7347 33.7455 22.63 33.7455C22.3506 33.7091 22.2458 33.4909 22.176 33.3091C22.1061 33.1273 21.9315 32.8 21.3029 31.0546C21.1981 30.7273 21.0933 30.4727 20.9886 30.1818C20.9187 29.9637 20.814 29.7818 20.7441 29.5637C20.7092 29.4909 20.6394 29.3818 20.6044 29.3818C20.5695 29.3818 20.5346 29.4182 20.5346 29.4909V30.2909H20.6044Z" fill="white"/>
<path d="M25.0047 30.3636C25.0047 29.9272 24.9698 29.7818 24.9698 29.7454C24.9349 29.709 24.9 29.6 24.7253 29.6H24.6555C24.5857 29.6 24.5158 29.6 24.5158 29.5636C24.5158 29.5272 24.5507 29.5272 24.5857 29.5272C24.6206 29.5272 24.6206 29.5272 24.6206 29.5272C24.865 29.5636 25.0047 29.5636 25.1793 29.5636H25.2492C25.319 29.5636 25.4238 29.5636 25.4936 29.5636C25.6333 29.5272 25.7381 29.5272 25.8778 29.5272C26.5064 29.5272 26.8207 29.6727 27.0302 29.8545C27.2398 30.0727 27.3096 30.3272 27.3096 30.5454C27.3096 30.8 27.2398 31.1636 26.9604 31.5272C26.6461 31.8545 26.2969 31.9272 25.8778 31.9272H25.8429C25.808 31.9272 25.7381 31.9272 25.7381 31.8909C25.7381 31.8545 25.808 31.8545 25.8429 31.8545C25.8778 31.8545 25.8778 31.8545 25.9127 31.8545C26.2969 31.8181 26.6112 31.6363 26.7858 31.309C26.8556 31.1636 26.8906 30.9818 26.8906 30.8363C26.8906 30.509 26.8556 30.2181 26.6112 29.9636C26.3318 29.709 25.9826 29.6727 25.8778 29.6727C25.8429 29.6727 25.8429 29.6727 25.808 29.6727C25.6683 29.6727 25.5635 29.6727 25.5635 29.8181L25.4936 32.7636C25.4936 32.909 25.4936 33.4545 25.5635 33.6363C25.5984 33.7454 25.6683 33.7818 25.808 33.8181H25.8778C25.9127 33.8181 25.9476 33.8181 25.9826 33.8181C25.9826 33.8181 25.9826 33.8181 26.0175 33.8181C26.0175 33.8181 26.0524 33.8181 26.0524 33.8545C26.0524 33.9272 25.8429 33.8909 25.7381 33.8909C25.4587 33.8909 25.319 33.8909 25.319 33.8909H25.1793C25.1095 33.8909 24.9 33.8909 24.7603 33.9272C24.7253 33.9272 24.6904 33.9272 24.6904 33.9272C24.6555 33.8909 24.6206 33.8909 24.6206 33.8909C24.6206 33.8545 24.6555 33.8545 24.6555 33.8545H24.7253C24.8301 33.8181 24.9349 33.8181 24.9698 33.6727C25.0047 33.5999 25.0396 33.4181 25.0396 32.7999V30.3636H25.0047Z" fill="white"/>
<path d="M28.0081 31.8182V31.7091C28.0081 31.6727 28.0081 31.6727 28.0081 31.6727C28.0081 31.2727 28.0779 30.7636 28.497 30.2545C28.7764 29.8545 29.3002 29.4182 30.2082 29.3818V29.6C30.2082 29.5636 30.1733 29.5636 30.1733 29.5636C29.824 29.5636 29.3351 29.6364 28.9859 30.0727C28.6716 30.4364 28.5319 30.9091 28.5319 31.4909C28.5319 32.2182 28.7414 32.7273 29.0208 33.0546C29.37 33.5273 29.824 33.6727 30.2082 33.6727V33.8909H30.1733C29.7542 33.8909 29.0208 33.8182 28.497 33.1636C28.1827 32.8364 28.0081 32.3273 28.0081 31.8182ZM30.2082 29.6364C30.5574 29.6364 30.9765 29.7455 31.3257 30.1091C31.64 30.4727 31.9194 30.9818 31.9194 31.7455C31.9194 32.2182 31.8496 32.7636 31.4654 33.2C31.2559 33.4546 30.9066 33.7091 30.3479 33.7091C30.313 33.7091 30.278 33.7091 30.2082 33.7091V33.9273C31.0463 33.9273 31.5702 33.5273 31.8496 33.2C32.1639 32.8364 32.4432 32.3273 32.4432 31.5636C32.4432 31.0909 32.3036 30.4 31.7797 29.9273C31.3257 29.4909 30.732 29.3455 30.2431 29.3455H30.2082V29.6364Z" fill="white"/>
<path d="M36.8435 30.6909C36.8086 30.6909 36.8086 30.6182 36.8086 30.5818C36.8086 30.3273 36.7737 30.0364 36.3546 29.8182C35.9705 29.6364 35.5863 29.6364 35.4117 29.6364C35.0276 29.6364 34.5386 29.7091 34.1894 30.0364C33.8402 30.3273 33.6656 30.8364 33.6656 31.4909C33.6656 32.6909 34.4339 33.6728 35.7609 33.6728C36.18 33.6728 36.5642 33.6 36.7388 33.2728C36.8086 33.1637 36.8435 32.9818 36.8785 32.8728C36.8785 32.8364 36.8785 32.8364 36.9134 32.8364C36.9483 32.8364 36.9483 32.9091 36.9483 32.9455C36.9483 33.1273 36.8435 33.7091 36.7737 33.7818C36.7039 33.8546 36.3197 33.9637 35.6562 33.9637C35.0974 33.9637 34.364 33.8909 33.8053 33.3455C33.2814 32.8364 33.1068 32.2182 33.1068 31.6364C33.1068 30.9818 33.3862 30.4364 33.7354 30.0364C34.1545 29.6 34.6783 29.4182 35.4466 29.4182C35.6911 29.4182 35.9006 29.4546 36.1451 29.4909C36.2499 29.5273 36.3546 29.5273 36.4943 29.5637C36.5642 29.5637 36.5991 29.6 36.6689 29.6C36.8086 29.6364 36.8435 29.6 36.8785 29.6364C36.9134 29.6364 36.9134 29.6728 36.9134 29.6728V29.7091C36.8785 29.8546 36.8785 29.8909 36.8785 30.4364C36.9134 30.5091 36.9134 30.6909 36.8435 30.6909Z" fill="white"/>
<path d="M41.3835 30.6909C41.3485 30.6909 41.3485 30.6182 41.3485 30.5818C41.3485 30.3273 41.3136 30.0364 40.8945 29.8182C40.5453 29.6364 40.1262 29.6364 39.9516 29.6364C39.5675 29.6364 39.1135 29.7091 38.7293 30.0364C38.3801 30.3273 38.2055 30.8364 38.2055 31.4909C38.2055 32.6909 38.9738 33.6728 40.3358 33.6728C40.7549 33.6728 41.139 33.6 41.3136 33.2728C41.3835 33.1637 41.3835 32.9818 41.4184 32.8728C41.4184 32.8364 41.4533 32.8364 41.4533 32.8364C41.4882 32.8364 41.4882 32.9091 41.4882 32.9455C41.4882 33.1273 41.3835 33.7091 41.3485 33.7818C41.2438 33.8546 40.8945 33.9637 40.1961 33.9637C39.6373 33.9637 38.9389 33.8909 38.3452 33.3455C37.8213 32.8364 37.6467 32.2182 37.6467 31.6364C37.6467 30.9818 37.9261 30.4364 38.2753 30.0364C38.6944 29.6 39.2183 29.4182 39.9866 29.4182C40.231 29.4182 40.4405 29.4546 40.685 29.4909C40.7898 29.5273 40.9295 29.5273 41.0342 29.5637C41.1041 29.5637 41.139 29.6 41.2088 29.6C41.3485 29.6364 41.4184 29.6 41.4184 29.6364C41.4533 29.6364 41.4533 29.6728 41.4533 29.6728V29.7091C41.4184 29.8546 41.4184 29.8909 41.4184 30.4364C41.4184 30.5091 41.4533 30.6909 41.3835 30.6909Z" fill="white"/>
<path d="M45.8885 29.5637C45.9234 29.4909 45.9933 29.4182 46.0631 29.4182C46.0981 29.4182 46.1679 29.4546 46.1679 29.6V32.8364C46.133 33.5273 46.2028 33.6728 46.2727 33.7455C46.3076 33.8182 46.4473 33.8182 46.4822 33.8182H46.5521C46.6568 33.8182 46.6917 33.7818 46.6917 33.8546C46.6917 33.8909 46.6568 33.8909 46.6219 33.8909H46.587C46.3774 33.8909 46.1679 33.8546 45.9584 33.8546H45.8187C45.679 33.8546 45.5393 33.8546 45.3647 33.8909C45.3298 33.8909 45.3298 33.8909 45.3298 33.8909C45.2948 33.8546 45.2599 33.8546 45.2948 33.8182C45.2948 33.7818 45.3298 33.7818 45.3298 33.7818H45.4345C45.4695 33.7455 45.5393 33.7455 45.5393 33.7091C45.5742 33.6728 45.6091 33.6364 45.6441 33.4182C45.679 33.2364 45.679 32.9455 45.679 32.7637L45.7139 30.2182L42.955 33.8182C42.9201 33.8546 42.8852 33.9273 42.8153 33.9273C42.7804 33.9273 42.7455 33.8909 42.7455 33.7455V30.2909C42.7455 29.8546 42.7106 29.7091 42.7106 29.6728C42.6756 29.6 42.6058 29.5273 42.4661 29.5273H42.3963C42.3613 29.5273 42.3613 29.4909 42.3613 29.4909C42.3613 29.4546 42.3962 29.4546 42.4312 29.4546H42.4661C42.6058 29.4546 42.8502 29.4909 42.9899 29.4909H43.0947C43.1646 29.4909 43.3042 29.4909 43.5487 29.4546C43.5836 29.4546 43.5836 29.4546 43.5836 29.4546C43.6185 29.4546 43.6185 29.4909 43.6185 29.4909C43.6185 29.5273 43.5836 29.5273 43.5138 29.5273L43.4439 29.5637C43.3392 29.5637 43.3042 29.6 43.2344 29.7091C43.2344 29.7455 43.1995 29.8546 43.1995 30.1455V33.0909L45.8885 29.5637Z" fill="white"/>
<path d="M51.1968 29.5637C51.2317 29.4909 51.3016 29.4182 51.3714 29.4182C51.4063 29.4182 51.4762 29.4546 51.4762 29.6L51.4413 32.8364C51.4413 33.5273 51.4762 33.6728 51.546 33.7455C51.6159 33.8182 51.7206 33.8182 51.7905 33.8182H51.8603C51.9302 33.8182 52 33.7818 52 33.8546C52 33.8909 51.9651 33.8909 51.9302 33.8909C51.8953 33.8909 51.8953 33.8909 51.8953 33.8909C51.6857 33.8909 51.4762 33.8546 51.2667 33.8546H51.1619C51.0222 33.8546 50.8825 33.8546 50.673 33.8909H50.638C50.5682 33.8546 50.5682 33.8546 50.5682 33.8182C50.6031 33.8182 50.638 33.8182 50.638 33.8182H50.7777C50.8127 33.7818 50.8825 33.7819 50.9174 33.7455C50.9523 33.7091 50.9873 33.6728 50.9873 33.4546C51.0222 33.2728 51.0222 32.9818 51.0222 32.8V30.2546L48.2982 33.8546C48.2633 33.8909 48.1934 33.9637 48.1585 33.9637C48.1236 33.9637 48.0887 33.9273 48.0887 33.7818V30.3273C48.0887 29.8909 48.0538 29.7455 48.0538 29.7091C48.0188 29.6364 47.949 29.5637 47.8093 29.5637H47.7394C47.7045 29.5637 47.7045 29.5273 47.7045 29.5273C47.7045 29.4909 47.7395 29.4909 47.7744 29.4909H47.8093C47.949 29.4909 48.2284 29.5273 48.3331 29.5273H48.403C48.5078 29.5273 48.6125 29.5273 48.8919 29.4909H48.9268C48.9617 29.4909 48.9967 29.5273 48.9967 29.5273C48.9967 29.5637 48.9617 29.5637 48.8919 29.5637L48.8221 29.6C48.7522 29.6 48.6824 29.6364 48.6474 29.7455C48.6125 29.7818 48.6125 29.8909 48.6125 30.1818V33.1273L51.1968 29.5637Z" fill="white"/>
<path d="M12.4325 14.3636L41.5581 0.509033V23.5636L38.2055 18.6545H12.4325V14.3636Z" fill="#003571"/>
<path d="M41.8375 0L26.8556 7.09091H10.5117L10.4419 24.6545H41.8375V0Z" fill="#003571"/>
<path d="M12.4325 14.3636L41.5581 0.509033V23.5636L38.2055 18.6545H12.4325V14.3636Z" fill="white"/>
<path d="M12.4325 15.7819L40.4406 7.12732L41.5581 23.5637L38.2055 18.6546H12.4325V15.7819Z" fill="#0076BE"/>
<path d="M12.4325 17.2L39.1484 13.7455L41.5581 23.5637L38.2055 18.6546H12.4325V17.2Z" fill="#E72F36"/>
</g>
<defs>
<clipPath id="clip0_1_633">
<rect width="52" height="34" fill="white"/>
</clipPath>
</defs>
</svg>
