<svg width="36" height="53" viewBox="0 0 36 53" fill="none" xmlns="http://www.w3.org/2000/svg">
<path d="M10.612 50.156C9.828 50.156 9.156 49.972 8.596 49.604C8.044 49.236 7.656 48.732 7.432 48.092L8.392 47.54C8.72 48.556 9.468 49.064 10.636 49.064C11.212 49.064 11.652 48.948 11.956 48.716C12.26 48.476 12.412 48.16 12.412 47.768C12.412 47.368 12.26 47.068 11.956 46.868C11.652 46.668 11.144 46.456 10.432 46.232C10.08 46.12 9.812 46.032 9.628 45.968C9.444 45.896 9.212 45.792 8.932 45.656C8.66 45.512 8.456 45.368 8.32 45.224C8.184 45.072 8.06 44.876 7.948 44.636C7.844 44.396 7.792 44.124 7.792 43.82C7.792 43.092 8.048 42.516 8.56 42.092C9.072 41.66 9.696 41.444 10.432 41.444C11.096 41.444 11.672 41.612 12.16 41.948C12.656 42.284 13.028 42.728 13.276 43.28L12.34 43.82C11.98 42.956 11.344 42.524 10.432 42.524C9.976 42.524 9.608 42.636 9.328 42.86C9.048 43.084 8.908 43.388 8.908 43.772C8.908 44.14 9.04 44.42 9.304 44.612C9.568 44.804 10.024 45.004 10.672 45.212C10.904 45.284 11.068 45.336 11.164 45.368C11.26 45.4 11.408 45.456 11.608 45.536C11.816 45.616 11.968 45.68 12.064 45.728C12.16 45.776 12.288 45.844 12.448 45.932C12.616 46.02 12.74 46.104 12.82 46.184C12.9 46.264 12.992 46.364 13.096 46.484C13.208 46.596 13.288 46.712 13.336 46.832C13.384 46.952 13.424 47.092 13.456 47.252C13.496 47.404 13.516 47.568 13.516 47.744C13.516 48.48 13.248 49.068 12.712 49.508C12.176 49.94 11.476 50.156 10.612 50.156ZM15.8949 48.944H19.7949V50H14.7789V41.6H19.7349V42.656H15.8949V45.236H19.4349V46.28H15.8949V48.944ZM28.0676 48.884C27.2276 49.732 26.1996 50.156 24.9836 50.156C23.7676 50.156 22.7396 49.732 21.8996 48.884C21.0596 48.036 20.6396 47.008 20.6396 45.8C20.6396 44.584 21.0596 43.556 21.8996 42.716C22.7396 41.868 23.7676 41.444 24.9836 41.444C26.1996 41.444 27.2276 41.868 28.0676 42.716C28.9156 43.556 29.3396 44.584 29.3396 45.8C29.3396 47.008 28.9156 48.036 28.0676 48.884ZM22.6676 48.128C23.2916 48.752 24.0636 49.064 24.9836 49.064C25.9036 49.064 26.6716 48.752 27.2876 48.128C27.9116 47.496 28.2236 46.72 28.2236 45.8C28.2236 44.872 27.9116 44.096 27.2876 43.472C26.6716 42.84 25.9036 42.524 24.9836 42.524C24.0636 42.524 23.2916 42.84 22.6676 43.472C22.0516 44.096 21.7436 44.872 21.7436 45.8C21.7436 46.72 22.0516 47.496 22.6676 48.128Z" fill="#383838"/>
<path d="M6.71651 18.0931C6.09123 18.4136 5.48966 18.7764 4.92554 19.1841C5.72368 19.9916 6.64038 20.6675 7.6301 21.205C7.48033 20.4498 7.4042 19.6749 7.40981 18.8877C7.41106 18.7998 7.41605 18.7137 7.41855 18.6263C7.13898 18.512 6.90123 18.3244 6.71714 18.0925L6.71651 18.0931Z" fill="#FF1422"/>
<path d="M6.12923 12.1057L3.44339 12.1069C3.27926 12.8351 2.64587 13.3824 1.87207 13.439C2.239 15.3129 3.07209 17.0564 4.33763 18.5453C4.97726 18.0792 5.65746 17.6647 6.36823 17.303C6.3545 17.2169 6.34202 17.1302 6.34202 17.0404C6.34202 16.5798 6.52736 16.1635 6.82752 15.8553C6.43625 14.6481 6.19974 13.3929 6.12923 12.1057Z" fill="#FF1422"/>
<path d="M7.59457 15.3982C7.72936 15.3588 7.86977 15.3336 8.01579 15.3281C8.41455 14.1596 8.9974 13.0729 9.73313 12.1042L7.00049 12.1055C7.06601 13.2334 7.26758 14.3348 7.59394 15.3982H7.59457Z" fill="#FF1422"/>
<path d="M12.7265 16.665C12.4663 17.3729 12.314 18.1312 12.3078 18.9245C12.3022 19.748 12.4507 20.5481 12.7265 21.3003V16.665Z" fill="#FF1422"/>
<path d="M4.52539 3.78545C5.37657 4.44965 6.30139 5.01544 7.27925 5.46992C8.1504 3.42383 9.50705 1.57639 11.2238 0.0930176C8.6359 0.527819 6.27643 1.82607 4.52602 3.78545H4.52539Z" fill="#FF1422"/>
<path d="M6.97363 11.2464L10.4532 11.2446C11.1253 10.517 11.8885 9.8762 12.7266 9.33684V7.65114C11.0142 7.58226 9.34558 7.23356 7.76491 6.61426C7.24259 8.09824 6.97613 9.65603 6.97363 11.247V11.2464Z" fill="#FF1422"/>
<path d="M1.74357 10.0139C2.53547 10.0139 3.19507 10.5367 3.40787 11.2482L6.10245 11.2464C6.10494 9.53547 6.39449 7.86268 6.96299 6.27169C5.90151 5.784 4.89806 5.17207 3.97512 4.45068C2.71457 6.09518 1.95512 7.99798 1.73047 10.0158L1.7442 10.0145L1.74357 10.0139Z" fill="#FF1422"/>
<path d="M14.9407 22.4782C17.4618 22.092 19.7888 20.8798 21.5479 19.0361C20.6743 18.4291 19.7245 17.9205 18.7223 17.5232C17.8387 19.4205 16.5682 21.0852 14.9407 22.4782Z" fill="#FF1422"/>
<path d="M19.0566 16.7316C20.145 17.1639 21.1759 17.7199 22.1231 18.3859C23.1247 17.1633 23.8386 15.7728 24.253 14.2864C23.1684 13.1591 21.7019 12.394 20.0551 12.2009C19.9596 13.7679 19.627 15.2907 19.0566 16.7316Z" fill="#FF1422"/>
<path d="M24.3785 8.72297C24.0353 7.25497 23.3994 5.86754 22.4833 4.62402C21.8637 5.08896 21.2059 5.49978 20.5232 5.86447C20.5931 6.0502 20.6362 6.24884 20.6362 6.45855C20.6362 6.86445 20.4877 7.23284 20.248 7.5268C21.7233 7.67194 23.1167 8.08768 24.3785 8.72358V8.72297Z" fill="#FF1422"/>
<path d="M12.7265 6.7914V0C10.6566 1.51289 9.05349 3.51716 8.07812 5.81048C9.56145 6.39349 11.1253 6.72313 12.7265 6.7914Z" fill="#FF1422"/>
<path d="M13.5984 0.0976562V6.80172C14.8121 6.7802 16.0059 6.60554 17.166 6.28636C17.214 5.81712 17.4499 5.40753 17.8031 5.12709C16.8371 3.16771 15.4012 1.44696 13.5984 0.0982718V0.0976562Z" fill="#FF1422"/>
<path d="M18.5924 4.76977C18.6904 4.75316 18.7902 4.74025 18.8926 4.74025C19.3256 4.74025 19.7163 4.90076 20.0208 5.15783C20.6917 4.80544 21.3375 4.40446 21.9466 3.94875C20.1425 1.851 17.6726 0.483862 14.9399 0.0668945C16.4751 1.38483 17.7188 2.99058 18.593 4.76977H18.5924Z" fill="#FF1422"/>
<path d="M13.5984 8.82519C14.8121 8.18375 16.1526 7.75017 17.5704 7.56752C17.4605 7.44022 17.3644 7.30061 17.2952 7.14502C16.0914 7.46728 14.8533 7.64071 13.5984 7.66162V8.82519Z" fill="#FF1422"/>
<path d="M13.5984 22.4486C15.4574 21.0581 16.9388 19.2586 17.8992 17.2266C16.5145 16.7734 15.0692 16.5311 13.5984 16.5059V22.4492V22.4486Z" fill="#FF1422"/>
<path d="M13.5984 15.0268V15.6486C15.1872 15.6738 16.746 15.9383 18.2399 16.4339C18.7797 15.0717 19.0974 13.6333 19.1885 12.1523C16.8889 12.1665 14.8496 13.3005 13.5984 15.0274V15.0268Z" fill="#FF1422"/>
<path d="M18.8919 4.73987C18.7895 4.73987 18.6903 4.75279 18.5917 4.76939C18.2959 4.82044 18.0276 4.94713 17.8023 5.12609C17.4491 5.40653 17.2132 5.81673 17.1652 6.28536C17.1589 6.34255 17.1477 6.39852 17.1477 6.45756C17.1477 6.70232 17.202 6.93356 17.295 7.14451C17.3636 7.3001 17.4603 7.4397 17.5702 7.56701C18.0663 7.50305 18.5699 7.46676 19.0822 7.46676H19.1708C19.534 7.46984 19.8935 7.49075 20.2479 7.5258C20.4875 7.23183 20.6361 6.86345 20.6361 6.45756C20.6361 6.24784 20.593 6.0492 20.5231 5.86347C20.4189 5.58611 20.2442 5.34564 20.0201 5.15684C19.7156 4.89977 19.325 4.73926 18.8919 4.73926V4.73987Z" fill="#34A853"/>
<path d="M1.74355 10.014L1.72982 10.0153C0.772553 10.0227 0 10.7889 0 11.7323C0 12.6757 0.780042 13.4513 1.74355 13.4513L1.8721 13.4383C2.64528 13.3818 3.27929 12.8344 3.44341 12.1063C3.46962 11.9857 3.48772 11.8615 3.48772 11.7323C3.48772 11.5626 3.45402 11.4021 3.40785 11.2477C3.19505 10.5362 2.53482 10.0134 1.74355 10.0134V10.014Z" fill="#1A497E"/>
<path d="M6.34193 17.0403C6.34193 17.1301 6.35504 17.2168 6.36814 17.3029C6.41432 17.5987 6.53726 17.8674 6.71573 18.0931C6.89982 18.325 7.1382 18.5126 7.41714 18.627C7.45271 17.4775 7.65864 16.3699 8.01559 15.3281C7.86894 15.3337 7.72916 15.3595 7.59437 15.3982C7.29858 15.4843 7.03399 15.6405 6.82681 15.8552C6.52665 16.1633 6.34131 16.5796 6.34131 17.0403H6.34193Z" fill="#34A853"/>
<path d="M34.2737 31.0144L28.4128 25.2389C29.6845 23.405 30.3647 21.2747 30.3816 19.0564C30.4278 12.9169 25.3968 7.88499 19.1677 7.83887H19.0822C12.8999 7.83887 7.83214 12.7963 7.78597 18.8903C7.7635 21.8638 8.91734 24.6682 11.0353 26.7869C13.1533 28.9055 15.9814 30.0845 18.9998 30.1066H19.0853C21.1858 30.1066 23.2264 29.5365 25.0055 28.4535L30.8727 34.2333L30.5401 33.9055L33.8993 30.6454L34.2737 31.0144ZM19.2345 26.1707H19.1777C17.2276 26.1559 15.4004 25.3945 14.0313 24.0256C12.6622 22.6566 11.9171 20.8436 11.9308 18.9217C11.9614 14.9833 15.2363 11.7791 19.2314 11.7791H19.2863C23.3125 11.8087 26.5638 15.0608 26.5338 19.0293C26.5032 22.9671 23.2283 26.1713 19.2339 26.1713L19.2345 26.1707Z" fill="#1A497E"/>
<path d="M31.4905 34.8431L32.2917 35.6432C32.5245 35.8769 32.849 35.9999 33.2278 35.9999C33.8375 35.9999 34.5351 35.6758 35.0936 35.1334C36.0353 34.2182 36.2806 33.0092 35.6522 32.3806L34.5832 31.3118L34.5801 31.3142L34.5932 31.3265L34.595 31.3253L35.1117 31.8419L31.7544 35.102L31.4917 34.8425L31.4905 34.8431Z" fill="#34A853"/>
<path d="M31.4738 34.8266L31.2205 34.5769L31.4738 34.8266Z" fill="#34A853"/>
<path d="M34.5796 31.315L34.2739 31.0143L33.8995 30.6453L30.5403 33.9054L30.8729 34.2338L31.2205 34.5769L31.4738 34.8266L31.4907 34.8432L31.7534 35.1028L35.1107 31.8427L34.5946 31.3261L34.5928 31.3273L34.5796 31.315Z" fill="#FF1422"/>
</svg>
