<svg width="42" height="53" viewBox="0 0 42 53" fill="none" xmlns="http://www.w3.org/2000/svg">
<path d="M3.37597 43.4075V50.8248H2.39967V43.4075H3.37597ZM5.78078 43.4075V44.2124H0V43.4075H5.78078Z" fill="#383838"/>
<path d="M8.4349 50.9266C8.0478 50.9266 7.69667 50.8621 7.38151 50.7331C7.06978 50.6006 6.80087 50.4155 6.57477 50.1778C6.35211 49.9401 6.18083 49.6582 6.06093 49.3321C5.94103 49.0061 5.88108 48.6495 5.88108 48.2624V48.0484C5.88108 47.6001 5.94788 47.2011 6.08148 46.8512C6.21508 46.498 6.39664 46.1992 6.62616 45.9547C6.85568 45.7101 7.11603 45.525 7.40721 45.3994C7.69839 45.2737 7.99984 45.2109 8.31158 45.2109C8.70895 45.2109 9.05152 45.2788 9.33927 45.4147C9.63045 45.5505 9.86853 45.7407 10.0535 45.9852C10.2385 46.2264 10.3755 46.5116 10.4646 46.8411C10.5537 47.1671 10.5982 47.5237 10.5982 47.9109V48.3337H6.44631V47.5644H9.64758V47.4931C9.63388 47.2486 9.58249 47.0109 9.49343 46.7799C9.40778 46.549 9.27076 46.3588 9.08235 46.2094C8.89394 46.0599 8.63701 45.9852 8.31158 45.9852C8.09576 45.9852 7.89707 46.0311 7.71552 46.1228C7.53396 46.2111 7.37809 46.3435 7.24791 46.5201C7.11774 46.6967 7.01668 46.9124 6.94474 47.1671C6.87281 47.4218 6.83684 47.7156 6.83684 48.0484V48.2624C6.83684 48.5239 6.87281 48.7701 6.94474 49.001C7.02011 49.2286 7.12802 49.4289 7.26847 49.6021C7.41234 49.7753 7.58534 49.9112 7.78745 50.0097C7.99299 50.1082 8.22594 50.1574 8.48629 50.1574C8.822 50.1574 9.10633 50.0895 9.33927 49.9536C9.57222 49.8178 9.77604 49.6361 9.95075 49.4086L10.5263 49.8619C10.4064 50.0419 10.2539 50.2134 10.0689 50.3765C9.88395 50.5395 9.65614 50.6719 9.38552 50.7738C9.11832 50.8757 8.80145 50.9266 8.4349 50.9266Z" fill="#383838"/>
<path d="M12.6357 43V50.8248H11.6799V43H12.6357Z" fill="#383838"/>
<path d="M16.3638 50.9266C15.9767 50.9266 15.6255 50.8621 15.3104 50.7331C14.9986 50.6006 14.7297 50.4155 14.5036 50.1778C14.281 49.9401 14.1097 49.6582 13.9898 49.3321C13.8699 49.0061 13.8099 48.6495 13.8099 48.2624V48.0484C13.8099 47.6001 13.8767 47.2011 14.0103 46.8512C14.1439 46.498 14.3255 46.1992 14.555 45.9547C14.7845 45.7101 15.0449 45.525 15.3361 45.3994C15.6273 45.2737 15.9287 45.2109 16.2404 45.2109C16.6378 45.2109 16.9804 45.2788 17.2681 45.4147C17.5593 45.5505 17.7974 45.7407 17.9824 45.9852C18.1674 46.2264 18.3044 46.5116 18.3935 46.8411C18.4825 47.1671 18.5271 47.5237 18.5271 47.9109V48.3337H14.3752V47.5644H17.5764V47.4931C17.5627 47.2486 17.5114 47.0109 17.4223 46.7799C17.3366 46.549 17.1996 46.3588 17.0112 46.2094C16.8228 46.0599 16.5659 45.9852 16.2404 45.9852C16.0246 45.9852 15.8259 46.0311 15.6444 46.1228C15.4628 46.2111 15.307 46.3435 15.1768 46.5201C15.0466 46.6967 14.9455 46.9124 14.8736 47.1671C14.8017 47.4218 14.7657 47.7156 14.7657 48.0484V48.2624C14.7657 48.5239 14.8017 48.7701 14.8736 49.001C14.949 49.2286 15.0569 49.4289 15.1973 49.6021C15.3412 49.7753 15.5142 49.9112 15.7163 50.0097C15.9219 50.1082 16.1548 50.1574 16.4151 50.1574C16.7509 50.1574 17.0352 50.0895 17.2681 49.9536C17.5011 49.8178 17.7049 49.6361 17.8796 49.4086L18.4551 49.8619C18.3352 50.0419 18.1828 50.2134 17.9978 50.3765C17.8128 50.5395 17.585 50.6719 17.3144 50.7738C17.0472 50.8757 16.7303 50.9266 16.3638 50.9266Z" fill="#383838"/>
<path d="M23.1338 45.3128H23.9971V50.7076C23.9971 51.1932 23.8977 51.6076 23.699 51.9506C23.5003 52.2936 23.2229 52.5534 22.8666 52.73C22.5138 52.91 22.1061 53 21.6436 53C21.4518 53 21.2257 52.9694 20.9654 52.9083C20.7084 52.8506 20.4549 52.7504 20.2049 52.6077C19.9582 52.4685 19.751 52.28 19.5831 52.0423L20.0816 51.4819C20.3145 51.7604 20.5577 51.954 20.8112 52.0627C21.0681 52.1713 21.3216 52.2257 21.5717 52.2257C21.8732 52.2257 22.1335 52.1696 22.3528 52.0576C22.572 51.9455 22.7416 51.7791 22.8615 51.5583C22.9848 51.341 23.0464 51.0727 23.0464 50.7534V46.5252L23.1338 45.3128ZM19.3056 48.1299V48.0229C19.3056 47.6018 19.3553 47.2197 19.4547 46.8767C19.5574 46.5303 19.703 46.2331 19.8914 45.9852C20.0833 45.7373 20.3145 45.5471 20.5851 45.4147C20.8557 45.2788 21.1606 45.2109 21.4998 45.2109C21.8492 45.2109 22.1541 45.272 22.4144 45.3943C22.6782 45.5132 22.9009 45.6881 23.0824 45.919C23.2674 46.1465 23.413 46.4216 23.5192 46.7443C23.6254 47.0669 23.699 47.432 23.7401 47.8395V48.3082C23.7025 48.7123 23.6288 49.0757 23.5192 49.3984C23.413 49.721 23.2674 49.9961 23.0824 50.2236C22.9009 50.4512 22.6782 50.6261 22.4144 50.7483C22.1506 50.8672 21.8423 50.9266 21.4895 50.9266C21.1572 50.9266 20.8557 50.857 20.5851 50.7178C20.3179 50.5785 20.0884 50.3833 19.8966 50.1319C19.7047 49.8806 19.5574 49.5852 19.4547 49.2455C19.3553 48.9025 19.3056 48.5307 19.3056 48.1299ZM20.2563 48.0229V48.1299C20.2563 48.405 20.2837 48.6631 20.3385 48.9042C20.3967 49.1454 20.4841 49.3576 20.6005 49.541C20.7204 49.7244 20.8729 49.8687 21.0579 49.974C21.2428 50.0759 21.4638 50.1268 21.7207 50.1268C22.0359 50.1268 22.2962 50.0606 22.5018 49.9282C22.7073 49.7957 22.87 49.6208 22.9899 49.4035C23.1132 49.1861 23.2092 48.9501 23.2777 48.6954V47.4677C23.24 47.2809 23.1818 47.1009 23.103 46.9277C23.0276 46.7511 22.9283 46.5948 22.8049 46.459C22.685 46.3197 22.536 46.2094 22.3579 46.1279C22.1798 46.0464 21.9708 46.0056 21.731 46.0056C21.4706 46.0056 21.2463 46.0599 21.0579 46.1686C20.8729 46.2739 20.7204 46.4199 20.6005 46.6067C20.4841 46.7901 20.3967 47.0041 20.3385 47.2486C20.2837 47.4897 20.2563 47.7478 20.2563 48.0229Z" fill="#383838"/>
<path d="M26.2864 46.1788V50.8248H25.3357V45.3128H26.2607L26.2864 46.1788ZM28.0232 45.2822L28.018 46.1584C27.9392 46.1415 27.8639 46.1313 27.7919 46.1279C27.7234 46.1211 27.6446 46.1177 27.5556 46.1177C27.3363 46.1177 27.1428 46.1516 26.9749 46.2196C26.8071 46.2875 26.6649 46.3826 26.5484 46.5048C26.4319 46.6271 26.3395 46.7731 26.2709 46.9429C26.2059 47.1094 26.163 47.2927 26.1425 47.4931L25.8753 47.6459C25.8753 47.3131 25.9078 47.0007 25.9729 46.7086C26.0414 46.4165 26.1459 46.1584 26.2864 45.9343C26.4268 45.7067 26.6049 45.5301 26.8208 45.4045C27.04 45.2754 27.3003 45.2109 27.6018 45.2109C27.6703 45.2109 27.7491 45.2194 27.8382 45.2364C27.9272 45.25 27.9889 45.2652 28.0232 45.2822Z" fill="#383838"/>
<path d="M31.8694 49.8823V47.0448C31.8694 46.8275 31.8249 46.639 31.7358 46.4794C31.6502 46.3164 31.52 46.1907 31.3453 46.1024C31.1706 46.0141 30.9548 45.9699 30.6978 45.9699C30.458 45.9699 30.2474 46.0107 30.0658 46.0922C29.8877 46.1737 29.7472 46.2807 29.6444 46.4131C29.5451 46.5456 29.4954 46.6882 29.4954 46.8411H28.5448C28.5448 46.6441 28.5962 46.4488 28.699 46.2552C28.8017 46.0616 28.949 45.8867 29.1409 45.7305C29.3361 45.5709 29.5691 45.4452 29.8397 45.3535C30.1138 45.2584 30.4186 45.2109 30.7544 45.2109C31.1586 45.2109 31.5148 45.2788 31.8232 45.4147C32.1349 45.5505 32.3781 45.756 32.5528 46.0311C32.731 46.3028 32.82 46.6441 32.82 47.055V49.6225C32.82 49.8059 32.8354 50.0012 32.8663 50.2084C32.9005 50.4155 32.9502 50.5938 33.0153 50.7432V50.8248H32.0236C31.9756 50.7161 31.9379 50.5717 31.9105 50.3917C31.8831 50.2084 31.8694 50.0385 31.8694 49.8823ZM32.0338 47.4829L32.0441 48.1452H31.0832C30.8126 48.1452 30.5711 48.1673 30.3587 48.2114C30.1463 48.2522 29.9682 48.315 29.8243 48.3999C29.6804 48.4848 29.5708 48.5918 29.4954 48.7208C29.4201 48.8465 29.3824 48.9942 29.3824 49.164C29.3824 49.3372 29.4218 49.4952 29.5006 49.6378C29.5794 49.7804 29.6975 49.8942 29.8551 49.9791C30.0161 50.0606 30.2131 50.1014 30.446 50.1014C30.7372 50.1014 30.9942 50.0402 31.2168 49.918C31.4395 49.7957 31.6159 49.6463 31.7461 49.4697C31.8797 49.2931 31.9516 49.1216 31.9619 48.9552L32.3678 49.4086C32.3439 49.5512 32.2788 49.7091 32.1726 49.8823C32.0664 50.0555 31.9242 50.2219 31.7461 50.3816C31.5714 50.5378 31.3624 50.6685 31.1192 50.7738C30.8794 50.8757 30.6088 50.9266 30.3073 50.9266C29.9305 50.9266 29.5999 50.8536 29.3156 50.7076C29.0347 50.5616 28.8154 50.3663 28.6579 50.1218C28.5037 49.8738 28.4266 49.597 28.4266 49.2914C28.4266 48.9959 28.4849 48.7361 28.6013 48.512C28.7178 48.2844 28.8857 48.0959 29.1049 47.9465C29.3241 47.7937 29.5879 47.6782 29.8962 47.6001C30.2045 47.522 30.5488 47.4829 30.9291 47.4829H32.0338Z" fill="#383838"/>
<path d="M35.1556 46.408V50.8248H34.1998V45.3128H35.1042L35.1556 46.408ZM34.9603 47.8599L34.5184 47.8446C34.5218 47.4677 34.5715 47.1195 34.6674 46.8003C34.7633 46.4777 34.9055 46.1975 35.0939 45.9598C35.2823 45.722 35.517 45.5386 35.7979 45.4096C36.0788 45.2771 36.4042 45.2109 36.7742 45.2109C37.0345 45.2109 37.2743 45.2483 37.4936 45.323C37.7128 45.3943 37.9029 45.5081 38.0639 45.6643C38.2249 45.8205 38.35 46.0209 38.439 46.2654C38.5281 46.5099 38.5726 46.8054 38.5726 47.1518V50.8248H37.622V47.1977C37.622 46.909 37.5724 46.678 37.473 46.5048C37.3771 46.3316 37.2401 46.206 37.0619 46.1279C36.8838 46.0464 36.6748 46.0056 36.435 46.0056C36.1541 46.0056 35.9195 46.0548 35.7311 46.1533C35.5427 46.2518 35.3919 46.3877 35.2789 46.5609C35.1658 46.7341 35.0836 46.9328 35.0322 47.1569C34.9843 47.3777 34.9603 47.612 34.9603 47.8599ZM38.5624 47.3403L37.9252 47.5339C37.9286 47.2316 37.9783 46.9412 38.0742 46.6628C38.1736 46.3843 38.3157 46.1364 38.5007 45.919C38.6891 45.7016 38.9203 45.5301 39.1944 45.4045C39.4684 45.2754 39.7819 45.2109 40.1347 45.2109C40.4328 45.2109 40.6965 45.25 40.9261 45.3281C41.159 45.4062 41.3543 45.5267 41.5118 45.6898C41.6728 45.8494 41.7945 46.0548 41.8767 46.3062C41.9589 46.5575 42 46.8563 42 47.2028V50.8248H41.0442V47.1926C41.0442 46.8835 40.9946 46.6441 40.8952 46.4743C40.7993 46.3011 40.6623 46.1805 40.4841 46.1126C40.3094 46.0413 40.1005 46.0056 39.8573 46.0056C39.6483 46.0056 39.4633 46.0413 39.3023 46.1126C39.1413 46.1839 39.006 46.2824 38.8964 46.408C38.7867 46.5303 38.7028 46.6713 38.6446 46.8309C38.5898 46.9905 38.5624 47.1603 38.5624 47.3403Z" fill="#383838"/>
<path d="M21 36C30.9411 36 39 27.9411 39 18C39 8.05887 30.9411 0 21 0C11.0589 0 3 8.05887 3 18C3 27.9411 11.0589 36 21 36Z" fill="url(#paint0_linear_2117_215)"/>
<path d="M17.7 26.25C17.1169 26.25 17.216 26.0298 17.0149 25.4746L15.3 19.8309L28.5 12" fill="#C8DAEA"/>
<path d="M17.7 26.2501C18.15 26.2501 18.3488 26.0443 18.6 25.8001L21 23.4664L18.0063 21.6611" fill="#A9C9DD"/>
<path d="M18.0061 21.6614L25.2601 27.0207C26.0879 27.4774 26.6853 27.241 26.8915 26.2522L29.8442 12.3377C30.1465 11.1257 29.3822 10.576 28.5903 10.9355L11.2518 17.6212C10.0683 18.0959 10.0752 18.7562 11.0361 19.0504L15.4855 20.4391L25.7865 13.9404C26.2728 13.6455 26.7191 13.804 26.3528 14.1291" fill="url(#paint1_linear_2117_215)"/>
<defs>
<linearGradient id="paint0_linear_2117_215" x1="16.5018" y1="1.5012" x2="7.5018" y2="22.5" gradientUnits="userSpaceOnUse">
<stop stop-color="#32C5FF"/>
<stop offset="1" stop-color="#1490C0"/>
</linearGradient>
<linearGradient id="paint1_linear_2117_215" x1="18.7468" y1="19.1055" x2="20.67" y2="25.3267" gradientUnits="userSpaceOnUse">
<stop stop-color="#EFF7FC"/>
<stop offset="1" stop-color="white"/>
</linearGradient>
</defs>
</svg>
