<svg width="346" height="332" viewBox="0 0 346 332" fill="none" xmlns="http://www.w3.org/2000/svg">
<path style="mix-blend-mode:multiply" d="M136.05 231.408L150.313 212.945L142.157 210.039L135.212 217.812L136.05 231.408Z" fill="url(#paint0_linear_1_938)"/>
<path style="mix-blend-mode:multiply" d="M136.084 230.96L150.313 212.945L141.721 212.117L135.385 217.991L136.084 230.96Z" fill="url(#paint1_linear_1_938)"/>
<path d="M83.7654 186.447L88.0168 230.512L137.827 263.383L135.385 217.991L83.7654 186.447Z" fill="url(#paint2_linear_1_938)"/>
<path style="mix-blend-mode:multiply" d="M83.7654 186.447L88.0168 230.512L137.827 263.383L135.385 217.991L83.7654 186.447Z" fill="url(#paint3_radial_1_938)"/>
<path d="M121.486 80.8338L90.7207 108.027L96.5084 130.577L132.318 122.827L153.52 89.5135L133.749 76.5947L121.486 80.8338Z" fill="url(#paint4_linear_1_938)"/>
<path style="mix-blend-mode:multiply" d="M121.486 80.8338L90.7207 108.027L96.5084 130.577L132.318 122.827L153.52 89.5135L133.749 76.5947L121.486 80.8338Z" fill="url(#paint5_radial_1_938)"/>
<path d="M125.246 99.0669L179.134 129.261L170.514 166.814L127.089 142.639L125.246 99.0669Z" fill="url(#paint6_linear_1_938)"/>
<path style="mix-blend-mode:multiply" d="M125.235 99.0613L179.123 129.25L170.503 166.808L127.078 142.628L125.235 99.0613Z" fill="url(#paint7_linear_1_938)"/>
<path d="M122.218 181.81L124.793 227.645L141.732 212.173L165.615 141.704L122.218 181.81Z" fill="url(#paint8_linear_1_938)"/>
<path style="mix-blend-mode:multiply" d="M122.218 181.81L124.793 227.645L141.732 212.173L165.224 142.925L122.218 181.81Z" fill="url(#paint9_linear_1_938)"/>
<path d="M92.0895 272.819L88.0168 230.512L137.827 263.383L140.525 305.203L92.0895 272.819Z" fill="url(#paint10_linear_1_938)"/>
<path style="mix-blend-mode:multiply" d="M92.1006 272.825L88.0168 230.512L137.827 263.383L140.525 305.203L92.1006 272.825Z" fill="url(#paint11_linear_1_938)"/>
<path d="M134.112 237.523L118.196 290.464L169.592 325.026L187.352 271.576L134.112 237.523Z" fill="url(#paint12_linear_1_938)"/>
<path d="M60.1062 175.706L80.2961 166.455L74.1453 186.296L60.1062 175.706Z" fill="#262626"/>
<path d="M35.4246 156.908L83.7654 186.447L88.0167 230.512L41.9218 199.999L35.4246 156.908Z" fill="url(#paint13_linear_1_938)"/>
<path style="mix-blend-mode:multiply" d="M35.4246 156.908L83.7654 186.447L88.0167 230.512L41.9218 199.999L35.4246 156.908Z" fill="url(#paint14_radial_1_938)"/>
<path d="M99.2626 100.478L102.006 146.94L57.7486 186.682L53.0447 141.329L99.2626 100.478Z" fill="url(#paint15_linear_1_938)"/>
<path style="mix-blend-mode:multiply" d="M99.2626 100.478L102.006 146.94L57.7486 186.682L53.0447 141.329L99.2626 100.478Z" fill="url(#paint16_linear_1_938)"/>
<path d="M122.218 181.81L124.793 227.645L72.1956 195.407L67.8213 149.975L122.218 181.81Z" fill="url(#paint17_linear_1_938)"/>
<path d="M122.218 181.81L168.883 139.559L114.173 108.855L67.8213 149.975L122.218 181.81Z" fill="url(#paint18_linear_1_938)"/>
<path d="M169.592 325.026L187.352 271.576L226.576 249.955L209.631 300.947L169.592 325.026Z" fill="url(#paint19_linear_1_938)"/>
<path style="mix-blend-mode:multiply" d="M169.592 325.026L187.352 271.576L226.576 249.955L209.631 300.947L169.592 325.026Z" fill="url(#paint20_linear_1_938)"/>
<path d="M245.564 279.276L263.346 229.543L226.575 249.955L209.631 300.947L245.564 279.276Z" fill="url(#paint21_linear_1_938)"/>
<path style="mix-blend-mode:multiply" d="M245.564 279.276L263.346 229.543L226.575 249.955L209.631 300.947L245.564 279.276Z" fill="url(#paint22_linear_1_938)"/>
<path d="M226.575 249.955L263.408 229.51L229.52 209.619L226.575 249.955Z" fill="url(#paint23_linear_1_938)"/>
<path style="mix-blend-mode:multiply" d="M226.575 249.955L263.408 229.51L229.52 209.619L226.575 249.955Z" fill="url(#paint24_linear_1_938)"/>
<path d="M274.782 261.653L292.442 213.651L263.347 229.543L245.564 279.276L274.782 261.653Z" fill="url(#paint25_linear_1_938)"/>
<path d="M274.782 261.653L292.442 213.651L263.347 229.543L245.564 279.276L274.782 261.653Z" fill="url(#paint26_linear_1_938)"/>
<path style="mix-blend-mode:multiply" d="M274.782 261.653L292.442 213.651L263.347 229.543L245.564 279.276L274.782 261.653Z" fill="url(#paint27_radial_1_938)"/>
<path d="M265.978 231.022L279.481 192.948L246.173 190.988L238.274 214.754L265.978 231.022Z" fill="url(#paint28_linear_1_938)"/>
<path style="mix-blend-mode:multiply" d="M265.978 231.022L279.481 192.948L246.173 190.988L238.274 214.754L265.978 231.022Z" fill="url(#paint29_linear_1_938)"/>
<path d="M244.045 218.181L253.944 188.396L246.173 190.988L235.587 222.846L244.045 218.181Z" fill="url(#paint30_linear_1_938)"/>
<path style="mix-blend-mode:multiply" d="M244.045 218.181L253.944 188.396L246.173 190.988L235.587 222.846L244.045 218.181Z" fill="url(#paint31_linear_1_938)"/>
<path d="M207.933 209.641L187.352 271.576L226.576 249.955L246.173 190.988L207.933 209.641Z" fill="url(#paint32_linear_1_938)"/>
<path style="mix-blend-mode:multiply" d="M207.933 209.641L187.352 271.576L226.576 249.955L246.173 190.988L207.933 209.641Z" fill="url(#paint33_linear_1_938)"/>
<path d="M229.084 146.061L207.933 209.641L246.173 190.988L266.391 130.275L229.084 146.061Z" fill="url(#paint34_linear_1_938)"/>
<path style="mix-blend-mode:multiply" d="M229.084 146.061L207.933 209.641L246.173 190.988L266.391 130.275L229.084 146.061Z" fill="url(#paint35_linear_1_938)"/>
<path d="M121.486 80.8338L118.777 34.5343L168.24 61.0607L154.514 99.4085L121.486 80.8338Z" fill="url(#paint36_linear_1_938)"/>
<path style="mix-blend-mode:multiply" d="M121.486 80.8338L118.777 34.5343L168.24 61.0607L154.514 99.4085L121.486 80.8338Z" fill="url(#paint37_radial_1_938)"/>
<path d="M246.279 91.5295L245 117.703L226.492 114.455L229.542 108.307L246.279 91.5295Z" fill="url(#paint38_linear_1_938)"/>
<path style="mix-blend-mode:multiply" d="M246.279 91.5295L245 117.703L226.492 114.455L229.542 108.307L246.279 91.5295Z" fill="url(#paint39_linear_1_938)"/>
<path d="M212.95 64.527L204.419 59.9184L206.581 70.1605L212.95 64.527Z" fill="url(#paint40_linear_1_938)"/>
<path d="M183.419 38.8069L208.637 25.3561L206.581 70.1605L204.469 73.806L166.453 106.123L168.24 61.0607L183.419 38.8069Z" fill="url(#paint41_linear_1_938)"/>
<path d="M205.955 74.5732L206.581 70.1605L212.95 64.527L211.766 89.8831L198.509 77.2947L205.955 74.5732Z" fill="url(#paint42_linear_1_938)"/>
<path style="mix-blend-mode:multiply" d="M205.955 74.5732L206.581 70.1605L212.95 64.527L211.766 89.8831L198.509 77.2947L205.955 74.5732Z" fill="url(#paint43_linear_1_938)"/>
<path d="M206.581 70.1605L246.28 91.5295L229.347 108.503L190.324 86.1536L198.509 77.2947L206.581 70.1605Z" fill="url(#paint44_linear_1_938)"/>
<path style="mix-blend-mode:multiply" d="M206.57 70.1605L246.28 91.5295L229.347 108.503L190.324 86.1536L198.509 77.2947L206.57 70.1605Z" fill="url(#paint45_linear_1_938)"/>
<path style="mix-blend-mode:multiply" d="M206.581 70.1605L246.28 91.5295L229.347 108.503L190.324 86.1536L198.509 77.2947L206.581 70.1605Z" fill="url(#paint46_linear_1_938)"/>
<path d="M222.453 90.1407L221.212 116.645L203.995 101.99L222.453 90.1407Z" fill="url(#paint47_linear_1_938)"/>
<path style="mix-blend-mode:multiply" d="M222.453 90.1407L221.212 116.645L203.995 101.99L222.453 90.1407Z" fill="url(#paint48_linear_1_938)"/>
<path style="mix-blend-mode:multiply" d="M183.419 38.8069L208.637 25.3561L206.581 70.1605L203.296 74.1532L166.453 106.123L168.24 61.0607L183.419 38.8069Z" fill="url(#paint49_linear_1_938)"/>
<path style="mix-blend-mode:multiply" d="M183.973 38.3689L209.191 24.918L207.135 69.7224L203.85 73.7151L167.007 105.685L168.795 60.6227L183.973 38.3689Z" fill="url(#paint50_linear_1_938)"/>
<path d="M125.246 99.0669L179.134 129.261L222.453 90.1407L168.24 61.0607L125.246 99.0669Z" fill="url(#paint51_linear_1_938)"/>
<path d="M171.369 113.582L229.084 146.061L266.391 130.275L212.888 98.8317L171.369 113.582Z" fill="url(#paint52_linear_1_938)"/>
<path d="M265.978 231.022L294.788 215.191L315.307 159.528L306.849 162.933L279.481 192.948L265.978 231.022Z" fill="url(#paint53_linear_1_938)"/>
<path style="mix-blend-mode:multiply" d="M265.978 231.022L294.788 215.191L315.307 159.528L306.849 162.933L279.481 192.948L265.978 231.022Z" fill="url(#paint54_linear_1_938)"/>
<path d="M255.899 108.055L309.922 135.343L317.022 113.699L264.201 85.1905L255.899 108.055Z" fill="url(#paint55_linear_1_938)"/>
<path style="mix-blend-mode:multiply" d="M255.899 108.055L309.922 135.343L317.022 113.699L264.201 85.1905L255.899 108.055Z" fill="url(#paint56_radial_1_938)"/>
<path d="M325.095 156.773L345.296 101.738L317.022 113.699L296.196 170.84L325.095 156.773Z" fill="url(#paint57_linear_1_938)"/>
<path style="mix-blend-mode:multiply" d="M325.095 156.773L345.296 101.738L317.022 113.699L296.196 170.84L325.095 156.773Z" fill="url(#paint58_linear_1_938)"/>
<path d="M271.654 96.211L325.045 125.022L286.106 141.861L232.604 110.418L271.654 96.211Z" fill="url(#paint59_linear_1_938)"/>
<path d="M293.955 74.6684L345.296 101.738L317.022 113.699L264.201 85.1905L293.955 74.6684Z" fill="url(#paint60_linear_1_938)"/>
<path d="M305.877 177.661L325.045 125.022L286.106 141.861L264.782 201.46L305.877 177.661Z" fill="url(#paint61_linear_1_938)"/>
<path style="mix-blend-mode:multiply" d="M305.877 177.661L325.045 125.022L286.106 141.861L264.782 201.46L305.877 177.661Z" fill="url(#paint62_linear_1_938)"/>
<path d="M246.173 190.988L266.391 130.275L286.106 141.861L264.782 201.46L246.173 190.988Z" fill="url(#paint63_linear_1_938)"/>
<path style="mix-blend-mode:multiply" d="M246.173 190.988L266.391 130.275L286.106 141.861L264.782 201.46L246.173 190.988Z" fill="url(#paint64_linear_1_938)"/>
<path d="M171.369 113.582L152.352 176.849L207.933 209.641L229.084 146.061L171.369 113.582Z" fill="url(#paint65_linear_1_938)"/>
<path d="M152.352 176.849L134.112 237.523L187.352 271.576L207.933 209.641L152.352 176.849Z" fill="url(#paint66_linear_1_938)"/>
<path d="M48.6649 243.711L92.1007 272.825L88.0169 230.512L41.9219 199.999L48.6649 243.711Z" fill="url(#paint67_linear_1_938)"/>
<path d="M1.01123 110.877L53.0448 141.329L99.2626 100.478L48.0503 71.7172L1.01123 110.877Z" fill="url(#paint68_linear_1_938)"/>
<path d="M1.01123 110.877L8.1062 156.348L57.7487 186.682L53.0447 141.329L1.01123 110.877Z" fill="url(#paint69_linear_1_938)"/>
<path d="M160.542 0L118.777 34.5343L168.24 61.0607L208.637 25.3561L160.542 0Z" fill="url(#paint70_linear_1_938)"/>
<g style="mix-blend-mode:screen" opacity="0.56">
<path d="M118.648 34.7806L118.911 34.2879L168.374 60.8199L168.112 61.3071L118.648 34.7806Z" fill="url(#paint71_radial_1_938)"/>
</g>
<path style="mix-blend-mode:screen" opacity="0.55" d="M160.548 0.0223999L160.251 0.268793L208.341 25.6193L208.598 25.3953L208.615 25.3785L160.548 0.0223999Z" fill="url(#paint72_radial_1_938)"/>
<g style="mix-blend-mode:screen" opacity="0.35">
<path d="M168.425 61.2735L168.056 60.8535L208.374 25.2217L208.637 25.3561L208.62 25.7481L168.425 61.2735Z" fill="url(#paint73_radial_1_938)"/>
</g>
<path opacity="0.34" d="M121.794 80.2829L121.179 81.3818L136.083 89.7623L136.698 88.6634L121.794 80.2829Z" fill="#1A1A1A"/>
<g opacity="0.67">
<path d="M207.905 209.725L152.352 176.849L152.514 176.294L208.117 209.115L246.391 190.322L246.173 190.988L207.905 209.725Z" fill="#1A1A1A"/>
</g>
<g opacity="0.67">
<path d="M207.698 210.336L152.151 177.504L152.352 176.849L207.905 209.725L246.173 190.988L245.922 191.733L207.698 210.336Z" fill="#E6E6E6"/>
</g>
<g opacity="0.67">
<path d="M187.352 271.576L134.112 237.523L134.291 236.924L187.553 270.993L226.81 249.255L226.548 250.033L187.352 271.576Z" fill="#1A1A1A"/>
</g>
<g style="mix-blend-mode:screen">
<path d="M187.168 272.136L133.944 238.083L134.112 237.523L187.352 271.576L226.609 249.848L226.352 250.627L187.168 272.136Z" fill="url(#paint74_radial_1_938)"/>
</g>
<g opacity="0.35">
<path d="M187.201 270.876L207.352 210.218L208.056 210.453L187.899 271.111L187.201 270.876Z" fill="#F2F2F2"/>
</g>
<g style="mix-blend-mode:color-dodge" opacity="0.4">
<path d="M171.263 113.94L171.374 113.576L171.833 113.414L229.263 145.736L228.9 146.386L171.263 113.94Z" fill="url(#paint75_radial_1_938)"/>
</g>
<g style="mix-blend-mode:color-dodge" opacity="0.62">
<path d="M152.514 176.294L171.263 113.94L171.592 114.13L152.883 176.518L152.514 176.294Z" fill="url(#paint76_radial_1_938)"/>
</g>
<g style="mix-blend-mode:color-dodge" opacity="0.29">
<path d="M207.855 209.025L229 145.652L229.525 145.826L208.38 209.205L207.855 209.025Z" fill="url(#paint77_radial_1_938)"/>
</g>
<g style="mix-blend-mode:color-dodge" opacity="0.33">
<path d="M228.888 146.57L228.67 146.061L266.089 130.096L266.391 130.275L266.274 130.628L228.888 146.57Z" fill="url(#paint78_radial_1_938)"/>
</g>
<g opacity="0.77">
<path d="M246.173 190.988L266.391 130.275L266.637 130.415L246.419 191.128L246.173 190.988Z" fill="black"/>
</g>
<g opacity="0.38">
<path d="M169.352 324.864L186.905 271.962L187.168 272.136L187.52 271.94L169.955 324.802L169.592 325.026L169.352 324.864Z" fill="url(#paint79_radial_1_938)"/>
</g>
<g style="mix-blend-mode:color-dodge" opacity="0.45">
<path d="M172.151 113.593L171.833 113.414L212.888 98.8317L213.196 99.0109L172.151 113.593Z" fill="url(#paint80_radial_1_938)"/>
</g>
<g style="mix-blend-mode:color-dodge" opacity="0.72">
<path opacity="0.47" d="M212.855 99.1341L213.196 99.0109L266.09 130.096L265.771 130.23L212.855 99.1341Z" fill="url(#paint81_radial_1_938)"/>
</g>
<g opacity="0.66">
<path opacity="0.92" d="M41.9218 199.999L41.8157 199.315L128.397 256.523L128.24 257.055L41.9218 199.999Z" fill="url(#paint82_radial_1_938)"/>
</g>
<path style="mix-blend-mode:screen" d="M41.9219 199.999L42.0448 200.799L88.0839 231.223L88.0113 230.462L41.9219 199.999Z" fill="url(#paint83_radial_1_938)"/>
<path style="mix-blend-mode:color-dodge" opacity="0.35" d="M128.24 257.055L88.0112 230.462L88.0839 231.223L128.062 257.649L128.24 257.055Z" fill="url(#paint84_radial_1_938)"/>
<g opacity="0.92">
<path d="M91.5029 272.427L84.8381 203.151L85.4136 203.515L92.1007 272.825L91.5029 272.427Z" fill="url(#paint85_radial_1_938)"/>
</g>
<path style="mix-blend-mode:screen" d="M85.3967 203.498L87.9945 230.45L88.5867 230.848L85.9889 203.857L85.3967 203.498Z" fill="url(#paint86_radial_1_938)"/>
<path style="mix-blend-mode:color-dodge" opacity="0.35" d="M92.0894 272.819L92.676 273.211L88.5866 230.848L87.9944 230.45L92.0894 272.819Z" fill="url(#paint87_radial_1_938)"/>
<g style="mix-blend-mode:color-dodge" opacity="0.35">
<path d="M48.6648 243.711L38.1006 174.67L38.514 174.922L49.0056 243.498L118.307 290.094L118.24 290.307L48.6537 243.705L48.6648 243.711Z" fill="url(#paint88_radial_1_938)"/>
</g>
<g style="mix-blend-mode:color-dodge" opacity="0.55">
<path d="M118.196 290.464L118.279 290.178L169.682 324.752L169.592 325.026L118.196 290.464Z" fill="url(#paint89_radial_1_938)"/>
</g>
<g style="mix-blend-mode:color-dodge" opacity="0.26">
<path d="M124.514 227.477L121.933 181.698L161.726 145.658L161.57 146.178L161.414 146.694L122.503 181.928L125.056 227.404L124.788 227.645L124.514 227.477Z" fill="url(#paint90_radial_1_938)"/>
</g>
<g style="mix-blend-mode:color-dodge" opacity="0.51">
<path d="M67.676 150.216L67.9609 149.734L122.151 181.497L121.955 181.659L121.95 182.029L67.676 150.216Z" fill="url(#paint91_radial_1_938)"/>
</g>
<g style="mix-blend-mode:color-dodge" opacity="0.3">
<path d="M57.4748 186.71L52.7542 141.217L99.0782 100.271L99.4469 100.685L53.3352 141.441L58.0279 186.648L57.4748 186.71Z" fill="url(#paint92_radial_1_938)"/>
</g>
<g style="mix-blend-mode:color-dodge" opacity="0.55">
<path d="M0.871582 111.118L1.15091 110.636L53.4749 141.2L53.1956 141.682L0.871582 111.118Z" fill="url(#paint93_radial_1_938)"/>
</g>
<g style="mix-blend-mode:color-dodge" opacity="0.33">
<path d="M264.43 201.337L285.816 141.581L324.899 124.686L325.196 125.364L286.402 142.135L265.128 201.589L264.43 201.337Z" fill="url(#paint94_radial_1_938)"/>
</g>
<g style="mix-blend-mode:color-dodge" opacity="0.48">
<path d="M266.447 130.734L266.821 130.096L286.307 141.536L285.933 142.174L266.447 130.734Z" fill="url(#paint95_radial_1_938)"/>
</g>
<g style="mix-blend-mode:multiply">
<path opacity="0.55" d="M271.654 96.211L271.788 95.9646L314.989 119.277L314.894 119.546L271.654 96.211Z" fill="url(#paint96_linear_1_938)"/>
</g>
<g style="mix-blend-mode:color-dodge" opacity="0.5">
<path d="M169.972 324.752L170.134 324.265L274.989 261.093L274.788 261.647L169.955 324.802L169.972 324.752Z" fill="url(#paint97_radial_1_938)"/>
</g>
<g opacity="0.69">
<path d="M208.916 301.333L225.637 251.019L226.609 249.848L209.631 300.947L208.916 301.333Z" fill="#1A1A1A"/>
</g>
<g opacity="0.38">
<path opacity="0.44" d="M209.631 300.947L226.609 249.848L227.285 249.563L210.564 299.905L209.631 300.947Z" fill="white"/>
</g>
<path d="M60.3966 268.849L22.7318 311.721L0.139648 269.761L38.0782 226.547L60.3966 268.849Z" fill="url(#paint98_linear_1_938)"/>
<path d="M106.81 280.608L65.2738 322.187L22.7319 311.721L60.3967 268.849L106.81 280.608Z" fill="url(#paint99_linear_1_938)"/>
<path style="mix-blend-mode:multiply" d="M106.81 280.608L65.2738 322.187L22.7319 311.721L60.3967 268.849L106.81 280.608Z" fill="url(#paint100_linear_1_938)"/>
<path d="M87.3742 239.147L106.81 280.608L60.3966 268.849L38.0781 226.547L87.3742 239.147Z" fill="url(#paint101_linear_1_938)"/>
<path d="M245.469 278.15L207.805 321.017L185.207 279.057L223.145 235.843L245.469 278.15Z" fill="url(#paint102_linear_1_938)"/>
<path d="M291.877 289.91L250.341 331.489L207.805 321.017L245.47 278.15L291.877 289.91Z" fill="url(#paint103_linear_1_938)"/>
<path style="mix-blend-mode:multiply" d="M291.877 289.91L250.341 331.489L207.805 321.017L245.47 278.15L291.877 289.91Z" fill="url(#paint104_linear_1_938)"/>
<path d="M272.441 248.448L291.877 289.91L245.469 278.15L223.145 235.843L272.441 248.448Z" fill="url(#paint105_linear_1_938)"/>
<path d="M160.296 290.072L158.458 288.745L159.123 286.763L143.508 275.496L142.844 277.478L141.006 276.151L141.67 274.168L137.078 270.853L134 280.037C133.201 282.423 134.196 285.547 136.224 287.009L157.654 302.47C159.682 303.937 161.978 303.187 162.777 300.796L165.855 291.606L160.955 288.073L160.291 290.055L160.296 290.072Z" fill="#666666"/>
<path d="M165.386 279.427L160.391 275.826C160.391 275.826 160.363 275.876 160.346 275.899L159.441 275.244C159.453 275.216 159.458 275.182 159.464 275.154L149.866 268.227C149.855 268.255 149.844 268.283 149.833 268.311L148.927 267.656C148.927 267.622 148.939 267.594 148.944 267.561L143.95 263.954C141.922 262.493 139.626 263.238 138.827 265.629L137.738 268.871L142.33 272.186L144.168 273.513L159.782 284.78L161.62 286.107L166.52 289.641L167.603 286.399C168.402 284.007 167.408 280.888 165.38 279.427H165.386Z" fill="#666666"/>
<path d="M156.212 267.096C158.838 268.989 160.28 272.578 159.469 275.16L160.391 275.826C160.559 275.546 160.704 275.238 160.821 274.896C161.872 271.761 160.118 267.342 156.905 265.024C153.693 262.706 150.235 263.366 149.185 266.502C149.067 266.844 148.995 267.202 148.944 267.566L149.866 268.233C150.766 265.718 153.581 265.203 156.207 267.096H156.212Z" fill="#666666"/>
<path d="M159.447 275.244L160.352 275.899C160.352 275.899 160.38 275.848 160.397 275.826L159.475 275.16C159.464 275.188 159.458 275.221 159.453 275.249L159.447 275.244Z" fill="#666666"/>
<path d="M149.838 268.317C149.849 268.289 149.86 268.261 149.872 268.233L148.95 267.566C148.95 267.594 148.939 267.628 148.933 267.661L149.838 268.317Z" fill="#666666"/>
<path fill-rule="evenodd" clip-rule="evenodd" d="M13.7375 267.913L23.7431 251.467C25.2962 248.919 27.3297 248.079 28.257 249.596L39.4079 267.863C40.3353 269.381 39.8213 272.707 38.2626 275.255L36.0839 278.828C35.123 278.581 34.028 279.068 32.4973 280.228L23.1509 263.159L23.095 263.058L22.9833 263.114L13.7263 267.908L13.7375 267.913Z" fill="white"/>
<path fill-rule="evenodd" clip-rule="evenodd" d="M22.5308 264.156L31.9442 281.347C35.8548 278.324 36.8716 279.684 39.9665 286.522L27.5364 292.883L13.0112 269.095L22.5308 264.162V264.156Z" fill="white"/>
<path fill-rule="evenodd" clip-rule="evenodd" d="M264.67 110.95L250.425 114.522L268.089 123.505L282.335 119.932L296.575 116.359L278.916 107.377L264.676 110.95H264.67ZM293.81 116.191L281.19 119.355L268.57 122.519L253.196 114.696L265.816 111.532L278.436 108.368L293.81 116.191Z" fill="#666666"/>
<path fill-rule="evenodd" clip-rule="evenodd" d="M292.514 122.732L286.235 124.305L279.196 120.721L285.469 119.148L292.514 122.732Z" fill="#666666"/>
<path fill-rule="evenodd" clip-rule="evenodd" d="M297.614 122.418L283.693 125.913L282.413 125.263L296.335 121.769L297.614 122.418Z" fill="#666666"/>
<path fill-rule="evenodd" clip-rule="evenodd" d="M292.682 116.018L268.425 122.105L254.235 114.886L278.492 108.799L292.682 116.018Z" fill="#666666"/>
<path d="M180.011 225.646L178.821 229.879L175.43 227.723L176.659 223.361L165.073 215.992L166.888 209.541C167.536 207.239 170.022 206.623 172.441 208.163L175.274 209.966C177.693 211.506 179.134 214.62 178.486 216.921L177.665 219.839L180.771 221.815L181.838 218.013C182.726 214.866 180.76 210.605 177.441 208.493L171.62 204.792C168.307 202.686 164.905 203.526 164.017 206.679L161.939 214.06C160.603 213.483 159.363 213.881 159.022 215.09L155.793 226.575C155.408 227.953 156.335 229.868 157.877 230.842L174.587 241.471C176.123 242.451 177.687 242.126 178.073 240.749L178.296 239.965L178.687 238.581L179.223 236.683L179.609 235.3L180.19 233.228L180.581 231.845L180.676 231.514L181.307 229.263C181.626 228.143 181.056 226.676 180.011 225.64V225.646ZM169.151 229.879L168.665 231.61C168.553 232.013 168.022 232.063 167.486 231.722C166.95 231.38 166.603 230.775 166.715 230.372L167.201 228.642C166.547 227.819 166.229 226.755 166.469 225.909C166.799 224.727 168.078 224.414 169.318 225.203C170.564 225.993 171.302 227.595 170.966 228.776C170.726 229.627 170 230.025 169.151 229.89V229.879Z" fill="#666666"/>
<path d="M30.6032 113.671L26.3574 110.759L49.6647 88.3768L53.9105 91.2887L30.6032 113.671Z" fill="white"/>
<path d="M36.9775 118.039L32.7317 115.127L45.3071 103.048L49.5585 105.955L36.9775 118.039Z" fill="white"/>
<path d="M43.3462 122.401L39.1003 119.495L54.4691 104.734L58.7205 107.646L43.3462 122.401Z" fill="white"/>
<path d="M49.7207 126.769L45.4749 123.857L63.743 106.319L67.9888 109.231L49.7207 126.769Z" fill="white"/>
<path d="M46.9888 101.245C46.9888 101.245 54.1508 103.564 59.1731 99.6661L58.6256 96.6477L65.391 99.1621L61.0111 105.126L59.9385 102.264C59.9385 102.264 53.6256 105.798 46.9888 101.251V101.245Z" fill="white"/>
<path d="M73.5978 252.049L71.9106 245.744C71.8268 245.441 72.028 245.245 72.352 245.312C72.676 245.38 73.0056 245.682 73.0894 245.99L74.7766 252.295C75.2738 252.592 75.6928 253.079 75.8268 253.578C75.8715 253.74 75.8771 253.891 75.8548 254.02L79.6872 257.75C79.9665 258.024 80.0447 258.366 79.8548 258.523C79.771 258.595 79.6425 258.612 79.4972 258.584C79.3408 258.551 79.162 258.461 79.0168 258.315L75.1788 254.58C75.0726 254.586 74.9553 254.58 74.8268 254.558C74.0894 254.407 73.3408 253.718 73.1564 253.023C73.0224 252.525 73.2179 252.167 73.6034 252.055L73.5978 252.049Z" fill="white"/>
<path d="M85.028 255.493C83.9889 251.612 80.7207 247.76 76.8325 245.408L76.9665 244.775L79.5084 246.18C79.7263 245.128 78.8157 243.649 77.419 242.681L77.5028 242.283C77.5364 242.121 77.3352 241.852 77.0447 241.695C76.7598 241.533 76.4973 241.538 76.4582 241.706L76.3743 242.104C74.8827 241.465 73.5866 241.729 73.3688 242.793L75.9218 244.204L75.7878 244.825C74.4973 244.153 73.1621 243.655 71.8269 243.375C70.4749 243.095 69.2514 243.067 68.1788 243.257L67.7375 242.602L69.7542 242.143C68.9051 240.872 67.3352 240.021 66.0447 240.06L65.6425 239.455C65.5084 239.253 65.2123 239.136 64.9833 239.186C64.7542 239.237 64.6704 239.444 64.8045 239.645L65.2012 240.245C64.1621 240.709 63.9777 241.981 64.8325 243.263L66.8995 242.793L67.3408 243.459C64.3576 244.383 62.8995 247.239 63.933 251.108C65.0056 255.112 68.447 259.083 72.4973 261.406L71.7375 264.923C71.6984 265.091 71.9051 265.354 72.1956 265.511C72.4805 265.674 72.7431 265.668 72.7822 265.5L73.5475 261.961C74.7207 262.538 75.9274 262.969 77.1341 263.221C78.3688 263.478 79.5028 263.523 80.5028 263.383L83.3855 267.706C83.5196 267.908 83.8157 268.025 84.0447 267.975C84.2738 267.925 84.352 267.717 84.2179 267.516L81.352 263.215C84.514 262.381 86.0783 259.469 85.0168 255.493H85.028ZM76.8492 262.118C71.676 261.031 66.4414 256.221 65.1285 251.355C63.8325 246.488 66.9609 243.42 72.1285 244.484C77.3017 245.57 82.5364 250.38 83.8548 255.252C85.1453 260.118 82.0224 263.187 76.8492 262.118Z" fill="white"/>
<path d="M230.201 130.885L218.866 123.583L218.229 123.174L216.972 123.275L203.246 124.361C205.447 126.747 208.983 128.768 212.972 130.112C213.553 130.308 214.134 130.488 214.737 130.656C218.279 131.641 222.073 132.1 225.553 131.82C227.341 131.68 228.894 131.356 230.201 130.885Z" fill="white"/>
<path d="M210.43 113.072C208.911 113.195 207.559 113.447 206.38 113.806C205.938 113.94 205.514 114.091 205.128 114.259C202.687 115.295 201.285 116.897 201.089 118.773C201.089 118.773 201.028 119.12 201.089 119.686C201.089 119.686 201.095 119.719 201.1 119.736C201.128 119.96 201.173 120.212 201.251 120.492C201.251 120.492 201.251 120.492 201.251 120.497C201.324 120.772 201.425 121.069 201.57 121.388C201.793 121.892 202.089 122.407 202.469 122.928L216.821 121.791L217.642 121.724L217.927 121.242L221.905 114.427C218.173 113.307 214.123 112.775 210.43 113.072Z" fill="white"/>
<path d="M220.592 122.883L232.005 130.236C235.676 128.438 236.665 125.252 234.134 121.808C234.039 121.679 233.933 121.55 233.832 121.421L220.028 122.513L220.592 122.877V122.883Z" fill="white"/>
<path d="M226.335 113.733L222.073 120.139L221.654 120.772L234.816 118.969C232.832 116.863 229.816 115.043 226.341 113.727L226.335 113.733Z" fill="white"/>
<path d="M247.916 307.073C247.564 307.409 247.536 307.947 247.944 308.658L250.084 306.541C249.693 306.485 249.302 306.508 248.911 306.592C248.453 306.692 248.145 306.849 247.911 307.073H247.916Z" fill="white"/>
<path d="M246.05 311.564L243.631 313.961C244.112 314.051 244.57 314.045 245.028 313.95C245.542 313.838 245.916 313.653 246.212 313.362C246.43 313.143 246.536 312.891 246.508 312.595C246.486 312.337 246.335 311.99 246.045 311.564H246.05Z" fill="white"/>
<path d="M255.704 312.723C256.581 311.57 257.14 310.735 257.14 310.735L257.162 310.707L257.19 310.679C259.922 307.986 259.224 304.928 256.698 302.677L251.978 301.406C246.961 301.625 241.71 303.075 238.994 305.774L238.967 305.802L238.933 305.824C238.933 305.824 234.883 308.703 232.363 311.2C231.089 312.443 230.268 313.603 230.43 314.123C230.793 315.675 233.989 317.354 237.838 318.379C241.665 319.421 246.173 319.813 248.838 319.079C249.76 318.85 251.129 317.836 252.38 316.587C253.637 315.344 254.832 313.871 255.715 312.718L255.704 312.723ZM245.989 314.672C244.955 314.891 243.939 314.874 242.95 314.633L242.073 315.501L241.257 315.283L242.14 314.409C240.916 314.017 240.19 313.423 240.017 312.628L240 312.567L242.246 310.898L242.849 311.06L242.76 311.172C241.704 312.471 241.743 313.278 242.827 313.731L245.654 310.931C245.106 310.002 244.816 309.291 244.782 308.781C244.749 308.26 244.978 307.745 245.469 307.264C246.067 306.664 246.916 306.228 247.961 305.976C248.944 305.729 249.888 305.701 250.76 305.875L251.251 305.388L251.369 305.27L252.184 305.488L251.575 306.093C252.609 306.429 253.257 306.95 253.492 307.644L253.508 307.7L251.441 309.408L250.821 309.24L250.927 309.123C251.497 308.49 251.749 307.969 251.715 307.566C251.682 307.196 251.425 306.928 250.911 306.748L248.335 309.296C249.022 310.332 249.374 311.116 249.402 311.682C249.425 312.253 249.162 312.813 248.626 313.345C247.978 313.989 247.078 314.443 245.994 314.667L245.989 314.672Z" fill="white"/>
<path d="M253.307 300.107C253.123 300.057 252.782 300.202 252.548 300.437C252.313 300.667 252.274 300.897 252.458 300.947L257.307 302.252C257.492 302.302 257.832 302.157 258.067 301.921C258.302 301.692 258.341 301.462 258.151 301.412L253.302 300.107H253.307Z" fill="white"/>
<path d="M254.682 299.844C256.939 300.639 258.447 301.048 261.229 299.81C264.011 298.573 266.531 297.408 265.274 297.257C264.017 297.111 261.771 296.932 260.402 296.137C259.034 295.342 256.944 293.55 256.358 294.199C255.771 294.843 255.246 295.745 255.246 295.745C255.246 295.745 252.419 299.049 254.682 299.849V299.844Z" fill="white"/>
<path d="M117.989 144.588C117.603 144.935 117.531 145.579 117.888 146.509L120.235 144.314C119.838 144.179 119.447 144.135 119.039 144.174C118.564 144.219 118.24 144.353 117.983 144.588H117.989Z" fill="#666666"/>
<path d="M115.726 149.689L113.073 152.17C113.553 152.361 114.022 152.433 114.492 152.394C115.028 152.349 115.419 152.187 115.743 151.89C115.983 151.661 116.112 151.375 116.112 151.017C116.112 150.703 115.983 150.255 115.726 149.695V149.689Z" fill="#666666"/>
<path d="M125.447 152.753C126.43 151.509 127.067 150.597 127.067 150.591L127.089 150.557L127.123 150.529C130.123 147.741 129.659 143.927 127.279 140.775L122.581 138.428C117.464 137.829 112.011 138.686 109.028 141.486L108.994 141.514L108.955 141.536C108.955 141.536 104.603 144.319 101.838 146.906C100.441 148.189 99.514 149.449 99.6313 150.109C99.8715 152.047 102.983 154.629 106.81 156.527C110.615 158.442 115.168 159.691 117.933 159.26C118.888 159.136 120.363 158.151 121.737 156.857C123.117 155.569 124.453 153.996 125.441 152.753H125.447ZM115.413 153.441C114.346 153.531 113.313 153.335 112.33 152.87L111.363 153.772L110.553 153.369L111.52 152.467C110.307 151.784 109.62 150.938 109.503 149.947L109.492 149.874L111.911 148.245L112.508 148.547L112.408 148.665C111.229 150.053 111.201 151.033 112.268 151.767L115.369 148.866C114.888 147.651 114.648 146.744 114.659 146.117C114.67 145.478 114.944 144.902 115.48 144.403C116.14 143.782 117.039 143.401 118.123 143.272C119.14 143.143 120.101 143.272 120.978 143.63L121.52 143.126L121.654 143.003L122.464 143.406L121.793 144.034C122.821 144.622 123.43 145.361 123.615 146.234L123.626 146.307L121.386 148.021L120.765 147.713L120.883 147.59C121.514 146.923 121.81 146.341 121.81 145.842C121.81 145.389 121.564 145.025 121.056 144.717L118.229 147.36C118.838 148.726 119.134 149.74 119.117 150.423C119.095 151.117 118.782 151.75 118.196 152.299C117.486 152.965 116.536 153.357 115.413 153.447V153.441Z" fill="#666666"/>
<path d="M124.045 137.09C123.86 136.995 123.503 137.118 123.246 137.359C122.989 137.599 122.927 137.868 123.117 137.963L127.939 140.371C128.123 140.467 128.481 140.343 128.738 140.103C128.995 139.862 129.05 139.593 128.866 139.503L124.05 137.095L124.045 137.09Z" fill="#666666"/>
<path d="M125.458 137.006C127.687 138.355 129.19 139.106 132.117 138.087C135.045 137.067 137.698 136.093 136.436 135.695C135.173 135.298 132.905 134.699 131.581 133.506C130.257 132.313 128.279 129.788 127.631 130.465C126.983 131.143 126.374 132.14 126.374 132.14C126.374 132.14 123.229 135.651 125.464 137L125.458 137.006Z" fill="#666666"/>
<path d="M173.983 26.1289L154.346 18.5243L151.48 28.7776L163.76 35.4862L173.983 26.1289Z" fill="white"/>
<path d="M184.38 27.2601L179.385 24.5273C179.385 24.5273 179.374 24.5273 179.369 24.5273C179.307 24.4993 179.24 24.4825 179.173 24.4657C179.128 24.4545 179.089 24.4321 179.039 24.4321C178.983 24.4209 178.922 24.4321 178.866 24.4377C178.815 24.4433 178.765 24.4377 178.715 24.4545C178.67 24.4657 178.637 24.4937 178.592 24.5161C178.542 24.5385 178.48 24.5665 178.436 24.6057C178.43 24.6057 178.424 24.6113 178.413 24.6169L164.134 37.1774L151.944 30.5192C151.514 30.284 151.005 30.4184 150.799 30.8272C150.598 31.2303 150.776 31.7455 151.207 31.9807L163.927 38.9301C164.022 38.9805 164.123 39.0141 164.223 39.0253C164.257 39.0309 164.29 39.0253 164.318 39.0253C164.391 39.0253 164.458 39.0253 164.525 39.0085C164.558 39.0085 164.586 39.0029 164.62 38.9917C164.687 38.9693 164.748 38.9357 164.81 38.8965C164.832 38.8853 164.86 38.8741 164.877 38.8573C164.877 38.8517 164.894 38.8573 164.894 38.8461L179.173 26.2857L183.631 28.7216C184.056 28.9512 184.564 28.8168 184.771 28.4136C184.972 28.0104 184.793 27.4952 184.369 27.2601H184.38Z" fill="white"/>
<path d="M152.631 33.9295C151.665 33.4031 150.514 33.7111 150.05 34.6238C149.592 35.531 150 36.7014 150.966 37.2278C151.933 37.7542 153.084 37.4406 153.542 36.5334C154 35.6206 153.592 34.4559 152.626 33.9295H152.631Z" fill="white"/>
<path d="M161.871 38.9805C160.911 38.4542 159.754 38.7621 159.29 39.6749C158.832 40.5821 159.246 41.7525 160.207 42.2788C161.173 42.8052 162.324 42.4916 162.788 41.5845C163.246 40.6717 162.838 39.5069 161.871 38.9805Z" fill="white"/>
<path d="M264.961 275.507L262.469 274.896L261.553 272.063C259.81 271.475 258.212 270.601 256.777 269.459C255.335 268.311 254.162 266.9 253.246 265.226L257.134 265.332C258.179 267.197 259.788 268.389 261.961 268.921C262.732 269.112 263.386 269.129 263.916 268.966C264.419 268.787 264.553 268.345 264.324 267.65C264.101 266.967 263.67 266.435 263.022 266.06C262.374 265.685 261.469 265.242 260.33 264.744C258.832 264.117 257.559 263.501 256.492 262.89C255.425 262.28 254.453 261.507 253.575 260.561C252.693 259.62 252.05 258.511 251.637 257.235C251.129 255.655 251.224 254.457 251.922 253.628C252.62 252.799 253.749 252.469 255.302 252.648L254.531 250.252L257.022 250.862L257.793 253.259C258.503 253.432 259.201 253.701 259.888 254.071C260.575 254.44 261.279 254.894 262 255.443C263.279 256.4 264.38 257.632 265.291 259.133L261.894 259.452C260.916 257.839 259.581 256.826 257.894 256.411C256.095 255.969 255.391 256.344 255.771 257.52C255.961 258.114 256.346 258.601 256.905 258.97C257.391 259.267 258.145 259.648 259.173 260.118C261.654 261.138 263.436 262.028 264.514 262.784C266.67 264.346 268.067 266.105 268.698 268.07C269.073 269.235 269.106 270.198 268.793 270.965C268.492 271.738 267.899 272.265 267.034 272.545C266.626 272.69 266.162 272.78 265.654 272.813C265.145 272.847 264.609 272.796 264.05 272.657L264.967 275.496L264.961 275.507Z" fill="white"/>
<path d="M206.48 291.612C206.218 291.909 205.844 291.931 205.642 291.657L203.816 289.126C203.614 288.851 203.67 288.387 203.933 288.09C204.195 287.793 204.57 287.771 204.771 288.045L206.598 290.576C206.793 290.85 206.743 291.315 206.48 291.618V291.612Z" fill="white"/>
<path d="M203.872 287.888L206.62 291.696C206.715 291.69 206.877 291.674 207.162 291.646C207.536 291.612 207.777 291.562 207.922 291.5L204.151 286.275C204.134 286.309 204.123 286.348 204.112 286.382C204.078 286.522 203.911 287.614 203.872 287.888Z" fill="white"/>
<path d="M210.436 289.025C210.285 289.198 210.084 289.232 209.989 289.098L206.285 283.968C206.19 283.839 206.235 283.593 206.386 283.419C206.536 283.251 206.737 283.218 206.832 283.347L210.536 288.476C210.631 288.605 210.581 288.851 210.436 289.025Z" fill="white"/>
<path d="M209.631 289.943C209.481 290.117 209.279 290.15 209.184 290.016L205.481 284.887C205.386 284.758 205.43 284.506 205.581 284.338C205.732 284.164 205.933 284.131 206.028 284.265L209.732 289.394C209.827 289.523 209.782 289.77 209.631 289.943Z" fill="white"/>
<path d="M208.827 290.862C208.676 291.035 208.475 291.069 208.38 290.934L204.676 285.805C204.581 285.676 204.626 285.424 204.777 285.251C204.927 285.077 205.129 285.049 205.224 285.178L208.927 290.307C209.022 290.436 208.978 290.682 208.827 290.856V290.862Z" fill="white"/>
<path d="M208.173 291.522C208.078 291.634 207.922 291.612 207.827 291.483L204.151 286.393C204.056 286.264 204.056 286.068 204.151 285.962C204.246 285.85 204.402 285.872 204.497 286.001L208.173 291.091C208.268 291.22 208.268 291.416 208.173 291.528V291.522Z" fill="white"/>
<path d="M211.279 288.146C211.128 288.319 210.927 288.353 210.832 288.218L207.067 283.011C206.972 282.876 207.017 282.63 207.167 282.456C207.318 282.288 207.519 282.255 207.614 282.389L211.38 287.597C211.475 287.731 211.43 287.978 211.279 288.146Z" fill="white"/>
<path d="M208.223 281.935L208.045 281.683L208.078 281.342C208.156 280.552 208.313 279.634 208.883 278.8C209.039 278.57 209.207 278.34 209.374 278.111C209.654 277.73 209.916 277.366 210.117 277.024C210.598 276.201 210.916 275.283 211.223 274.387C211.307 274.135 211.391 273.888 211.48 273.648L211.626 273.239C212 272.186 212.391 271.1 212.855 269.991C213.391 268.72 214.184 267.454 215.352 266.01L215.799 265.5C216.777 264.436 217.788 263.646 218.894 263.07C219.95 262.515 220.883 262.37 221.732 262.286C223.883 262.078 225.564 262.773 226.866 264.402L227.207 264.873C228.486 266.905 228.972 269.291 228.62 271.789C228.24 274.521 227.156 276.924 225.313 279.136L225.123 279.354C223.073 281.504 221.212 282.322 219.408 283.117C219.156 283.229 218.905 283.341 218.654 283.453C218.458 283.543 218.263 283.627 218.056 283.716C217.29 284.058 216.497 284.405 215.76 284.887C215.492 285.06 215.179 285.34 214.844 285.637C214.039 286.354 213.123 287.171 212.184 287.071L211.961 287.048L211.676 286.656C211.33 286.18 211 285.71 210.67 285.239C210.346 284.786 210.033 284.332 209.709 283.884C209.151 283.111 208.682 282.501 208.235 281.941L208.223 281.93V281.935ZM225.983 266.217L225.682 265.797C224.637 264.481 223.251 263.91 221.48 264.083C220.771 264.15 219.994 264.274 219.162 264.705C218.251 265.181 217.419 265.83 216.626 266.693L216.229 267.141C215.24 268.361 214.564 269.431 214.128 270.473C213.693 271.514 213.313 272.567 212.95 273.592L212.804 274.006C212.721 274.236 212.642 274.471 212.559 274.706C212.229 275.669 211.855 276.767 211.24 277.82C210.978 278.268 210.665 278.699 210.363 279.113C210.207 279.326 210.056 279.533 209.911 279.746C209.726 280.015 209.637 280.379 209.581 280.76C209.994 281.275 210.419 281.846 210.916 282.529C211.24 282.983 211.564 283.436 211.888 283.895C212.207 284.349 212.531 284.803 212.866 285.262C213.223 285.155 213.721 284.713 214.201 284.282C214.575 283.946 214.961 283.604 215.352 283.347C216.207 282.792 217.101 282.395 217.894 282.047C218.089 281.963 218.285 281.874 218.469 281.79C218.726 281.672 218.983 281.56 219.24 281.443C220.955 280.687 222.57 279.976 224.307 278.156L224.447 277.993C225.961 276.184 226.86 274.196 227.173 271.94C227.464 269.857 227.067 267.936 225.989 266.222L225.983 266.217Z" fill="white"/>
<path d="M175.631 97.9189V95.371L173.676 94.9566C173.564 94.4358 173.402 93.9318 173.19 93.4558L174.52 91.9663L173.022 89.9111L171.196 90.7231C170.804 90.3759 170.38 90.0623 169.922 89.7935L170.129 87.8056L167.715 87.0216L166.715 88.752C166.458 88.724 166.196 88.7128 165.927 88.7128C165.659 88.7128 165.397 88.724 165.14 88.752L164.14 87.0216L161.726 87.8112L161.933 89.7991C161.48 90.0623 161.05 90.3759 160.659 90.7287L158.838 89.9167L157.346 91.9775L158.682 93.467C158.469 93.943 158.307 94.447 158.196 94.9678L156.246 95.3878V97.9301L158.201 98.3501C158.313 98.8709 158.48 99.3749 158.687 99.8509L157.358 101.34L158.855 103.401L160.682 102.589C161.073 102.942 161.497 103.25 161.955 103.519L161.749 105.512L164.168 106.296L165.168 104.566C165.425 104.594 165.693 104.605 165.955 104.605C166.218 104.605 166.486 104.594 166.743 104.566L167.743 106.296L170.156 105.507L169.95 103.519C170.408 103.25 170.832 102.942 171.224 102.589L173.05 103.401L174.542 101.34L173.207 99.8509C173.413 99.3749 173.581 98.8709 173.693 98.3501L175.642 97.9301L175.631 97.9189ZM165.933 102.343C162.799 102.343 160.257 99.7949 160.257 96.6533C160.257 93.5118 162.793 90.9639 165.933 90.9639C169.073 90.9639 171.603 93.5118 171.603 96.6533C171.603 99.7949 169.061 102.343 165.933 102.343Z" fill="#666666"/>
<path d="M185.536 90.5103V88.9984L184.374 88.752C184.307 88.444 184.212 88.1416 184.084 87.856L184.871 86.9712L183.983 85.7504L182.899 86.232C182.665 86.0248 182.413 85.84 182.14 85.6832L182.263 84.5017L180.827 84.0369L180.229 85.0673C180.078 85.0505 179.922 85.0449 179.76 85.0449C179.598 85.0449 179.447 85.0505 179.29 85.0673L178.693 84.0425L177.257 84.5129L177.38 85.6944C177.112 85.8512 176.855 86.036 176.626 86.2488L175.542 85.7672L174.654 86.9936L175.447 87.8784C175.324 88.164 175.223 88.4608 175.156 88.7688L173.994 89.0208V90.5327L175.156 90.7791C175.223 91.0871 175.324 91.3839 175.447 91.6695L174.654 92.5543L175.542 93.7806L176.626 93.299C176.86 93.5062 177.112 93.691 177.385 93.8478L177.263 95.0294L178.698 95.4942L179.29 94.4638C179.447 94.4806 179.603 94.4862 179.76 94.4862C179.916 94.4862 180.078 94.4806 180.229 94.4638L180.821 95.4942L182.257 95.0238L182.134 93.8422C182.408 93.6854 182.659 93.5006 182.888 93.2878L183.978 93.7694L184.866 92.5487L184.073 91.6639C184.196 91.3783 184.296 91.0815 184.363 90.7679L185.525 90.5159L185.536 90.5103ZM179.771 93.1366C177.911 93.1366 176.397 91.6247 176.397 89.7543C176.397 87.884 177.905 86.372 179.771 86.372C181.637 86.372 183.145 87.884 183.145 89.7543C183.145 91.6247 181.637 93.1366 179.771 93.1366Z" fill="#666666"/>
<path fill-rule="evenodd" clip-rule="evenodd" d="M169.927 171.378C169.927 171.378 171.045 164.383 172.95 161.169C174.849 157.949 175.698 157.507 178.788 158.767C181.877 160.027 183.933 159.299 184.491 158.98C185.05 158.66 185.866 158.464 186.329 158.448C186.329 158.448 187.346 153.811 186.559 150.205C186.559 150.205 186.089 149.533 186.14 148.861C186.195 148.194 186.575 145.338 187.262 144.487C187.262 144.487 187.659 144.134 187.726 143.737C187.793 143.339 188.307 139.772 190.933 138.316C190.933 138.316 191.86 137.263 190.525 136.121C190.525 136.121 191.302 136.02 192.078 137.403C192.078 137.403 191.91 136.244 192.648 136.16C192.648 136.16 192.028 137.443 193.167 137.627C194.313 137.807 195.871 138.327 196.704 139.509C197.536 140.691 197.575 141.609 198.788 142.522C199.994 143.429 199.838 146.145 199.642 147.086C199.447 148.021 198.464 151.7 198.57 152.349C198.676 152.993 198.659 153.408 198.363 154.253C198.067 155.099 197.028 157.109 196.76 156.98C196.491 156.852 196.19 157.048 196.134 157.182C196.084 157.316 194.553 160.032 194.285 161.175C194.017 162.317 193.715 163.616 194.218 164.255C194.726 164.893 195.078 166.971 195.357 167.973C195.642 168.981 198.106 171.691 199.112 173.366C200.117 175.04 200.648 175.23 200.452 179.38C200.257 183.529 199.883 187.679 199.223 190.384L169.927 171.389V171.378Z" fill="white"/>
<defs>
<linearGradient id="paint0_linear_1_938" x1="69.5022" y1="206.01" x2="155.715" y2="224.134" gradientUnits="userSpaceOnUse">
<stop offset="0.794968" stop-color="white"/>
<stop offset="1" stop-color="#7A7A7A"/>
</linearGradient>
<linearGradient id="paint1_linear_1_938" x1="134.592" y1="219.279" x2="145.812" y2="223.019" gradientUnits="userSpaceOnUse">
<stop offset="0.287919" stop-color="white"/>
<stop offset="1" stop-color="#6D6D6D"/>
</linearGradient>
<linearGradient id="paint2_linear_1_938" x1="-211.354" y1="256.65" x2="288.835" y2="207.583" gradientUnits="userSpaceOnUse">
<stop stop-color="white"/>
<stop offset="0.45" stop-color="#E9F5F8"/>
<stop offset="1" stop-color="#828282"/>
</linearGradient>
<radialGradient id="paint3_radial_1_938" cx="0" cy="0" r="1" gradientUnits="userSpaceOnUse" gradientTransform="translate(81.0212 249.939) rotate(-45.0679) scale(78.445 78.4447)">
<stop stop-color="white"/>
<stop offset="0.33" stop-color="#FDFDFD"/>
<stop offset="0.45" stop-color="#F6F6F6"/>
<stop offset="0.53" stop-color="#EAEAEA"/>
<stop offset="0.6" stop-color="#D9D9D9"/>
<stop offset="0.66" stop-color="#C3C3C3"/>
<stop offset="0.71" stop-color="#A8A8A8"/>
<stop offset="0.76" stop-color="#878787"/>
<stop offset="0.8" stop-color="#626262"/>
<stop offset="0.84" stop-color="#373737"/>
<stop offset="0.88" stop-color="#090909"/>
<stop offset="0.89"/>
</radialGradient>
<linearGradient id="paint4_linear_1_938" x1="65.8283" y1="62.6612" x2="196.781" y2="167.001" gradientUnits="userSpaceOnUse">
<stop stop-color="#FF6972"/>
<stop offset="0.41" stop-color="#FF1422"/>
<stop offset="0.94" stop-color="#BC000B"/>
</linearGradient>
<radialGradient id="paint5_radial_1_938" cx="0" cy="0" r="1" gradientUnits="userSpaceOnUse" gradientTransform="translate(106.548 93.3409) rotate(-45.0679) scale(39.8965 39.8963)">
<stop stop-color="white"/>
<stop offset="0.33" stop-color="#FDFDFD"/>
<stop offset="0.45" stop-color="#F6F6F6"/>
<stop offset="0.53" stop-color="#EAEAEA"/>
<stop offset="0.6" stop-color="#D9D9D9"/>
<stop offset="0.66" stop-color="#C3C3C3"/>
<stop offset="0.71" stop-color="#A8A8A8"/>
<stop offset="0.76" stop-color="#878787"/>
<stop offset="0.8" stop-color="#626262"/>
<stop offset="0.84" stop-color="#373737"/>
<stop offset="0.88" stop-color="#090909"/>
<stop offset="0.89"/>
</radialGradient>
<linearGradient id="paint6_linear_1_938" x1="158.388" y1="50.3743" x2="147.351" y2="163.121" gradientUnits="userSpaceOnUse">
<stop stop-color="white"/>
<stop offset="0.45" stop-color="#E9F5F8"/>
<stop offset="1" stop-color="#828282"/>
</linearGradient>
<linearGradient id="paint7_linear_1_938" x1="155.872" y1="117.194" x2="146.815" y2="134.876" gradientUnits="userSpaceOnUse">
<stop offset="0.1" stop-color="white"/>
<stop offset="0.17" stop-color="#F8F8F8"/>
<stop offset="0.28" stop-color="#E5E5E5"/>
<stop offset="0.41" stop-color="#C6C6C6"/>
<stop offset="0.56" stop-color="#9A9A9A"/>
<stop offset="0.72" stop-color="#636363"/>
<stop offset="0.88" stop-color="#202020"/>
<stop offset="0.96"/>
</linearGradient>
<linearGradient id="paint8_linear_1_938" x1="223.513" y1="239.925" x2="127.682" y2="172.622" gradientUnits="userSpaceOnUse">
<stop stop-color="white"/>
<stop offset="0.45" stop-color="#E9F5F8"/>
<stop offset="1" stop-color="#828282"/>
</linearGradient>
<linearGradient id="paint9_linear_1_938" x1="138.115" y1="175.896" x2="179.048" y2="231.39" gradientUnits="userSpaceOnUse">
<stop stop-color="white"/>
<stop offset="1"/>
</linearGradient>
<linearGradient id="paint10_linear_1_938" x1="-145.107" y1="284.36" x2="216.631" y2="261.431" gradientUnits="userSpaceOnUse">
<stop stop-color="#FF848B"/>
<stop offset="0.41" stop-color="#FF1422"/>
<stop offset="0.94" stop-color="#D3000D"/>
</linearGradient>
<linearGradient id="paint11_linear_1_938" x1="117.672" y1="269.943" x2="159.331" y2="298.171" gradientUnits="userSpaceOnUse">
<stop stop-color="white"/>
<stop offset="1"/>
</linearGradient>
<linearGradient id="paint12_linear_1_938" x1="96.4314" y1="293.871" x2="214.897" y2="267.035" gradientUnits="userSpaceOnUse">
<stop stop-color="white"/>
<stop offset="0.45" stop-color="#E9F5F8"/>
<stop offset="1" stop-color="#828282"/>
</linearGradient>
<linearGradient id="paint13_linear_1_938" x1="-150.009" y1="207.174" x2="211.748" y2="184.249" gradientUnits="userSpaceOnUse">
<stop stop-color="#F1FF98"/>
<stop offset="0.447917" stop-color="#D2F400"/>
<stop offset="1" stop-color="#91A800"/>
</linearGradient>
<radialGradient id="paint14_radial_1_938" cx="0" cy="0" r="1" gradientUnits="userSpaceOnUse" gradientTransform="translate(50.8566 214.777) rotate(-45.0679) scale(56.8216 56.8214)">
<stop stop-color="white"/>
<stop offset="0.33" stop-color="#FDFDFD"/>
<stop offset="0.45" stop-color="#F6F6F6"/>
<stop offset="0.53" stop-color="#EAEAEA"/>
<stop offset="0.6" stop-color="#D9D9D9"/>
<stop offset="0.66" stop-color="#C3C3C3"/>
<stop offset="0.71" stop-color="#A8A8A8"/>
<stop offset="0.76" stop-color="#878787"/>
<stop offset="0.8" stop-color="#626262"/>
<stop offset="0.84" stop-color="#373737"/>
<stop offset="0.88" stop-color="#090909"/>
<stop offset="0.89"/>
</radialGradient>
<linearGradient id="paint15_linear_1_938" x1="-13.7548" y1="50.2911" x2="106.345" y2="171.149" gradientUnits="userSpaceOnUse">
<stop stop-color="#A9E7FF"/>
<stop offset="0.41" stop-color="#32C5FF"/>
<stop offset="0.94" stop-color="#0080B3"/>
</linearGradient>
<linearGradient id="paint16_linear_1_938" x1="100.781" y1="152.657" x2="-15.9308" y2="105.274" gradientUnits="userSpaceOnUse">
<stop stop-color="white"/>
<stop offset="1"/>
</linearGradient>
<linearGradient id="paint17_linear_1_938" x1="-24.9104" y1="187.954" x2="163.559" y2="189.254" gradientUnits="userSpaceOnUse">
<stop stop-color="white"/>
<stop offset="0.45" stop-color="#E9F5F8"/>
<stop offset="1" stop-color="#828282"/>
</linearGradient>
<linearGradient id="paint18_linear_1_938" x1="103.206" y1="112.141" x2="170.061" y2="255.559" gradientUnits="userSpaceOnUse">
<stop stop-color="white"/>
<stop offset="0.45" stop-color="#E9F5F8"/>
<stop offset="1" stop-color="#828282"/>
</linearGradient>
<linearGradient id="paint19_linear_1_938" x1="393.851" y1="280.242" x2="166.789" y2="288.593" gradientUnits="userSpaceOnUse">
<stop stop-color="white"/>
<stop offset="0.45" stop-color="#E9F5F8"/>
<stop offset="1" stop-color="#828282"/>
</linearGradient>
<linearGradient id="paint20_linear_1_938" x1="177.634" y1="276.869" x2="236.331" y2="307.189" gradientUnits="userSpaceOnUse">
<stop stop-color="white"/>
<stop offset="1"/>
</linearGradient>
<linearGradient id="paint21_linear_1_938" x1="358.326" y1="394.95" x2="206.225" y2="233.791" gradientUnits="userSpaceOnUse">
<stop stop-color="#F5DEB1"/>
<stop offset="0.41" stop-color="#E7B977"/>
<stop offset="0.94" stop-color="#B42829"/>
</linearGradient>
<linearGradient id="paint22_linear_1_938" x1="282.14" y1="352.962" x2="181.677" y2="160.863" gradientUnits="userSpaceOnUse">
<stop stop-color="white"/>
<stop offset="1"/>
</linearGradient>
<linearGradient id="paint23_linear_1_938" x1="278.189" y1="280.69" x2="236.101" y2="229.01" gradientUnits="userSpaceOnUse">
<stop stop-color="#CE000C"/>
<stop offset="0.41" stop-color="#FF1422"/>
<stop offset="0.94" stop-color="#B42829"/>
</linearGradient>
<linearGradient id="paint24_linear_1_938" x1="261.385" y1="272.446" x2="228.049" y2="206.267" gradientUnits="userSpaceOnUse">
<stop offset="0.1" stop-color="white"/>
<stop offset="0.17" stop-color="#F8F8F8"/>
<stop offset="0.28" stop-color="#E5E5E5"/>
<stop offset="0.41" stop-color="#C6C6C6"/>
<stop offset="0.56" stop-color="#9A9A9A"/>
<stop offset="0.72" stop-color="#636363"/>
<stop offset="0.88" stop-color="#202020"/>
<stop offset="0.96"/>
</linearGradient>
<linearGradient id="paint25_linear_1_938" x1="313.743" y1="287.405" x2="255.089" y2="233.977" gradientUnits="userSpaceOnUse">
<stop stop-color="#F5DEB1"/>
<stop offset="0.41" stop-color="#E7B977"/>
<stop offset="0.94" stop-color="#B42829"/>
</linearGradient>
<linearGradient id="paint26_linear_1_938" x1="374.451" y1="287.912" x2="279.078" y2="250.591" gradientUnits="userSpaceOnUse">
<stop stop-color="white"/>
<stop offset="0.45" stop-color="#E9F5F8"/>
<stop offset="1" stop-color="#828282"/>
</linearGradient>
<radialGradient id="paint27_radial_1_938" cx="0" cy="0" r="1" gradientUnits="userSpaceOnUse" gradientTransform="translate(280.157 266.649) rotate(-45.0679) scale(58.6002 58.6001)">
<stop stop-color="white"/>
<stop offset="0.33" stop-color="#FDFDFD"/>
<stop offset="0.45" stop-color="#F6F6F6"/>
<stop offset="0.53" stop-color="#EAEAEA"/>
<stop offset="0.6" stop-color="#D9D9D9"/>
<stop offset="0.66" stop-color="#C3C3C3"/>
<stop offset="0.71" stop-color="#A8A8A8"/>
<stop offset="0.76" stop-color="#878787"/>
<stop offset="0.8" stop-color="#626262"/>
<stop offset="0.84" stop-color="#373737"/>
<stop offset="0.88" stop-color="#090909"/>
<stop offset="0.89"/>
</radialGradient>
<linearGradient id="paint28_linear_1_938" x1="382.146" y1="247.238" x2="231.813" y2="199.015" gradientUnits="userSpaceOnUse">
<stop stop-color="#CAF0FF"/>
<stop offset="0.41" stop-color="#32C5FF"/>
<stop offset="0.94526" stop-color="#028EC6"/>
</linearGradient>
<linearGradient id="paint29_linear_1_938" x1="280.67" y1="215.062" x2="241.16" y2="198.783" gradientUnits="userSpaceOnUse">
<stop offset="0.1" stop-color="white"/>
<stop offset="0.17" stop-color="#F8F8F8"/>
<stop offset="0.28" stop-color="#E5E5E5"/>
<stop offset="0.41" stop-color="#C6C6C6"/>
<stop offset="0.56" stop-color="#9A9A9A"/>
<stop offset="0.72" stop-color="#636363"/>
<stop offset="0.88" stop-color="#202020"/>
<stop offset="0.96"/>
</linearGradient>
<linearGradient id="paint30_linear_1_938" x1="183.5" y1="180.177" x2="236.796" y2="202.198" gradientUnits="userSpaceOnUse">
<stop stop-color="#C0EDFF"/>
<stop offset="0.41" stop-color="#6BD5FF"/>
<stop offset="0.94" stop-color="#32C5FF"/>
</linearGradient>
<linearGradient id="paint31_linear_1_938" x1="226.602" y1="200.969" x2="251.366" y2="207.265" gradientUnits="userSpaceOnUse">
<stop stop-color="white"/>
<stop offset="1"/>
</linearGradient>
<linearGradient id="paint32_linear_1_938" x1="297.151" y1="287.477" x2="202.355" y2="221.521" gradientUnits="userSpaceOnUse">
<stop stop-color="white"/>
<stop offset="0.45" stop-color="#E9F5F8"/>
<stop offset="0.55" stop-color="#DAE5E7"/>
<stop offset="0.75" stop-color="#B6BCBD"/>
<stop offset="1" stop-color="#828282"/>
</linearGradient>
<linearGradient id="paint33_linear_1_938" x1="169.844" y1="209.847" x2="308.376" y2="272.82" gradientUnits="userSpaceOnUse">
<stop stop-color="white"/>
<stop offset="1"/>
</linearGradient>
<linearGradient id="paint34_linear_1_938" x1="170.808" y1="109.983" x2="255.184" y2="185.882" gradientUnits="userSpaceOnUse">
<stop stop-color="#E4FF3C"/>
<stop offset="0.41" stop-color="#DFFF13"/>
<stop offset="0.94" stop-color="#91A800"/>
</linearGradient>
<linearGradient id="paint35_linear_1_938" x1="276.096" y1="198.851" x2="155.346" y2="109.651" gradientUnits="userSpaceOnUse">
<stop stop-color="#DCFF00"/>
<stop offset="0.520746" stop-color="#7B8E00"/>
</linearGradient>
<linearGradient id="paint36_linear_1_938" x1="58.4373" y1="17.4534" x2="209.05" y2="110.223" gradientUnits="userSpaceOnUse">
<stop stop-color="#EEFF83"/>
<stop offset="0.45942" stop-color="#E4FF3C"/>
<stop offset="0.94" stop-color="#91A800"/>
</linearGradient>
<radialGradient id="paint37_radial_1_938" cx="0" cy="0" r="1" gradientUnits="userSpaceOnUse" gradientTransform="translate(118.767 34.5197) rotate(-45.0679) scale(75.5533 75.5531)">
<stop stop-color="white"/>
<stop offset="0.33" stop-color="#FDFDFD"/>
<stop offset="0.45" stop-color="#F6F6F6"/>
<stop offset="0.53" stop-color="#EAEAEA"/>
<stop offset="0.6" stop-color="#D9D9D9"/>
<stop offset="0.66" stop-color="#C3C3C3"/>
<stop offset="0.71" stop-color="#A8A8A8"/>
<stop offset="0.76" stop-color="#878787"/>
<stop offset="0.8" stop-color="#626262"/>
<stop offset="0.84" stop-color="#373737"/>
<stop offset="0.88" stop-color="#090909"/>
<stop offset="0.89"/>
</radialGradient>
<linearGradient id="paint38_linear_1_938" x1="211.382" y1="69.6619" x2="239.47" y2="106.926" gradientUnits="userSpaceOnUse">
<stop stop-color="#FF6A73"/>
<stop offset="0.385417" stop-color="#E6202B"/>
<stop offset="0.94" stop-color="#BF1D1F"/>
</linearGradient>
<linearGradient id="paint39_linear_1_938" x1="237" y1="94.509" x2="235.142" y2="125.972" gradientUnits="userSpaceOnUse">
<stop stop-color="white"/>
<stop offset="1"/>
</linearGradient>
<linearGradient id="paint40_linear_1_938" x1="176.465" y1="46.0662" x2="224.776" y2="76.7807" gradientUnits="userSpaceOnUse">
<stop stop-color="#84DCFF"/>
<stop offset="0.41" stop-color="#32C5FF"/>
<stop offset="0.94" stop-color="#006E99"/>
</linearGradient>
<linearGradient id="paint41_linear_1_938" x1="130.183" y1="-7.74602" x2="197.057" y2="77.5225" gradientUnits="userSpaceOnUse">
<stop stop-color="#EBFF71"/>
<stop offset="0.41" stop-color="#E4FF3C"/>
<stop offset="0.736542" stop-color="#E2FD3A"/>
<stop offset="0.94" stop-color="#91A800"/>
</linearGradient>
<linearGradient id="paint42_linear_1_938" x1="231.244" y1="91.9233" x2="213.919" y2="78.4843" gradientUnits="userSpaceOnUse">
<stop stop-color="#86DDFF"/>
<stop offset="0.41" stop-color="#32C5FF"/>
<stop offset="0.94" stop-color="#0088BE"/>
</linearGradient>
<linearGradient id="paint43_linear_1_938" x1="217.224" y1="81.1252" x2="199.684" y2="67.0456" gradientUnits="userSpaceOnUse">
<stop offset="0.1" stop-color="white"/>
<stop offset="0.17" stop-color="#F8F8F8"/>
<stop offset="0.28" stop-color="#E5E5E5"/>
<stop offset="0.41" stop-color="#C6C6C6"/>
<stop offset="0.56" stop-color="#9A9A9A"/>
<stop offset="0.72" stop-color="#636363"/>
<stop offset="0.88" stop-color="#202020"/>
<stop offset="0.96"/>
</linearGradient>
<linearGradient id="paint44_linear_1_938" x1="242.269" y1="102.785" x2="177.644" y2="65.3403" gradientUnits="userSpaceOnUse">
<stop stop-color="#FF646D"/>
<stop offset="0.41" stop-color="#FF1422"/>
<stop offset="0.94" stop-color="#BA000B"/>
</linearGradient>
<linearGradient id="paint45_linear_1_938" x1="233.468" y1="97.9539" x2="195.134" y2="75.0045" gradientUnits="userSpaceOnUse">
<stop offset="0.1" stop-color="white"/>
<stop offset="0.17" stop-color="#F8F8F8"/>
<stop offset="0.28" stop-color="#E5E5E5"/>
<stop offset="0.41" stop-color="#C6C6C6"/>
<stop offset="0.56" stop-color="#9A9A9A"/>
<stop offset="0.72" stop-color="#636363"/>
<stop offset="0.88" stop-color="#202020"/>
<stop offset="0.96"/>
</linearGradient>
<linearGradient id="paint46_linear_1_938" x1="217.517" y1="89.987" x2="205.9" y2="107.372" gradientUnits="userSpaceOnUse">
<stop offset="0.1" stop-color="white"/>
<stop offset="0.17" stop-color="#F8F8F8"/>
<stop offset="0.28" stop-color="#E5E5E5"/>
<stop offset="0.41" stop-color="#C6C6C6"/>
<stop offset="0.56" stop-color="#9A9A9A"/>
<stop offset="0.72" stop-color="#636363"/>
<stop offset="0.88" stop-color="#202020"/>
<stop offset="0.96"/>
</linearGradient>
<linearGradient id="paint47_linear_1_938" x1="152.747" y1="102.753" x2="187.02" y2="103.06" gradientUnits="userSpaceOnUse">
<stop stop-color="white"/>
<stop offset="0.45" stop-color="#E9F5F8"/>
<stop offset="1" stop-color="#828282"/>
</linearGradient>
<linearGradient id="paint48_linear_1_938" x1="213.626" y1="97.2927" x2="217.2" y2="107.991" gradientUnits="userSpaceOnUse">
<stop stop-color="white"/>
<stop offset="1"/>
</linearGradient>
<linearGradient id="paint49_linear_1_938" x1="199.227" y1="77.9179" x2="153.334" y2="30.3004" gradientUnits="userSpaceOnUse">
<stop stop-color="white"/>
<stop offset="1"/>
</linearGradient>
<linearGradient id="paint50_linear_1_938" x1="184.497" y1="49.2908" x2="192.116" y2="83.1147" gradientUnits="userSpaceOnUse">
<stop offset="0.1" stop-color="white"/>
<stop offset="0.17" stop-color="#F8F8F8"/>
<stop offset="0.28" stop-color="#E5E5E5"/>
<stop offset="0.41" stop-color="#C6C6C6"/>
<stop offset="0.56" stop-color="#9A9A9A"/>
<stop offset="0.72" stop-color="#636363"/>
<stop offset="0.88" stop-color="#202020"/>
<stop offset="0.96"/>
</linearGradient>
<linearGradient id="paint51_linear_1_938" x1="91.5488" y1="54.524" x2="390.383" y2="201.635" gradientUnits="userSpaceOnUse">
<stop stop-color="white"/>
<stop offset="0.45" stop-color="#E9F5F8"/>
<stop offset="1" stop-color="#828282"/>
</linearGradient>
<linearGradient id="paint52_linear_1_938" x1="201.115" y1="101.003" x2="462.323" y2="407.117" gradientUnits="userSpaceOnUse">
<stop stop-color="#E4FF40"/>
<stop offset="0.41" stop-color="#C6E404"/>
<stop offset="0.94" stop-color="#91A800"/>
</linearGradient>
<linearGradient id="paint53_linear_1_938" x1="396.517" y1="240.332" x2="267.011" y2="185.466" gradientUnits="userSpaceOnUse">
<stop stop-color="#A8E6FF"/>
<stop offset="0.41" stop-color="#32C5FF"/>
<stop offset="0.94" stop-color="#008DC6"/>
</linearGradient>
<linearGradient id="paint54_linear_1_938" x1="308.362" y1="272.659" x2="271.605" y2="112.96" gradientUnits="userSpaceOnUse">
<stop stop-color="white"/>
<stop offset="1"/>
</linearGradient>
<linearGradient id="paint55_linear_1_938" x1="280.682" y1="37.9329" x2="290.243" y2="158.3" gradientUnits="userSpaceOnUse">
<stop stop-color="#68D4FF"/>
<stop offset="0.41" stop-color="#32C5FF"/>
<stop offset="0.94" stop-color="#00A7EA"/>
</linearGradient>
<radialGradient id="paint56_radial_1_938" cx="0" cy="0" r="1" gradientUnits="userSpaceOnUse" gradientTransform="translate(296.207 86.2649) rotate(-45.0679) scale(66.6712 66.671)">
<stop stop-color="white"/>
<stop offset="0.33" stop-color="#FDFDFD"/>
<stop offset="0.45" stop-color="#F6F6F6"/>
<stop offset="0.53" stop-color="#EAEAEA"/>
<stop offset="0.6" stop-color="#D9D9D9"/>
<stop offset="0.66" stop-color="#C3C3C3"/>
<stop offset="0.71" stop-color="#A8A8A8"/>
<stop offset="0.76" stop-color="#878787"/>
<stop offset="0.8" stop-color="#626262"/>
<stop offset="0.84" stop-color="#373737"/>
<stop offset="0.88" stop-color="#090909"/>
<stop offset="0.89"/>
</radialGradient>
<linearGradient id="paint57_linear_1_938" x1="406.298" y1="181.729" x2="301.479" y2="126.313" gradientUnits="userSpaceOnUse">
<stop stop-color="#9CE3FF"/>
<stop offset="0.41" stop-color="#2EBDF6"/>
<stop offset="0.94" stop-color="#AFE8FF"/>
</linearGradient>
<linearGradient id="paint58_linear_1_938" x1="365.914" y1="100.528" x2="305.913" y2="145.01" gradientUnits="userSpaceOnUse">
<stop stop-color="#2FBDF5"/>
<stop offset="1" stop-color="#18A9E2"/>
</linearGradient>
<linearGradient id="paint59_linear_1_938" x1="246.713" y1="64.2609" x2="324.584" y2="193.295" gradientUnits="userSpaceOnUse">
<stop stop-color="white"/>
<stop offset="0.45" stop-color="#E9F5F8"/>
<stop offset="1" stop-color="#828282"/>
</linearGradient>
<linearGradient id="paint60_linear_1_938" x1="264.916" y1="46.5611" x2="526.124" y2="352.676" gradientUnits="userSpaceOnUse">
<stop stop-color="#31BCF3"/>
<stop offset="0.210585" stop-color="#1BBEFF"/>
<stop offset="0.41" stop-color="#27BDFA"/>
<stop offset="0.94" stop-color="#0076A5"/>
</linearGradient>
<linearGradient id="paint61_linear_1_938" x1="488.287" y1="158.64" x2="293.007" y2="163.251" gradientUnits="userSpaceOnUse">
<stop stop-color="white"/>
<stop offset="0.45" stop-color="#E9F5F8"/>
<stop offset="1" stop-color="#828282"/>
</linearGradient>
<linearGradient id="paint62_linear_1_938" x1="279.924" y1="115.179" x2="342.966" y2="316.444" gradientUnits="userSpaceOnUse">
<stop stop-color="white"/>
<stop offset="1"/>
</linearGradient>
<linearGradient id="paint63_linear_1_938" x1="177.749" y1="132.217" x2="288.729" y2="174.517" gradientUnits="userSpaceOnUse">
<stop stop-color="white"/>
<stop offset="0.45" stop-color="#E9F5F8"/>
<stop offset="1" stop-color="#828282"/>
</linearGradient>
<linearGradient id="paint64_linear_1_938" x1="280.339" y1="170.08" x2="255.455" y2="162.987" gradientUnits="userSpaceOnUse">
<stop offset="0.1" stop-color="white"/>
<stop offset="0.31" stop-color="#FCFCFC"/>
<stop offset="0.44" stop-color="#F3F3F3"/>
<stop offset="0.55" stop-color="#E4E4E4"/>
<stop offset="0.65" stop-color="#CFCFCF"/>
<stop offset="0.75" stop-color="#B4B4B4"/>
<stop offset="0.83" stop-color="#939393"/>
<stop offset="0.92" stop-color="#6C6C6C"/>
<stop offset="0.99" stop-color="#3F3F3F"/>
<stop offset="1" stop-color="#3B3B3B"/>
</linearGradient>
<linearGradient id="paint65_linear_1_938" x1="43.2049" y1="64.4074" x2="322.147" y2="247.047" gradientUnits="userSpaceOnUse">
<stop stop-color="#E4FF3C"/>
<stop offset="0.41" stop-color="#DFFF13"/>
<stop offset="0.94" stop-color="#718300"/>
</linearGradient>
<linearGradient id="paint66_linear_1_938" x1="66.0535" y1="248.375" x2="247.579" y2="206.295" gradientUnits="userSpaceOnUse">
<stop stop-color="white"/>
<stop offset="0.45" stop-color="#E9F5F8"/>
<stop offset="1" stop-color="#828282"/>
</linearGradient>
<linearGradient id="paint67_linear_1_938" x1="-210.666" y1="263.762" x2="289.534" y2="214.699" gradientUnits="userSpaceOnUse">
<stop stop-color="white"/>
<stop offset="0.45" stop-color="#E9F5F8"/>
<stop offset="1" stop-color="#828282"/>
</linearGradient>
<linearGradient id="paint68_linear_1_938" x1="27.8144" y1="90.2484" x2="294.571" y2="273.676" gradientUnits="userSpaceOnUse">
<stop stop-color="#88DDFF"/>
<stop offset="0.41" stop-color="#32C5FF"/>
<stop offset="0.94" stop-color="#009AD8"/>
</linearGradient>
<linearGradient id="paint69_linear_1_938" x1="-41.881" y1="112.435" x2="95.7554" y2="182.281" gradientUnits="userSpaceOnUse">
<stop stop-color="#87DDFF"/>
<stop offset="0.41" stop-color="#32C5FF"/>
<stop offset="0.94" stop-color="#008EC7"/>
</linearGradient>
<linearGradient id="paint70_linear_1_938" x1="115.31" y1="6.24356" x2="414.171" y2="153.366" gradientUnits="userSpaceOnUse">
<stop stop-color="#EEFF84"/>
<stop offset="0.41" stop-color="#C2E100"/>
<stop offset="0.94" stop-color="#91A800"/>
</linearGradient>
<radialGradient id="paint71_radial_1_938" cx="0" cy="0" r="1" gradientUnits="userSpaceOnUse" gradientTransform="translate(109.325 30.362) rotate(-45.0679) scale(58.74 58.7399)">
<stop stop-color="white"/>
<stop offset="1"/>
</radialGradient>
<radialGradient id="paint72_radial_1_938" cx="0" cy="0" r="1" gradientUnits="userSpaceOnUse" gradientTransform="translate(161.94 1.37314) rotate(-45.0679) scale(46.6922 46.6921)">
<stop stop-color="white"/>
<stop offset="1"/>
</radialGradient>
<radialGradient id="paint73_radial_1_938" cx="0" cy="0" r="1" gradientUnits="userSpaceOnUse" gradientTransform="translate(174.478 56.5475) rotate(-45.0679) scale(51.631 51.6309)">
<stop stop-color="white"/>
<stop offset="1"/>
</radialGradient>
<radialGradient id="paint74_radial_1_938" cx="0" cy="0" r="1" gradientUnits="userSpaceOnUse" gradientTransform="translate(180.293 243.983) rotate(-45.0679) scale(33.2461 33.246)">
<stop stop-color="white"/>
<stop offset="1"/>
</radialGradient>
<radialGradient id="paint75_radial_1_938" cx="0" cy="0" r="1" gradientUnits="userSpaceOnUse" gradientTransform="translate(182.24 117.673) rotate(-45.0679) scale(58.4324 58.4322)">
<stop stop-color="#F9EF79"/>
<stop offset="1"/>
</radialGradient>
<radialGradient id="paint76_radial_1_938" cx="0" cy="0" r="1" gradientUnits="userSpaceOnUse" gradientTransform="translate(172.59 116.893) rotate(-45.0679) scale(49.1141 49.114)">
<stop stop-color="#F9EF79"/>
<stop offset="1"/>
</radialGradient>
<radialGradient id="paint77_radial_1_938" cx="0" cy="0" r="1" gradientUnits="userSpaceOnUse" gradientTransform="translate(226.231 141.986) rotate(-45.0679) scale(57.7389 57.7387)">
<stop stop-color="#F9EF79"/>
<stop offset="1"/>
</radialGradient>
<radialGradient id="paint78_radial_1_938" cx="0" cy="0" r="1" gradientUnits="userSpaceOnUse" gradientTransform="translate(227.057 147.43) rotate(-45.0679) scale(49.4776 49.4775)">
<stop stop-color="#F9EF79"/>
<stop offset="1"/>
</radialGradient>
<radialGradient id="paint79_radial_1_938" cx="0" cy="0" r="1" gradientUnits="userSpaceOnUse" gradientTransform="translate(183.338 281.446) rotate(-45.0679) scale(84.2283 84.2281)">
<stop stop-color="white"/>
<stop offset="1"/>
</radialGradient>
<radialGradient id="paint80_radial_1_938" cx="0" cy="0" r="1" gradientUnits="userSpaceOnUse" gradientTransform="translate(179.143 110.926) rotate(-45.0679) scale(31.0032 31.0032)">
<stop stop-color="#F9EF79"/>
<stop offset="1"/>
</radialGradient>
<radialGradient id="paint81_radial_1_938" cx="0" cy="0" r="1" gradientUnits="userSpaceOnUse" gradientTransform="translate(217.138 100.884) rotate(-45.0679) scale(46.681 46.6809)">
<stop stop-color="#F9EF79"/>
<stop offset="1"/>
</radialGradient>
<radialGradient id="paint82_radial_1_938" cx="0" cy="0" r="1" gradientUnits="userSpaceOnUse" gradientTransform="translate(86.1409 229.958) rotate(-45.0679) scale(82.0973 82.0971)">
<stop/>
<stop offset="1" stop-color="#F5F5F5"/>
</radialGradient>
<radialGradient id="paint83_radial_1_938" cx="0" cy="0" r="1" gradientUnits="userSpaceOnUse" gradientTransform="translate(85.3508 232.746) rotate(-45.0679) scale(37.3348 37.3347)">
<stop stop-color="white"/>
<stop offset="1"/>
</radialGradient>
<radialGradient id="paint84_radial_1_938" cx="0" cy="0" r="1" gradientUnits="userSpaceOnUse" gradientTransform="translate(71.5563 212.282) rotate(-45.0679) scale(74.278 74.2778)">
<stop stop-color="#F9EF79"/>
<stop offset="1"/>
</radialGradient>
<radialGradient id="paint85_radial_1_938" cx="0" cy="0" r="1" gradientUnits="userSpaceOnUse" gradientTransform="translate(86.1133 230.033) rotate(-45.0679) scale(82.2316 82.2314)">
<stop/>
<stop offset="1" stop-color="#F5F5F5"/>
</radialGradient>
<radialGradient id="paint86_radial_1_938" cx="0" cy="0" r="1" gradientUnits="userSpaceOnUse" gradientTransform="translate(90.1228 239.849) rotate(-45.0679) scale(30.6173 30.6172)">
<stop stop-color="white"/>
<stop offset="1"/>
</radialGradient>
<radialGradient id="paint87_radial_1_938" cx="0" cy="0" r="1" gradientUnits="userSpaceOnUse" gradientTransform="translate(71.3152 212.033) rotate(-45.0679) scale(75.3407 75.3405)">
<stop stop-color="#F9EF79"/>
<stop offset="1"/>
</radialGradient>
<radialGradient id="paint88_radial_1_938" cx="0" cy="0" r="1" gradientUnits="userSpaceOnUse" gradientTransform="translate(98.691 279.244) rotate(-45.0679) scale(16.7629 16.7628)">
<stop stop-color="#F9EF79"/>
<stop offset="1"/>
</radialGradient>
<radialGradient id="paint89_radial_1_938" cx="0" cy="0" r="1" gradientUnits="userSpaceOnUse" gradientTransform="translate(112.576 286.661) rotate(-45.0679) scale(51.4521 51.4519)">
<stop stop-color="#F9EF79"/>
<stop offset="1"/>
</radialGradient>
<radialGradient id="paint90_radial_1_938" cx="0" cy="0" r="1" gradientUnits="userSpaceOnUse" gradientTransform="translate(112.249 175.287) rotate(-45.0679) scale(58.6897 58.6895)">
<stop stop-color="#F9EF79"/>
<stop offset="1"/>
</radialGradient>
<radialGradient id="paint91_radial_1_938" cx="0" cy="0" r="1" gradientUnits="userSpaceOnUse" gradientTransform="translate(119.173 179.021) rotate(-45.0679) scale(23.3237 23.3237)">
<stop stop-color="#F9EF79"/>
<stop offset="1"/>
</radialGradient>
<radialGradient id="paint92_radial_1_938" cx="0" cy="0" r="1" gradientUnits="userSpaceOnUse" gradientTransform="translate(64.8249 146.702) rotate(-45.0679) scale(44.6899 44.6897)">
<stop stop-color="#F9EF79"/>
<stop offset="1"/>
</radialGradient>
<radialGradient id="paint93_radial_1_938" cx="0" cy="0" r="1" gradientUnits="userSpaceOnUse" gradientTransform="translate(23.3545 125.343) rotate(-45.0679) scale(35.9924 35.9923)">
<stop stop-color="#F9EF79"/>
<stop offset="1"/>
</radialGradient>
<radialGradient id="paint94_radial_1_938" cx="0" cy="0" r="1" gradientUnits="userSpaceOnUse" gradientTransform="translate(281.342 148.523) rotate(-45.0679) scale(35.5561 35.556)">
<stop stop-color="#F9EF79"/>
<stop offset="1"/>
</radialGradient>
<radialGradient id="paint95_radial_1_938" cx="0" cy="0" r="1" gradientUnits="userSpaceOnUse" gradientTransform="translate(285.154 140.822) rotate(-45.0679) scale(32.2114 32.2113)">
<stop stop-color="#F9EF79"/>
<stop offset="1"/>
</radialGradient>
<linearGradient id="paint96_linear_1_938" x1="260.066" y1="90.1098" x2="320.046" y2="121.749" gradientUnits="userSpaceOnUse">
<stop stop-color="white"/>
<stop offset="1"/>
</linearGradient>
<radialGradient id="paint97_radial_1_938" cx="0" cy="0" r="1" gradientUnits="userSpaceOnUse" gradientTransform="translate(258.541 270.862) rotate(-45.0679) scale(166.941 166.941)">
<stop stop-color="#F9EF79"/>
<stop offset="1"/>
</radialGradient>
<linearGradient id="paint98_linear_1_938" x1="-101.134" y1="202.44" x2="139.075" y2="323.655" gradientUnits="userSpaceOnUse">
<stop stop-color="#EAFF6B"/>
<stop offset="0.41" stop-color="#E4FF3C"/>
<stop offset="0.860609" stop-color="#91A800"/>
</linearGradient>
<linearGradient id="paint99_linear_1_938" x1="5.7878" y1="11.1998" x2="77.386" y2="355.484" gradientUnits="userSpaceOnUse">
<stop stop-color="#EFFF8B"/>
<stop offset="0.41" stop-color="#E4FF3C"/>
<stop offset="0.94" stop-color="#91A800"/>
</linearGradient>
<linearGradient id="paint100_linear_1_938" x1="73.637" y1="328.425" x2="29.2576" y2="167.736" gradientUnits="userSpaceOnUse">
<stop stop-color="white"/>
<stop offset="1"/>
</linearGradient>
<linearGradient id="paint101_linear_1_938" x1="73.1061" y1="246.544" x2="62.0655" y2="362.983" gradientUnits="userSpaceOnUse">
<stop stop-color="#E5FF47"/>
<stop offset="0.41" stop-color="#CBE818"/>
<stop offset="0.94" stop-color="#91A800"/>
</linearGradient>
<linearGradient id="paint102_linear_1_938" x1="83.9386" y1="211.741" x2="324.148" y2="332.956" gradientUnits="userSpaceOnUse">
<stop stop-color="#FF9CA2"/>
<stop offset="0.396096" stop-color="#FF1422"/>
<stop offset="0.94" stop-color="#C7000C"/>
</linearGradient>
<linearGradient id="paint103_linear_1_938" x1="190.861" y1="20.4954" x2="262.459" y2="364.785" gradientUnits="userSpaceOnUse">
<stop stop-color="#FF9197"/>
<stop offset="0.41" stop-color="#FF1422"/>
<stop offset="0.94" stop-color="#B4000B"/>
</linearGradient>
<linearGradient id="paint104_linear_1_938" x1="258.71" y1="337.727" x2="214.325" y2="177.031" gradientUnits="userSpaceOnUse">
<stop stop-color="white"/>
<stop offset="1"/>
</linearGradient>
<linearGradient id="paint105_linear_1_938" x1="258.173" y1="255.846" x2="247.138" y2="372.284" gradientUnits="userSpaceOnUse">
<stop stop-color="#FF4550"/>
<stop offset="0.41" stop-color="#FF1422"/>
<stop offset="0.94" stop-color="#960009"/>
</linearGradient>
</defs>
</svg>
