<svg width="67" height="58" viewBox="0 0 67 58" fill="none" xmlns="http://www.w3.org/2000/svg">
<path d="M56.3129 0H11.1483C8.66749 0 6.6543 2.0081 6.6543 4.48261V26.4897C6.6543 28.9642 8.66749 30.9723 11.1483 30.9723H44.381L51.2821 37.856V30.9723H56.3086C58.7894 30.9723 60.8026 28.9642 60.8026 26.4897V4.48261C60.8026 2.0081 58.7894 0 56.3086 0H56.3129Z" fill="url(#paint0_linear_1_556)"/>
<path d="M54.0875 8.67564H14.352C13.8757 8.67564 13.4861 8.28698 13.4861 7.81194C13.4861 7.33691 13.8757 6.94824 14.352 6.94824H54.0875C54.5638 6.94824 54.9534 7.33691 54.9534 7.81194C54.9534 8.28698 54.5638 8.67564 54.0875 8.67564Z" fill="white"/>
<path d="M43.7229 16.1039H14.352C13.8757 16.1039 13.4861 15.7152 13.4861 15.2402C13.4861 14.7651 13.8757 14.3765 14.352 14.3765H43.7229C44.1991 14.3765 44.5888 14.7651 44.5888 15.2402C44.5888 15.7152 44.1991 16.1039 43.7229 16.1039Z" fill="white"/>
<path d="M43.7229 23.5316H14.352C13.8757 23.5316 13.4861 23.1429 13.4861 22.6679C13.4861 22.1929 13.8757 21.8042 14.352 21.8042H43.7229C44.1991 21.8042 44.5888 22.1929 44.5888 22.6679C44.5888 23.1429 44.1991 23.5316 43.7229 23.5316Z" fill="white"/>
<path d="M61.2529 11.3488C64.0714 11.3488 66.3616 13.6377 66.3616 16.4447V43.5908C66.3616 46.4021 64.067 48.6866 61.2529 48.6866H55.0488C54.8107 48.6866 54.6159 48.881 54.6159 49.1185V56.5679L46.8402 48.8119C46.7579 48.7298 46.6497 48.6866 46.5328 48.6866H5.5417C2.72324 48.6866 0.432944 46.3978 0.432944 43.5908V16.4447C0.432944 13.6333 2.72757 11.3488 5.5417 11.3488H61.2486M61.2486 10.917H5.5417C2.48079 10.917 0 13.3915 0 16.4447V43.5908C0 46.644 2.48079 49.1185 5.5417 49.1185H46.5328L55.0445 57.6087V49.1185H61.2486C64.3095 49.1185 66.7902 46.644 66.7902 43.5908V16.4447C66.7902 13.3915 64.3095 10.917 61.2486 10.917Z" fill="white"/>
<g style="mix-blend-mode:overlay" opacity="0.6">
<path d="M13.1392 39.6738C13.1392 38.2924 12.0206 37.1738 10.6392 37.1738C9.25768 37.1738 8.13916 38.2924 8.13916 39.6738C8.13916 41.0553 9.25768 42.1738 10.6392 42.1738C12.0206 42.1738 13.1392 41.0553 13.1392 39.6738Z" fill="white"/>
</g>
<g style="mix-blend-mode:overlay" opacity="0.6">
<path d="M24.1392 39.6738C24.1392 38.2924 23.0206 37.1738 21.6392 37.1738C20.2577 37.1738 19.1392 38.2924 19.1392 39.6738C19.1392 41.0553 20.2577 42.1738 21.6392 42.1738C23.0206 42.1738 24.1392 41.0553 24.1392 39.6738Z" fill="white"/>
</g>
<g style="mix-blend-mode:overlay" opacity="0.6">
<path d="M35.1392 39.6738C35.1392 38.2924 34.0206 37.1738 32.6392 37.1738C31.2577 37.1738 30.1392 38.2924 30.1392 39.6738C30.1392 41.0553 31.2577 42.1738 32.6392 42.1738C34.0206 42.1738 35.1392 41.0553 35.1392 39.6738Z" fill="white"/>
</g>
<defs>
<linearGradient id="paint0_linear_1_556" x1="45.3334" y1="0.0130737" x2="23.8397" y2="29.5342" gradientUnits="userSpaceOnUse">
<stop offset="0.340938" stop-color="#32C5FF"/>
<stop offset="0.958339" stop-color="#DFFF13"/>
</linearGradient>
</defs>
</svg>
