<svg width="61" height="60" viewBox="0 0 61 60" fill="none" xmlns="http://www.w3.org/2000/svg">
<path d="M57.7341 10.7866H12.2503C10.4469 10.7866 8.98486 12.2457 8.98486 14.0455V41.179C8.98486 42.9788 10.4469 44.4379 12.2503 44.4379H57.7341C59.5376 44.4379 60.9996 42.9788 60.9996 41.179V14.0455C60.9996 12.2457 59.5376 10.7866 57.7341 10.7866Z" fill="url(#paint0_linear_1_571)"/>
<g style="mix-blend-mode:overlay" opacity="0.6">
<path d="M56.2851 13.9468H49.1934C48.6131 13.9468 48.1426 14.4163 48.1426 14.9955V18.3705C48.1426 18.9497 48.6131 19.4192 49.1934 19.4192H56.2851C56.8655 19.4192 57.336 18.9497 57.336 18.3705V14.9955C57.336 14.4163 56.8655 13.9468 56.2851 13.9468Z" fill="white"/>
</g>
<g style="mix-blend-mode:overlay" opacity="0.6">
<path d="M60.9993 32.0044H8.98462V37.6739H60.9993V32.0044Z" fill="white"/>
</g>
<path d="M57.3392 24.3603H13.0297C12.6418 24.3603 12.3245 24.0436 12.3245 23.6565C12.3245 23.2694 12.6418 22.9526 13.0297 22.9526H57.3392C57.7271 22.9526 58.0445 23.2694 58.0445 23.6565C58.0445 24.0436 57.7271 24.3603 57.3392 24.3603Z" fill="white"/>
<path d="M31.0709 29.4453H13.0297C12.6418 29.4453 12.3245 29.1286 12.3245 28.7415C12.3245 28.3543 12.6418 28.0376 13.0297 28.0376H31.0709C31.4588 28.0376 31.7762 28.3543 31.7762 28.7415C31.7762 29.1286 31.4588 29.4453 31.0709 29.4453Z" fill="white"/>
<path d="M57.1629 41.2808H48.1423C47.7544 41.2808 47.437 40.964 47.437 40.5769C47.437 40.1898 47.7544 39.873 48.1423 39.873H57.1629C57.5508 39.873 57.8682 40.1898 57.8682 40.5769C57.8682 40.964 57.5508 41.2808 57.1629 41.2808Z" fill="white"/>
<path d="M40.2223 0.351927C41.8516 0.351927 43.181 1.67517 43.181 3.30459V56.6954C43.181 58.3213 41.8551 59.6481 40.2223 59.6481H3.31131C1.6821 59.6481 0.352642 58.3248 0.352642 56.6954V3.30459C0.352642 1.67869 1.67858 0.351927 3.31131 0.351927H40.2223ZM40.2223 0H3.31131C1.48462 0 0 1.47809 0 3.30459V56.6954C0 58.5184 1.4811 60 3.31131 60H40.2223C42.049 60 43.5337 58.5219 43.5337 56.6954V3.30459C43.5337 1.48161 42.0526 0 40.2223 0Z" fill="white"/>
<g style="mix-blend-mode:overlay" opacity="0.6">
<path d="M14.6174 56.1464C20.1972 56.1464 24.7205 51.6322 24.7205 46.0637C24.7205 40.4951 20.1972 35.981 14.6174 35.981C9.03751 35.981 4.51416 40.4951 4.51416 46.0637C4.51416 51.6322 9.03751 56.1464 14.6174 56.1464Z" fill="white"/>
</g>
<g style="mix-blend-mode:overlay" opacity="0.6">
<path d="M17.3521 52.6497C20.9975 51.1427 22.7287 46.9719 21.2187 43.3338C19.7087 39.6957 15.5293 37.9681 11.8839 39.4751C8.23843 40.982 6.5073 45.1528 8.01729 48.7909C9.52729 52.429 13.7066 54.1566 17.3521 52.6497Z" fill="white"/>
</g>
<g style="mix-blend-mode:overlay" opacity="0.6">
<path d="M13.0473 10.0558C13.4884 8.19067 12.3309 6.32177 10.462 5.88155C8.593 5.44132 6.7203 6.59648 6.27918 8.46166C5.83806 10.3268 6.99557 12.1957 8.86454 12.636C10.7335 13.0762 12.6062 11.921 13.0473 10.0558Z" fill="white"/>
</g>
<g style="mix-blend-mode:overlay" opacity="0.6">
<path d="M25.582 10.0563C26.0231 8.19115 24.8656 6.32225 22.9966 5.88203C21.1277 5.44181 19.255 6.59697 18.8138 8.46215C18.3727 10.3273 19.5302 12.1962 21.3992 12.6364C23.2682 13.0767 25.1409 11.9215 25.582 10.0563Z" fill="white"/>
</g>
<g style="mix-blend-mode:overlay" opacity="0.6">
<path d="M38.1171 10.0529C38.5583 8.18774 37.4008 6.31884 35.5318 5.87862C33.6628 5.43839 31.7901 6.59355 31.349 8.45873C30.9079 10.3239 32.0654 12.1928 33.9344 12.633C35.8033 13.0733 37.676 11.9181 38.1171 10.0529Z" fill="white"/>
</g>
<defs>
<linearGradient id="paint0_linear_1_571" x1="60.5" y1="27" x2="9.37429" y2="31.9029" gradientUnits="userSpaceOnUse">
<stop offset="0.0997943" stop-color="#DFFF13"/>
<stop offset="0.7961" stop-color="#32C5FF"/>
</linearGradient>
</defs>
</svg>
