<svg width="61" height="70" viewBox="0 0 61 70" fill="none" xmlns="http://www.w3.org/2000/svg">
<path d="M53.3063 3.55517V38.0279C53.3063 39.9929 51.706 41.583 49.7284 41.583H3.79158C1.81785 41.583 0.217529 39.9929 0.217529 38.0279V3.55517C0.217529 1.59017 1.81785 0 3.79158 0H49.7284C51.706 0 53.3063 1.59017 53.3063 3.55517Z" fill="url(#paint0_linear_1_592)"/>
<g style="mix-blend-mode:multiply" opacity="0.2">
<path d="M53.3063 16.9394V38.0281C53.3063 39.9931 51.706 41.5833 49.7284 41.5833H3.79158C1.81785 41.5833 0.217529 39.9931 0.217529 38.0281V26.8287C0.217529 26.8287 10.5815 37.0286 23.407 30.134C36.2286 23.2433 44.1692 16.326 53.3063 16.9394Z" fill="#2E025A"/>
</g>
<path d="M45.4646 6.11113H6.2186C5.79947 6.11113 5.45654 5.77038 5.45654 5.35391C5.45654 4.93743 5.79947 4.59668 6.2186 4.59668H45.4646C45.8837 4.59668 46.2267 4.93743 46.2267 5.35391C46.2267 5.77038 45.8837 6.11113 45.4646 6.11113Z" fill="white"/>
<path d="M28.2348 16.3714H6.21518C5.79605 16.3714 5.45312 16.0306 5.45312 15.6142C5.45312 15.1977 5.79605 14.8569 6.21518 14.8569H28.2348C28.654 14.8569 28.9969 15.1977 28.9969 15.6142C28.9969 16.0306 28.654 16.3714 28.2348 16.3714Z" fill="white"/>
<path d="M42.3139 10.9534H6.21518C5.79605 10.9534 5.45312 10.6127 5.45312 10.1962C5.45312 9.77972 5.79605 9.43896 6.21518 9.43896H42.3139C42.733 9.43896 43.0759 9.77972 43.0759 10.1962C43.0759 10.6127 42.733 10.9534 42.3139 10.9534Z" fill="white"/>
<g style="mix-blend-mode:overlay" opacity="0.6">
<path d="M19.2611 22.7515H6.88149C6.11339 22.7515 5.49072 23.3702 5.49072 24.1334V34.7535C5.49072 35.5167 6.11339 36.1354 6.88149 36.1354H19.2611C20.0292 36.1354 20.6519 35.5167 20.6519 34.7535V24.1334C20.6519 23.3702 20.0292 22.7515 19.2611 22.7515Z" fill="white"/>
</g>
<path d="M51.6981 56.5352L47.9869 59.7458L40.4273 51.1059L38.1411 48.501C38.8155 48.0543 39.4671 47.5583 40.0958 47.0131C40.7245 46.4679 41.3113 45.8962 41.8485 45.2942L44.1347 47.899L51.7019 56.539L51.6981 56.5352Z" fill="url(#paint1_linear_1_592)"/>
<g style="mix-blend-mode:multiply" opacity="0.2">
<path d="M44.1347 47.8953C43.5746 48.4897 42.9878 49.05 42.3591 49.5952C41.7342 50.1404 41.0903 50.6402 40.4273 51.1059L38.1411 48.501C38.8155 48.0543 39.4671 47.5583 40.0958 47.0131C40.7245 46.4679 41.3113 45.8962 41.8485 45.2942L44.1347 47.899V47.8953Z" fill="#2B9EDE"/>
</g>
<mask id="mask0_1_592" style="mask-type:luminance" maskUnits="userSpaceOnUse" x="7" y="12" width="40" height="40">
<path d="M36.7626 49.3507C46.3394 44.0214 49.7552 31.9868 44.3919 22.4707C39.0286 12.9546 26.9172 9.56053 17.3404 14.8898C7.76356 20.2191 4.3478 32.2536 9.71109 41.7697C15.0744 51.2859 27.1857 54.68 36.7626 49.3507Z" fill="white"/>
</mask>
<g mask="url(#mask0_1_592)">
<g style="mix-blend-mode:overlay" opacity="0.6">
<path d="M46.9989 7.03882H2.20361V51.55H46.9989V7.03882Z" fill="white"/>
</g>
</g>
<g style="mix-blend-mode:overlay" opacity="0.6">
<path d="M27.2296 44.8308C34.3017 44.7339 39.9557 38.9587 39.8582 31.9314C39.7607 24.9042 33.9486 19.286 26.8765 19.3829C19.8044 19.4798 14.1503 25.2551 14.2479 32.2823C14.3454 39.3096 20.1575 44.9277 27.2296 44.8308Z" fill="white"/>
</g>
<g style="mix-blend-mode:soft-light">
<path d="M36.8961 32.9513H36.8885C36.4694 32.9513 36.1303 32.6067 36.1341 32.1865C36.1531 29.7747 35.2272 27.503 33.5278 25.7841C31.8246 24.0652 29.5537 23.1074 27.1265 23.0884C26.7074 23.0884 26.3683 22.7439 26.3721 22.3236C26.3721 21.9072 26.715 21.574 27.1342 21.574H27.1418C29.9766 21.5967 32.6286 22.7136 34.6176 24.7202C36.6027 26.7269 37.6849 29.381 37.662 32.1978C37.662 32.6143 37.3191 32.9475 36.8999 32.9475L36.8961 32.9513Z" fill="white"/>
</g>
<path d="M42.3023 53.8764L46.6339 50.1308C47.1916 49.6487 48.0409 49.7072 48.5262 50.2613L59.0591 62.2885C60.1296 63.5109 59.9998 65.3697 58.7696 66.4335L56.8754 68.0714C55.6451 69.1351 53.7744 69.0061 52.7039 67.7837L42.171 55.7566C41.6857 55.2025 41.7447 54.3585 42.3023 53.8764Z" fill="url(#paint2_linear_1_592)"/>
<path d="M27.0423 12.7443C32.6892 12.7443 38.0541 15.1712 41.7577 19.4003C45.1755 23.3038 46.8597 28.294 46.4977 33.4582C46.1357 38.6187 43.7771 43.3325 39.8487 46.7286C36.3013 49.7954 31.7595 51.4878 27.0614 51.4878C21.4145 51.4878 16.0497 49.0609 12.3461 44.8318C8.92822 40.9283 7.24408 35.9382 7.60605 30.7739C7.96803 25.6096 10.3266 20.8997 14.255 17.5035C17.8024 14.4367 22.3443 12.7443 27.0423 12.7443ZM27.0423 12.3657C22.4167 12.3657 17.7681 13.9635 14.0035 17.2158C5.72377 24.3753 4.85121 36.8506 12.0565 45.0779C15.9849 49.5644 21.506 51.8626 27.0576 51.8626C31.6833 51.8626 36.3318 50.2649 40.0964 47.0126C48.3762 39.853 49.2487 27.3777 42.0435 19.1505C38.115 14.6639 32.5939 12.3657 27.0423 12.3657Z" fill="white"/>
<defs>
<linearGradient id="paint0_linear_1_592" x1="52.7964" y1="20.035" x2="0.463446" y2="24.1802" gradientUnits="userSpaceOnUse">
<stop offset="0.230408" stop-color="#32C5FF"/>
<stop offset="0.846616" stop-color="#DFFF13"/>
</linearGradient>
<linearGradient id="paint1_linear_1_592" x1="49.8553" y1="56.5837" x2="40.8957" y2="48.5983" gradientUnits="userSpaceOnUse">
<stop offset="0.461328" stop-color="#E4FF3C"/>
<stop offset="1" stop-color="#32C5FF"/>
</linearGradient>
<linearGradient id="paint2_linear_1_592" x1="44.5772" y1="52.4999" x2="56.7022" y2="67.7044" gradientUnits="userSpaceOnUse">
<stop offset="0.230408" stop-color="#32C5FF"/>
<stop offset="0.846616" stop-color="#DFFF13"/>
</linearGradient>
</defs>
</svg>
