<svg width="126" height="37" viewBox="0 0 126 37" fill="none" xmlns="http://www.w3.org/2000/svg">
<mask id="mask0_1_31" style="mask-type:luminance" maskUnits="userSpaceOnUse" x="0" y="0" width="27" height="32">
<path d="M0 0V31.4878H26.7765V0.000954133L0 0Z" fill="white"/>
</mask>
<g mask="url(#mask0_1_31)">
<path d="M26.6473 15.2513L22.6791 17.713L16.1634 30.1494L16.119 30.2343L16.0293 30.2705L13.0912 31.4365L12.9562 31.489L12.8404 31.406L12.0803 30.8602C11.1929 30.219 9.66891 29.1065 8.31658 28.0588C6.94881 26.9988 5.7701 26.0065 5.61577 25.6258C5.29264 24.8195 0.101312 14.6769 0.0868437 14.6474L0.0829854 14.6378H0.0800917C0.0743042 14.6235 -0.180343 13.6312 0.25275 13.094C0.25275 13.094 15.5567 0.211134 15.7949 0.10427C16.3563 -0.149533 17.0054 0.139573 17.0083 0.141481C17.0083 0.141481 24.8445 4.86259 26.2287 5.72991C26.8807 6.13829 26.7688 7.05617 26.7688 7.05617V15.0309H26.5084L26.6473 15.2513Z" fill="#141414"/>
</g>
<path d="M9.88985 20.0188C9.48859 19.888 7.9009 18.8996 7.44659 18.6248C6.67782 18.161 5.12775 17.5886 6.3026 16.6287C7.02289 16.0451 7.72915 15.4448 8.4208 14.8282C10.6769 12.7959 10.4975 13.1585 13.3613 14.8731C15.3667 16.0734 15.5316 15.9093 13.4732 17.8061L12.4315 18.7221C11.8942 19.1572 10.9875 20.3775 9.88985 20.0188Z" fill="#FDFEFF"/>
<path d="M4.29896 16.5859C3.73565 16.3483 2.61964 15.4209 2.08623 15.0306C0.608502 13.9505 -0.0261867 13.9171 2.25792 12.1062C3.44627 11.1654 4.77256 9.52331 5.84613 10.0204L8.08394 11.5404C9.14304 12.2655 9.88576 12.464 8.76878 13.5613L5.73424 16.2329C5.41304 16.5019 4.8777 16.8292 4.29896 16.5859Z" fill="#E4FF3C"/>
<path d="M9.94778 11.4846C9.24654 11.1354 8.41411 10.4961 7.72444 10.0267C6.89588 9.46185 5.8416 9.04965 7.02416 8.09837L10.0192 5.55558C11.1506 4.64437 12.2357 5.83896 13.6884 6.74062C15.2587 7.71576 15.4864 7.84743 13.3952 9.4981C12.2888 10.3711 11.0705 12.0447 9.94778 11.4846Z" fill="#E4FF3C"/>
<path d="M18.7908 13.1252C18.0336 13.4868 16.3726 13.8122 15.9202 14.2826C15.9357 14.7405 16.0553 14.7501 16.3861 14.9485C15.1901 14.919 15.7032 15.0678 14.1136 14.1165C11.7205 12.6853 10.8244 12.7178 12.7825 11.0986C13.3844 10.5995 13.9168 10.0547 14.5206 9.60056C15.0434 9.20841 15.6077 8.34109 16.7276 8.7237C17.1231 8.85824 18.377 9.66544 18.7821 9.90493C20.2444 10.7656 21.2157 11.0089 19.6329 12.3008C19.4593 12.4439 19.3995 12.5136 19.2355 12.6681C19.1274 12.7693 19.0927 12.7865 19.0088 12.8656L18.9172 12.9563C18.8043 13.0841 18.8892 12.9563 18.7908 13.1252Z" fill="#E4FF3C"/>
<path d="M21.1049 10.0833C20.7267 9.97929 18.2372 8.5099 17.6613 8.13206C16.5743 7.41836 18.079 6.59398 19.0252 5.75815C19.2481 5.56159 19.2915 5.49957 19.5259 5.32306C19.7265 5.1723 19.7786 5.08643 19.9734 4.92041C20.1798 4.7458 20.2888 4.6876 20.4885 4.49772C21.6026 3.43862 22.7089 4.4462 24.1818 5.32019C26.2962 6.5749 26.1612 6.48521 24.4066 8.04619C24.2417 8.19408 24.1558 8.32098 23.9783 8.46792L22.5237 9.7398C22.1784 10.0737 21.6826 10.2407 21.1049 10.0833Z" fill="#FDFEFF"/>
<path d="M15.4312 6.63894C14.6461 6.25728 13.9477 5.75349 13.2397 5.3184C12.4507 4.83178 11.3511 4.43104 12.4536 3.48262C13.068 2.95498 13.7008 2.42734 14.3519 1.88729C14.8737 1.45411 15.6868 0.408365 16.799 0.852997C17.2938 1.0505 18.4561 1.82432 19.004 2.14109C20.0554 2.75365 21.0036 3.05994 19.2027 4.41005C18.0288 5.28787 16.6881 7.2515 15.4312 6.63894Z" fill="#E4FF3C"/>
<path d="M11.1187 25.0393C10.6268 25.0126 8.07932 23.3095 7.62694 22.9278C6.96235 22.3677 6.62668 21.1054 6.26593 20.1198C5.65149 18.4424 6.08941 18.8317 7.83625 19.9194C9.37281 20.8773 10.4329 21.1846 10.7174 22.6692C10.812 23.1616 11.1698 24.6252 11.1187 25.0393Z" fill="#2DAFE2"/>
<path d="M4.53256 17.8585C5.11999 18.578 5.19619 18.931 5.50678 19.7812C5.68909 20.2773 6.22828 21.5396 6.26204 22.0062C5.78265 21.9203 3.46478 20.0502 2.99889 19.3823C2.77029 19.056 0.995475 15.5753 1.15656 15.415C1.53274 15.0429 4.3763 17.6677 4.53256 17.8585Z" fill="#2DAFE2"/>
<path d="M7.5459 23.5394C8.08317 23.4812 9.8464 24.8266 10.3412 25.1519C10.728 25.4067 11.2875 25.8456 11.4264 26.2893C11.5228 26.6013 11.7698 27.8646 11.7736 28.1766C11.3753 28.1346 9.5551 26.7931 9.08921 26.4811C8.53941 26.1109 8.37543 25.9658 8.11885 25.2378C7.93269 24.713 7.61149 24.0041 7.5459 23.5394Z" fill="#2DAFE2"/>
<path d="M3.69824 20.6519C4.03391 20.7721 5.72577 22.1422 6.128 22.4666C6.75497 22.9752 7.38002 24.4217 7.51313 25.3024C7.16781 25.247 5.3737 23.7872 5.0988 23.4876C4.81908 23.1822 3.70017 21.1881 3.69824 20.6519Z" fill="#FDFEFF"/>
<path d="M8.6687 26.6862C9.0854 26.6652 11.6058 28.4781 11.8788 28.8846C12.0871 29.1966 12.1961 29.978 12.2068 30.415C11.8122 30.3749 10.4252 29.2634 10.0017 28.9666C9.21658 28.4161 8.93106 27.9085 8.6687 26.6862Z" fill="#2DAFE2"/>
<path d="M5.31885 24.0562C5.67767 24.1611 6.79464 25.1477 7.21134 25.4616C7.60874 25.7603 7.75439 25.8595 7.94249 26.3366C8.06692 26.6514 8.33603 27.2974 8.36497 27.575C8.08814 27.5436 6.73195 26.4234 6.48405 26.1839C6.2159 25.9263 6.02781 25.6276 5.83489 25.2221C5.67863 24.8939 5.37383 24.4206 5.31885 24.0562Z" fill="#FDFEFF"/>
<path d="M14.9171 14.7142C14.9171 14.7142 14.9171 14.7094 14.92 14.7008L14.9576 14.5052H14.9827C15.0917 14.2266 15.3685 13.7419 16.011 13.5215C16.7006 13.2829 18.2584 12.7343 20.0863 12.0893C23.906 10.7421 28.9237 8.97212 30.1217 8.60191C30.4574 8.49791 30.8355 8.51127 30.9985 8.59332C31.1625 8.67538 35.3815 10.7936 35.8406 11.2487C36.3277 11.7334 35.9979 12.6523 35.9853 12.6857L35.9728 12.7248C35.6979 13.6264 31.9081 26.0351 31.2898 28.2487C31.1547 28.7315 30.6975 29.22 30.6975 29.22L17.0633 36.9047C17.0633 36.9047 16.9321 37.0001 16.6649 37.0001C16.3987 37.0001 16.2232 36.9066 16.2232 36.9066C16.2232 36.9066 11.3926 34.4373 11.3926 33.9087C11.3926 33.1311 14.9056 14.7705 14.9162 14.7161L14.9171 14.7142Z" fill="#141414"/>
<path d="M18.4359 23.1436C18.051 23.0167 16.7537 22.1512 16.3399 21.906C13.9911 20.5149 14.2737 20.7134 14.8814 17.517C15.03 16.7327 15.0261 15.0534 16.0939 15.435C16.4624 15.5667 17.7626 16.4054 18.2053 16.664C18.8294 17.0304 19.8538 17.4416 20.039 18.2173C20.1702 18.7707 19.5239 21.553 19.3513 22.4346C19.25 22.9508 19.0455 23.343 18.4359 23.1436Z" fill="#32C5FF"/>
<path d="M17.1116 29.6356C16.4402 29.3227 15.6367 28.7788 15.0078 28.3943C12.6504 26.9554 13.0333 27.214 13.6227 24.0529C13.7606 23.3163 13.7452 21.6771 14.7879 22.0874C15.3117 22.2944 16.3139 23.0005 16.8714 23.323C19.2095 24.6741 18.9346 24.4718 18.2989 27.6777C18.1446 28.4554 18.1234 30.107 17.1116 29.6356Z" fill="#FDFEFF"/>
<path d="M15.9503 36.1518C15.1941 35.7969 13.7164 34.8179 12.8405 34.2817C11.5046 33.464 11.8952 32.9831 12.3418 30.6674C12.9582 27.4691 12.6216 28.1713 16.5503 30.4336C17.9103 31.216 17.4319 32.2093 17.0133 34.1281C16.8551 34.857 16.8078 36.5535 15.9493 36.1508" fill="#FDFEFF"/>
<path d="M20.0687 23.635C19.6433 23.3487 20.2394 21.5111 20.36 20.9834C21.0121 18.1229 20.7651 18.0389 23.1293 17.1287C23.5055 16.9827 25.3208 16.1717 25.6015 16.3463C26.0703 16.6373 24.6562 21.222 24.4768 21.5082C24.0427 22.2019 23.2537 22.4022 22.4203 22.7839C22.0123 22.97 20.387 23.8487 20.0687 23.635Z" fill="#FF1321"/>
<path d="M20.634 17.0068C19.7601 16.8513 18.974 16.2941 18.2949 15.8905C15.5903 14.2789 14.9537 14.4029 17.9815 13.3725C20.8945 12.3801 20.3292 12.2685 23.03 13.7408C26.0925 15.4086 25.835 15.2445 23.1844 16.336C22.459 16.6347 21.5224 17.1661 20.634 17.0068Z" fill="#FDFEFF"/>
<path d="M18.5043 30.1373C18.2304 29.8415 19.1255 25.8312 19.6656 25.1337C20.1836 24.4668 23.6976 22.9039 23.9609 23.1587C24.2329 23.423 23.6069 25.3188 23.5056 25.7253C23.2953 26.5678 23.167 27.5334 22.6471 28.0925C22.2748 28.4942 22.297 28.4761 21.751 28.7251C21.1125 29.0181 18.7753 30.4302 18.5043 30.1373Z" fill="#32C5FF"/>
<path d="M25.5805 21.1341C25.2496 20.8154 25.8544 19.117 25.9721 18.6666C26.1313 18.056 26.3811 16.7937 26.6579 16.2956C27.1064 15.4855 27.5743 15.4016 28.4848 15.0485C28.8446 14.9092 30.5249 14.1182 30.7747 14.3654C31.0573 14.643 29.8352 18.68 29.6018 19.1265C29.2034 19.8937 28.6748 19.9834 27.7913 20.3841C27.2232 20.6408 25.8621 21.4041 25.5805 21.1341Z" fill="#FF1321"/>
<path d="M21.9536 12.1598C22.2044 11.7352 23.5095 11.4194 24.1046 11.2094C26.3704 10.4127 26.1109 10.5778 28.5513 11.9079C28.9236 12.1102 29.1918 12.2733 29.538 12.4565C31.1923 13.3343 30.3039 13.4183 28.3979 14.2035C26.189 15.1138 26.216 14.8333 23.8162 13.4669C23.2751 13.1588 22.1311 12.7189 21.9536 12.1598Z" fill="#E4FF3C"/>
<path d="M22.3983 29.3828C22.5661 29.7959 22.0761 31.3292 21.9526 31.812C21.7443 32.6259 21.5745 33.5209 21.1135 34.0371C20.8096 34.3787 19.7775 34.9149 19.2297 35.2174C18.8998 35.3987 17.478 36.3681 17.1404 36.1839C16.7767 35.9855 17.0999 35.2785 17.1713 34.9588C18.0027 31.2319 17.6487 31.646 20.1634 30.293C20.5984 30.0583 21.8263 29.2578 22.3983 29.3828Z" fill="#32C5FF"/>
<path d="M29.0152 20.8513C29.1185 21.4571 28.0613 24.9636 27.7401 25.4312C27.3215 26.0351 26.7282 26.2155 25.9392 26.6172C23.414 27.9033 23.5587 27.9434 24.3207 25.0199C24.9476 22.6117 24.7306 22.5277 26.8556 21.5907C27.2983 21.3942 28.5079 20.6337 29.0162 20.8513" fill="#FF1321"/>
<path d="M30.523 19.0229C30.2125 18.543 30.7131 17.4304 30.8838 16.837C31.0864 16.1395 31.2851 15.2598 31.5262 14.5966C31.8329 13.756 32.2525 13.5843 33.0869 13.2608C35.807 12.2075 35.7578 11.946 34.8868 14.6959C34.117 17.1242 34.4691 17.3913 32.6229 18.2281C32.1696 18.4333 30.961 19.0687 30.523 19.0229Z" fill="#FF1321"/>
<path d="M22.3645 33.1939C22.1667 33.0345 23.1014 29.3486 23.5596 28.7475C23.9666 28.2132 24.6959 27.9718 25.3373 27.6302C25.6527 27.4633 27.0523 26.6131 27.279 26.8288C27.5259 27.0625 26.9346 28.7084 26.8227 29.1034C26.189 31.3571 26.4533 31.1529 24.3023 32.3666C23.956 32.5622 22.6693 33.4381 22.3635 33.1939" fill="#32C5FF"/>
<path d="M27.1816 10.1662C27.5491 9.92572 28.6449 9.61467 29.2063 9.40762C30.9522 8.76261 31.1595 9.025 33.2556 10.1996C33.5912 10.3875 33.8314 10.524 34.195 10.7033C34.5635 10.8837 34.9667 11.1547 34.9667 11.3903C34.9667 11.6251 33.5787 12.0745 33.0462 12.2891C32.1829 12.6374 31.7749 12.9141 30.7322 12.4504C30.1284 12.1813 29.4127 11.7386 28.8542 11.4295C27.9803 10.9457 27.2482 10.731 27.1816 10.1662Z" fill="#FDFEFF"/>
<path d="M33.4668 18.7405C33.6366 19.2224 32.4222 22.7804 32.2968 22.9998C31.8917 23.7011 31.4625 23.8032 30.6947 24.1982C30.2838 24.4082 29.1687 25.0493 28.7578 25.0207C28.5215 24.5265 29.0125 23.4187 29.1687 22.8729C29.8622 20.4437 29.6327 20.3244 31.4422 19.5124C31.8907 19.3121 33.0193 18.6461 33.4668 18.7405Z" fill="#32C5FF"/>
<path d="M27.0842 30.5945C27.007 30.1222 27.9745 26.8447 28.2417 26.4373C28.7828 25.6119 31.5039 24.4154 31.6688 24.508C31.9534 24.6683 31.6543 25.2293 31.5704 25.5041C31.472 25.8266 31.3534 26.1873 31.2483 26.5346C31.0611 27.1557 30.8576 28.0841 30.5596 28.565C30.1921 29.1595 27.717 30.6231 27.0842 30.5945Z" fill="#32C5FF"/>
<path d="M52.1917 17.5753H50.6037V8.61029H47.2991V7.23662H55.4963V8.61029H52.1917V17.5753Z" fill="white"/>
<path d="M58.2936 17.5753H56.72V7.23662H60.9831C63.2435 7.23662 64.4594 8.30663 64.4594 10.2153C64.4594 11.5311 63.6726 12.4855 62.5425 12.7458V12.7747C64.9172 13.2229 64.0446 17.3006 64.6025 17.4741V17.5753H62.9144C62.4566 17.1415 63.4294 13.5266 60.9259 13.5266H58.2936V17.5753ZM58.2936 12.1529H60.6398C62.0847 12.1529 62.8715 11.5167 62.8715 10.331C62.8715 9.2176 62.242 8.61029 60.6684 8.61029H58.2936V12.1529Z" fill="white"/>
<path d="M73.49 17.5753H66.1082V7.23662H73.3469V8.61029H67.6818V11.5456H72.6459V12.9193H67.6818V16.2016H73.49V17.5753Z" fill="white"/>
<path d="M76.5391 17.5753H74.9655V7.23662H76.768L81.5176 15.1895H81.5462V7.23662H83.1341V17.5753H81.3316L76.5677 9.62247H76.5391V17.5753Z" fill="white"/>
<path d="M89.0838 17.5753H85.164V7.23662H89.0551C91.8877 7.23662 93.6044 9.08746 93.6044 12.4132C93.6044 15.7389 91.9163 17.5753 89.0838 17.5753ZM86.7376 16.2016H88.9836C91.3584 16.2016 91.9735 14.4086 91.9735 12.4132C91.9735 10.4178 91.3584 8.61029 88.9836 8.61029H86.7376V16.2016Z" fill="white"/>
<path d="M99.7302 17.5753H98.1566V7.23662H102.42C104.351 7.23662 105.767 8.14758 105.767 10.3165C105.767 12.4855 104.351 13.382 102.42 13.382H99.7302V17.5753ZM99.7302 12.0083H102.348C103.536 12.0083 104.136 11.4733 104.136 10.3165C104.136 9.1453 103.536 8.61029 102.348 8.61029H99.7302V12.0083Z" fill="white"/>
<path d="M108.657 17.5753H107.084V7.23662H111.347C113.607 7.23662 114.823 8.30663 114.823 10.2153C114.823 11.5311 114.036 12.4855 112.906 12.7458V12.7747C115.281 13.2229 114.408 17.3006 114.966 17.4741V17.5753H113.278C112.82 17.1415 113.793 13.5266 111.29 13.5266H108.657V17.5753ZM108.657 12.1529H111.003C112.448 12.1529 113.235 11.5167 113.235 10.331C113.235 9.2176 112.606 8.61029 111.032 8.61029H108.657V12.1529Z" fill="white"/>
<path d="M120.979 17.7777C117.917 17.7777 115.957 15.5076 115.957 12.3987C115.957 9.28989 117.917 7.03418 120.979 7.03418C124.04 7.03418 126 9.28989 126 12.3987C126 15.5076 124.04 17.7777 120.979 17.7777ZM120.979 16.4041C123.396 16.4041 124.355 14.5243 124.355 12.3987C124.355 10.2732 123.396 8.40785 120.979 8.40785C118.561 8.40785 117.602 10.2732 117.602 12.3987C117.602 14.5243 118.561 16.4041 120.979 16.4041Z" fill="white"/>
<path d="M50.3972 29.5124H47.7813V22.1276H50.4278C52.4715 22.1276 53.6058 23.553 53.6058 25.8355C53.6058 28.1181 52.4409 29.5124 50.3972 29.5124ZM48.5272 28.8514H50.3972C52.2263 28.8514 52.8292 27.4674 52.8292 25.8355C52.8292 24.1933 52.2569 22.7887 50.4176 22.7887H48.5272V28.8514Z" fill="white"/>
<path d="M55.3492 23.1915H54.4909V22.3239H55.3492V23.1915ZM55.2572 29.5124H54.593V24.245H55.2572V29.5124Z" fill="white"/>
<path d="M60.2905 25.0712V24.245H60.9547V29.1819C60.9547 30.6795 60.0351 31.4025 58.6045 31.4025C57.1943 31.4025 56.4484 30.7105 56.3667 29.7913H57.0615C57.1637 30.3594 57.6031 30.8138 58.6147 30.8138C59.6672 30.8138 60.2905 30.349 60.2905 29.2749V28.2937H60.2701C59.9635 28.8411 59.3913 29.2645 58.5125 29.2645C57.2659 29.2645 56.2236 28.4383 56.2236 26.6825C56.2236 24.9473 57.2659 24.121 58.5125 24.121C59.3913 24.121 59.9635 24.5445 60.2701 25.0712H60.2905ZM58.6045 28.6758C59.565 28.6758 60.2905 28.0355 60.2905 26.6825C60.2905 25.3501 59.565 24.7097 58.6045 24.7097C57.5316 24.7097 56.9184 25.4947 56.9184 26.6825C56.9184 27.8909 57.5316 28.6758 58.6045 28.6758Z" fill="white"/>
<path d="M62.9232 23.1915H62.0649V22.3239H62.9232V23.1915ZM62.8313 29.5124H62.1671V24.245H62.8313V29.5124Z" fill="white"/>
<path d="M66.0559 24.245V24.8337H65.0034V28.1594C65.0034 28.8101 65.1464 28.965 65.6574 28.965C65.8209 28.965 65.9026 28.9547 66.0559 28.9444V29.5124C65.8515 29.5434 65.7289 29.5537 65.5654 29.5537C64.8092 29.5537 64.3392 29.2955 64.3392 28.1491V24.8337H63.5728V24.245H64.3392V22.4891H65.0034V24.245H66.0559Z" fill="white"/>
<path d="M68.3476 29.6467C67.3053 29.6467 66.6411 29.058 66.6411 28.1801C66.6411 27.0439 67.4382 26.6825 68.787 26.4449C69.6453 26.29 70.1971 26.228 70.1971 25.598C70.1971 25.0609 69.8497 24.6994 69.0118 24.6994C68.0002 24.6994 67.6425 25.0609 67.5914 25.8355H66.8864C66.9375 24.906 67.5199 24.1107 69.0322 24.1107C69.9928 24.1107 70.8409 24.5238 70.8409 25.7839V28.4176C70.8409 28.8411 70.9022 29.0373 71.1372 29.0373C71.1781 29.0373 71.219 29.0373 71.2803 29.027V29.5124C71.1679 29.5331 71.0555 29.5537 70.9329 29.5537C70.4935 29.5537 70.238 29.3782 70.1971 28.7171H70.1767C69.8191 29.3162 69.1957 29.6467 68.3476 29.6467ZM68.4294 29.058C69.4921 29.058 70.1971 28.4899 70.1971 27.5397V26.5585C70.0439 26.7754 69.4921 26.8994 68.8687 27.0026C67.8571 27.1885 67.336 27.4468 67.336 28.1181C67.336 28.7275 67.6732 29.058 68.4294 29.058Z" fill="white"/>
<path d="M72.8301 29.5124H72.1659V22.1276H72.8301V29.5124Z" fill="white"/>
<path d="M77.7178 29.6467C76.6756 29.6467 76.0114 29.058 76.0114 28.1801C76.0114 27.0439 76.8084 26.6825 78.1572 26.4449C79.0156 26.29 79.5674 26.228 79.5674 25.598C79.5674 25.0609 79.2199 24.6994 78.382 24.6994C77.3704 24.6994 77.0128 25.0609 76.9617 25.8355H76.2566C76.3077 24.906 76.8901 24.1107 78.4025 24.1107C79.363 24.1107 80.2111 24.5238 80.2111 25.7839V28.4176C80.2111 28.8411 80.2724 29.0373 80.5075 29.0373C80.5483 29.0373 80.5892 29.0373 80.6505 29.027V29.5124C80.5381 29.5331 80.4257 29.5537 80.3031 29.5537C79.8637 29.5537 79.6082 29.3782 79.5674 28.7171H79.5469C79.1893 29.3162 78.566 29.6467 77.7178 29.6467ZM77.7996 29.058C78.8623 29.058 79.5674 28.4899 79.5674 27.5397V26.5585C79.4141 26.7754 78.8623 26.8994 78.239 27.0026C77.2273 27.1885 76.7062 27.4468 76.7062 28.1181C76.7062 28.7275 77.0434 29.058 77.7996 29.058Z" fill="white"/>
<path d="M85.2878 25.0712V24.245H85.952V29.1819C85.952 30.6795 85.0323 31.4025 83.6017 31.4025C82.1916 31.4025 81.4456 30.7105 81.3639 29.7913H82.0587C82.1609 30.3594 82.6003 30.8138 83.6119 30.8138C84.6644 30.8138 85.2878 30.349 85.2878 29.2749V28.2937H85.2673C84.9608 28.8411 84.3886 29.2645 83.5098 29.2645C82.2631 29.2645 81.2208 28.4383 81.2208 26.6825C81.2208 24.9473 82.2631 24.121 83.5098 24.121C84.3886 24.121 84.9608 24.5445 85.2673 25.0712H85.2878ZM83.6017 28.6758C84.5623 28.6758 85.2878 28.0355 85.2878 26.6825C85.2878 25.3501 84.5623 24.7097 83.6017 24.7097C82.5288 24.7097 81.9157 25.4947 81.9157 26.6825C81.9157 27.8909 82.5288 28.6758 83.6017 28.6758Z" fill="white"/>
<path d="M91.7217 26.6411C91.7217 26.7857 91.7217 26.9303 91.7115 27.013H87.5832C87.5935 28.0768 88.1555 29.0786 89.3817 29.0786C90.4546 29.0786 90.8736 28.335 90.9758 27.9012H91.6502C91.3947 28.8617 90.6794 29.657 89.3715 29.657C87.7774 29.657 86.8884 28.4796 86.8884 26.8787C86.8884 25.1952 87.8694 24.1107 89.3715 24.1107C90.8736 24.1107 91.7217 25.1745 91.7217 26.6411ZM87.5832 26.4242H91.0166C91.0166 25.4844 90.4138 24.6891 89.3408 24.6891C88.3292 24.6891 87.6343 25.4431 87.5832 26.4242Z" fill="white"/>
<path d="M95.1256 24.121C96.0555 24.121 96.832 24.6478 96.832 25.8149V29.5124H96.1679V25.9595C96.1679 25.2881 95.8613 24.7097 94.9621 24.7097C93.9709 24.7097 93.3169 25.4121 93.3169 26.1867V29.5124H92.6527V24.245H93.3169V24.9989H93.3373C93.6337 24.5651 94.1957 24.121 95.1256 24.121Z" fill="white"/>
<path d="M100.229 29.6467C98.7367 29.6467 97.7353 28.5312 97.7353 26.8787C97.7353 25.2365 98.7367 24.121 100.229 24.121C101.496 24.121 102.354 24.9783 102.466 26.0937H101.772C101.731 25.505 101.312 24.7097 100.229 24.7097C98.9513 24.7097 98.4301 25.8045 98.4301 26.8787C98.4301 27.9632 98.9513 29.0683 100.229 29.0683C101.322 29.0683 101.731 28.273 101.772 27.6327H102.466C102.395 28.7688 101.496 29.6467 100.229 29.6467Z" fill="white"/>
<path d="M103.73 31.3612C103.567 31.3612 103.444 31.3509 103.229 31.3199V30.7415C103.383 30.7622 103.464 30.7725 103.628 30.7725C104.118 30.7725 104.517 30.4523 104.803 29.4814L102.698 24.245H103.434L105.13 28.6345H105.15L106.765 24.245H107.48L105.396 29.6674C104.885 30.9791 104.425 31.3612 103.73 31.3612Z" fill="white"/>
</svg>
