<svg width="68" height="57" viewBox="0 0 68 57" fill="none" xmlns="http://www.w3.org/2000/svg">
<path d="M6.72312 42.9999H5.39312L3.01312 39.8999H2.06312V42.9999H0.943115V35.9999H2.06312V39.0299H3.00312L5.21312 35.9999H6.51312L3.87312 39.3899L6.72312 42.9999Z" fill="#383838"/>
<path d="M7.46265 42.3899C7.00265 41.8966 6.77265 41.2266 6.77265 40.3799C6.77265 39.5333 7.00265 38.8666 7.46265 38.3799C7.92931 37.8866 8.55265 37.6399 9.33265 37.6399C10.1193 37.6399 10.7426 37.8866 11.2026 38.3799C11.6693 38.8666 11.9026 39.5333 11.9026 40.3799C11.9026 41.2266 11.6693 41.8966 11.2026 42.3899C10.7426 42.8766 10.1193 43.1199 9.33265 43.1199C8.55265 43.1199 7.92931 42.8766 7.46265 42.3899ZM8.23265 38.9999C7.96598 39.3466 7.83265 39.8066 7.83265 40.3799C7.83265 40.9533 7.96598 41.4133 8.23265 41.7599C8.50598 42.1066 8.87265 42.2799 9.33265 42.2799C9.79265 42.2799 10.1593 42.1066 10.4326 41.7599C10.706 41.4133 10.8426 40.9533 10.8426 40.3799C10.8426 39.8066 10.706 39.3466 10.4326 38.9999C10.1593 38.6533 9.79265 38.4799 9.33265 38.4799C8.87265 38.4799 8.50598 38.6533 8.23265 38.9999Z" fill="#383838"/>
<path d="M17.6613 37.7599H19.4313V42.9999H18.4113V38.4999L16.8413 42.9999H15.5313L13.9713 38.4999V42.9999H12.9413V37.7599H14.7213L16.2013 42.3999L17.6613 37.7599Z" fill="#383838"/>
<path d="M20.7538 42.9999V37.7599H25.3338V42.9999H24.2638V38.6399H21.8238V42.9999H20.7538Z" fill="#383838"/>
<path d="M27.2123 37.7599H31.0823V42.9999H30.0123V38.6399H28.1523C28.1323 38.8866 28.1089 39.2299 28.0823 39.6699C28.0623 40.0433 28.0456 40.3166 28.0323 40.4899C28.0189 40.6566 27.9989 40.8799 27.9723 41.1599C27.9456 41.4333 27.9189 41.6333 27.8923 41.7599C27.8656 41.8799 27.8256 42.0333 27.7723 42.2199C27.7256 42.3999 27.6689 42.5299 27.6023 42.6099C27.5423 42.6833 27.4656 42.7633 27.3723 42.8499C27.2789 42.9366 27.1723 42.9933 27.0523 43.0199C26.9323 43.0533 26.7956 43.0699 26.6423 43.0699C26.4623 43.0699 26.3023 43.0566 26.1623 43.0299V42.1699C26.2356 42.1766 26.3189 42.1799 26.4123 42.1799C26.6923 42.1799 26.8856 41.8299 26.9923 41.1299C27.0389 40.7966 27.1056 39.8133 27.1923 38.1799C27.1989 38.0333 27.2056 37.8933 27.2123 37.7599Z" fill="#383838"/>
<path d="M32.1242 40.3799C32.1242 39.4799 32.3575 38.7999 32.8242 38.3399C33.2909 37.8733 33.9109 37.6399 34.6842 37.6399C36.3175 37.6399 37.1342 38.6133 37.1342 40.5599V40.6899H33.1942C33.2342 41.2299 33.3909 41.6433 33.6642 41.9299C33.9442 42.2099 34.3075 42.3499 34.7542 42.3499C35.3875 42.3499 35.8175 42.0799 36.0442 41.5399L37.0642 41.6099C36.9242 42.0833 36.6542 42.4533 36.2542 42.7199C35.8609 42.9866 35.3609 43.1199 34.7542 43.1199C33.9475 43.1199 33.3075 42.8899 32.8342 42.4299C32.3609 41.9699 32.1242 41.2866 32.1242 40.3799ZM33.2042 39.9899H36.0742C36.0542 39.4966 35.9209 39.1099 35.6742 38.8299C35.4275 38.5499 35.0975 38.4099 34.6842 38.4099C34.2709 38.4099 33.9309 38.5433 33.6642 38.8099C33.4042 39.0766 33.2509 39.4699 33.2042 39.9899Z" fill="#383838"/>
<path d="M42.9862 42.9999H41.6562L39.8462 40.7699H39.2262V42.9999H38.1562V37.7599H39.2262V39.9299H39.8662L41.5762 37.7599H42.8462L40.6262 40.2599L42.9862 42.9999Z" fill="#383838"/>
<path d="M43.091 40.3799C43.091 39.5066 43.3143 38.8333 43.761 38.3599C44.2077 37.8799 44.8143 37.6399 45.581 37.6399C46.2077 37.6399 46.7343 37.8066 47.161 38.1399C47.5877 38.4666 47.841 38.9299 47.921 39.5299L46.891 39.6199C46.8243 39.2466 46.671 38.9633 46.431 38.7699C46.1977 38.5766 45.9143 38.4799 45.581 38.4799C45.1477 38.4799 44.801 38.6466 44.541 38.9799C44.281 39.3133 44.151 39.7799 44.151 40.3799C44.151 40.9799 44.281 41.4466 44.541 41.7799C44.8077 42.1133 45.1643 42.2799 45.611 42.2799C45.9643 42.2799 46.2577 42.1799 46.491 41.9799C46.731 41.7733 46.8843 41.4766 46.951 41.0899L47.981 41.1699C47.901 41.7899 47.6443 42.2699 47.211 42.6099C46.7843 42.9499 46.251 43.1199 45.611 43.1199C44.831 43.1199 44.2143 42.8833 43.761 42.4099C43.3143 41.9366 43.091 41.2599 43.091 40.3799Z" fill="#383838"/>
<path d="M48.9472 42.9999V37.7599H50.0172V39.8899H52.5172V37.7599H53.5872V42.9999H52.5172V40.7699H50.0172V42.9999H48.9472Z" fill="#383838"/>
<path d="M57.1442 39.6899C58.5309 39.6899 59.2242 40.2399 59.2242 41.3399C59.2242 42.4466 58.5309 42.9999 57.1442 42.9999H54.9042V37.7599H55.9742V39.6899H57.1442ZM60.0042 37.7599H61.0742V42.9999H60.0042V37.7599ZM57.0642 42.1799C57.7909 42.1799 58.1542 41.8966 58.1542 41.3299C58.1542 40.7699 57.7909 40.4899 57.0642 40.4899H55.9742V42.1799H57.0642Z" fill="#383838"/>
<path d="M65.8944 36.7099C65.6478 36.9633 65.2844 37.0899 64.8044 37.0899C64.3244 37.0899 63.9578 36.9633 63.7044 36.7099C63.4578 36.4566 63.3278 36.1133 63.3144 35.6799H64.0244C64.0444 35.8933 64.1144 36.0799 64.2344 36.2399C64.3611 36.3933 64.5511 36.4699 64.8044 36.4699C65.2644 36.4699 65.5244 36.2066 65.5844 35.6799H66.2844C66.2711 36.1133 66.1411 36.4566 65.8944 36.7099ZM65.6244 37.7599H67.2144V42.9999H66.1844V38.5399L63.9844 42.9999H62.3944V37.7599H63.4244V42.2199L65.6244 37.7599Z" fill="#383838"/>
<path d="M21.4547 54.1199H22.0947V56.3999H21.0847V54.9999H17.6447V56.3999H16.6347V54.1199H17.0347C17.1414 53.8866 17.228 53.5399 17.2947 53.0799C17.3614 52.6133 17.4081 52.1833 17.4347 51.7899C17.4614 51.3899 17.5014 50.7133 17.5547 49.7599H21.4547V54.1199ZM20.3847 54.1199V50.6399H18.4747C18.468 50.7466 18.4547 50.9099 18.4347 51.1299C18.4214 51.3499 18.4114 51.5066 18.4047 51.5999C18.398 51.6866 18.3881 51.8233 18.3747 52.0099C18.3614 52.1899 18.3514 52.3233 18.3447 52.4099C18.3381 52.4899 18.328 52.6033 18.3147 52.7499C18.3014 52.8899 18.2881 52.9999 18.2747 53.0799C18.2614 53.1599 18.2447 53.2566 18.2247 53.3699C18.2114 53.4833 18.1947 53.5766 18.1747 53.6499C18.1614 53.7233 18.1447 53.8033 18.1247 53.8899C18.1047 53.9699 18.0814 54.0466 18.0547 54.1199H20.3847Z" fill="#383838"/>
<path d="M26.1664 49.7599H27.7564V54.9999H26.7264V50.5399L24.5264 54.9999H22.9364V49.7599H23.9664V54.2199L26.1664 49.7599Z" fill="#383838"/>
<path d="M31.749 52.2899C32.829 52.3966 33.369 52.8366 33.369 53.6099C33.369 54.0566 33.1923 54.4199 32.839 54.6999C32.4857 54.9799 31.8957 55.1199 31.069 55.1199C29.5557 55.1199 28.759 54.5366 28.679 53.3699L29.709 53.3199C29.7623 53.9733 30.2157 54.2999 31.069 54.2999C31.889 54.2999 32.299 54.0199 32.299 53.4599C32.299 52.9399 31.859 52.6799 30.979 52.6799H30.369V51.9799H30.929C31.3357 51.9799 31.6357 51.9133 31.829 51.7799C32.029 51.6399 32.129 51.4566 32.129 51.2299C32.129 50.9899 32.0323 50.8033 31.839 50.6699C31.6523 50.5299 31.399 50.4599 31.079 50.4599C30.7457 50.4599 30.469 50.5366 30.249 50.6899C30.0357 50.8433 29.9123 51.0766 29.879 51.3899L28.849 51.3299C28.889 50.7566 29.109 50.3333 29.509 50.0599C29.9157 49.7799 30.439 49.6399 31.079 49.6399C31.7857 49.6399 32.3157 49.7666 32.669 50.0199C33.0223 50.2666 33.199 50.5999 33.199 51.0199C33.199 51.7266 32.7157 52.1499 31.749 52.2899Z" fill="#383838"/>
<path d="M34.112 53.6099C34.112 52.6499 34.8153 52.1033 36.222 51.9699L37.702 51.8299V51.4299C37.702 51.1233 37.6053 50.8766 37.412 50.6899C37.2253 50.5033 36.942 50.4099 36.562 50.4099C36.222 50.4099 35.942 50.4899 35.722 50.6499C35.502 50.8033 35.382 51.0299 35.362 51.3299H34.382C34.402 50.7499 34.612 50.3233 35.012 50.0499C35.412 49.7766 35.9286 49.6399 36.562 49.6399C37.2753 49.6399 37.822 49.8099 38.202 50.1499C38.582 50.4899 38.772 50.9899 38.772 51.6499V54.9999H37.782V53.9799C37.6153 54.3399 37.3653 54.6199 37.032 54.8199C36.6986 55.0199 36.2953 55.1199 35.822 55.1199C35.2553 55.1199 34.8286 54.9799 34.542 54.6999C34.2553 54.4199 34.112 54.0566 34.112 53.6099ZM35.172 53.5599C35.172 53.7999 35.252 53.9966 35.412 54.1499C35.5787 54.2966 35.8253 54.3699 36.152 54.3699C36.6253 54.3699 37.002 54.2233 37.282 53.9299C37.562 53.6299 37.702 53.2466 37.702 52.7799V52.4999L36.362 52.6299C35.5687 52.7099 35.172 53.0199 35.172 53.5599Z" fill="#383838"/>
<path d="M43.5458 48.7099C43.2991 48.9633 42.9358 49.0899 42.4558 49.0899C41.9758 49.0899 41.6091 48.9633 41.3558 48.7099C41.1091 48.4566 40.9791 48.1133 40.9658 47.6799H41.6758C41.6958 47.8933 41.7658 48.0799 41.8858 48.2399C42.0125 48.3933 42.2025 48.4699 42.4558 48.4699C42.9158 48.4699 43.1758 48.2066 43.2358 47.6799H43.9358C43.9225 48.1133 43.7925 48.4566 43.5458 48.7099ZM43.2758 49.7599H44.8658V54.9999H43.8358V50.5399L41.6358 54.9999H40.0458V49.7599H41.0758V54.2199L43.2758 49.7599Z" fill="#383838"/>
<path d="M46.1884 54.9999V49.7599H47.2584V51.8899H49.7584V49.7599H50.8284V54.9999H49.7584V52.7699H47.2584V54.9999H46.1884Z" fill="#383838"/>
<path d="M47.057 10.9679H44.8953C44.6342 10.0539 44.286 9.21244 43.8218 8.41451L45.3451 6.89119C45.7223 6.51399 45.7223 5.91917 45.3451 5.54197L42.429 2.62591C42.0663 2.24871 41.457 2.24871 41.0943 2.62591L39.5565 4.14921C38.7731 3.69947 37.9026 3.35129 37.0031 3.10466V0.943C37.0031 0.42072 36.5824 0 36.0456 0H31.9254C31.4031 0 30.9824 0.42072 30.9824 0.943V3.10466C30.0684 3.3658 29.2124 3.71398 28.4145 4.17823L26.8912 2.65493C26.5285 2.27772 25.9192 2.27772 25.5565 2.65493L22.6404 5.57098C22.2632 5.93367 22.2632 6.54301 22.6404 6.9057L24.1637 8.44353C23.714 9.22695 23.3513 10.0974 23.1192 10.9969H20.9575C20.4352 10.9969 20 11.4176 20 11.9544V16.0746C20 16.5969 20.4352 17.0176 20.9575 17.0176H23.1192C23.3803 17.9316 23.7285 18.7876 24.1782 19.5855L22.6694 21.1088C22.2922 21.4715 22.2922 22.0808 22.6694 22.4435L25.5855 25.3596C25.9482 25.7368 26.5575 25.7368 26.9202 25.3596L28.458 23.8363C29.2415 24.286 30.0974 24.6487 31.0114 24.8808V27.0425C31.0114 27.5648 31.4321 28 31.9544 28H36.0891C36.6114 28 37.0321 27.5648 37.0321 27.0425V24.8808C37.3803 24.7793 37.7285 24.6632 38.0477 24.5326L35.1896 21.6746C34.7979 21.7471 34.4062 21.7762 34 21.7762C29.7057 21.7762 26.225 18.2943 26.225 14.0011C26.225 9.70793 29.7068 6.21156 34 6.21156C38.2932 6.21156 41.7896 9.69342 41.7896 14.0011C41.7896 14.4073 41.7605 14.799 41.688 15.1908L44.546 18.0343C44.6911 17.7006 44.7927 17.3524 44.8942 16.9897H47.0559C47.5781 16.9897 47.9989 16.569 47.9989 16.0467V11.912C47.9989 11.3897 47.5781 10.969 47.0559 10.969L47.057 10.9679Z" fill="#B9D700"/>
<path d="M38.8164 15.5902C39.072 14.8201 39.1479 13.9686 38.9928 13.0837C38.6658 11.2166 37.2384 9.64643 35.416 9.12862C34.4362 8.84962 33.4977 8.87641 32.6473 9.11746C32.3214 9.21009 32.211 9.61966 32.4509 9.85959L34.4061 11.8148C35.1181 12.5268 35.1181 13.6818 34.4061 14.3938C33.6941 15.1058 32.5391 15.1058 31.8271 14.3938L29.873 12.4397C29.633 12.1998 29.2235 12.3092 29.1308 12.635C28.8898 13.4854 28.863 14.4251 29.1386 15.4071C29.6531 17.2307 31.2255 18.658 33.0926 18.9816C33.9787 19.1345 34.8313 19.0586 35.6013 18.8031L42.6777 25.8795C43.0181 26.2199 43.5683 26.2199 43.9087 25.8795L45.8918 23.8964C46.2322 23.556 46.2322 23.0059 45.8918 22.6655L38.8164 15.5902Z" fill="#91A800"/>
</svg>
