<svg width="53" height="48" viewBox="0 0 53 48" fill="none" xmlns="http://www.w3.org/2000/svg">
<path d="M35.1059 9.96086C34.517 9.96086 33.9911 9.83523 33.5283 9.58396C33.074 9.32432 32.7164 8.96835 32.4555 8.51607C32.2031 8.05541 32.0769 7.53193 32.0769 6.94564C32.0769 6.753 32.14 6.59805 32.2662 6.48079C32.3924 6.35516 32.5481 6.29234 32.7332 6.29234C32.9267 6.29234 33.0824 6.35516 33.2002 6.48079C33.3264 6.59805 33.3895 6.753 33.3895 6.94564C33.3895 7.30579 33.461 7.62407 33.604 7.90046C33.7555 8.17686 33.9574 8.39462 34.2099 8.55376C34.4707 8.70452 34.7694 8.7799 35.1059 8.7799C35.4425 8.7799 35.7412 8.70452 36.002 8.55376C36.2629 8.39462 36.4648 8.17686 36.6078 7.90046C36.7593 7.62407 36.835 7.30579 36.835 6.94564V0.676491C36.835 0.483852 36.8939 0.328903 37.0117 0.211645C37.1379 0.0860104 37.2936 0.0231934 37.4787 0.0231934C37.6722 0.0231934 37.8321 0.0860104 37.9583 0.211645C38.0845 0.328903 38.1476 0.483852 38.1476 0.676491V6.94564C38.1476 7.53193 38.0172 8.05541 37.7563 8.51607C37.4955 8.96835 37.1379 9.32432 36.6836 9.58396C36.2292 9.83523 35.7033 9.96086 35.1059 9.96086Z" fill="#383838"/>
<path d="M49.5093 9.93981C48.8516 9.93981 48.2614 9.78822 47.7386 9.48503C47.2159 9.17343 46.8027 8.75234 46.4992 8.22177C46.1957 7.6912 46.0397 7.09326 46.0312 6.42794V0.667457C46.0312 0.473757 46.0903 0.317955 46.2083 0.20005C46.3348 0.0821456 46.4908 0.0231934 46.6763 0.0231934C46.8702 0.0231934 47.0262 0.0821456 47.1442 0.20005C47.2623 0.317955 47.3213 0.473757 47.3213 0.667457V4.07827C47.6164 3.72455 47.9705 3.44664 48.3836 3.24451C48.8052 3.03397 49.2647 2.9287 49.7622 2.9287C50.3777 2.9287 50.93 3.0845 51.419 3.39611C51.908 3.69929 52.2917 4.11617 52.5699 4.64674C52.8566 5.16889 52.9999 5.76262 52.9999 6.42794C52.9999 7.09326 52.8439 7.6912 52.532 8.22177C52.2284 8.75234 51.8153 9.17343 51.2925 9.48503C50.7698 9.78822 50.1753 9.93981 49.5093 9.93981ZM49.5093 8.80287C49.9393 8.80287 50.3229 8.70181 50.6602 8.49969C50.9974 8.28915 51.263 8.00281 51.4569 7.64067C51.6593 7.27853 51.7605 6.87429 51.7605 6.42794C51.7605 5.97316 51.6593 5.56892 51.4569 5.2152C51.263 4.86149 50.9974 4.58357 50.6602 4.38145C50.3229 4.17091 49.9393 4.06564 49.5093 4.06564C49.0877 4.06564 48.704 4.17091 48.3583 4.38145C48.0211 4.58357 47.7555 4.86149 47.5616 5.2152C47.3676 5.56892 47.2707 5.97316 47.2707 6.42794C47.2707 6.87429 47.3676 7.27853 47.5616 7.64067C47.7555 8.00281 48.0211 8.28915 48.3583 8.49969C48.704 8.70181 49.0877 8.80287 49.5093 8.80287Z" fill="#383838"/>
<path d="M42.0849 9.9823C41.4019 9.9823 40.7991 9.83492 40.2763 9.54016C39.7536 9.23698 39.3404 8.82431 39.0369 8.30216C38.7418 7.77159 38.5942 7.16523 38.5942 6.48306C38.5942 5.79248 38.7418 5.18611 39.0369 4.66396C39.3404 4.13339 39.7536 3.72073 40.2763 3.42597C40.7991 3.12278 41.4019 2.97119 42.0849 2.97119C42.7594 2.97119 43.358 3.12278 43.8808 3.42597C44.4036 3.72073 44.8125 4.13339 45.1076 4.66396C45.4111 5.18611 45.5629 5.79248 45.5629 6.48306C45.5629 7.16523 45.4153 7.77159 45.1202 8.30216C44.8251 8.82431 44.4162 9.23698 43.8934 9.54016C43.3707 9.83492 42.7678 9.9823 42.0849 9.9823ZM42.0849 8.84537C42.5233 8.84537 42.9112 8.7443 43.2484 8.54218C43.5857 8.34006 43.8471 8.06214 44.0326 7.70843C44.2265 7.35471 44.3235 6.94626 44.3235 6.48306C44.3235 6.01987 44.2265 5.61141 44.0326 5.2577C43.8471 4.89556 43.5857 4.61343 43.2484 4.41131C42.9112 4.20919 42.5233 4.10813 42.0849 4.10813C41.6464 4.10813 41.2586 4.20919 40.9213 4.41131C40.5841 4.61343 40.3185 4.89556 40.1246 5.2577C39.9306 5.61141 39.8337 6.01987 39.8337 6.48306C39.8337 6.94626 39.9306 7.35471 40.1246 7.70843C40.3185 8.06214 40.5841 8.34006 40.9213 8.54218C41.2586 8.7443 41.6464 8.84537 42.0849 8.84537Z" fill="#383838"/>
<path d="M26.8887 9.98742C27.5464 9.98742 28.1366 9.83582 28.6593 9.53264C29.1821 9.22104 29.5952 8.79995 29.8987 8.26938C30.2023 7.73881 30.3583 7.14086 30.3667 6.47554V0.715065C30.3667 0.521365 30.3077 0.365562 30.1896 0.247658C30.0632 0.129753 29.9072 0.0708008 29.7217 0.0708008C29.5278 0.0708008 29.3718 0.129753 29.2537 0.247658C29.1357 0.365562 29.0767 0.521365 29.0767 0.715065V4.12588C28.7816 3.77216 28.4274 3.49424 28.0143 3.29212C27.5927 3.08158 27.1332 2.97631 26.6358 2.97631C26.0203 2.97631 25.468 3.13211 24.979 3.44371C24.4899 3.7469 24.1063 4.16377 23.8281 4.69434C23.5414 5.21649 23.398 5.81023 23.398 6.47554C23.398 7.14086 23.554 7.73881 23.866 8.26938C24.1695 8.79995 24.5827 9.22104 25.1054 9.53264C25.6282 9.83582 26.2226 9.98742 26.8887 9.98742ZM26.8887 8.85048C26.4587 8.85048 26.0751 8.74942 25.7378 8.5473C25.4005 8.33675 25.1349 8.05041 24.941 7.68828C24.7387 7.32614 24.6375 6.9219 24.6375 6.47554C24.6375 6.02077 24.7387 5.61653 24.941 5.26281C25.1349 4.9091 25.4005 4.63118 25.7378 4.42906C26.0751 4.21851 26.4587 4.11324 26.8887 4.11324C27.3103 4.11324 27.6939 4.21851 28.0396 4.42906C28.3769 4.63118 28.6425 4.9091 28.8364 5.26281C29.0303 5.61653 29.1273 6.02077 29.1273 6.47554C29.1273 6.9219 29.0303 7.32614 28.8364 7.68828C28.6425 8.05041 28.3769 8.33675 28.0396 8.5473C27.6939 8.74942 27.3103 8.85048 26.8887 8.85048Z" fill="#32C5FF"/>
<path d="M19.4926 9.99988C18.8096 9.99988 18.2068 9.8525 17.684 9.55774C17.1613 9.25456 16.7481 8.84189 16.4446 8.31974C16.1495 7.78917 16.002 7.1828 16.002 6.50064C16.002 5.81006 16.1495 5.20369 16.4446 4.68154C16.7481 4.15097 17.1613 3.73831 17.684 3.44354C18.2068 3.14036 18.8096 2.98877 19.4926 2.98877C20.1671 2.98877 20.7658 3.14036 21.2885 3.44354C21.8113 3.73831 22.2202 4.15097 22.5153 4.68154C22.8188 5.20369 22.9706 5.81006 22.9706 6.50064C22.9706 7.1828 22.8231 7.78917 22.5279 8.31974C22.2328 8.84189 21.8239 9.25456 21.3012 9.55774C20.7784 9.8525 20.1756 9.99988 19.4926 9.99988ZM19.4926 8.86294C19.931 8.86294 20.3189 8.76188 20.6562 8.55976C20.9934 8.35764 21.2548 8.07972 21.4403 7.72601C21.6342 7.37229 21.7312 6.96384 21.7312 6.50064C21.7312 6.03745 21.6342 5.62899 21.4403 5.27528C21.2548 4.91314 20.9934 4.63101 20.6562 4.42889C20.3189 4.22677 19.931 4.12571 19.4926 4.12571C19.0542 4.12571 18.6663 4.22677 18.3291 4.42889C17.9918 4.63101 17.7262 4.91314 17.5323 5.27528C17.3383 5.62899 17.2414 6.03745 17.2414 6.50064C17.2414 6.96384 17.3383 7.37229 17.5323 7.72601C17.7262 8.07972 17.9918 8.35764 18.3291 8.55976C18.6663 8.76188 19.0542 8.86294 19.4926 8.86294Z" fill="#32C5FF"/>
<path d="M12.0969 9.92908C11.4139 9.92908 10.811 9.7817 10.2883 9.48694C9.76554 9.18375 9.35239 8.77109 9.04886 8.24894C8.75375 7.71837 8.6062 7.112 8.6062 6.42984C8.6062 5.73926 8.75375 5.13289 9.04886 4.61074C9.35239 4.08017 9.76554 3.6675 10.2883 3.37274C10.811 3.06956 11.4139 2.91797 12.0969 2.91797C12.7714 2.91797 13.37 3.06956 13.8928 3.37274C14.4155 3.6675 14.8244 4.08017 15.1196 4.61074C15.4231 5.13289 15.5749 5.73926 15.5749 6.42984C15.5749 7.112 15.4273 7.71837 15.1322 8.24894C14.8371 8.77109 14.4282 9.18375 13.9054 9.48694C13.3827 9.7817 12.7798 9.92908 12.0969 9.92908ZM12.0969 8.79214C12.5353 8.79214 12.9231 8.69108 13.2604 8.48896C13.5977 8.28684 13.859 8.00892 14.0445 7.65521C14.2385 7.30149 14.3354 6.89304 14.3354 6.42984C14.3354 5.96664 14.2385 5.55819 14.0445 5.20448C13.859 4.84234 13.5977 4.56021 13.2604 4.35809C12.9231 4.15597 12.5353 4.05491 12.0969 4.05491C11.6584 4.05491 11.2706 4.15597 10.9333 4.35809C10.596 4.56021 10.3304 4.84234 10.1365 5.20448C9.9426 5.55819 9.84563 5.96664 9.84563 6.42984C9.84563 6.89304 9.9426 7.30149 10.1365 7.65521C10.3304 8.00892 10.596 8.28684 10.9333 8.48896C11.2706 8.69108 11.6584 8.79214 12.0969 8.79214Z" fill="#32C5FF"/>
<path d="M4.85681 9.93767C4.17736 9.93767 3.53985 9.81361 2.94429 9.56547C2.35711 9.30907 1.84123 8.95755 1.39665 8.51091C0.960458 8.05601 0.616539 7.52666 0.36489 6.92287C0.12163 6.31908 0 5.66567 0 4.96263C0 4.26786 0.12163 3.62272 0.36489 3.02721C0.616539 2.42342 0.960458 1.89821 1.39665 1.45157C1.84123 0.996662 2.35711 0.641006 2.94429 0.384603C3.53147 0.128201 4.16898 0 4.85681 0C5.50271 0 6.05634 0.0827105 6.51769 0.248131C6.98744 0.413552 7.45718 0.686497 7.92693 1.06697C7.99403 1.11659 8.04436 1.17035 8.07792 1.22825C8.11986 1.27788 8.14502 1.33164 8.15341 1.38954C8.17019 1.43916 8.17857 1.5012 8.17857 1.57564C8.17857 1.73279 8.11986 1.86512 8.00242 1.97265C7.89337 2.08017 7.75497 2.13807 7.5872 2.14634C7.42782 2.15461 7.27683 2.10085 7.13423 1.98505C6.82387 1.72038 6.50092 1.51774 6.16539 1.37713C5.83824 1.23652 5.40205 1.16622 4.85681 1.16622C4.36191 1.16622 3.89636 1.26547 3.46017 1.46398C3.02398 1.66248 2.63811 1.93543 2.30258 2.28281C1.97544 2.63019 1.7196 3.03548 1.53506 3.49866C1.35051 3.95356 1.25824 4.44156 1.25824 4.96263C1.25824 5.49198 1.35051 5.98824 1.53506 6.45142C1.7196 6.90633 1.97544 7.30748 2.30258 7.65486C2.63811 8.00224 3.02398 8.27519 3.46017 8.47369C3.89636 8.66393 4.36191 8.75905 4.85681 8.75905C5.28462 8.75905 5.68725 8.68874 6.06473 8.54813C6.45059 8.39925 6.81967 8.19661 7.17198 7.94021C7.32297 7.83269 7.46976 7.7872 7.61237 7.80374C7.76335 7.81201 7.88918 7.86991 7.98984 7.97743C8.0905 8.07668 8.14083 8.21729 8.14083 8.39925C8.14083 8.48197 8.12405 8.56468 8.0905 8.64739C8.06533 8.72183 8.015 8.79213 7.93951 8.8583C7.49493 9.22222 7.0126 9.49517 6.49253 9.67713C5.97246 9.85083 5.42722 9.93767 4.85681 9.93767ZM8.14083 8.39925L6.88258 8.15112V5.93035H5.14621C4.96167 5.93035 4.80649 5.87658 4.68066 5.76906C4.55484 5.66154 4.49192 5.52506 4.49192 5.35964C4.49192 5.19422 4.55484 5.05775 4.68066 4.95023C4.80649 4.8427 4.96167 4.78894 5.14621 4.78894H7.49912C7.69205 4.78894 7.84724 4.85097 7.96467 4.97504C8.08211 5.09083 8.14083 5.24385 8.14083 5.43408V8.39925Z" fill="#32C5FF"/>
<path d="M15.604 27V34H14.484V27.92H11.144V34H10.024V27H15.604Z" fill="#383838"/>
<path d="M17.4908 33.39C17.0308 32.8967 16.8008 32.2267 16.8008 31.38C16.8008 30.5334 17.0308 29.8667 17.4908 29.38C17.9575 28.8867 18.5808 28.64 19.3608 28.64C20.1475 28.64 20.7708 28.8867 21.2308 29.38C21.6975 29.8667 21.9308 30.5334 21.9308 31.38C21.9308 32.2267 21.6975 32.8967 21.2308 33.39C20.7708 33.8767 20.1475 34.12 19.3608 34.12C18.5808 34.12 17.9575 33.8767 17.4908 33.39ZM18.2608 30C17.9941 30.3467 17.8608 30.8067 17.8608 31.38C17.8608 31.9534 17.9941 32.4134 18.2608 32.76C18.5341 33.1067 18.9008 33.28 19.3608 33.28C19.8208 33.28 20.1875 33.1067 20.4608 32.76C20.7341 32.4134 20.8708 31.9534 20.8708 31.38C20.8708 30.8067 20.7341 30.3467 20.4608 30C20.1875 29.6534 19.8208 29.48 19.3608 29.48C18.9008 29.48 18.5341 29.6534 18.2608 30Z" fill="#383838"/>
<path d="M27.1909 33.12H27.8309V35.4H26.8209V34H23.3809V35.4H22.3709V33.12H22.7709C22.8776 32.8867 22.9642 32.54 23.0309 32.08C23.0976 31.6134 23.1442 31.1834 23.1709 30.79C23.1976 30.39 23.2376 29.7134 23.2909 28.76H27.1909V33.12ZM26.1209 33.12V29.64H24.2109C24.2042 29.7467 24.1909 29.91 24.1709 30.13C24.1576 30.35 24.1476 30.5067 24.1409 30.6C24.1342 30.6867 24.1242 30.8234 24.1109 31.01C24.0976 31.19 24.0876 31.3234 24.0809 31.41C24.0742 31.49 24.0642 31.6034 24.0509 31.75C24.0376 31.89 24.0242 32 24.0109 32.08C23.9976 32.16 23.9809 32.2567 23.9609 32.37C23.9476 32.4834 23.9309 32.5767 23.9109 32.65C23.8976 32.7234 23.8809 32.8034 23.8609 32.89C23.8409 32.97 23.8176 33.0467 23.7909 33.12H26.1209Z" fill="#383838"/>
<path d="M31.1152 28.93C31.8152 28.93 32.3819 29.1667 32.8152 29.64C33.2552 30.1067 33.4752 30.7367 33.4752 31.53C33.4752 32.33 33.2452 32.9634 32.7852 33.43C32.3252 33.89 31.6985 34.12 30.9052 34.12C29.1985 34.12 28.3452 33 28.3452 30.76C28.3452 29.6267 28.5085 28.7567 28.8352 28.15C29.1619 27.5367 29.6919 27.1467 30.4252 26.98C30.5385 26.9534 31.0052 26.8834 31.8252 26.77C32.3185 26.6967 32.6919 26.6134 32.9452 26.52V27.36C32.7519 27.4667 32.4185 27.5567 31.9452 27.63C31.8119 27.65 31.6419 27.6734 31.4352 27.7C31.2285 27.72 31.0685 27.7367 30.9552 27.75C30.6952 27.7834 30.4719 27.8434 30.2852 27.93C30.0985 28.0167 29.9185 28.1534 29.7452 28.34C29.5719 28.5267 29.4319 28.7967 29.3252 29.15C29.2185 29.4967 29.1452 29.9267 29.1052 30.44C29.2452 29.9667 29.4852 29.5967 29.8252 29.33C30.1719 29.0634 30.6019 28.93 31.1152 28.93ZM29.8052 32.81C30.0719 33.1234 30.4385 33.28 30.9052 33.28C31.3719 33.28 31.7385 33.1234 32.0052 32.81C32.2785 32.4967 32.4152 32.07 32.4152 31.53C32.4152 30.99 32.2785 30.5634 32.0052 30.25C31.7385 29.93 31.3719 29.77 30.9052 29.77C30.4452 29.77 30.0785 29.93 29.8052 30.25C29.5385 30.5634 29.4052 30.99 29.4052 31.53C29.4052 32.07 29.5385 32.4967 29.8052 32.81Z" fill="#383838"/>
<path d="M34.9225 33.39C34.4625 32.8967 34.2325 32.2267 34.2325 31.38C34.2325 30.5334 34.4625 29.8667 34.9225 29.38C35.3891 28.8867 36.0124 28.64 36.7924 28.64C37.5791 28.64 38.2025 28.8867 38.6625 29.38C39.1291 29.8667 39.3624 30.5334 39.3624 31.38C39.3624 32.2267 39.1291 32.8967 38.6625 33.39C38.2025 33.8767 37.5791 34.12 36.7924 34.12C36.0124 34.12 35.3891 33.8767 34.9225 33.39ZM35.6925 30C35.4258 30.3467 35.2924 30.8067 35.2924 31.38C35.2924 31.9534 35.4258 32.4134 35.6925 32.76C35.9658 33.1067 36.3325 33.28 36.7924 33.28C37.2524 33.28 37.6191 33.1067 37.8925 32.76C38.1658 32.4134 38.3025 31.9534 38.3025 31.38C38.3025 30.8067 38.1658 30.3467 37.8925 30C37.6191 29.6534 37.2524 29.48 36.7924 29.48C36.3325 29.48 35.9658 29.6534 35.6925 30Z" fill="#383838"/>
<path d="M40.4011 36V28.76H41.3911V29.81C41.5578 29.4367 41.8011 29.15 42.1211 28.95C42.4411 28.7434 42.8011 28.64 43.2011 28.64C43.8545 28.64 44.3845 28.8867 44.7911 29.38C45.2045 29.8667 45.4111 30.5334 45.4111 31.38C45.4111 32.2267 45.2045 32.8967 44.7911 33.39C44.3845 33.8767 43.8578 34.12 43.2111 34.12C42.4245 34.12 41.8445 33.77 41.4711 33.07V36H40.4011ZM41.8111 30C41.5511 30.3467 41.4211 30.8067 41.4211 31.38C41.4211 31.9534 41.5511 32.4134 41.8111 32.76C42.0778 33.1067 42.4345 33.28 42.8811 33.28C43.3345 33.28 43.6911 33.1067 43.9511 32.76C44.2178 32.4134 44.3511 31.9534 44.3511 31.38C44.3511 30.8067 44.2178 30.3467 43.9511 30C43.6911 29.6534 43.3345 29.48 42.8811 29.48C42.4345 29.48 42.0778 29.6534 41.8111 30Z" fill="#383838"/>
<path d="M2.04663 46V40.76H6.62663V46H5.55663V41.64H3.11663V46H2.04663Z" fill="#383838"/>
<path d="M7.66507 43.38C7.66507 42.48 7.8984 41.8 8.36507 41.34C8.83174 40.8734 9.45173 40.64 10.2251 40.64C11.8584 40.64 12.6751 41.6134 12.6751 43.56V43.69H8.73507C8.77507 44.23 8.93174 44.6434 9.20507 44.93C9.48507 45.21 9.8484 45.35 10.2951 45.35C10.9284 45.35 11.3584 45.08 11.5851 44.54L12.6051 44.61C12.4651 45.0834 12.1951 45.4534 11.7951 45.72C11.4017 45.9867 10.9017 46.12 10.2951 46.12C9.4884 46.12 8.8484 45.89 8.37507 45.43C7.90173 44.97 7.66507 44.2867 7.66507 43.38ZM8.74507 42.99H11.6151C11.5951 42.4967 11.4617 42.11 11.2151 41.83C10.9684 41.55 10.6384 41.41 10.2251 41.41C9.81173 41.41 9.47174 41.5434 9.20507 41.81C8.94507 42.0767 8.79174 42.47 8.74507 42.99Z" fill="#383838"/>
<path d="M13.697 48V40.76H14.687V41.81C14.8537 41.4367 15.097 41.15 15.417 40.95C15.737 40.7434 16.097 40.64 16.497 40.64C17.1504 40.64 17.6804 40.8867 18.087 41.38C18.5004 41.8667 18.707 42.5334 18.707 43.38C18.707 44.2267 18.5004 44.8967 18.087 45.39C17.6804 45.8767 17.1537 46.12 16.507 46.12C15.7204 46.12 15.1404 45.77 14.767 45.07V48H13.697ZM15.107 42C14.847 42.3467 14.717 42.8067 14.717 43.38C14.717 43.9534 14.847 44.4134 15.107 44.76C15.3737 45.1067 15.7304 45.28 16.177 45.28C16.6304 45.28 16.987 45.1067 17.247 44.76C17.5137 44.4134 17.647 43.9534 17.647 43.38C17.647 42.8067 17.5137 42.3467 17.247 42C16.987 41.6534 16.6304 41.48 16.177 41.48C15.7304 41.48 15.3737 41.6534 15.107 42Z" fill="#383838"/>
<path d="M19.4717 43.38C19.4717 42.5067 19.695 41.8334 20.1417 41.36C20.5884 40.88 21.195 40.64 21.9617 40.64C22.5884 40.64 23.115 40.8067 23.5417 41.14C23.9684 41.4667 24.2217 41.93 24.3017 42.53L23.2717 42.62C23.205 42.2467 23.0517 41.9634 22.8117 41.77C22.5784 41.5767 22.295 41.48 21.9617 41.48C21.5284 41.48 21.1817 41.6467 20.9217 41.98C20.6617 42.3134 20.5317 42.78 20.5317 43.38C20.5317 43.98 20.6617 44.4467 20.9217 44.78C21.1884 45.1134 21.545 45.28 21.9917 45.28C22.345 45.28 22.6384 45.18 22.8717 44.98C23.1117 44.7734 23.265 44.4767 23.3317 44.09L24.3617 44.17C24.2817 44.79 24.025 45.27 23.5917 45.61C23.165 45.95 22.6317 46.12 21.9917 46.12C21.2117 46.12 20.595 45.8834 20.1417 45.41C19.695 44.9367 19.4717 44.26 19.4717 43.38Z" fill="#383838"/>
<path d="M25.7379 45.39C25.2779 44.8967 25.0479 44.2267 25.0479 43.38C25.0479 42.5334 25.2779 41.8667 25.7379 41.38C26.2045 40.8867 26.8279 40.64 27.6079 40.64C28.3945 40.64 29.0179 40.8867 29.4779 41.38C29.9445 41.8667 30.1779 42.5334 30.1779 43.38C30.1779 44.2267 29.9445 44.8967 29.4779 45.39C29.0179 45.8767 28.3945 46.12 27.6079 46.12C26.8279 46.12 26.2045 45.8767 25.7379 45.39ZM26.5079 42C26.2412 42.3467 26.1079 42.8067 26.1079 43.38C26.1079 43.9534 26.2412 44.4134 26.5079 44.76C26.7812 45.1067 27.1479 45.28 27.6079 45.28C28.0679 45.28 28.4345 45.1067 28.7079 44.76C28.9812 44.4134 29.1179 43.9534 29.1179 43.38C29.1179 42.8067 28.9812 42.3467 28.7079 42C28.4345 41.6534 28.0679 41.48 27.6079 41.48C27.1479 41.48 26.7812 41.6534 26.5079 42Z" fill="#383838"/>
<path d="M31.2166 46V40.76H32.2866V42.89H34.7866V40.76H35.8566V46H34.7866V43.77H32.2866V46H31.2166Z" fill="#383838"/>
<path d="M36.9136 44.61C36.9136 43.65 37.6169 43.1034 39.0236 42.97L40.5036 42.83V42.43C40.5036 42.1234 40.4069 41.8767 40.2136 41.69C40.0269 41.5034 39.7436 41.41 39.3636 41.41C39.0236 41.41 38.7436 41.49 38.5236 41.65C38.3036 41.8034 38.1836 42.03 38.1636 42.33H37.1836C37.2036 41.75 37.4136 41.3234 37.8136 41.05C38.2136 40.7767 38.7302 40.64 39.3636 40.64C40.0769 40.64 40.6236 40.81 41.0036 41.15C41.3836 41.49 41.5736 41.99 41.5736 42.65V46H40.5836V44.98C40.4169 45.34 40.1669 45.62 39.8336 45.82C39.5003 46.02 39.0969 46.12 38.6236 46.12C38.0569 46.12 37.6302 45.98 37.3436 45.7C37.0569 45.42 36.9136 45.0567 36.9136 44.61ZM37.9736 44.56C37.9736 44.8 38.0536 44.9967 38.2136 45.15C38.3803 45.2967 38.6269 45.37 38.9536 45.37C39.4269 45.37 39.8036 45.2234 40.0836 44.93C40.3636 44.63 40.5036 44.2467 40.5036 43.78V43.5L39.1636 43.63C38.3703 43.71 37.9736 44.02 37.9736 44.56Z" fill="#383838"/>
<path d="M43.4074 40.76H47.2774V46H46.2074V41.64H44.3474C44.3274 41.8867 44.3041 42.23 44.2774 42.67C44.2574 43.0434 44.2407 43.3167 44.2274 43.49C44.2141 43.6567 44.1941 43.88 44.1674 44.16C44.1407 44.4334 44.1141 44.6334 44.0874 44.76C44.0607 44.88 44.0207 45.0334 43.9674 45.22C43.9207 45.4 43.8641 45.53 43.7974 45.61C43.7374 45.6834 43.6607 45.7634 43.5674 45.85C43.4741 45.9367 43.3674 45.9934 43.2474 46.02C43.1274 46.0534 42.9907 46.07 42.8374 46.07C42.6574 46.07 42.4974 46.0567 42.3574 46.03V45.17C42.4307 45.1767 42.5141 45.18 42.6074 45.18C42.8874 45.18 43.0807 44.83 43.1874 44.13C43.2341 43.7967 43.3007 42.8134 43.3874 41.18C43.3941 41.0334 43.4007 40.8934 43.4074 40.76Z" fill="#383838"/>
<path d="M48.3394 44.61C48.3394 43.65 49.0427 43.1034 50.4494 42.97L51.9294 42.83V42.43C51.9294 42.1234 51.8327 41.8767 51.6394 41.69C51.4527 41.5034 51.1694 41.41 50.7894 41.41C50.4494 41.41 50.1694 41.49 49.9494 41.65C49.7294 41.8034 49.6094 42.03 49.5894 42.33H48.6094C48.6294 41.75 48.8394 41.3234 49.2394 41.05C49.6394 40.7767 50.156 40.64 50.7894 40.64C51.5027 40.64 52.0494 40.81 52.4294 41.15C52.8094 41.49 52.9994 41.99 52.9994 42.65V46H52.0094V44.98C51.8427 45.34 51.5927 45.62 51.2594 45.82C50.926 46.02 50.5227 46.12 50.0494 46.12C49.4827 46.12 49.056 45.98 48.7694 45.7C48.4827 45.42 48.3394 45.0567 48.3394 44.61ZM49.3994 44.56C49.3994 44.8 49.4794 44.9967 49.6394 45.15C49.806 45.2967 50.0527 45.37 50.3794 45.37C50.8527 45.37 51.2294 45.2234 51.5094 44.93C51.7894 44.63 51.9294 44.2467 51.9294 43.78V43.5L50.5894 43.63C49.796 43.71 49.3994 44.02 49.3994 44.56Z" fill="#383838"/>
</svg>
