<svg width="54" height="57" viewBox="0 0 54 57" fill="none" xmlns="http://www.w3.org/2000/svg">
<path d="M6.01626 35.9999H7.13626V42.9999H6.01626V39.8999H2.63626V42.9999H1.51626V35.9999H2.63626V38.9799H6.01626V35.9999Z" fill="#383838"/>
<path d="M8.35212 41.6099C8.35212 40.6499 9.05545 40.1033 10.4621 39.9699L11.9421 39.8299V39.4299C11.9421 39.1233 11.8455 38.8766 11.6521 38.6899C11.4655 38.5033 11.1821 38.4099 10.8021 38.4099C10.4621 38.4099 10.1821 38.4899 9.96212 38.6499C9.74212 38.8033 9.62212 39.0299 9.60212 39.3299H8.62212C8.64212 38.7499 8.85212 38.3233 9.25212 38.0499C9.65212 37.7766 10.1688 37.6399 10.8021 37.6399C11.5155 37.6399 12.0621 37.8099 12.4421 38.1499C12.8221 38.4899 13.0121 38.9899 13.0121 39.6499V42.9999H12.0221V41.9799C11.8555 42.3399 11.6055 42.6199 11.2721 42.8199C10.9388 43.0199 10.5355 43.1199 10.0621 43.1199C9.49545 43.1199 9.06879 42.9799 8.78212 42.6999C8.49545 42.4199 8.35212 42.0566 8.35212 41.6099ZM9.41212 41.5599C9.41212 41.7999 9.49212 41.9966 9.65212 42.1499C9.81879 42.2966 10.0655 42.3699 10.3921 42.3699C10.8655 42.3699 11.2421 42.2233 11.5221 41.9299C11.8021 41.6299 11.9421 41.2466 11.9421 40.7799V40.4999L10.6021 40.6299C9.80879 40.7099 9.41212 41.0199 9.41212 41.5599Z" fill="#383838"/>
<path d="M14.0059 40.3799C14.0059 39.5066 14.2293 38.8333 14.6759 38.3599C15.1226 37.8799 15.7293 37.6399 16.4959 37.6399C17.1226 37.6399 17.6493 37.8066 18.0759 38.1399C18.5026 38.4666 18.7559 38.9299 18.8359 39.5299L17.8059 39.6199C17.7393 39.2466 17.5859 38.9633 17.3459 38.7699C17.1126 38.5766 16.8293 38.4799 16.4959 38.4799C16.0626 38.4799 15.7159 38.6466 15.4559 38.9799C15.1959 39.3133 15.0659 39.7799 15.0659 40.3799C15.0659 40.9799 15.1959 41.4466 15.4559 41.7799C15.7226 42.1133 16.0793 42.2799 16.5259 42.2799C16.8793 42.2799 17.1726 42.1799 17.4059 41.9799C17.6459 41.7733 17.7993 41.4766 17.8659 41.0899L18.8959 41.1699C18.8159 41.7899 18.5593 42.2699 18.1259 42.6099C17.6993 42.9499 17.1659 43.1199 16.5259 43.1199C15.7459 43.1199 15.1293 42.8833 14.6759 42.4099C14.2293 41.9366 14.0059 41.2599 14.0059 40.3799Z" fill="#383838"/>
<path d="M19.3342 38.6399V37.7599H23.9242V38.6399H22.1642V42.9999H21.0942V38.6399H19.3342Z" fill="#383838"/>
<path d="M24.8035 44.9999V37.7599H25.7935V38.8099C25.9602 38.4366 26.2035 38.1499 26.5235 37.9499C26.8435 37.7433 27.2035 37.6399 27.6035 37.6399C28.2569 37.6399 28.7869 37.8866 29.1935 38.3799C29.6069 38.8666 29.8135 39.5333 29.8135 40.3799C29.8135 41.2266 29.6069 41.8966 29.1935 42.3899C28.7869 42.8766 28.2602 43.1199 27.6135 43.1199C26.8269 43.1199 26.2469 42.7699 25.8735 42.0699V44.9999H24.8035ZM26.2135 38.9999C25.9535 39.3466 25.8235 39.8066 25.8235 40.3799C25.8235 40.9533 25.9535 41.4133 26.2135 41.7599C26.4802 42.1066 26.8369 42.2799 27.2835 42.2799C27.7369 42.2799 28.0935 42.1066 28.3535 41.7599C28.6202 41.4133 28.7535 40.9533 28.7535 40.3799C28.7535 39.8066 28.6202 39.3466 28.3535 38.9999C28.0935 38.6533 27.7369 38.4799 27.2835 38.4799C26.8369 38.4799 26.4802 38.6533 26.2135 38.9999Z" fill="#383838"/>
<path d="M31.2682 42.3899C30.8082 41.8966 30.5782 41.2266 30.5782 40.3799C30.5782 39.5333 30.8082 38.8666 31.2682 38.3799C31.7349 37.8866 32.3582 37.6399 33.1382 37.6399C33.9249 37.6399 34.5482 37.8866 35.0082 38.3799C35.4749 38.8666 35.7082 39.5333 35.7082 40.3799C35.7082 41.2266 35.4749 41.8966 35.0082 42.3899C34.5482 42.8766 33.9249 43.1199 33.1382 43.1199C32.3582 43.1199 31.7349 42.8766 31.2682 42.3899ZM32.0382 38.9999C31.7715 39.3466 31.6382 39.8066 31.6382 40.3799C31.6382 40.9533 31.7715 41.4133 32.0382 41.7599C32.3115 42.1066 32.6782 42.2799 33.1382 42.2799C33.5982 42.2799 33.9649 42.1066 34.2382 41.7599C34.5115 41.4133 34.6482 40.9533 34.6482 40.3799C34.6482 39.8066 34.5115 39.3466 34.2382 38.9999C33.9649 38.6533 33.5982 38.4799 33.1382 38.4799C32.6782 38.4799 32.3115 38.6533 32.0382 38.9999Z" fill="#383838"/>
<path d="M40.2469 36.7099C40.0002 36.9633 39.6369 37.0899 39.1569 37.0899C38.6769 37.0899 38.3102 36.9633 38.0569 36.7099C37.8102 36.4566 37.6802 36.1133 37.6669 35.6799H38.3769C38.3969 35.8933 38.4669 36.0799 38.5869 36.2399C38.7136 36.3933 38.9035 36.4699 39.1569 36.4699C39.6169 36.4699 39.8769 36.2066 39.9369 35.6799H40.6369C40.6236 36.1133 40.4936 36.4566 40.2469 36.7099ZM39.9769 37.7599H41.5669V42.9999H40.5369V38.5399L38.3369 42.9999H36.7469V37.7599H37.7769V42.2199L39.9769 37.7599Z" fill="#383838"/>
<path d="M47.7195 42.9999H46.3895L44.5795 40.7699H43.9595V42.9999H42.8895V37.7599H43.9595V39.9299H44.5995L46.3095 37.7599H47.5795L45.3595 40.2599L47.7195 42.9999Z" fill="#383838"/>
<path d="M48.0299 41.6099C48.0299 40.6499 48.7332 40.1033 50.1399 39.9699L51.6199 39.8299V39.4299C51.6199 39.1233 51.5232 38.8766 51.3299 38.6899C51.1432 38.5033 50.8599 38.4099 50.4799 38.4099C50.1399 38.4099 49.8599 38.4899 49.6399 38.6499C49.4199 38.8033 49.2999 39.0299 49.2799 39.3299H48.2999C48.3199 38.7499 48.5299 38.3233 48.9299 38.0499C49.3299 37.7766 49.8465 37.6399 50.4799 37.6399C51.1932 37.6399 51.7399 37.8099 52.1199 38.1499C52.4999 38.4899 52.6899 38.9899 52.6899 39.6499V42.9999H51.6999V41.9799C51.5332 42.3399 51.2832 42.6199 50.9499 42.8199C50.6165 43.0199 50.2132 43.1199 49.7399 43.1199C49.1732 43.1199 48.7465 42.9799 48.4599 42.6999C48.1732 42.4199 48.0299 42.0566 48.0299 41.6099ZM49.0899 41.5599C49.0899 41.7999 49.1699 41.9966 49.3299 42.1499C49.4965 42.2966 49.7432 42.3699 50.0699 42.3699C50.5432 42.3699 50.9199 42.2233 51.1999 41.9299C51.4799 41.6299 51.6199 41.2466 51.6199 40.7799V40.4999L50.2799 40.6299C49.4865 40.7099 49.0899 41.0199 49.0899 41.5599Z" fill="#383838"/>
<path d="M0.408447 50.6399V49.7599H4.99845V50.6399H3.23845V54.9999H2.16845V50.6399H0.408447Z" fill="#383838"/>
<path d="M5.3829 52.3799C5.3829 51.4799 5.61623 50.7999 6.0829 50.3399C6.54957 49.8733 7.16957 49.6399 7.9429 49.6399C9.57623 49.6399 10.3929 50.6133 10.3929 52.5599V52.6899H6.4529C6.4929 53.2299 6.64957 53.6433 6.9229 53.9299C7.2029 54.2099 7.56623 54.3499 8.0129 54.3499C8.64623 54.3499 9.07623 54.0799 9.3029 53.5399L10.3229 53.6099C10.1829 54.0833 9.9129 54.4533 9.5129 54.7199C9.11957 54.9866 8.61957 55.1199 8.0129 55.1199C7.20623 55.1199 6.56623 54.8899 6.0929 54.4299C5.61957 53.9699 5.3829 53.2866 5.3829 52.3799ZM6.4629 51.9899H9.3329C9.3129 51.4966 9.17957 51.1099 8.9329 50.8299C8.68623 50.5499 8.35623 50.4099 7.9429 50.4099C7.52957 50.4099 7.18957 50.5433 6.9229 50.8099C6.6629 51.0766 6.50957 51.4699 6.4629 51.9899Z" fill="#383838"/>
<path d="M11.8967 49.7599H15.7667V54.9999H14.6967V50.6399H12.8367C12.8167 50.8866 12.7934 51.2299 12.7667 51.6699C12.7467 52.0433 12.7301 52.3166 12.7167 52.4899C12.7034 52.6566 12.6834 52.8799 12.6567 53.1599C12.6301 53.4333 12.6034 53.6333 12.5767 53.7599C12.5501 53.8799 12.5101 54.0333 12.4567 54.2199C12.4101 54.3999 12.3534 54.5299 12.2867 54.6099C12.2267 54.6833 12.1501 54.7633 12.0567 54.8499C11.9634 54.9366 11.8567 54.9933 11.7367 55.0199C11.6167 55.0533 11.4801 55.0699 11.3267 55.0699C11.1467 55.0699 10.9867 55.0566 10.8467 55.0299V54.1699C10.9201 54.1766 11.0034 54.1799 11.0967 54.1799C11.3767 54.1799 11.5701 53.8299 11.6767 53.1299C11.7234 52.7966 11.7901 51.8133 11.8767 50.1799C11.8834 50.0333 11.8901 49.8933 11.8967 49.7599Z" fill="#383838"/>
<path d="M16.8087 52.3799C16.8087 51.4799 17.042 50.7999 17.5087 50.3399C17.9753 49.8733 18.5953 49.6399 19.3687 49.6399C21.002 49.6399 21.8187 50.6133 21.8187 52.5599V52.6899H17.8787C17.9187 53.2299 18.0753 53.6433 18.3487 53.9299C18.6287 54.2099 18.992 54.3499 19.4387 54.3499C20.072 54.3499 20.502 54.0799 20.7287 53.5399L21.7487 53.6099C21.6087 54.0833 21.3387 54.4533 20.9387 54.7199C20.5453 54.9866 20.0453 55.1199 19.4387 55.1199C18.632 55.1199 17.992 54.8899 17.5187 54.4299C17.0453 53.9699 16.8087 53.2866 16.8087 52.3799ZM17.8887 51.9899H20.7587C20.7387 51.4966 20.6053 51.1099 20.3587 50.8299C20.112 50.5499 19.782 50.4099 19.3687 50.4099C18.9553 50.4099 18.6153 50.5433 18.3487 50.8099C18.0887 51.0766 17.9353 51.4699 17.8887 51.9899Z" fill="#383838"/>
<path d="M26.5206 49.6399C27.394 49.6399 28.0706 49.8833 28.5506 50.3699C29.0373 50.8566 29.2806 51.5266 29.2806 52.3799C29.2806 53.2333 29.0373 53.9033 28.5506 54.3899C28.0706 54.8766 27.394 55.1199 26.5206 55.1199H26.4606V56.9999H25.4206V55.1199H25.3506C24.4773 55.1199 23.7973 54.8766 23.3106 54.3899C22.824 53.9033 22.5806 53.2333 22.5806 52.3799C22.5806 51.5266 22.824 50.8566 23.3106 50.3699C23.7973 49.8833 24.4773 49.6399 25.3506 49.6399H25.4206V47.6399H26.4606V49.6399H26.5206ZM25.3806 54.2799H25.4206V50.4799H25.3806C24.8406 50.4799 24.4106 50.6499 24.0906 50.9899C23.7773 51.3233 23.6206 51.7866 23.6206 52.3799C23.6206 52.9733 23.7773 53.4399 24.0906 53.7799C24.4106 54.1133 24.8406 54.2799 25.3806 54.2799ZM26.4906 54.2799C27.0306 54.2799 27.454 54.1133 27.7606 53.7799C28.074 53.4399 28.2306 52.9733 28.2306 52.3799C28.2306 51.7866 28.074 51.3233 27.7606 50.9899C27.454 50.6499 27.0306 50.4799 26.4906 50.4799H26.4606V54.2799H26.4906Z" fill="#383838"/>
<path d="M30.7506 54.3899C30.2906 53.8966 30.0606 53.2266 30.0606 52.3799C30.0606 51.5333 30.2906 50.8666 30.7506 50.3799C31.2173 49.8866 31.8406 49.6399 32.6206 49.6399C33.4073 49.6399 34.0306 49.8866 34.4906 50.3799C34.9573 50.8666 35.1906 51.5333 35.1906 52.3799C35.1906 53.2266 34.9573 53.8966 34.4906 54.3899C34.0306 54.8766 33.4073 55.1199 32.6206 55.1199C31.8406 55.1199 31.2173 54.8766 30.7506 54.3899ZM31.5206 50.9999C31.254 51.3466 31.1206 51.8066 31.1206 52.3799C31.1206 52.9533 31.254 53.4133 31.5206 53.7599C31.794 54.1066 32.1606 54.2799 32.6206 54.2799C33.0806 54.2799 33.4473 54.1066 33.7206 53.7599C33.994 53.4133 34.1306 52.9533 34.1306 52.3799C34.1306 51.8066 33.994 51.3466 33.7206 50.9999C33.4473 50.6533 33.0806 50.4799 32.6206 50.4799C32.1606 50.4799 31.794 50.6533 31.5206 50.9999Z" fill="#383838"/>
<path d="M36.2293 54.9999V49.7599H37.2993V51.8899H39.7993V49.7599H40.8693V54.9999H39.7993V52.7699H37.2993V54.9999H36.2293Z" fill="#383838"/>
<path d="M45.4163 49.7599H47.0063V54.9999H45.9763V50.5399L43.7763 54.9999H42.1863V49.7599H43.2163V54.2199L45.4163 49.7599Z" fill="#383838"/>
<path d="M51.5589 49.7599H53.1489V54.9999H52.1189V50.5399L49.9189 54.9999H48.3289V49.7599H49.3589V54.2199L51.5589 49.7599Z" fill="#383838"/>
<path d="M36.8651 20.6718C36.4953 20.1802 36.0011 19.7575 35.4524 19.4668L35.1437 19.3037C37.4715 17.4906 38.8509 14.6933 38.8509 11.7473C38.8509 6.45453 34.5484 2.14818 29.2597 2.14818C26.2866 2.14818 23.479 3.5374 21.6787 5.88309L21.4999 5.54355C21.2156 4.99208 20.8125 4.5083 20.3271 4.13436C22.5572 1.50351 25.7991 0 29.2597 0C35.7334 0 40.9999 5.26948 40.9999 11.7462C40.9999 15.2026 39.495 18.4415 36.864 20.6696L36.8651 20.6718Z" fill="#32C5FF"/>
<path d="M34.1465 21.9789L29.6608 19.662C29.0277 19.3347 28.2514 19.5045 27.8127 20.0659L26.1668 22.1753C24.5642 21.3087 23.347 20.4887 21.9332 19.0762C20.425 17.5693 19.6253 16.331 18.7979 14.7732L20.8859 13.1454C21.4478 12.7071 21.6178 11.9315 21.2901 11.299L18.9823 6.84064C18.5769 6.05726 17.5796 5.79983 16.8455 6.28916L13.989 8.19212C13.326 8.63374 12.9517 9.39492 13.005 10.1883C13.0605 11.0005 13.1616 12.0247 13.3482 12.7393C14.18 15.9371 16.1802 19.2348 18.9767 22.0299C21.7732 24.8239 25.0751 26.8234 28.2758 27.6545C28.9933 27.8409 30.0206 27.9419 30.8391 27.9951C31.6443 28.0484 32.4151 27.66 32.8515 26.982L34.7118 24.096C35.1849 23.3626 34.9228 22.3806 34.1465 21.98V21.9789Z" fill="#32C5FF"/>
<path d="M28.7966 9.80106C28.7966 10.0785 28.7422 10.3448 28.6323 10.6C28.5223 10.8552 28.3801 11.1015 28.2047 11.339C28.0292 11.5764 27.8315 11.805 27.6127 12.0236C27.3939 12.2422 27.1785 12.4508 26.9664 12.6472C26.8564 12.7493 26.7375 12.8647 26.6098 12.9923C26.4821 13.1199 26.36 13.2497 26.2422 13.3806C26.1256 13.5116 26.0212 13.6347 25.9302 13.7479C25.8391 13.8611 25.7824 13.9543 25.7602 14.0275H29.0265V15.3968H23.9633C23.9488 15.3169 23.9411 15.2137 23.9411 15.0905V14.8275C23.9411 14.4769 23.9977 14.1562 24.111 13.8644C24.2243 13.5726 24.372 13.3007 24.5552 13.0489C24.7385 12.797 24.9439 12.5617 25.1749 12.3432C25.4048 12.1234 25.6336 11.9049 25.8602 11.6863C26.0356 11.5187 26.2 11.3601 26.3533 11.2103C26.5066 11.0605 26.642 10.9151 26.7587 10.772C26.8753 10.6299 26.9663 10.4879 27.033 10.3448C27.0985 10.2027 27.1318 10.0585 27.1318 9.91202C27.1318 9.59134 27.0407 9.36499 26.8575 9.23294C26.6742 9.10201 26.4477 9.03543 26.1778 9.03543C25.9801 9.03543 25.7958 9.06651 25.6247 9.12865C25.4526 9.19079 25.296 9.26402 25.1538 9.34835C25.0117 9.43268 24.8884 9.5159 24.7862 9.60023C24.6841 9.68456 24.6074 9.75224 24.5563 9.80328L23.7456 8.66483C24.0666 8.36524 24.4419 8.1189 24.8695 7.92583C25.2971 7.73276 25.7558 7.63623 26.2445 7.63623C26.6898 7.63623 27.0741 7.68727 27.395 7.78936C27.716 7.89144 27.9814 8.03569 28.1891 8.2221C28.3979 8.40851 28.5512 8.63487 28.6489 8.90117C28.7478 9.16748 28.7966 9.46929 28.7966 9.80439V9.80106Z" fill="#069EDA"/>
<path d="M34.6817 7.80702V12.3619H35.4925V13.6979H34.6817V15.3956H33.0813V13.6979H29.804V12.5039C29.965 12.1833 30.166 11.8193 30.407 11.4143C30.648 11.0093 30.9168 10.5932 31.2122 10.166C31.5076 9.73883 31.8208 9.32162 32.1496 8.91217C32.4783 8.50384 32.807 8.13435 33.1358 7.80591H34.6817V7.80702ZM33.0813 9.79985C32.7959 10.1716 32.4927 10.5766 32.1718 11.0149C31.8497 11.4532 31.5798 11.9025 31.361 12.3619H33.0813V9.79985Z" fill="#069EDA"/>
</svg>
