<svg width="56" height="56" viewBox="0 0 56 56" fill="none" xmlns="http://www.w3.org/2000/svg">
<path d="M0.0144043 43V36H2.8944C3.5944 36 4.1744 36.1767 4.6344 36.53C5.0944 36.8834 5.3244 37.4267 5.3244 38.16C5.3244 38.8934 5.10107 39.43 4.6544 39.77C4.20774 40.1034 3.63107 40.27 2.9244 40.27H1.1344V43H0.0144043ZM1.1344 39.41H2.7644C3.21107 39.41 3.56107 39.3067 3.8144 39.1C4.0744 38.8934 4.2044 38.58 4.2044 38.16C4.2044 37.7467 4.0744 37.4367 3.8144 37.23C3.56107 37.0234 3.21107 36.92 2.7644 36.92H1.1344V39.41Z" fill="#383838"/>
<path d="M5.81511 41.61C5.81511 40.65 6.51844 40.1034 7.92511 39.97L9.40511 39.83V39.43C9.40511 39.1234 9.30844 38.8767 9.11511 38.69C8.92844 38.5034 8.64511 38.41 8.26511 38.41C7.92511 38.41 7.64511 38.49 7.42511 38.65C7.20511 38.8034 7.08511 39.03 7.06511 39.33H6.08511C6.10511 38.75 6.31511 38.3234 6.71511 38.05C7.11511 37.7767 7.63177 37.64 8.26511 37.64C8.97844 37.64 9.52511 37.81 9.90511 38.15C10.2851 38.49 10.4751 38.99 10.4751 39.65V43H9.48511V41.98C9.31844 42.34 9.06844 42.62 8.73511 42.82C8.40177 43.02 7.99844 43.12 7.52511 43.12C6.95844 43.12 6.53177 42.98 6.24511 42.7C5.95844 42.42 5.81511 42.0567 5.81511 41.61ZM6.87511 41.56C6.87511 41.8 6.95511 41.9967 7.11511 42.15C7.28177 42.2967 7.52844 42.37 7.85511 42.37C8.32844 42.37 8.70511 42.2234 8.98511 41.93C9.26511 41.63 9.40511 41.2467 9.40511 40.78V40.5L8.06511 40.63C7.27177 40.71 6.87511 41.02 6.87511 41.56Z" fill="#383838"/>
<path d="M14.4189 40.29C15.4989 40.3967 16.0389 40.8367 16.0389 41.61C16.0389 42.0567 15.8623 42.42 15.5089 42.7C15.1556 42.98 14.5656 43.12 13.7389 43.12C12.2256 43.12 11.4289 42.5367 11.3489 41.37L12.3789 41.32C12.4323 41.9734 12.8856 42.3 13.7389 42.3C14.5589 42.3 14.9689 42.02 14.9689 41.46C14.9689 40.94 14.5289 40.68 13.6489 40.68H13.0389V39.98H13.5989C14.0056 39.98 14.3056 39.9134 14.4989 39.78C14.6989 39.64 14.7989 39.4567 14.7989 39.23C14.7989 38.99 14.7023 38.8034 14.5089 38.67C14.3223 38.53 14.0689 38.46 13.7489 38.46C13.4156 38.46 13.1389 38.5367 12.9189 38.69C12.7056 38.8434 12.5823 39.0767 12.5489 39.39L11.5189 39.33C11.5589 38.7567 11.7789 38.3334 12.1789 38.06C12.5856 37.78 13.1089 37.64 13.7489 37.64C14.4556 37.64 14.9856 37.7667 15.3389 38.02C15.6923 38.2667 15.8689 38.6 15.8689 39.02C15.8689 39.7267 15.3856 40.15 14.4189 40.29Z" fill="#383838"/>
<path d="M17.0712 45V37.76H18.0612V38.81C18.2279 38.4367 18.4712 38.15 18.7912 37.95C19.1112 37.7434 19.4712 37.64 19.8712 37.64C20.5245 37.64 21.0545 37.8867 21.4612 38.38C21.8745 38.8667 22.0812 39.5334 22.0812 40.38C22.0812 41.2267 21.8745 41.8967 21.4612 42.39C21.0545 42.8767 20.5279 43.12 19.8812 43.12C19.0945 43.12 18.5145 42.77 18.1412 42.07V45H17.0712ZM18.4812 39C18.2212 39.3467 18.0912 39.8067 18.0912 40.38C18.0912 40.9534 18.2212 41.4134 18.4812 41.76C18.7479 42.1067 19.1045 42.28 19.5512 42.28C20.0045 42.28 20.3612 42.1067 20.6212 41.76C20.8879 41.4134 21.0212 40.9534 21.0212 40.38C21.0212 39.8067 20.8879 39.3467 20.6212 39C20.3612 38.6534 20.0045 38.48 19.5512 38.48C19.1045 38.48 18.7479 38.6534 18.4812 39Z" fill="#383838"/>
<path d="M22.8073 41.61C22.8073 40.65 23.5106 40.1034 24.9173 39.97L26.3973 39.83V39.43C26.3973 39.1234 26.3006 38.8767 26.1073 38.69C25.9206 38.5034 25.6373 38.41 25.2573 38.41C24.9173 38.41 24.6373 38.49 24.4173 38.65C24.1973 38.8034 24.0773 39.03 24.0573 39.33H23.0773C23.0973 38.75 23.3073 38.3234 23.7073 38.05C24.1073 37.7767 24.624 37.64 25.2573 37.64C25.9706 37.64 26.5173 37.81 26.8973 38.15C27.2773 38.49 27.4673 38.99 27.4673 39.65V43H26.4773V41.98C26.3106 42.34 26.0606 42.62 25.7273 42.82C25.394 43.02 24.9906 43.12 24.5173 43.12C23.9506 43.12 23.524 42.98 23.2373 42.7C22.9506 42.42 22.8073 42.0567 22.8073 41.61ZM23.8673 41.56C23.8673 41.8 23.9473 41.9967 24.1073 42.15C24.274 42.2967 24.5206 42.37 24.8473 42.37C25.3206 42.37 25.6973 42.2234 25.9773 41.93C26.2573 41.63 26.3973 41.2467 26.3973 40.78V40.5L25.0573 40.63C24.264 40.71 23.8673 41.02 23.8673 41.56Z" fill="#383838"/>
<path d="M31.2911 37.93C31.9911 37.93 32.5578 38.1667 32.9911 38.64C33.4311 39.1067 33.6511 39.7367 33.6511 40.53C33.6511 41.33 33.4211 41.9634 32.9611 42.43C32.5011 42.89 31.8745 43.12 31.0811 43.12C29.3745 43.12 28.5211 42 28.5211 39.76C28.5211 38.6267 28.6845 37.7567 29.0111 37.15C29.3378 36.5367 29.8678 36.1467 30.6011 35.98C30.7145 35.9534 31.1811 35.8834 32.0011 35.77C32.4945 35.6967 32.8678 35.6134 33.1211 35.52V36.36C32.9278 36.4667 32.5945 36.5567 32.1211 36.63C31.9878 36.65 31.8178 36.6734 31.6111 36.7C31.4045 36.72 31.2445 36.7367 31.1311 36.75C30.8711 36.7834 30.6478 36.8434 30.4611 36.93C30.2745 37.0167 30.0945 37.1534 29.9211 37.34C29.7478 37.5267 29.6078 37.7967 29.5011 38.15C29.3945 38.4967 29.3211 38.9267 29.2811 39.44C29.4211 38.9667 29.6611 38.5967 30.0011 38.33C30.3478 38.0634 30.7778 37.93 31.2911 37.93ZM29.9811 41.81C30.2478 42.1234 30.6145 42.28 31.0811 42.28C31.5478 42.28 31.9145 42.1234 32.1811 41.81C32.4545 41.4967 32.5911 41.07 32.5911 40.53C32.5911 39.99 32.4545 39.5634 32.1811 39.25C31.9145 38.93 31.5478 38.77 31.0811 38.77C30.6211 38.77 30.2545 38.93 29.9811 39.25C29.7145 39.5634 29.5811 39.99 29.5811 40.53C29.5811 41.07 29.7145 41.4967 29.9811 41.81Z" fill="#383838"/>
<path d="M35.0984 42.39C34.6384 41.8967 34.4084 41.2267 34.4084 40.38C34.4084 39.5334 34.6384 38.8667 35.0984 38.38C35.5651 37.8867 36.1884 37.64 36.9684 37.64C37.7551 37.64 38.3784 37.8867 38.8384 38.38C39.3051 38.8667 39.5384 39.5334 39.5384 40.38C39.5384 41.2267 39.3051 41.8967 38.8384 42.39C38.3784 42.8767 37.7551 43.12 36.9684 43.12C36.1884 43.12 35.5651 42.8767 35.0984 42.39ZM35.8684 39C35.6017 39.3467 35.4684 39.8067 35.4684 40.38C35.4684 40.9534 35.6017 41.4134 35.8684 41.76C36.1417 42.1067 36.5084 42.28 36.9684 42.28C37.4284 42.28 37.7951 42.1067 38.0684 41.76C38.3417 41.4134 38.4784 40.9534 38.4784 40.38C38.4784 39.8067 38.3417 39.3467 38.0684 39C37.7951 38.6534 37.4284 38.48 36.9684 38.48C36.5084 38.48 36.1417 38.6534 35.8684 39Z" fill="#383838"/>
<path d="M39.9222 38.64V37.76H44.5122V38.64H42.7522V43H41.6822V38.64H39.9222Z" fill="#383838"/>
<path d="M50.2215 43H48.8915L47.0815 40.77H46.4615V43H45.3915V37.76H46.4615V39.93H47.1015L48.8115 37.76H50.0815L47.8615 40.26L50.2215 43Z" fill="#383838"/>
<path d="M50.5319 41.61C50.5319 40.65 51.2352 40.1034 52.6419 39.97L54.1219 39.83V39.43C54.1219 39.1234 54.0252 38.8767 53.8319 38.69C53.6452 38.5034 53.3619 38.41 52.9819 38.41C52.6419 38.41 52.3619 38.49 52.1419 38.65C51.9219 38.8034 51.8019 39.03 51.7819 39.33H50.8019C50.8219 38.75 51.0319 38.3234 51.4319 38.05C51.8319 37.7767 52.3486 37.64 52.9819 37.64C53.6952 37.64 54.2419 37.81 54.6219 38.15C55.0019 38.49 55.1919 38.99 55.1919 39.65V43H54.2019V41.98C54.0352 42.34 53.7852 42.62 53.4519 42.82C53.1186 43.02 52.7152 43.12 52.2419 43.12C51.6752 43.12 51.2486 42.98 50.9619 42.7C50.6752 42.42 50.5319 42.0567 50.5319 41.61ZM51.5919 41.56C51.5919 41.8 51.6719 41.9967 51.8319 42.15C51.9986 42.2967 52.2452 42.37 52.5719 42.37C53.0452 42.37 53.4219 42.2234 53.7019 41.93C53.9819 41.63 54.1219 41.2467 54.1219 40.78V40.5L52.7819 40.63C51.9886 40.71 51.5919 41.02 51.5919 41.56Z" fill="#383838"/>
<path d="M7.63077 49.76H8.70077V55H7.63077V52.9C7.0241 53.0334 6.49077 53.1 6.03077 53.1C4.81077 53.1 4.20077 52.49 4.20077 51.27V49.76H5.27077V51.14C5.27077 51.5334 5.35744 51.8134 5.53077 51.98C5.71077 52.14 6.00077 52.22 6.40077 52.22C6.74744 52.22 7.15744 52.1534 7.63077 52.02V49.76Z" fill="#383838"/>
<path d="M9.7653 53.61C9.7653 52.65 10.4686 52.1034 11.8753 51.97L13.3553 51.83V51.43C13.3553 51.1234 13.2586 50.8767 13.0653 50.69C12.8786 50.5034 12.5953 50.41 12.2153 50.41C11.8753 50.41 11.5953 50.49 11.3753 50.65C11.1553 50.8034 11.0353 51.03 11.0153 51.33H10.0353C10.0553 50.75 10.2653 50.3234 10.6653 50.05C11.0653 49.7767 11.582 49.64 12.2153 49.64C12.9286 49.64 13.4753 49.81 13.8553 50.15C14.2353 50.49 14.4253 50.99 14.4253 51.65V55H13.4353V53.98C13.2686 54.34 13.0186 54.62 12.6853 54.82C12.352 55.02 11.9486 55.12 11.4753 55.12C10.9086 55.12 10.482 54.98 10.1953 54.7C9.90864 54.42 9.7653 54.0567 9.7653 53.61ZM10.8253 53.56C10.8253 53.8 10.9053 53.9967 11.0653 54.15C11.232 54.2967 11.4786 54.37 11.8053 54.37C12.2786 54.37 12.6553 54.2234 12.9353 53.93C13.2153 53.63 13.3553 53.2467 13.3553 52.78V52.5L12.0153 52.63C11.222 52.71 10.8253 53.02 10.8253 53.56Z" fill="#383838"/>
<path d="M15.1224 50.64V49.76H19.7124V50.64H17.9524V55H16.8824V50.64H15.1224Z" fill="#383838"/>
<path d="M20.2083 51.6H22.8483V52.43H20.2083V51.6Z" fill="#383838"/>
<path d="M26.6085 49.93C27.3085 49.93 27.8752 50.1667 28.3085 50.64C28.7485 51.1067 28.9685 51.7367 28.9685 52.53C28.9685 53.33 28.7385 53.9634 28.2785 54.43C27.8185 54.89 27.1918 55.12 26.3985 55.12C24.6918 55.12 23.8385 54 23.8385 51.76C23.8385 50.6267 24.0018 49.7567 24.3285 49.15C24.6552 48.5367 25.1852 48.1467 25.9185 47.98C26.0318 47.9534 26.4985 47.8834 27.3185 47.77C27.8118 47.6967 28.1852 47.6134 28.4385 47.52V48.36C28.2452 48.4667 27.9118 48.5567 27.4385 48.63C27.3052 48.65 27.1352 48.6734 26.9285 48.7C26.7218 48.72 26.5618 48.7367 26.4485 48.75C26.1885 48.7834 25.9652 48.8434 25.7785 48.93C25.5918 49.0167 25.4118 49.1534 25.2385 49.34C25.0652 49.5267 24.9252 49.7967 24.8185 50.15C24.7118 50.4967 24.6385 50.9267 24.5985 51.44C24.7385 50.9667 24.9785 50.5967 25.3185 50.33C25.6652 50.0634 26.0952 49.93 26.6085 49.93ZM25.2985 53.81C25.5652 54.1234 25.9318 54.28 26.3985 54.28C26.8652 54.28 27.2318 54.1234 27.4985 53.81C27.7718 53.4967 27.9085 53.07 27.9085 52.53C27.9085 51.99 27.7718 51.5634 27.4985 51.25C27.2318 50.93 26.8652 50.77 26.3985 50.77C25.9385 50.77 25.5718 50.93 25.2985 51.25C25.0318 51.5634 24.8985 51.99 24.8985 52.53C24.8985 53.07 25.0318 53.4967 25.2985 53.81Z" fill="#383838"/>
<path d="M30.4158 54.39C29.9558 53.8967 29.7258 53.2267 29.7258 52.38C29.7258 51.5334 29.9558 50.8667 30.4158 50.38C30.8824 49.8867 31.5058 49.64 32.2858 49.64C33.0724 49.64 33.6958 49.8867 34.1558 50.38C34.6224 50.8667 34.8558 51.5334 34.8558 52.38C34.8558 53.2267 34.6224 53.8967 34.1558 54.39C33.6958 54.8767 33.0724 55.12 32.2858 55.12C31.5058 55.12 30.8824 54.8767 30.4158 54.39ZM31.1858 51C30.9191 51.3467 30.7858 51.8067 30.7858 52.38C30.7858 52.9534 30.9191 53.4134 31.1858 53.76C31.4591 54.1067 31.8258 54.28 32.2858 54.28C32.7458 54.28 33.1124 54.1067 33.3858 53.76C33.6591 53.4134 33.7958 52.9534 33.7958 52.38C33.7958 51.8067 33.6591 51.3467 33.3858 51C33.1124 50.6534 32.7458 50.48 32.2858 50.48C31.8258 50.48 31.4591 50.6534 31.1858 51Z" fill="#383838"/>
<path d="M35.2396 50.64V49.76H39.8296V50.64H38.0696V55H36.9996V50.64H35.2396Z" fill="#383838"/>
<path d="M40.9041 54.39C40.4441 53.8967 40.2141 53.2267 40.2141 52.38C40.2141 51.5334 40.4441 50.8667 40.9041 50.38C41.3707 49.8867 41.9941 49.64 42.7741 49.64C43.5607 49.64 44.1841 49.8867 44.6441 50.38C45.1107 50.8667 45.3441 51.5334 45.3441 52.38C45.3441 53.2267 45.1107 53.8967 44.6441 54.39C44.1841 54.8767 43.5607 55.12 42.7741 55.12C41.9941 55.12 41.3707 54.8767 40.9041 54.39ZM41.6741 51C41.4074 51.3467 41.2741 51.8067 41.2741 52.38C41.2741 52.9534 41.4074 53.4134 41.6741 53.76C41.9474 54.1067 42.3141 54.28 42.7741 54.28C43.2341 54.28 43.6007 54.1067 43.8741 53.76C44.1474 53.4134 44.2841 52.9534 44.2841 52.38C44.2841 51.8067 44.1474 51.3467 43.8741 51C43.6007 50.6534 43.2341 50.48 42.7741 50.48C42.3141 50.48 41.9474 50.6534 41.6741 51Z" fill="#383838"/>
<path d="M49.3427 52.29C50.3894 52.3967 50.9127 52.8234 50.9127 53.57C50.9127 53.9767 50.7561 54.3167 50.4427 54.59C50.1361 54.8634 49.6361 55 48.9427 55H46.3827V49.76H48.8127C49.4527 49.76 49.9327 49.8834 50.2527 50.13C50.5794 50.37 50.7427 50.6867 50.7427 51.08C50.7427 51.76 50.2761 52.1634 49.3427 52.29ZM47.4527 50.56V51.98H48.7327C49.3594 51.98 49.6727 51.7434 49.6727 51.27C49.6727 50.7967 49.3427 50.56 48.6827 50.56H47.4527ZM48.8427 54.2C49.5094 54.2 49.8427 53.9434 49.8427 53.43C49.8427 52.93 49.4927 52.68 48.7927 52.68H47.4527V54.2H48.8427Z" fill="#383838"/>
<path d="M32.5131 7.07422H22.4884C17.6304 7.07422 13.6584 10.9776 13.6584 15.7487V18.2303C13.6584 23.0017 17.6304 26.9058 22.4884 26.9058H24.0665V29.9999C24.0665 29.9999 27.432 29.0934 32.5131 27.4406C38.4582 25.5068 41.3461 23.0017 41.3461 18.2303V15.7487C41.3461 10.9776 37.3711 7.07422 32.5131 7.07422Z" fill="#32C5FF"/>
<path d="M22.4915 7.07422H24.0661C19.2081 7.07422 15.2331 10.9776 15.2331 15.7487V18.2303C15.2331 23.0017 19.2081 26.9058 24.0661 26.9058H22.4915C17.6335 26.9058 13.6584 23.0017 13.6584 18.2303V15.7487C13.6584 10.9776 17.6335 7.07422 22.4915 7.07422Z" fill="#069EDA"/>
<path d="M22.4884 22.3135C19.5002 22.3135 17.0698 19.925 17.0698 16.99C17.0698 14.0547 19.4998 11.6675 22.4884 11.6675H32.5131C35.502 11.6675 37.9313 14.0547 37.9313 16.99C37.9313 19.9253 35.502 22.3135 32.5131 22.3135H22.4884Z" fill="white"/>
<path d="M39.9303 13.0376C41.7074 13.2769 43.0001 14.1467 43.0001 16.7553C43.0001 19.2243 41.8246 20.1404 40.1752 20.4329L39.9299 13.0376H39.9303Z" fill="#32C5FF"/>
<path d="M26.9422 3.17867V6.38834H28.0563V3.17967C28.7038 2.95461 26.2956 2.95329 26.9422 3.17867Z" fill="#069EDA"/>
<path d="M31.4707 8.31104C31.4707 6.98487 29.4331 5.90991 27.5017 5.90991C25.5703 5.90991 23.5334 6.98487 23.5334 8.31104C23.5334 9.6372 25.5706 10.7112 27.5017 10.7112C29.4328 10.7112 31.4707 9.63654 31.4707 8.31104Z" fill="#32C5FF"/>
<path d="M29.1688 1.63727C29.1688 0.733079 28.4223 0 27.5022 0C26.5822 0 25.8359 0.733079 25.8359 1.63727C25.8359 2.54145 26.5822 3.27453 27.5022 3.27453C28.4223 3.27453 29.1688 2.54145 29.1688 1.63727Z" fill="#32C5FF"/>
<path d="M14.2387 20.2986C12.9042 19.9008 12 18.9347 12 16.7554C12 14.3 13.1636 13.3799 14.7996 13.083L14.2383 20.2986H14.2387Z" fill="#069EDA"/>
<path opacity="0.03" d="M32.5129 22.3135C35.5012 22.3135 37.9315 19.925 37.9315 16.99C37.9315 14.0547 35.5015 11.6675 32.5129 11.6675H22.4883L32.5129 22.3135Z" fill="#32C5FF"/>
<path d="M30.9072 16.9903C30.9072 16.2033 31.5584 15.5662 32.3579 15.5662C33.1573 15.5662 33.8099 16.2033 33.8099 16.9903C33.8099 17.7773 33.1614 18.4147 32.3579 18.4147C31.5544 18.4147 30.9072 17.7786 30.9072 16.9903Z" fill="#069EDA"/>
<path d="M21.1929 16.9903C21.1929 16.2033 21.8414 15.5662 22.6419 15.5662C23.4423 15.5662 24.0925 16.2033 24.0925 16.9903C24.0925 17.7773 23.4437 18.4147 22.6419 18.4147C21.84 18.4147 21.1929 17.7786 21.1929 16.9903Z" fill="#069EDA"/>
</svg>
