<svg width="70" height="57" viewBox="0 0 70 57" fill="none" xmlns="http://www.w3.org/2000/svg">
<path d="M3.75535 39.3999C4.44202 39.4399 4.98535 39.6099 5.38535 39.9099C5.79202 40.2032 5.99535 40.6299 5.99535 41.1899C5.99535 41.8165 5.74869 42.2965 5.25535 42.6299C4.76869 42.9565 4.11869 43.1199 3.30535 43.1199C1.56535 43.1199 0.625352 42.3799 0.485352 40.8999L1.55535 40.8399C1.64868 41.7799 2.23202 42.2499 3.30535 42.2499C3.80535 42.2499 4.19202 42.1465 4.46535 41.9399C4.73869 41.7332 4.87535 41.4332 4.87535 41.0399C4.87535 40.2532 4.34869 39.8599 3.29535 39.8599H2.45535V39.0199H3.24535C3.71868 39.0199 4.07535 38.9232 4.31535 38.7299C4.55535 38.5299 4.67535 38.2499 4.67535 37.8899C4.67535 37.5232 4.55202 37.2432 4.30535 37.0499C4.06535 36.8499 3.73202 36.7499 3.30535 36.7499C2.87202 36.7499 2.50868 36.8565 2.21535 37.0699C1.92202 37.2832 1.75202 37.6132 1.70535 38.0599L0.635352 37.9699C0.715352 37.2699 0.988685 36.7465 1.45535 36.3999C1.92202 36.0532 2.53869 35.8799 3.30535 35.8799C4.03869 35.8799 4.63535 36.0332 5.09535 36.3399C5.56202 36.6465 5.79535 37.1032 5.79535 37.7099C5.79535 38.2165 5.62202 38.6165 5.27535 38.9099C4.93535 39.1965 4.42868 39.3599 3.75535 39.3999Z" fill="#383838"/>
<path d="M6.75746 41.6099C6.75746 40.6499 7.46079 40.1032 8.86746 39.9699L10.3475 39.8299V39.4299C10.3475 39.1232 10.2508 38.8765 10.0575 38.6899C9.87079 38.5032 9.58746 38.4099 9.20746 38.4099C8.86746 38.4099 8.58746 38.4899 8.36746 38.6499C8.14746 38.8032 8.02746 39.0299 8.00746 39.3299H7.02746C7.04746 38.7499 7.25746 38.3232 7.65746 38.0499C8.05746 37.7765 8.57413 37.6399 9.20746 37.6399C9.92079 37.6399 10.4675 37.8099 10.8475 38.1499C11.2275 38.4899 11.4175 38.9899 11.4175 39.6499V42.9999H10.4275V41.9799C10.2608 42.3399 10.0108 42.6199 9.67746 42.8199C9.34413 43.0199 8.94079 43.1199 8.46746 43.1199C7.90079 43.1199 7.47413 42.9799 7.18746 42.6999C6.90079 42.4199 6.75746 42.0565 6.75746 41.6099ZM7.81746 41.5599C7.81746 41.7999 7.89746 41.9965 8.05746 42.1499C8.22413 42.2965 8.47079 42.3699 8.79746 42.3699C9.27079 42.3699 9.64746 42.2232 9.92746 41.9299C10.2075 41.6299 10.3475 41.2465 10.3475 40.7799V40.4999L9.00746 40.6299C8.21413 40.7099 7.81746 41.0199 7.81746 41.5599Z" fill="#383838"/>
<path d="M12.6913 42.9999V37.7599H17.2713V42.9999H16.2013V38.6399H13.7613V42.9999H12.6913Z" fill="#383838"/>
<path d="M22.2097 37.7599H23.3497L21.4897 43.5299C21.3164 44.1365 21.0931 44.5532 20.8197 44.7799C20.5464 45.0066 20.1331 45.1199 19.5797 45.1199C19.3731 45.1199 19.1597 45.1065 18.9397 45.0799V44.2599C19.2064 44.2732 19.3964 44.2799 19.5097 44.2799C19.7897 44.2799 20.0031 44.2165 20.1497 44.0899C20.2964 43.9699 20.4197 43.7365 20.5197 43.3899L20.6397 42.9999H20.0197L18.1097 37.7599H19.2597L20.8797 42.5699L22.2097 37.7599Z" fill="#383838"/>
<path d="M23.7296 40.3799C23.7296 39.5065 23.953 38.8332 24.3996 38.3599C24.8463 37.8799 25.453 37.6399 26.2196 37.6399C26.8463 37.6399 27.373 37.8065 27.7996 38.1399C28.2263 38.4665 28.4796 38.9299 28.5596 39.5299L27.5296 39.6199C27.463 39.2465 27.3096 38.9632 27.0696 38.7699C26.8363 38.5765 26.553 38.4799 26.2196 38.4799C25.7863 38.4799 25.4396 38.6465 25.1796 38.9799C24.9196 39.3132 24.7896 39.7799 24.7896 40.3799C24.7896 40.9799 24.9196 41.4465 25.1796 41.7799C25.4463 42.1132 25.803 42.2799 26.2496 42.2799C26.603 42.2799 26.8963 42.1799 27.1296 41.9799C27.3696 41.7732 27.523 41.4765 27.5896 41.0899L28.6196 41.1699C28.5396 41.7899 28.283 42.2699 27.8496 42.6099C27.423 42.9499 26.8896 43.1199 26.2496 43.1199C25.4696 43.1199 24.853 42.8832 24.3996 42.4099C23.953 41.9365 23.7296 41.2599 23.7296 40.3799Z" fill="#383838"/>
<path d="M34.4158 42.9999H33.0858L31.2758 40.7699H30.6558V42.9999H29.5858V37.7599H30.6558V39.9299H31.2958L33.0058 37.7599H34.2758L32.0558 40.2599L34.4158 42.9999Z" fill="#383838"/>
<path d="M37.6325 42.3899C37.1725 41.8965 36.9425 41.2265 36.9425 40.3799C36.9425 39.5332 37.1725 38.8665 37.6325 38.3799C38.0992 37.8865 38.7225 37.6399 39.5025 37.6399C40.2892 37.6399 40.9125 37.8865 41.3725 38.3799C41.8392 38.8665 42.0725 39.5332 42.0725 40.3799C42.0725 41.2265 41.8392 41.8965 41.3725 42.3899C40.9125 42.8765 40.2892 43.1199 39.5025 43.1199C38.7225 43.1199 38.0992 42.8765 37.6325 42.3899ZM38.4025 38.9999C38.1359 39.3465 38.0025 39.8065 38.0025 40.3799C38.0025 40.9532 38.1359 41.4132 38.4025 41.7599C38.6759 42.1065 39.0425 42.2799 39.5025 42.2799C39.9625 42.2799 40.3292 42.1065 40.6025 41.7599C40.8759 41.4132 41.0125 40.9532 41.0125 40.3799C41.0125 39.8065 40.8759 39.3465 40.6025 38.9999C40.3292 38.6532 39.9625 38.4799 39.5025 38.4799C39.0425 38.4799 38.6759 38.6532 38.4025 38.9999Z" fill="#383838"/>
<path d="M42.4564 38.6399V37.7599H47.0464V38.6399H45.2864V42.9999H44.2164V38.6399H42.4564Z" fill="#383838"/>
<path d="M51.9322 42.1199H52.5722V44.3999H51.5622V42.9999H48.1222V44.3999H47.1122V42.1199H47.5122C47.6189 41.8865 47.7056 41.5399 47.7722 41.0799C47.8389 40.6132 47.8856 40.1832 47.9122 39.7899C47.9389 39.3899 47.9789 38.7132 48.0322 37.7599H51.9322V42.1199ZM50.8622 42.1199V38.6399H48.9522C48.9456 38.7465 48.9322 38.9099 48.9122 39.1299C48.8989 39.3499 48.8889 39.5065 48.8822 39.5999C48.8756 39.6865 48.8656 39.8232 48.8522 40.0099C48.8389 40.1899 48.8289 40.3232 48.8222 40.4099C48.8156 40.4899 48.8056 40.6032 48.7922 40.7499C48.7789 40.8899 48.7656 40.9999 48.7522 41.0799C48.7389 41.1599 48.7222 41.2565 48.7022 41.3699C48.6889 41.4832 48.6722 41.5765 48.6522 41.6499C48.6389 41.7232 48.6222 41.8032 48.6022 41.8899C48.5822 41.9699 48.5589 42.0465 48.5322 42.1199H50.8622Z" fill="#383838"/>
<path d="M53.0851 40.3799C53.0851 39.4799 53.3185 38.7999 53.7851 38.3399C54.2518 37.8732 54.8718 37.6399 55.6451 37.6399C57.2785 37.6399 58.0951 38.6132 58.0951 40.5599V40.6899H54.1551C54.1951 41.2299 54.3518 41.6432 54.6251 41.9299C54.9051 42.2099 55.2685 42.3499 55.7151 42.3499C56.3485 42.3499 56.7784 42.0799 57.0051 41.5399L58.0251 41.6099C57.8851 42.0832 57.6151 42.4532 57.2151 42.7199C56.8218 42.9865 56.3218 43.1199 55.7151 43.1199C54.9085 43.1199 54.2684 42.8899 53.7951 42.4299C53.3218 41.9699 53.0851 41.2865 53.0851 40.3799ZM54.1651 39.9899H57.0351C57.0151 39.4965 56.8818 39.1099 56.6351 38.8299C56.3884 38.5499 56.0585 38.4099 55.6451 38.4099C55.2318 38.4099 54.8918 38.5432 54.6251 38.8099C54.3651 39.0765 54.2118 39.4699 54.1651 39.9899Z" fill="#383838"/>
<path d="M59.5989 37.7599H63.4689V42.9999H62.3989V38.6399H60.5389C60.5189 38.8865 60.4956 39.2299 60.4689 39.6699C60.4489 40.0432 60.4323 40.3165 60.4189 40.4899C60.4056 40.6565 60.3856 40.8799 60.3589 41.1599C60.3323 41.4332 60.3056 41.6332 60.2789 41.7599C60.2523 41.8799 60.2123 42.0332 60.1589 42.2199C60.1123 42.3999 60.0556 42.5299 59.9889 42.6099C59.9289 42.6832 59.8523 42.7632 59.7589 42.8499C59.6656 42.9365 59.5589 42.9932 59.4389 43.0199C59.3189 43.0532 59.1823 43.0699 59.0289 43.0699C58.8489 43.0699 58.6889 43.0565 58.5489 43.0299V42.1699C58.6223 42.1765 58.7056 42.1799 58.7989 42.1799C59.0789 42.1799 59.2723 41.8299 59.3789 41.1299C59.4256 40.7965 59.4923 39.8132 59.5789 38.1799C59.5856 38.0332 59.5923 37.8932 59.5989 37.7599Z" fill="#383838"/>
<path d="M64.5309 41.6099C64.5309 40.6499 65.2342 40.1032 66.6409 39.9699L68.1209 39.8299V39.4299C68.1209 39.1232 68.0242 38.8765 67.8309 38.6899C67.6442 38.5032 67.3609 38.4099 66.9809 38.4099C66.6409 38.4099 66.3609 38.4899 66.1409 38.6499C65.9209 38.8032 65.8009 39.0299 65.7809 39.3299H64.8009C64.8209 38.7499 65.0309 38.3232 65.4309 38.0499C65.8309 37.7765 66.3476 37.6399 66.9809 37.6399C67.6942 37.6399 68.2409 37.8099 68.6209 38.1499C69.0009 38.4899 69.1909 38.9899 69.1909 39.6499V42.9999H68.2009V41.9799C68.0342 42.3399 67.7842 42.6199 67.4509 42.8199C67.1176 43.0199 66.7142 43.1199 66.2409 43.1199C65.6742 43.1199 65.2476 42.9799 64.9609 42.6999C64.6742 42.4199 64.5309 42.0565 64.5309 41.6099ZM65.5909 41.5599C65.5909 41.7999 65.6709 41.9965 65.8309 42.1499C65.9976 42.2965 66.2442 42.3699 66.5709 42.3699C67.0442 42.3699 67.4209 42.2232 67.7009 41.9299C67.9809 41.6299 68.1209 41.2465 68.1209 40.7799V40.4999L66.7809 40.6299C65.9876 40.7099 65.5909 41.0199 65.5909 41.5599Z" fill="#383838"/>
<path d="M16.9491 54.9999V49.7599H21.5291V54.9999H20.4591V50.6399H18.0191V54.9999H16.9491Z" fill="#383838"/>
<path d="M22.8475 56.9999V49.7599H23.8375V50.8099C24.0042 50.4365 24.2475 50.1499 24.5675 49.9499C24.8875 49.7432 25.2475 49.6399 25.6475 49.6399C26.3009 49.6399 26.8309 49.8865 27.2375 50.3799C27.6509 50.8665 27.8575 51.5332 27.8575 52.3799C27.8575 53.2265 27.6509 53.8965 27.2375 54.3899C26.8309 54.8765 26.3042 55.1199 25.6575 55.1199C24.8709 55.1199 24.2909 54.7699 23.9175 54.0699V56.9999H22.8475ZM24.2575 50.9999C23.9975 51.3465 23.8675 51.8065 23.8675 52.3799C23.8675 52.9532 23.9975 53.4132 24.2575 53.7599C24.5242 54.1065 24.8809 54.2799 25.3275 54.2799C25.7809 54.2799 26.1375 54.1065 26.3975 53.7599C26.6642 53.4132 26.7975 52.9532 26.7975 52.3799C26.7975 51.8065 26.6642 51.3465 26.3975 50.9999C26.1375 50.6532 25.7809 50.4799 25.3275 50.4799C24.8809 50.4799 24.5242 50.6532 24.2575 50.9999Z" fill="#383838"/>
<path d="M29.3122 54.3899C28.8522 53.8965 28.6222 53.2265 28.6222 52.3799C28.6222 51.5332 28.8522 50.8665 29.3122 50.3799C29.7789 49.8865 30.4022 49.6399 31.1822 49.6399C31.9689 49.6399 32.5922 49.8865 33.0522 50.3799C33.5189 50.8665 33.7522 51.5332 33.7522 52.3799C33.7522 53.2265 33.5189 53.8965 33.0522 54.3899C32.5922 54.8765 31.9689 55.1199 31.1822 55.1199C30.4022 55.1199 29.7789 54.8765 29.3122 54.3899ZM30.0822 50.9999C29.8156 51.3465 29.6822 51.8065 29.6822 52.3799C29.6822 52.9532 29.8156 53.4132 30.0822 53.7599C30.3556 54.1065 30.7222 54.2799 31.1822 54.2799C31.6422 54.2799 32.0089 54.1065 32.2822 53.7599C32.5556 53.4132 32.6922 52.9532 32.6922 52.3799C32.6922 51.8065 32.5556 51.3465 32.2822 50.9999C32.0089 50.6532 31.6422 50.4799 31.1822 50.4799C30.7222 50.4799 30.3556 50.6532 30.0822 50.9999Z" fill="#383838"/>
<path d="M39.0123 54.1199H39.6523V56.3999H38.6423V54.9999H35.2023V56.3999H34.1923V54.1199H34.5923C34.699 53.8865 34.7856 53.5399 34.8523 53.0799C34.919 52.6132 34.9656 52.1832 34.9923 51.7899C35.019 51.3899 35.059 50.7132 35.1123 49.7599H39.0123V54.1199ZM37.9423 54.1199V50.6399H36.0323C36.0256 50.7465 36.0123 50.9099 35.9923 51.1299C35.979 51.3499 35.969 51.5065 35.9623 51.5999C35.9556 51.6865 35.9456 51.8232 35.9323 52.0099C35.919 52.1899 35.909 52.3232 35.9023 52.4099C35.8956 52.4899 35.8856 52.6032 35.8723 52.7499C35.859 52.8899 35.8456 52.9999 35.8323 53.0799C35.819 53.1599 35.8023 53.2565 35.7823 53.3699C35.769 53.4832 35.7523 53.5765 35.7323 53.6499C35.719 53.7232 35.7023 53.8032 35.6823 53.8899C35.6623 53.9699 35.639 54.0465 35.6123 54.1199H37.9423Z" fill="#383838"/>
<path d="M40.234 53.6099C40.234 52.6499 40.9374 52.1032 42.344 51.9699L43.824 51.8299V51.4299C43.824 51.1232 43.7274 50.8765 43.534 50.6899C43.3474 50.5032 43.064 50.4099 42.684 50.4099C42.344 50.4099 42.064 50.4899 41.844 50.6499C41.624 50.8032 41.504 51.0299 41.484 51.3299H40.504C40.524 50.7499 40.734 50.3232 41.134 50.0499C41.534 49.7765 42.0507 49.6399 42.684 49.6399C43.3974 49.6399 43.944 49.8099 44.324 50.1499C44.704 50.4899 44.894 50.9899 44.894 51.6499V54.9999H43.904V53.9799C43.7374 54.3399 43.4874 54.6199 43.154 54.8199C42.8207 55.0199 42.4174 55.1199 41.944 55.1199C41.3774 55.1199 40.9507 54.9799 40.664 54.6999C40.3774 54.4199 40.234 54.0565 40.234 53.6099ZM41.294 53.5599C41.294 53.7999 41.374 53.9965 41.534 54.1499C41.7007 54.2965 41.9474 54.3699 42.274 54.3699C42.7474 54.3699 43.124 54.2232 43.404 53.9299C43.684 53.6299 43.824 53.2465 43.824 52.7799V52.4999L42.484 52.6299C41.6907 52.7099 41.294 53.0199 41.294 53.5599Z" fill="#383838"/>
<path d="M53.609 54.9999H52.299L50.659 52.7699H50.099V54.9999H49.069V52.7699H48.509L46.869 54.9999H45.559L47.719 52.2699L45.639 49.7599H46.899L48.479 51.9299H49.069V49.7599H50.099V51.9299H50.689L52.269 49.7599H53.519L51.439 52.2699L53.609 54.9999Z" fill="#383838"/>
<path d="M21.2115 9.72525C20.9953 9.66808 20.766 9.79388 20.6858 9.99809L18.4484 16.3972L17.934 12.2183H18.2764C18.4828 12.2183 18.6531 12.0467 18.6531 11.8425V10.6924C18.6531 10.4882 18.4811 10.3166 18.2764 10.3166H16.3928C16.188 10.3166 16.0275 10.4882 16.0275 10.6924V11.8425C16.0275 12.0484 16.188 12.2183 16.3928 12.2183H16.7351L16.2208 16.3972L13.9834 9.99809C13.9146 9.79388 13.6755 9.66808 13.4576 9.72525C11.2661 10.4081 9.58882 12.3097 9.30218 14.6998L9.00571 18.1273C8.92545 19.1173 9.70184 19.9717 10.7059 19.9717L23.9354 19.9832C23.7307 19.1631 23.6275 18.2989 23.6275 17.4101C23.6275 15.7029 24.0271 14.0856 24.7347 12.6512C23.9927 11.2511 22.725 10.1925 21.2082 9.72525H21.2115Z" fill="#32C5FF"/>
<path d="M17.3512 9.06698C19.8621 9.06698 21.898 7.03793 21.898 4.53349C21.898 2.02904 19.8621 0 17.3512 0C14.8402 0 12.8059 2.02904 12.8059 4.53349C12.8059 7.03793 14.8418 9.06698 17.3512 9.06698Z" fill="#32C5FF"/>
<path d="M59.7028 14.6998C59.4178 12.3097 57.739 10.4081 55.536 9.72525C55.3181 9.66808 55.0904 9.79388 55.0102 9.99809L52.7728 16.3972L52.2585 12.2183H52.6008C52.8055 12.2183 52.9775 12.0467 52.9775 11.8425V10.6924C52.9775 10.4882 52.8055 10.3166 52.6008 10.3166H50.7286C50.5239 10.3166 50.3519 10.4882 50.3519 10.6924V11.8425C50.3519 12.0484 50.5222 12.2183 50.7286 12.2183H51.071L50.5567 16.3972L48.3078 9.99809C48.239 9.79388 48.0113 9.66808 47.7935 9.72525C46.2751 10.1925 45.009 11.2511 44.2769 12.6398C44.9844 14.0741 45.3841 15.7029 45.3841 17.4101C45.3841 18.2989 45.2809 19.1516 45.0761 19.9717L58.2828 19.9832C59.2868 19.9832 60.0746 19.1288 59.9944 18.1388L59.6979 14.6998H59.7028Z" fill="#32C5FF"/>
<path d="M51.6785 9.06698C54.1895 9.06698 56.2238 7.03793 56.2238 4.53349C56.2238 2.02904 54.1878 0 51.6785 0C49.1692 0 47.1333 2.02904 47.1333 4.53349C47.1333 7.03793 49.1692 9.06698 51.6785 9.06698Z" fill="#32C5FF"/>
<g clip-path="url(#clip0_2118_248)">
<path d="M35.7236 13.8521H32.6746V18.5116H35.7448C36.395 18.5405 37.0304 18.3122 37.513 17.8765C37.9955 17.4408 38.2862 16.8328 38.3218 16.1845C38.3056 15.8609 38.2254 15.5438 38.0858 15.2512C37.9463 14.9586 37.7501 14.6964 37.5087 14.4797C37.2673 14.263 36.9853 14.096 36.6789 13.9883C36.3726 13.8806 36.0479 13.8343 35.7236 13.8521Z" fill="#069EDA"/>
<path d="M34.2654 10.0178C32.5874 10.0178 30.9471 10.5141 29.5519 11.444C28.1567 12.3738 27.0692 13.6954 26.4271 15.2417C25.7849 16.788 25.6169 18.4894 25.9443 20.131C26.2716 21.7725 27.0797 23.2803 28.2662 24.4638C29.4527 25.6472 30.9645 26.4532 32.6102 26.7797C34.256 27.1062 35.9619 26.9386 37.5122 26.2981C39.0625 25.6576 40.3875 24.573 41.3198 23.1814C42.252 21.7898 42.7496 20.1537 42.7496 18.4801C42.7496 16.2357 41.8557 14.0833 40.2646 12.4964C38.6736 10.9094 36.5156 10.0178 34.2654 10.0178ZM35.7236 19.834H32.6746V20.5956H37.0705C37.2111 20.5956 37.346 20.6513 37.4455 20.7505C37.5449 20.8497 37.6008 20.9842 37.6008 21.1245C37.6008 21.2648 37.5449 21.3993 37.4455 21.4985C37.346 21.5977 37.2111 21.6534 37.0705 21.6534H32.6746V24.2978C32.6746 24.4732 32.6048 24.6413 32.4805 24.7653C32.3562 24.8893 32.1876 24.9589 32.0118 24.9589C31.836 24.9589 31.6674 24.8893 31.5431 24.7653C31.4188 24.6413 31.349 24.4732 31.349 24.2978V21.6534H30.6862C30.5455 21.6534 30.4107 21.5977 30.3112 21.4985C30.2118 21.3993 30.1559 21.2648 30.1559 21.1245C30.1559 20.9842 30.2118 20.8497 30.3112 20.7505C30.4107 20.6513 30.5455 20.5956 30.6862 20.5956H31.3278V19.834H30.6862C30.5104 19.834 30.3418 19.7644 30.2175 19.6404C30.0932 19.5164 30.0233 19.3482 30.0233 19.1729C30.0233 18.9976 30.0932 18.8294 30.2175 18.7054C30.3418 18.5814 30.5104 18.5118 30.6862 18.5118H31.3278V13.1912C31.3278 13.0158 31.3976 12.8477 31.5219 12.7237C31.6462 12.5997 31.8148 12.53 31.9906 12.53H35.7024C36.7049 12.4987 37.6789 12.8653 38.4106 13.5495C39.1423 14.2337 39.5719 15.1796 39.6052 16.1794C39.5719 17.1759 39.1454 18.119 38.4185 18.8034C37.6915 19.4879 36.723 19.8583 35.7236 19.834Z" fill="#069EDA"/>
</g>
<defs>
<clipPath id="clip0_2118_248">
<rect width="19.0894" height="19.04" fill="white" transform="translate(24.7207 8.95996)"/>
</clipPath>
</defs>
</svg>
