<svg width="66" height="49" viewBox="0 0 66 49" fill="none" xmlns="http://www.w3.org/2000/svg">
<path d="M3.38417 43.41C4.0375 43.45 4.56084 43.6167 4.95417 43.91C5.3475 44.1967 5.54417 44.61 5.54417 45.15C5.54417 45.7433 5.3175 46.2 4.86417 46.52C4.41084 46.84 3.82084 47 3.09417 47H0.0241699V40H3.04417C3.73084 40 4.28417 40.1467 4.70417 40.44C5.13084 40.7333 5.34417 41.1733 5.34417 41.76C5.34417 42.7667 4.69084 43.3167 3.38417 43.41ZM1.14417 40.87V43.02H2.98417C3.3775 43.02 3.68084 42.9233 3.89417 42.73C4.11417 42.5367 4.22417 42.27 4.22417 41.93C4.22417 41.5967 4.11084 41.3367 3.88417 41.15C3.6575 40.9633 3.34084 40.87 2.93417 40.87H1.14417ZM2.99417 46.13C3.45417 46.13 3.8075 46.0333 4.05417 45.84C4.30084 45.64 4.42417 45.36 4.42417 45C4.42417 44.6467 4.30417 44.37 4.06417 44.17C3.83084 43.9633 3.49417 43.86 3.05417 43.86H1.14417V46.13H2.99417Z" fill="#383838"/>
<path d="M9.84222 41.76H11.4322V47H10.4022V42.54L8.20222 47H6.61222V41.76H7.64222V46.22L9.84222 41.76Z" fill="#383838"/>
<path d="M17.0348 46.12H17.6748V48.4H16.6648V47H13.2248V48.4H12.2148V46.12H12.6148C12.7215 45.8867 12.8081 45.54 12.8748 45.08C12.9415 44.6133 12.9881 44.1833 13.0148 43.79C13.0415 43.39 13.0815 42.7133 13.1348 41.76H17.0348V46.12ZM15.9648 46.12V42.64H14.0548C14.0481 42.7467 14.0348 42.91 14.0148 43.13C14.0015 43.35 13.9915 43.5067 13.9848 43.6C13.9781 43.6867 13.9681 43.8233 13.9548 44.01C13.9415 44.19 13.9315 44.3233 13.9248 44.41C13.9181 44.49 13.9081 44.6033 13.8948 44.75C13.8815 44.89 13.8681 45 13.8548 45.08C13.8415 45.16 13.8248 45.2567 13.8048 45.37C13.7915 45.4833 13.7748 45.5767 13.7548 45.65C13.7415 45.7233 13.7248 45.8033 13.7048 45.89C13.6848 45.97 13.6615 46.0467 13.6348 46.12H15.9648Z" fill="#383838"/>
<path d="M18.1877 44.38C18.1877 43.48 18.421 42.8 18.8877 42.34C19.3544 41.8733 19.9744 41.64 20.7477 41.64C22.381 41.64 23.1977 42.6133 23.1977 44.56V44.69H19.2577C19.2977 45.23 19.4544 45.6433 19.7277 45.93C20.0077 46.21 20.371 46.35 20.8177 46.35C21.451 46.35 21.881 46.08 22.1077 45.54L23.1277 45.61C22.9877 46.0833 22.7177 46.4533 22.3177 46.72C21.9244 46.9867 21.4244 47.12 20.8177 47.12C20.011 47.12 19.371 46.89 18.8977 46.43C18.4244 45.97 18.1877 45.2867 18.1877 44.38ZM19.2677 43.99H22.1377C22.1177 43.4967 21.9844 43.11 21.7377 42.83C21.491 42.55 21.161 42.41 20.7477 42.41C20.3344 42.41 19.9944 42.5433 19.7277 42.81C19.4677 43.0767 19.3144 43.47 19.2677 43.99Z" fill="#383838"/>
<path d="M24.6296 46.39C24.1696 45.8967 23.9396 45.2267 23.9396 44.38C23.9396 43.5333 24.1696 42.8667 24.6296 42.38C25.0963 41.8867 25.7196 41.64 26.4996 41.64C27.2863 41.64 27.9096 41.8867 28.3696 42.38C28.8363 42.8667 29.0696 43.5333 29.0696 44.38C29.0696 45.2267 28.8363 45.8967 28.3696 46.39C27.9096 46.8767 27.2863 47.12 26.4996 47.12C25.7196 47.12 25.0963 46.8767 24.6296 46.39ZM25.3996 43C25.133 43.3467 24.9996 43.8067 24.9996 44.38C24.9996 44.9533 25.133 45.4133 25.3996 45.76C25.673 46.1067 26.0396 46.28 26.4996 46.28C26.9596 46.28 27.3263 46.1067 27.5996 45.76C27.873 45.4133 28.0096 44.9533 28.0096 44.38C28.0096 43.8067 27.873 43.3467 27.5996 43C27.3263 42.6533 26.9596 42.48 26.4996 42.48C26.0396 42.48 25.673 42.6533 25.3996 43Z" fill="#383838"/>
<path d="M29.8283 44.38C29.8283 43.5067 30.0516 42.8333 30.4983 42.36C30.945 41.88 31.5516 41.64 32.3183 41.64C32.945 41.64 33.4716 41.8067 33.8983 42.14C34.325 42.4667 34.5783 42.93 34.6583 43.53L33.6283 43.62C33.5616 43.2467 33.4083 42.9633 33.1683 42.77C32.935 42.5767 32.6516 42.48 32.3183 42.48C31.885 42.48 31.5383 42.6467 31.2783 42.98C31.0183 43.3133 30.8883 43.78 30.8883 44.38C30.8883 44.98 31.0183 45.4467 31.2783 45.78C31.545 46.1133 31.9016 46.28 32.3483 46.28C32.7016 46.28 32.995 46.18 33.2283 45.98C33.4683 45.7733 33.6216 45.4767 33.6883 45.09L34.7183 45.17C34.6383 45.79 34.3816 46.27 33.9483 46.61C33.5216 46.95 32.9883 47.12 32.3483 47.12C31.5683 47.12 30.9516 46.8833 30.4983 46.41C30.0516 45.9367 29.8283 45.26 29.8283 44.38Z" fill="#383838"/>
<path d="M38.7366 43.69C40.1233 43.69 40.8166 44.24 40.8166 45.34C40.8166 46.4467 40.1233 47 38.7366 47H36.3766V42.64H35.1566V41.76H37.4466V43.69H38.7366ZM38.6566 46.18C39.3833 46.18 39.7466 45.8967 39.7466 45.33C39.7466 44.77 39.3833 44.49 38.6566 44.49H37.4466V46.18H38.6566Z" fill="#383838"/>
<path d="M41.5373 44.38C41.5373 43.48 41.7706 42.8 42.2373 42.34C42.704 41.8733 43.324 41.64 44.0973 41.64C45.7306 41.64 46.5473 42.6133 46.5473 44.56V44.69H42.6073C42.6473 45.23 42.804 45.6433 43.0773 45.93C43.3573 46.21 43.7206 46.35 44.1673 46.35C44.8006 46.35 45.2306 46.08 45.4573 45.54L46.4773 45.61C46.3373 46.0833 46.0673 46.4533 45.6673 46.72C45.274 46.9867 44.774 47.12 44.1673 47.12C43.3606 47.12 42.7206 46.89 42.2473 46.43C41.774 45.97 41.5373 45.2867 41.5373 44.38ZM42.6173 43.99H45.4873C45.4673 43.4967 45.334 43.11 45.0873 42.83C44.8406 42.55 44.5106 42.41 44.0973 42.41C43.684 42.41 43.344 42.5433 43.0773 42.81C42.8173 43.0767 42.664 43.47 42.6173 43.99Z" fill="#383838"/>
<path d="M52.2892 41.76H54.0592V47H53.0392V42.5L51.4692 47H50.1592L48.5992 42.5V47H47.5692V41.76H49.3492L50.8292 46.4L52.2892 41.76Z" fill="#383838"/>
<path d="M60.2118 47H58.8817L57.0717 44.77H56.4517V47H55.3817V41.76H56.4517V43.93H57.0917L58.8017 41.76H60.0717L57.8517 44.26L60.2118 47Z" fill="#383838"/>
<path d="M60.5221 45.61C60.5221 44.65 61.2255 44.1033 62.6321 43.97L64.1121 43.83V43.43C64.1121 43.1233 64.0155 42.8767 63.8221 42.69C63.6355 42.5033 63.3521 42.41 62.9721 42.41C62.6321 42.41 62.3521 42.49 62.1321 42.65C61.9121 42.8033 61.7921 43.03 61.7721 43.33H60.7921C60.8121 42.75 61.0221 42.3233 61.4221 42.05C61.8221 41.7767 62.3388 41.64 62.9721 41.64C63.6855 41.64 64.2321 41.81 64.6121 42.15C64.9921 42.49 65.1821 42.99 65.1821 43.65V47H64.1921V45.98C64.0255 46.34 63.7755 46.62 63.4421 46.82C63.1088 47.02 62.7055 47.12 62.2321 47.12C61.6655 47.12 61.2388 46.98 60.9521 46.7C60.6655 46.42 60.5221 46.0567 60.5221 45.61ZM61.5821 45.56C61.5821 45.8 61.6621 45.9967 61.8221 46.15C61.9888 46.2967 62.2355 46.37 62.5621 46.37C63.0355 46.37 63.4121 46.2233 63.6921 45.93C63.9721 45.63 64.1121 45.2467 64.1121 44.78V44.5L62.7721 44.63C61.9788 44.71 61.5821 45.02 61.5821 45.56Z" fill="#383838"/>
<path d="M34.6498 14.9343L37.4657 12.9666V2.25779C37.4657 1.01584 36.4629 0 35.1999 0H17.2658C16.0195 0 15 1.01584 15 2.25779V19.1113C15 20.3532 16.0195 21.369 17.2658 21.369H28.8219V19.4333H27.2036V17.127H28.968C29.3565 15.8531 30.5542 14.9332 31.9467 14.9332H34.6498V14.9343ZM32.3352 1.93572H35.1999C35.3781 1.93572 35.5231 2.08132 35.5231 2.25779V4.2255H32.3341V1.93572H32.3352ZM22.0731 1.93572H25.2621V4.2255H22.0731V1.93572ZM20.1305 19.4344H17.2658C17.0876 19.4344 16.9426 19.2888 16.9426 19.1124V17.1281H20.1316V19.4344H20.1305ZM20.1305 4.2255H16.9415V2.25779C16.9415 2.08021 17.0876 1.93572 17.2647 1.93572H20.1294V4.2255H20.1305ZM25.261 19.4344H22.072V17.1281H25.261V19.4344ZM28.7732 11.354L24.5327 13.9184C23.9991 14.2405 23.335 13.8699 23.335 13.2412V8.11239C23.335 7.49913 23.9991 7.11199 24.5327 7.43516L28.7732 9.99958C29.2746 10.3062 29.2746 11.0474 28.7732 11.354ZM30.3915 4.2255H27.2025V1.93572H30.3915V4.2255Z" fill="#91A800"/>
<path d="M48.4065 14.1843C48.0302 13.8093 47.4202 13.8093 47.0428 14.1843C46.6676 14.5593 46.6676 15.1671 47.0428 15.5421C49.7536 18.2433 49.7503 22.6408 47.0361 25.3453C46.848 25.5329 46.7539 25.7788 46.7539 26.0248C46.7539 26.2707 46.848 26.5167 47.0361 26.7042C47.4125 27.0792 48.0235 27.0792 48.3988 26.7042C51.8645 23.2508 51.8678 17.6344 48.4054 14.1843H48.4065Z" fill="#B9D700"/>
<path d="M45.7986 16.783C45.4222 16.408 44.8123 16.408 44.4349 16.783C44.0585 17.158 44.0585 17.7657 44.4349 18.1407C45.7078 19.4092 45.7045 21.475 44.4283 22.7468C44.2401 22.9343 44.146 23.1802 44.146 23.4262C44.146 23.6722 44.2401 23.9181 44.4283 24.1056C44.8046 24.4806 45.4145 24.4806 45.7908 24.1056C47.8187 22.085 47.822 18.7992 45.7975 16.783H45.7986Z" fill="#B9D700"/>
<path d="M40.648 13.1066L35.2663 16.8722H31.95C31.2969 16.8722 30.7678 17.3994 30.7678 18.0502V22.8404C30.7678 23.4912 31.2969 24.0184 31.95 24.0184H35.2663L40.648 27.7839C41.4306 28.3321 42.5088 27.774 42.5088 26.8199V14.0717C42.5088 13.1188 41.4306 12.5607 40.648 13.1077V13.1066Z" fill="#B9D700"/>
</svg>
