<svg width="64" height="49" viewBox="0 0 64 49" fill="none" xmlns="http://www.w3.org/2000/svg">
<path d="M6.74948 46.9999H5.41948L3.03948 43.8999H2.08948V46.9999H0.969482V39.9999H2.08948V43.0299H3.02948L5.23948 39.9999H6.53948L3.89948 43.3899L6.74948 46.9999Z" fill="#383838"/>
<path d="M7.48901 46.3899C7.02901 45.8966 6.79901 45.2266 6.79901 44.3799C6.79901 43.5333 7.02901 42.8666 7.48901 42.3799C7.95568 41.8866 8.57901 41.6399 9.35901 41.6399C10.1457 41.6399 10.769 41.8866 11.229 42.3799C11.6957 42.8666 11.929 43.5333 11.929 44.3799C11.929 45.2266 11.6957 45.8966 11.229 46.3899C10.769 46.8766 10.1457 47.1199 9.35901 47.1199C8.57901 47.1199 7.95568 46.8766 7.48901 46.3899ZM8.25901 42.9999C7.99235 43.3466 7.85901 43.8066 7.85901 44.3799C7.85901 44.9533 7.99235 45.4133 8.25901 45.7599C8.53235 46.1066 8.89901 46.2799 9.35901 46.2799C9.81901 46.2799 10.1857 46.1066 10.459 45.7599C10.7323 45.4133 10.869 44.9533 10.869 44.3799C10.869 43.8066 10.7323 43.3466 10.459 42.9999C10.1857 42.6533 9.81901 42.4799 9.35901 42.4799C8.89901 42.4799 8.53235 42.6533 8.25901 42.9999Z" fill="#383838"/>
<path d="M12.9677 46.9999V41.7599H17.5477V46.9999H16.4777V42.6399H14.0377V46.9999H12.9677Z" fill="#383838"/>
<path d="M22.0961 41.7599H23.6861V46.9999H22.6561V42.5399L20.4561 46.9999H18.8661V41.7599H19.8961V46.2199L22.0961 41.7599Z" fill="#383838"/>
<path d="M25.0087 48.9999V41.7599H25.9987V42.8099C26.1654 42.4366 26.4087 42.1499 26.7287 41.9499C27.0487 41.7433 27.4087 41.6399 27.8087 41.6399C28.462 41.6399 28.992 41.8866 29.3987 42.3799C29.812 42.8666 30.0187 43.5333 30.0187 44.3799C30.0187 45.2266 29.812 45.8966 29.3987 46.3899C28.992 46.8766 28.4654 47.1199 27.8187 47.1199C27.032 47.1199 26.452 46.7699 26.0787 46.0699V48.9999H25.0087ZM26.4187 42.9999C26.1587 43.3466 26.0287 43.8066 26.0287 44.3799C26.0287 44.9533 26.1587 45.4133 26.4187 45.7599C26.6854 46.1066 27.042 46.2799 27.4887 46.2799C27.942 46.2799 28.2987 46.1066 28.5587 45.7599C28.8254 45.4133 28.9587 44.9533 28.9587 44.3799C28.9587 43.8066 28.8254 43.3466 28.5587 42.9999C28.2987 42.6533 27.942 42.4799 27.4887 42.4799C27.042 42.4799 26.6854 42.6533 26.4187 42.9999Z" fill="#383838"/>
<path d="M30.7448 45.6099C30.7448 44.6499 31.4481 44.1033 32.8548 43.9699L34.3348 43.8299V43.4299C34.3348 43.1233 34.2381 42.8766 34.0448 42.6899C33.8581 42.5033 33.5748 42.4099 33.1948 42.4099C32.8548 42.4099 32.5748 42.4899 32.3548 42.6499C32.1348 42.8033 32.0148 43.0299 31.9948 43.3299H31.0148C31.0348 42.7499 31.2448 42.3233 31.6448 42.0499C32.0448 41.7766 32.5615 41.6399 33.1948 41.6399C33.9081 41.6399 34.4548 41.8099 34.8348 42.1499C35.2148 42.4899 35.4048 42.9899 35.4048 43.6499V46.9999H34.4148V45.9799C34.2481 46.3399 33.9981 46.6199 33.6648 46.8199C33.3315 47.0199 32.9281 47.1199 32.4548 47.1199C31.8881 47.1199 31.4615 46.9799 31.1748 46.6999C30.8881 46.4199 30.7448 46.0566 30.7448 45.6099ZM31.8048 45.5599C31.8048 45.7999 31.8848 45.9966 32.0448 46.1499C32.2115 46.2966 32.4581 46.3699 32.7848 46.3699C33.2581 46.3699 33.6348 46.2233 33.9148 45.9299C34.1948 45.6299 34.3348 45.2466 34.3348 44.7799V44.4999L32.9948 44.6299C32.2015 44.7099 31.8048 45.0199 31.8048 45.5599Z" fill="#383838"/>
<path d="M40.1786 40.7099C39.932 40.9633 39.5686 41.0899 39.0886 41.0899C38.6086 41.0899 38.242 40.9633 37.9886 40.7099C37.742 40.4566 37.612 40.1133 37.5986 39.6799H38.3086C38.3286 39.8933 38.3986 40.0799 38.5186 40.2399C38.6453 40.3933 38.8353 40.4699 39.0886 40.4699C39.5486 40.4699 39.8086 40.2066 39.8686 39.6799H40.5686C40.5553 40.1133 40.4253 40.4566 40.1786 40.7099ZM39.9086 41.7599H41.4986V46.9999H40.4686V42.5399L38.2686 46.9999H36.6786V41.7599H37.7086V46.2199L39.9086 41.7599Z" fill="#383838"/>
<path d="M42.3812 42.6399V41.7599H46.9712V42.6399H45.2112V46.9999H44.1412V42.6399H42.3812Z" fill="#383838"/>
<path d="M51.0805 41.7599H52.6705V46.9999H51.6405V42.5399L49.4405 46.9999H47.8505V41.7599H48.8805V46.2199L51.0805 41.7599Z" fill="#383838"/>
<path d="M53.9931 46.9999V41.7599H55.0631V43.8899H57.5631V41.7599H58.6331V46.9999H57.5631V44.7699H55.0631V46.9999H53.9931Z" fill="#383838"/>
<path d="M59.9501 46.9999V41.7599H63.5901V42.6399H61.0201V46.9999H59.9501Z" fill="#383838"/>
<path d="M43.9673 23.1348H27.0105C26.7257 23.5821 26.4555 23.9673 26.2324 24.3069L25.6616 25.1395H43.9673C44.5391 25.1395 45 24.6922 45 24.1371C45 23.5821 44.5391 23.1359 43.9673 23.1359V23.1348Z" fill="#91A800"/>
<path d="M43.9673 18.418H29.8843C29.5199 19.0808 29.123 19.7588 28.7261 20.4216H43.9673C44.5392 20.4216 45 19.9743 45 19.4203C45 18.8664 44.5392 18.418 43.9673 18.418Z" fill="#91A800"/>
<path d="M43.9674 13.687H32.5048L31.4082 15.6906H43.9674C44.5393 15.6906 45.0001 15.2433 45.0001 14.6883C45.0001 14.1332 44.5393 13.687 43.9674 13.687Z" fill="#91A800"/>
<path d="M43.9672 8.97144H35.107L34.0127 10.975H43.9672C44.5391 10.975 44.9999 10.5277 44.9999 9.97269C44.9999 9.41765 44.5391 8.97144 43.9672 8.97144Z" fill="#91A800"/>
<path d="M43.9672 6.24398C44.539 6.24398 44.9999 5.79667 44.9999 5.24271C44.9999 4.68876 44.539 4.24146 43.9672 4.24146H36.901C37.0457 4.90425 36.9492 5.61275 36.6162 6.24506H43.9672V6.24398Z" fill="#91A800"/>
<path d="M35.1654 5.61169C35.587 4.84769 35.3572 3.94329 34.7046 3.40239L35.5792 1.8167C35.7653 1.47932 35.6353 1.0614 35.2877 0.880738L33.7526 0.0819059C33.4073 -0.0976679 32.9745 0.0274903 32.7884 0.364871L31.9138 1.94947C31.0874 1.72093 30.1848 2.03654 29.7632 2.80054L29.1387 3.93132L34.5409 6.74137L35.1654 5.6106V5.61169Z" fill="#B9D700"/>
<path d="M19.0014 27.3043C18.9846 27.56 19.1236 27.8016 19.3568 27.9225C19.5889 28.0433 19.8726 28.0215 20.0823 27.868C20.385 27.6449 22.6062 25.9939 23.8923 24.7075L19.6113 22.4797C19.2155 24.2406 19.0271 26.9364 19.0025 27.3032L19.0014 27.3043Z" fill="#B9D700"/>
<path d="M33.7727 8.13331L27.1237 4.67461L27.7067 3.61784C27.9321 3.2119 27.7729 2.708 27.3558 2.49034C26.9375 2.27376 26.4173 2.42504 26.1941 2.83098L22.1834 10.0945C21.958 10.5004 22.1172 11.0054 22.5343 11.222C22.9526 11.4396 23.4728 11.2873 23.696 10.8813L26.3556 6.06658L27.6025 6.71522L23.3495 14.4151C22.1307 16.6233 20.8816 19.2321 20.1248 20.9592L24.9159 23.4526C25.9811 21.8897 27.5273 19.4465 28.7517 17.2263L33.7739 8.13548L33.7727 8.13331Z" fill="#B9D700"/>
</svg>
