<svg width="52" height="57" viewBox="0 0 52 57" fill="none" xmlns="http://www.w3.org/2000/svg">
<path d="M23.3948 14.5354C23.314 15.0377 23.2237 15.5038 23.125 15.925H25.1589C25.2576 15.4771 25.3395 15.011 25.4015 14.5354H29.0284L31.0718 13.0817C31.2881 12.926 31.5128 12.8066 31.7553 12.7245C31.8897 12.0579 31.9622 11.3625 31.9622 10.6501C31.9622 4.77154 27.2643 0 21.4858 0C15.7074 0 11 4.77154 11 10.6501C11 15.6051 14.3486 19.7815 18.8754 20.9525V19.5533C18.8754 18.475 19.3437 17.5067 20.0724 16.838C19.874 16.1981 19.7039 15.4302 19.5684 14.5343H23.3938L23.3948 14.5354ZM13.1883 12.524C13.0528 11.9203 12.9814 11.29 12.9814 10.6501C12.9814 10.0102 13.0528 9.3703 13.1883 8.76666H17.3644C17.3287 9.39803 17.3108 10.0187 17.3108 10.6501C17.3108 11.2815 17.3287 11.9022 17.3644 12.524H13.1883ZM13.8992 14.5354H17.5628C17.7875 16.1351 18.1572 17.6165 18.6696 18.7854C16.5999 18.0452 14.8894 16.5095 13.8992 14.5354ZM17.5628 6.75523H13.8992C14.8894 4.78114 16.5905 3.24537 18.6696 2.50522C18.1572 3.67517 17.7875 5.15548 17.5628 6.75523ZM29.9839 10.6501C29.9839 11.29 29.9115 11.9203 29.7771 12.524H25.601C25.6367 11.9022 25.6545 11.2719 25.6545 10.6501C25.6545 10.0283 25.6367 9.39803 25.601 8.76666H29.7771C29.9115 9.3703 29.9839 10.0017 29.9839 10.6501ZM29.0662 6.75523H25.4025C25.1778 5.15548 24.8082 3.67517 24.2958 2.50522C26.3749 3.24537 28.076 4.7822 29.0662 6.75523ZM21.4879 2.01143C21.9562 2.01143 22.9192 3.65704 23.3959 6.75523H19.5705C20.0472 3.65597 21.0112 2.01143 21.4879 2.01143ZM19.2912 10.6501C19.2912 9.98248 19.3091 9.3607 19.3542 8.76666H23.6206C23.6563 9.36177 23.6741 9.98248 23.6741 10.6501C23.6741 11.3177 23.6563 11.9299 23.6206 12.524H19.3542C19.3091 11.9299 19.2912 11.3081 19.2912 10.6501Z" fill="#91A800"/>
<path d="M33.4355 18.938V15.4238C33.4355 14.8095 32.7541 14.4501 32.2595 14.8021L29.376 16.8593C28.3092 17.6198 27.0376 18.0293 25.7334 18.0293H22.4457C21.6183 18.0293 20.9473 18.7108 20.9473 19.5501V22.2377C20.9473 23.0781 21.6183 23.7586 22.4446 23.7586H23.2164L23.878 27.5831C23.92 27.8241 24.1268 28.0001 24.3683 28.0001H25.8741C26.1828 28.0001 26.417 27.7174 26.3634 27.4071L25.7313 23.7586C27.0355 23.7586 28.3071 24.167 29.3739 24.9285L32.2574 26.9847C32.752 27.3378 33.4334 26.9783 33.4334 26.364V22.8499C34.4404 22.7774 35.2385 21.9348 35.2385 20.8929C35.2385 19.8509 34.4415 19.0084 33.4334 18.9369L33.4355 18.938Z" fill="#B9D700"/>
<path d="M40.1222 20.0022H37.5359C37.0508 20.0022 36.657 20.4021 36.657 20.8949C36.657 21.3876 37.0508 21.7865 37.5359 21.7865H40.1222C40.6073 21.7865 41 21.3865 41 20.8949C41 20.4032 40.6062 20.0022 40.1222 20.0022Z" fill="#B9D700"/>
<path d="M36.2948 18.7459C36.5196 18.7459 36.7443 18.6584 36.9165 18.4846L38.7457 16.6267C39.089 16.278 39.089 15.7138 38.7457 15.3651C38.4023 15.0163 37.8468 15.0163 37.5035 15.3651L35.6743 17.2229C35.3309 17.5706 35.3309 18.1359 35.6743 18.4846C35.8454 18.6584 36.0701 18.7459 36.2948 18.7459Z" fill="#B9D700"/>
<path d="M36.9165 23.3053C36.5731 22.9565 36.0176 22.9565 35.6743 23.3053C35.3309 23.6529 35.3309 24.2182 35.6743 24.5669L37.5035 26.4248C37.6746 26.5986 37.8993 26.6861 38.1241 26.6861C38.3488 26.6861 38.5735 26.5986 38.7446 26.4248C39.088 26.0771 39.088 25.5119 38.7446 25.1631L36.9154 23.3053H36.9165Z" fill="#B9D700"/>
<path d="M12.2659 43H10.9359L8.55593 39.9H7.60593V43H6.48593V36H7.60593V39.03H8.54593L10.7559 36H12.0559L9.41593 39.39L12.2659 43Z" fill="#383838"/>
<path d="M13.0055 42.39C12.5455 41.8967 12.3155 41.2267 12.3155 40.38C12.3155 39.5333 12.5455 38.8667 13.0055 38.38C13.4721 37.8867 14.0955 37.64 14.8755 37.64C15.6621 37.64 16.2855 37.8867 16.7455 38.38C17.2121 38.8667 17.4455 39.5333 17.4455 40.38C17.4455 41.2267 17.2121 41.8967 16.7455 42.39C16.2855 42.8767 15.6621 43.12 14.8755 43.12C14.0955 43.12 13.4721 42.8767 13.0055 42.39ZM13.7755 39C13.5088 39.3467 13.3755 39.8067 13.3755 40.38C13.3755 40.9533 13.5088 41.4133 13.7755 41.76C14.0488 42.1067 14.4155 42.28 14.8755 42.28C15.3355 42.28 15.7021 42.1067 15.9755 41.76C16.2488 41.4133 16.3855 40.9533 16.3855 40.38C16.3855 39.8067 16.2488 39.3467 15.9755 39C15.7021 38.6533 15.3355 38.48 14.8755 38.48C14.4155 38.48 14.0488 38.6533 13.7755 39Z" fill="#383838"/>
<path d="M18.4841 43V37.76H19.5541V39.89H22.0541V37.76H23.1241V43H22.0541V40.77H19.5541V43H18.4841Z" fill="#383838"/>
<path d="M24.0012 38.64V37.76H28.5912V38.64H26.8312V43H25.7612V38.64H24.0012Z" fill="#383838"/>
<path d="M28.9756 40.38C28.9756 39.48 29.2089 38.8 29.6756 38.34C30.1423 37.8733 30.7623 37.64 31.5356 37.64C33.1689 37.64 33.9856 38.6133 33.9856 40.56V40.69H30.0456C30.0856 41.23 30.2423 41.6433 30.5156 41.93C30.7956 42.21 31.1589 42.35 31.6056 42.35C32.2389 42.35 32.6689 42.08 32.8956 41.54L33.9156 41.61C33.7756 42.0833 33.5056 42.4533 33.1056 42.72C32.7123 42.9867 32.2123 43.12 31.6056 43.12C30.7989 43.12 30.1589 42.89 29.6856 42.43C29.2123 41.97 28.9756 41.2867 28.9756 40.38ZM30.0556 39.99H32.9256C32.9056 39.4967 32.7723 39.11 32.5256 38.83C32.2789 38.55 31.9489 38.41 31.5356 38.41C31.1223 38.41 30.7823 38.5433 30.5156 38.81C30.2556 39.0767 30.1023 39.47 30.0556 39.99Z" fill="#383838"/>
<path d="M35.0076 43V37.76H36.0776V39.89H38.5776V37.76H39.6476V43H38.5776V40.77H36.0776V43H35.0076Z" fill="#383838"/>
<path d="M40.5246 38.64V37.76H45.1146V38.64H43.3546V43H42.2846V38.64H40.5246Z" fill="#383838"/>
<path d="M4.87894 49.76H6.64894V55H5.62894V50.5L4.05894 55H2.74894L1.18894 50.5V55H0.158936V49.76H1.93894L3.41894 54.4L4.87894 49.76Z" fill="#383838"/>
<path d="M7.71144 53.61C7.71144 52.65 8.41477 52.1033 9.82144 51.97L11.3014 51.83V51.43C11.3014 51.1233 11.2048 50.8767 11.0114 50.69C10.8248 50.5033 10.5414 50.41 10.1614 50.41C9.82144 50.41 9.54144 50.49 9.32144 50.65C9.10144 50.8033 8.98144 51.03 8.96144 51.33H7.98144C8.00144 50.75 8.21144 50.3233 8.61144 50.05C9.01144 49.7767 9.5281 49.64 10.1614 49.64C10.8748 49.64 11.4214 49.81 11.8014 50.15C12.1814 50.49 12.3714 50.99 12.3714 51.65V55H11.3814V53.98C11.2148 54.34 10.9648 54.62 10.6314 54.82C10.2981 55.02 9.89477 55.12 9.42144 55.12C8.85477 55.12 8.4281 54.98 8.14144 54.7C7.85477 54.42 7.71144 54.0567 7.71144 53.61ZM8.77144 53.56C8.77144 53.8 8.85144 53.9967 9.01144 54.15C9.1781 54.2967 9.42477 54.37 9.75144 54.37C10.2248 54.37 10.6014 54.2233 10.8814 53.93C11.1614 53.63 11.3014 53.2467 11.3014 52.78V52.5L9.96144 52.63C9.1681 52.71 8.77144 53.02 8.77144 53.56Z" fill="#383838"/>
<path d="M13.6453 57V49.76H14.6353V50.81C14.8019 50.4367 15.0453 50.15 15.3653 49.95C15.6853 49.7433 16.0453 49.64 16.4453 49.64C17.0986 49.64 17.6286 49.8867 18.0353 50.38C18.4486 50.8667 18.6553 51.5333 18.6553 52.38C18.6553 53.2267 18.4486 53.8967 18.0353 54.39C17.6286 54.8767 17.1019 55.12 16.4553 55.12C15.6686 55.12 15.0886 54.77 14.7153 54.07V57H13.6453ZM15.0553 51C14.7953 51.3467 14.6653 51.8067 14.6653 52.38C14.6653 52.9533 14.7953 53.4133 15.0553 53.76C15.3219 54.1067 15.6786 54.28 16.1253 54.28C16.5786 54.28 16.9353 54.1067 17.1953 53.76C17.4619 53.4133 17.5953 52.9533 17.5953 52.38C17.5953 51.8067 17.4619 51.3467 17.1953 51C16.9353 50.6533 16.5786 50.48 16.1253 50.48C15.6786 50.48 15.3219 50.6533 15.0553 51Z" fill="#383838"/>
<path d="M24.53 55H23.2L21.39 52.77H20.77V55H19.7V49.76H20.77V51.93H21.41L23.12 49.76H24.39L22.17 52.26L24.53 55Z" fill="#383838"/>
<path d="M24.6348 52.38C24.6348 51.48 24.8681 50.8 25.3348 50.34C25.8015 49.8733 26.4215 49.64 27.1948 49.64C28.8281 49.64 29.6448 50.6133 29.6448 52.56V52.69H25.7048C25.7448 53.23 25.9015 53.6433 26.1748 53.93C26.4548 54.21 26.8181 54.35 27.2648 54.35C27.8981 54.35 28.3281 54.08 28.5548 53.54L29.5748 53.61C29.4348 54.0833 29.1648 54.4533 28.7648 54.72C28.3715 54.9867 27.8715 55.12 27.2648 55.12C26.4581 55.12 25.8181 54.89 25.3448 54.43C24.8715 53.97 24.6348 53.2867 24.6348 52.38ZM25.7148 51.99H28.5848C28.5648 51.4967 28.4315 51.11 28.1848 50.83C27.9381 50.55 27.6081 50.41 27.1948 50.41C26.7815 50.41 26.4415 50.5433 26.1748 50.81C25.9148 51.0767 25.7615 51.47 25.7148 51.99Z" fill="#383838"/>
<path d="M30.0314 50.64V49.76H34.6214V50.64H32.8614V55H31.7914V50.64H30.0314Z" fill="#383838"/>
<path d="M38.7307 49.76H40.3207V55H39.2907V50.54L37.0907 55H35.5007V49.76H36.5307V54.22L38.7307 49.76Z" fill="#383838"/>
<path d="M41.6433 55V49.76H42.7133V51.89H45.2133V49.76H46.2833V55H45.2133V52.77H42.7133V55H41.6433Z" fill="#383838"/>
<path d="M47.6003 55V49.76H51.2403V50.64H48.6703V55H47.6003Z" fill="#383838"/>
</svg>
