<svg width="54" height="49" viewBox="0 0 54 49" fill="none" xmlns="http://www.w3.org/2000/svg">
<path d="M3.25607 32.4999C3.25607 31.4132 3.52607 30.5399 4.06607 29.8799C4.60607 29.2132 5.36274 28.8799 6.33607 28.8799C7.13607 28.8799 7.78941 29.0932 8.29607 29.5199C8.80274 29.9399 9.10274 30.5099 9.19607 31.2299L8.13607 31.3199C8.06941 30.8599 7.86941 30.4899 7.53607 30.2099C7.20941 29.9299 6.80941 29.7899 6.33607 29.7899C5.69607 29.7899 5.20941 30.0499 4.87607 30.5699C4.54274 31.0899 4.37607 31.7332 4.37607 32.4999C4.37607 33.2865 4.55607 33.9365 4.91607 34.4499C5.27607 34.9565 5.77607 35.2099 6.41607 35.2099C6.92274 35.2099 7.33274 35.0565 7.64607 34.7499C7.95941 34.4365 8.14607 34.0432 8.20607 33.5699L9.27607 33.6399C9.18274 34.3999 8.88941 35.0032 8.39607 35.4499C7.90941 35.8965 7.24941 36.1199 6.41607 36.1199C5.40941 36.1199 4.62941 35.7932 4.07607 35.1399C3.52941 34.4799 3.25607 33.5999 3.25607 32.4999Z" fill="#383838"/>
<path d="M15.1032 35.9999H13.7732L11.9632 33.7699H11.3432V35.9999H10.2732V30.7599H11.3432V32.9299H11.9832L13.6932 30.7599H14.9632L12.7432 33.2599L15.1032 35.9999Z" fill="#383838"/>
<path d="M18.8191 33.2899C19.8658 33.3965 20.3891 33.8232 20.3891 34.5699C20.3891 34.9765 20.2325 35.3165 19.9191 35.5899C19.6125 35.8632 19.1125 35.9999 18.4191 35.9999H15.8591V30.7599H18.2891C18.9291 30.7599 19.4091 30.8832 19.7291 31.1299C20.0558 31.3699 20.2191 31.6865 20.2191 32.0799C20.2191 32.7599 19.7525 33.1632 18.8191 33.2899ZM16.9291 31.5599V32.9799H18.2091C18.8358 32.9799 19.1491 32.7432 19.1491 32.2699C19.1491 31.7965 18.8191 31.5599 18.1591 31.5599H16.9291ZM18.3191 35.1999C18.9858 35.1999 19.3191 34.9432 19.3191 34.4299C19.3191 33.9299 18.9691 33.6799 18.2691 33.6799H16.9291V35.1999H18.3191Z" fill="#383838"/>
<path d="M21.8258 35.3899C21.3658 34.8965 21.1358 34.2265 21.1358 33.3799C21.1358 32.5332 21.3658 31.8665 21.8258 31.3799C22.2924 30.8865 22.9158 30.6399 23.6958 30.6399C24.4824 30.6399 25.1058 30.8865 25.5658 31.3799C26.0324 31.8665 26.2658 32.5332 26.2658 33.3799C26.2658 34.2265 26.0324 34.8965 25.5658 35.3899C25.1058 35.8765 24.4824 36.1199 23.6958 36.1199C22.9158 36.1199 22.2924 35.8765 21.8258 35.3899ZM22.5958 31.9999C22.3291 32.3465 22.1958 32.8065 22.1958 33.3799C22.1958 33.9532 22.3291 34.4132 22.5958 34.7599C22.8691 35.1065 23.2358 35.2799 23.6958 35.2799C24.1558 35.2799 24.5224 35.1065 24.7958 34.7599C25.0691 34.4132 25.2058 33.9532 25.2058 33.3799C25.2058 32.8065 25.0691 32.3465 24.7958 31.9999C24.5224 31.6532 24.1558 31.4799 23.6958 31.4799C23.2358 31.4799 22.8691 31.6532 22.5958 31.9999Z" fill="#383838"/>
<path d="M29.9744 33.2899C31.0544 33.3965 31.5944 33.8365 31.5944 34.6099C31.5944 35.0565 31.4178 35.4199 31.0644 35.6999C30.7111 35.9799 30.1211 36.1199 29.2944 36.1199C27.7811 36.1199 26.9844 35.5365 26.9044 34.3699L27.9344 34.3199C27.9878 34.9732 28.4411 35.2999 29.2944 35.2999C30.1144 35.2999 30.5244 35.0199 30.5244 34.4599C30.5244 33.9399 30.0844 33.6799 29.2044 33.6799H28.5944V32.9799H29.1544C29.5611 32.9799 29.8611 32.9132 30.0544 32.7799C30.2544 32.6399 30.3544 32.4565 30.3544 32.2299C30.3544 31.9899 30.2578 31.8032 30.0644 31.6699C29.8778 31.5299 29.6244 31.4599 29.3044 31.4599C28.9711 31.4599 28.6944 31.5365 28.4744 31.6899C28.2611 31.8432 28.1378 32.0765 28.1044 32.3899L27.0744 32.3299C27.1144 31.7565 27.3344 31.3332 27.7344 31.0599C28.1411 30.7799 28.6644 30.6399 29.3044 30.6399C30.0111 30.6399 30.5411 30.7665 30.8944 31.0199C31.2478 31.2665 31.4244 31.5999 31.4244 32.0199C31.4244 32.7265 30.9411 33.1499 29.9744 33.2899Z" fill="#383838"/>
<path d="M32.6267 35.9999V30.7599H33.6967V32.8899H36.1967V30.7599H37.2667V35.9999H36.1967V33.7699H33.6967V35.9999H32.6267Z" fill="#383838"/>
<path d="M38.3237 34.6099C38.3237 33.6499 39.0271 33.1032 40.4337 32.9699L41.9137 32.8299V32.4299C41.9137 32.1232 41.8171 31.8765 41.6237 31.6899C41.4371 31.5032 41.1537 31.4099 40.7737 31.4099C40.4337 31.4099 40.1537 31.4899 39.9337 31.6499C39.7137 31.8032 39.5937 32.0299 39.5737 32.3299H38.5937C38.6137 31.7499 38.8237 31.3232 39.2237 31.0499C39.6237 30.7765 40.1404 30.6399 40.7737 30.6399C41.4871 30.6399 42.0337 30.8099 42.4137 31.1499C42.7937 31.4899 42.9837 31.9899 42.9837 32.6499V35.9999H41.9937V34.9799C41.8271 35.3399 41.5771 35.6199 41.2437 35.8199C40.9104 36.0199 40.5071 36.1199 40.0337 36.1199C39.4671 36.1199 39.0404 35.9799 38.7537 35.6999C38.4671 35.4199 38.3237 35.0565 38.3237 34.6099ZM39.3837 34.5599C39.3837 34.7999 39.4637 34.9965 39.6237 35.1499C39.7904 35.2965 40.0371 35.3699 40.3637 35.3699C40.8371 35.3699 41.2137 35.2232 41.4937 34.9299C41.7737 34.6299 41.9137 34.2465 41.9137 33.7799V33.4999L40.5737 33.6299C39.7804 33.7099 39.3837 34.0199 39.3837 34.5599Z" fill="#383838"/>
<path d="M46.0776 30.7599H48.5176V35.9999H47.4376V33.9099H46.4676L45.1376 35.9999H43.8776L45.4176 33.8599C44.5109 33.6932 44.0576 33.1865 44.0576 32.3399C44.0576 31.8332 44.2309 31.4432 44.5776 31.1699C44.9242 30.8965 45.4242 30.7599 46.0776 30.7599ZM47.4376 33.2199V31.5799H46.2076C45.8609 31.5799 45.5942 31.6532 45.4076 31.7999C45.2209 31.9399 45.1276 32.1399 45.1276 32.3999C45.1276 32.6599 45.2209 32.8632 45.4076 33.0099C45.5942 33.1499 45.8609 33.2199 46.2076 33.2199H47.4376Z" fill="#383838"/>
<path d="M0.677246 46.6099C0.677246 45.6499 1.38058 45.1032 2.78725 44.9699L4.26725 44.8299V44.4299C4.26725 44.1232 4.17058 43.8765 3.97725 43.6899C3.79058 43.5032 3.50725 43.4099 3.12725 43.4099C2.78725 43.4099 2.50725 43.4899 2.28725 43.6499C2.06725 43.8032 1.94725 44.0299 1.92725 44.3299H0.947246C0.967246 43.7499 1.17725 43.3232 1.57725 43.0499C1.97725 42.7765 2.49391 42.6399 3.12725 42.6399C3.84058 42.6399 4.38725 42.8099 4.76725 43.1499C5.14725 43.4899 5.33725 43.9899 5.33725 44.6499V47.9999H4.34725V46.9799C4.18058 47.3399 3.93058 47.6199 3.59725 47.8199C3.26391 48.0199 2.86058 48.1199 2.38725 48.1199C1.82058 48.1199 1.39391 47.9799 1.10725 47.6999C0.820579 47.4199 0.677246 47.0565 0.677246 46.6099ZM1.73725 46.5599C1.73725 46.7999 1.81725 46.9965 1.97725 47.1499C2.14391 47.2965 2.39058 47.3699 2.71725 47.3699C3.19058 47.3699 3.56725 47.2232 3.84725 46.9299C4.12725 46.6299 4.26725 46.2465 4.26725 45.7799V45.4999L2.92725 45.6299C2.13391 45.7099 1.73725 46.0199 1.73725 46.5599Z" fill="#383838"/>
<path d="M6.61107 47.9999V42.7599H7.68107V44.8899H10.1811V42.7599H11.2511V47.9999H10.1811V45.7699H7.68107V47.9999H6.61107Z" fill="#383838"/>
<path d="M12.3081 46.6099C12.3081 45.6499 13.0114 45.1032 14.4181 44.9699L15.8981 44.8299V44.4299C15.8981 44.1232 15.8014 43.8765 15.6081 43.6899C15.4214 43.5032 15.1381 43.4099 14.7581 43.4099C14.4181 43.4099 14.1381 43.4899 13.9181 43.6499C13.6981 43.8032 13.5781 44.0299 13.5581 44.3299H12.5781C12.5981 43.7499 12.8081 43.3232 13.2081 43.0499C13.6081 42.7765 14.1248 42.6399 14.7581 42.6399C15.4714 42.6399 16.0181 42.8099 16.3981 43.1499C16.7781 43.4899 16.9681 43.9899 16.9681 44.6499V47.9999H15.9781V46.9799C15.8114 47.3399 15.5614 47.6199 15.2281 47.8199C14.8948 48.0199 14.4914 48.1199 14.0181 48.1199C13.4514 48.1199 13.0248 47.9799 12.7381 47.6999C12.4514 47.4199 12.3081 47.0565 12.3081 46.6099ZM13.3681 46.5599C13.3681 46.7999 13.4481 46.9965 13.6081 47.1499C13.7748 47.2965 14.0214 47.3699 14.3481 47.3699C14.8214 47.3699 15.1981 47.2232 15.4781 46.9299C15.7581 46.6299 15.8981 46.2465 15.8981 45.7799V45.4999L14.5581 45.6299C13.7648 45.7099 13.3681 46.0199 13.3681 46.5599Z" fill="#383838"/>
<path d="M18.8019 42.7599H22.6719V47.9999H21.6019V43.6399H19.7419C19.7219 43.8865 19.6986 44.2299 19.6719 44.6699C19.6519 45.0432 19.6353 45.3166 19.6219 45.4899C19.6086 45.6566 19.5886 45.8799 19.5619 46.1599C19.5353 46.4332 19.5086 46.6332 19.4819 46.7599C19.4553 46.8799 19.4153 47.0332 19.3619 47.2199C19.3153 47.3999 19.2586 47.5299 19.1919 47.6099C19.1319 47.6832 19.0553 47.7632 18.9619 47.8499C18.8686 47.9365 18.7619 47.9932 18.6419 48.0199C18.5219 48.0532 18.3853 48.0699 18.2319 48.0699C18.0519 48.0699 17.8919 48.0565 17.7519 48.0299V47.1699C17.8253 47.1766 17.9086 47.1799 18.0019 47.1799C18.2819 47.1799 18.4753 46.8299 18.5819 46.1299C18.6286 45.7965 18.6953 44.8132 18.7819 43.1799C18.7886 43.0332 18.7953 42.8932 18.8019 42.7599Z" fill="#383838"/>
<path d="M27.2239 42.7599H28.8139V47.9999H27.7839V43.5399L25.5839 47.9999H23.9939V42.7599H25.0239V47.2199L27.2239 42.7599Z" fill="#383838"/>
<path d="M29.6965 43.6399V42.7599H34.2865V43.6399H32.5265V47.9999H31.4565V43.6399H29.6965Z" fill="#383838"/>
<path d="M38.3958 42.7599H39.9858V47.9999H38.9558V43.5399L36.7558 47.9999H35.1658V42.7599H36.1958V47.2199L38.3958 42.7599Z" fill="#383838"/>
<path d="M46.1383 47.9999H44.8083L42.9983 45.7699H42.3783V47.9999H41.3083V42.7599H42.3783V44.9299H43.0183L44.7283 42.7599H45.9983L43.7783 45.2599L46.1383 47.9999Z" fill="#383838"/>
<path d="M46.4487 46.6099C46.4487 45.6499 47.1521 45.1032 48.5587 44.9699L50.0387 44.8299V44.4299C50.0387 44.1232 49.9421 43.8765 49.7487 43.6899C49.5621 43.5032 49.2787 43.4099 48.8987 43.4099C48.5587 43.4099 48.2787 43.4899 48.0587 43.6499C47.8387 43.8032 47.7187 44.0299 47.6987 44.3299H46.7187C46.7387 43.7499 46.9487 43.3232 47.3487 43.0499C47.7487 42.7765 48.2654 42.6399 48.8987 42.6399C49.6121 42.6399 50.1587 42.8099 50.5387 43.1499C50.9187 43.4899 51.1087 43.9899 51.1087 44.6499V47.9999H50.1187V46.9799C49.9521 47.3399 49.7021 47.6199 49.3687 47.8199C49.0354 48.0199 48.6321 48.1199 48.1587 48.1199C47.5921 48.1199 47.1654 47.9799 46.8787 47.6999C46.5921 47.4199 46.4487 47.0565 46.4487 46.6099ZM47.5087 46.5599C47.5087 46.7999 47.5887 46.9965 47.7487 47.1499C47.9154 47.2965 48.1621 47.3699 48.4887 47.3699C48.9621 47.3699 49.3387 47.2232 49.6187 46.9299C49.8987 46.6299 50.0387 46.2465 50.0387 45.7799V45.4999L48.6987 45.6299C47.9054 45.7099 47.5087 46.0199 47.5087 46.5599Z" fill="#383838"/>
<g clip-path="url(#clip0_2118_243)">
<mask id="mask0_2118_243" style="mask-type:alpha" maskUnits="userSpaceOnUse" x="0" y="0" width="54" height="13">
<path fill-rule="evenodd" clip-rule="evenodd" d="M0.87085 0.866699H53.1289V12.1334H0.87085V0.866699Z" fill="white"/>
</mask>
<g mask="url(#mask0_2118_243)">
<path fill-rule="evenodd" clip-rule="evenodd" d="M4.39121 6.28238C5.63065 6.28238 6.42404 6.08017 7.00264 5.6288C7.51488 5.22416 7.7627 4.67959 7.7627 4.01045C7.7627 3.18558 7.38284 2.62545 6.78791 2.25194C6.14312 1.84729 5.34999 1.73853 4.01131 1.73853H1.8795L1.87924 6.28238H4.39121ZM0.871104 0.866699L4.07721 0.866939C5.46551 0.866939 6.53981 1.02266 7.38284 1.53632C8.1925 2.03417 8.77088 2.84322 8.77088 3.96373C8.77111 4.99081 8.27518 5.83101 7.51488 6.34443C6.9696 6.71815 6.32505 6.90479 5.58129 7.01379L9.58053 12.1331L8.35763 12.1334L4.45711 7.09142H1.87925L1.87899 12.1331H0.87085L0.871104 0.866699Z" fill="#383838"/>
<path fill-rule="evenodd" clip-rule="evenodd" d="M21.1935 4.38745H21.9192L21.919 12.1333H21.1934L21.1935 4.38745Z" fill="#383838"/>
<path fill-rule="evenodd" clip-rule="evenodd" d="M25.0218 10.5358C25.903 11.0481 27.0331 11.3196 28.1133 11.3196C29.493 11.3196 30.3741 10.8825 30.3743 9.99341C30.3741 8.87835 29.0111 8.75768 27.7315 8.57674C26.3685 8.38092 24.8225 8.0192 24.8225 6.51223C24.8227 5.11064 26.1356 4.38745 27.9974 4.38745C29.061 4.38745 30.1417 4.62851 30.9397 5.02039L30.9394 5.95472C30.0752 5.45751 28.9781 5.20136 27.9644 5.20136C26.6843 5.20136 25.8035 5.60808 25.8032 6.45216C25.8035 7.49181 27.1332 7.59738 28.3629 7.77838C29.8423 7.98924 31.3548 8.35073 31.3548 9.91798C31.3548 11.3799 30.0416 12.1333 28.0637 12.1333C26.9832 12.1333 25.8528 11.9071 25.0218 11.4853V10.5358Z" fill="#383838"/>
<path fill-rule="evenodd" clip-rule="evenodd" d="M34.382 9.42261L34.3822 5.30378H32.8064L32.8066 4.51619H34.3822V2.42646L35.3308 2.27515V4.51643H37.887V5.30378H35.3308V9.2713C35.3308 10.3918 35.5073 11.3156 36.7615 11.3158C37.1794 11.3156 37.5813 11.2097 37.887 11.043L37.8868 11.8912C37.5813 12.0274 37.1152 12.1335 36.6328 12.1335C36.0541 12.1335 35.3949 11.9819 34.9446 11.4972C34.5426 11.0582 34.382 10.3918 34.382 9.42261Z" fill="#383838"/>
<path fill-rule="evenodd" clip-rule="evenodd" d="M44.3959 10.4637V8.79435C43.8026 8.62901 43.1161 8.52367 42.4915 8.52367C41.399 8.52367 40.2751 8.85435 40.2754 9.9524C40.2751 10.915 41.1335 11.336 42.07 11.3362C42.9442 11.3362 43.787 10.9752 44.3959 10.4637ZM40.1345 11.6218C39.6352 11.261 39.3386 10.7196 39.3386 10.0277C39.3386 9.24547 39.7133 8.68901 40.3063 8.31293C40.8841 7.95217 41.6643 7.81691 42.4136 7.81669C43.1161 7.81669 43.7558 7.92203 44.3959 8.08759V7.23037C44.3959 6.50835 44.2554 6.04221 43.8341 5.6812C43.4749 5.3804 42.9445 5.21483 42.2574 5.21483C41.3524 5.21483 40.5251 5.50058 39.9007 5.93685V5.04949C40.5251 4.6732 41.3834 4.38768 42.3514 4.38745C43.2723 4.38768 44.0213 4.61322 44.5365 5.03445C45.0512 5.45566 45.3168 6.11724 45.3168 7.01985V10.2234C45.3165 10.855 45.4725 11.3214 46.0971 11.3212C46.2843 11.3212 46.4561 11.2763 46.5967 11.201L46.5965 11.9682C46.4249 12.0432 46.1908 12.0884 45.9253 12.0884C45.2697 12.0884 44.7547 11.7876 44.5363 11.2158H44.505C43.9276 11.6973 42.9911 12.1333 41.9453 12.1333C41.2897 12.1333 40.6342 11.983 40.1345 11.6218Z" fill="#383838"/>
<path fill-rule="evenodd" clip-rule="evenodd" d="M49.6239 9.42289L49.6242 5.30378H48.0483L48.0486 4.51643H49.6242V2.42669L50.5727 2.27515V4.51643H53.129V5.30378H50.5727V9.2713C50.5727 10.392 50.7492 11.3158 52.0035 11.3158C52.4213 11.3158 52.8233 11.2097 53.129 11.0433L53.1288 11.8912C52.8233 12.0276 52.3572 12.1335 51.8747 12.1335C51.296 12.1335 50.6368 11.9822 50.1866 11.4974C49.7845 11.0584 49.6239 10.392 49.6239 9.42289Z" fill="#383838"/>
<path fill-rule="evenodd" clip-rule="evenodd" d="M16.2477 7.15888C16.4702 7.46905 16.6004 7.84818 16.6004 8.26048C16.6004 9.31543 15.7581 10.1593 14.6614 10.1593C13.5649 10.1593 12.7223 9.31521 12.7223 8.26048C12.7223 7.20575 13.5649 6.36167 14.6616 6.36167C15.1508 6.36167 15.5885 6.5306 15.9243 6.8104L17.3497 5.17398C16.6207 4.6784 15.6962 4.38768 14.6616 4.38745C12.1661 4.38745 10.3066 6.07536 10.3064 8.26048C10.3064 10.4456 12.1661 12.1333 14.6614 12.1333C17.1566 12.1335 19.0161 10.4458 19.0161 8.26071C19.0161 7.35284 18.6945 6.53172 18.1405 5.88093L16.2477 7.15888Z" fill="#26A4F0"/>
<path fill-rule="evenodd" clip-rule="evenodd" d="M21.5112 2.9792L23.3708 1.6191C23.1482 1.33562 22.8873 1.08276 22.5937 0.866699L21.1934 2.60806C21.3138 2.71671 21.4201 2.84166 21.5112 2.9792Z" fill="#26A4F0"/>
</g>
</g>
<defs>
<clipPath id="clip0_2118_243">
<rect width="54" height="13" fill="white"/>
</clipPath>
</defs>
</svg>
