<svg width="39" height="57" viewBox="0 0 39 57" fill="none" xmlns="http://www.w3.org/2000/svg">
<path d="M1.80653 35.9999H6.53653V42.9999H5.41653V36.9199H2.82653C2.81987 37.1866 2.80653 37.5699 2.78653 38.0699C2.76653 38.7499 2.74987 39.2466 2.73653 39.5599C2.7232 39.8733 2.6932 40.2666 2.64653 40.7399C2.60653 41.2133 2.54987 41.5566 2.47653 41.7699C2.40987 41.9766 2.31653 42.1999 2.19653 42.4399C2.0832 42.6799 1.93653 42.8433 1.75653 42.9299C1.57653 43.0099 1.35987 43.0499 1.10653 43.0499C0.886533 43.0499 0.666533 43.0366 0.446533 43.0099V42.1099C0.606533 42.1299 0.746533 42.1399 0.866533 42.1399C0.966533 42.1399 1.05653 42.1133 1.13653 42.0599C1.21653 41.9999 1.2832 41.9066 1.33653 41.7799C1.39653 41.6466 1.44653 41.5066 1.48653 41.3599C1.52653 41.2066 1.55987 41.0066 1.58653 40.7599C1.61987 40.5133 1.6432 40.2766 1.65653 40.0499C1.67653 39.8233 1.6932 39.5366 1.70653 39.1899C1.71987 38.8366 1.72987 38.5166 1.73653 38.2299C1.7432 37.9433 1.7532 37.5833 1.76653 37.1499C1.77987 36.7166 1.7932 36.3333 1.80653 35.9999Z" fill="#383838"/>
<path d="M11.2464 37.7599H12.8364V42.9999H11.8064V38.5399L9.60638 42.9999H8.01638V37.7599H9.04638V42.2199L11.2464 37.7599Z" fill="#383838"/>
<path d="M17.409 37.7599H18.479V42.9999H17.409V40.8999C16.8023 41.0333 16.269 41.0999 15.809 41.0999C14.589 41.0999 13.979 40.4899 13.979 39.2699V37.7599H15.049V39.1399C15.049 39.5333 15.1356 39.8133 15.309 39.9799C15.489 40.1399 15.779 40.2199 16.179 40.2199C16.5256 40.2199 16.9356 40.1533 17.409 40.0199V37.7599Z" fill="#383838"/>
<path d="M19.8035 42.9999V37.7599H20.8735V39.8899H23.3735V37.7599H24.4435V42.9999H23.3735V40.7699H20.8735V42.9999H19.8035Z" fill="#383838"/>
<path d="M28.0005 39.6899C29.3872 39.6899 30.0805 40.2399 30.0805 41.3399C30.0805 42.4466 29.3872 42.9999 28.0005 42.9999H25.7605V37.7599H26.8305V39.6899H28.0005ZM30.8605 37.7599H31.9305V42.9999H30.8605V37.7599ZM27.9205 42.1799C28.6472 42.1799 29.0105 41.8966 29.0105 41.3299C29.0105 40.7699 28.6472 40.4899 27.9205 40.4899H26.8305V42.1799H27.9205Z" fill="#383838"/>
<path d="M36.7508 36.7099C36.5041 36.9633 36.1408 37.0899 35.6608 37.0899C35.1808 37.0899 34.8141 36.9633 34.5608 36.7099C34.3141 36.4566 34.1841 36.1133 34.1708 35.6799H34.8808C34.9008 35.8933 34.9708 36.0799 35.0908 36.2399C35.2174 36.3933 35.4074 36.4699 35.6608 36.4699C36.1208 36.4699 36.3808 36.2066 36.4408 35.6799H37.1408C37.1274 36.1133 36.9974 36.4566 36.7508 36.7099ZM36.4808 37.7599H38.0708V42.9999H37.0408V38.5399L34.8408 42.9999H33.2508V37.7599H34.2808V42.2199L36.4808 37.7599Z" fill="#383838"/>
<path d="M7.9736 49.9299C8.6736 49.9299 9.24027 50.1666 9.6736 50.6399C10.1136 51.1066 10.3336 51.7366 10.3336 52.5299C10.3336 53.3299 10.1036 53.9633 9.6436 54.4299C9.1836 54.8899 8.55694 55.1199 7.7636 55.1199C6.05694 55.1199 5.2036 53.9999 5.2036 51.7599C5.2036 50.6266 5.36694 49.7566 5.6936 49.1499C6.02027 48.5366 6.55027 48.1466 7.2836 47.9799C7.39694 47.9533 7.8636 47.8833 8.6836 47.7699C9.17694 47.6966 9.55027 47.6133 9.8036 47.5199V48.3599C9.61027 48.4666 9.27694 48.5566 8.8036 48.6299C8.67027 48.6499 8.50027 48.6733 8.2936 48.6999C8.08694 48.7199 7.92694 48.7366 7.8136 48.7499C7.5536 48.7833 7.33027 48.8433 7.1436 48.9299C6.95694 49.0166 6.77694 49.1533 6.6036 49.3399C6.43027 49.5266 6.29027 49.7966 6.1836 50.1499C6.07694 50.4966 6.0036 50.9266 5.9636 51.4399C6.1036 50.9666 6.3436 50.5966 6.6836 50.3299C7.03027 50.0633 7.46027 49.9299 7.9736 49.9299ZM6.6636 53.8099C6.93027 54.1233 7.29694 54.2799 7.7636 54.2799C8.23027 54.2799 8.59694 54.1233 8.8636 53.8099C9.13694 53.4966 9.2736 53.0699 9.2736 52.5299C9.2736 51.9899 9.13694 51.5633 8.8636 51.2499C8.59694 50.9299 8.23027 50.7699 7.7636 50.7699C7.3036 50.7699 6.93694 50.9299 6.6636 51.2499C6.39694 51.5633 6.2636 51.9899 6.2636 52.5299C6.2636 53.0699 6.39694 53.4966 6.6636 53.8099Z" fill="#383838"/>
<path d="M11.3709 56.9999V49.7599H12.3609V50.8099C12.5275 50.4366 12.7709 50.1499 13.0909 49.9499C13.4109 49.7433 13.7709 49.6399 14.1709 49.6399C14.8242 49.6399 15.3542 49.8866 15.7609 50.3799C16.1742 50.8666 16.3809 51.5333 16.3809 52.3799C16.3809 53.2266 16.1742 53.8966 15.7609 54.3899C15.3542 54.8766 14.8275 55.1199 14.1809 55.1199C13.3942 55.1199 12.8142 54.7699 12.4409 54.0699V56.9999H11.3709ZM12.7809 50.9999C12.5209 51.3466 12.3909 51.8066 12.3909 52.3799C12.3909 52.9533 12.5209 53.4133 12.7809 53.7599C13.0475 54.1066 13.4042 54.2799 13.8509 54.2799C14.3042 54.2799 14.6609 54.1066 14.9209 53.7599C15.1875 53.4133 15.3209 52.9533 15.3209 52.3799C15.3209 51.8066 15.1875 51.3466 14.9209 50.9999C14.6609 50.6533 14.3042 50.4799 13.8509 50.4799C13.4042 50.4799 13.0475 50.6533 12.7809 50.9999Z" fill="#383838"/>
<path d="M17.1456 52.3799C17.1456 51.4799 17.3789 50.7999 17.8456 50.3399C18.3122 49.8733 18.9322 49.6399 19.7056 49.6399C21.3389 49.6399 22.1556 50.6133 22.1556 52.5599V52.6899H18.2156C18.2556 53.2299 18.4122 53.6433 18.6856 53.9299C18.9656 54.2099 19.3289 54.3499 19.7756 54.3499C20.4089 54.3499 20.8389 54.0799 21.0656 53.5399L22.0856 53.6099C21.9456 54.0833 21.6756 54.4533 21.2756 54.7199C20.8822 54.9866 20.3822 55.1199 19.7756 55.1199C18.9689 55.1199 18.3289 54.8899 17.8556 54.4299C17.3822 53.9699 17.1456 53.2866 17.1456 52.3799ZM18.2256 51.9899H21.0956C21.0756 51.4966 20.9422 51.1099 20.6956 50.8299C20.4489 50.5499 20.1189 50.4099 19.7056 50.4099C19.2922 50.4099 18.9522 50.5433 18.6856 50.8099C18.4256 51.0766 18.2722 51.4699 18.2256 51.9899Z" fill="#383838"/>
<path d="M23.1775 54.9999V49.7599H24.2475V51.8899H26.7475V49.7599H27.8175V54.9999H26.7475V52.7699H24.2475V54.9999H23.1775Z" fill="#383838"/>
<path d="M33.4145 54.1199H34.0545V56.3999H33.0445V54.9999H29.6045V56.3999H28.5945V54.1199H28.9945C29.1012 53.8866 29.1879 53.5399 29.2545 53.0799C29.3212 52.6133 29.3679 52.1833 29.3945 51.7899C29.4212 51.3899 29.4612 50.7133 29.5145 49.7599H33.4145V54.1199ZM32.3445 54.1199V50.6399H30.4345C30.4279 50.7466 30.4145 50.9099 30.3945 51.1299C30.3812 51.3499 30.3712 51.5066 30.3645 51.5999C30.3579 51.6866 30.3479 51.8233 30.3345 52.0099C30.3212 52.1899 30.3112 52.3233 30.3045 52.4099C30.2979 52.4899 30.2879 52.6033 30.2745 52.7499C30.2612 52.8899 30.2479 52.9999 30.2345 53.0799C30.2212 53.1599 30.2045 53.2566 30.1845 53.3699C30.1712 53.4833 30.1545 53.5766 30.1345 53.6499C30.1212 53.7233 30.1045 53.8033 30.0845 53.8899C30.0645 53.9699 30.0412 54.0466 30.0145 54.1199H32.3445Z" fill="#383838"/>
<path d="M23.1127 16.0237H10.2981C9.82071 16.0237 9.43774 16.4073 9.43774 16.8689C9.43774 17.3305 9.82071 17.7131 10.2981 17.7131H22.6364C22.5656 17.2451 22.6514 16.7614 22.9175 16.3388L23.1127 16.0237Z" fill="#B9D700"/>
<path d="M13.8198 8.15332H10.2992C9.82464 8.15332 9.43994 8.53126 9.43994 8.99748V12.9348C9.43994 13.401 9.82464 13.779 10.2992 13.779H13.8198C14.2944 13.779 14.6791 13.401 14.6791 12.9348V8.99748C14.6791 8.53126 14.2944 8.15332 13.8198 8.15332Z" fill="#B9D700"/>
<path d="M23.7853 9.79828C23.9881 9.25342 24.2466 8.70013 24.5352 8.15527H17.245C16.7676 8.15527 16.3857 8.53151 16.3857 9.00049C16.3857 9.46947 16.7676 9.84465 17.245 9.84465H23.7692C23.7778 9.8299 23.7778 9.81409 23.7853 9.79933V9.79828Z" fill="#B9D700"/>
<path d="M23.2929 12.0938H17.245C16.7676 12.0938 16.3857 12.4689 16.3857 12.9379C16.3857 13.4069 16.7676 13.7747 17.245 13.7747H23.4882C23.3391 13.291 23.2618 12.7387 23.2929 12.0938Z" fill="#B9D700"/>
<path d="M34.6682 0.0151675C34.297 -0.174532 32.2213 1.4358 30.0973 3.68901C30.0769 3.71009 30.0641 3.73643 30.0587 3.76383L29.3357 7.49669L28.7522 5.57652C28.7168 5.46059 28.5623 5.43003 28.4861 5.52487C27.8243 6.33637 27.2031 7.18474 26.6764 8.03101C26.6582 8.06052 26.6507 8.0953 26.655 8.13113L27.1645 11.9578L25.7925 10.2357C25.7196 10.144 25.5683 10.1672 25.5265 10.2758C24.8571 12.021 24.8593 13.5945 26.0972 14.602L24.4516 17.2557C24.3293 17.4517 24.4741 17.7046 24.7091 17.7046H26.0768C26.2162 17.7046 26.3385 17.6098 26.3696 17.4759C26.4683 17.0544 26.7172 16.108 27.1141 15.1816C29.3293 16.0332 31.0735 14.2247 32.3425 11.5942C32.394 11.4867 32.3018 11.3613 32.1806 11.3792L29.9793 11.6954L33.3112 9.10703C33.3359 9.08806 33.3541 9.06171 33.3627 9.03326C33.7049 8.0015 33.9891 6.93813 34.2155 5.91797C34.238 5.81258 34.1426 5.71984 34.0342 5.73987L31.6882 6.18777L34.5759 3.7828C34.6038 3.75856 34.6231 3.72484 34.6285 3.68796C34.931 1.6666 34.9471 0.155335 34.6671 0.0130601L34.6682 0.0151675Z" fill="#91A800"/>
<path d="M29.6607 19.6786C29.6607 20.0622 29.3485 20.3689 28.958 20.3689H17.628C17.4167 20.3689 17.2214 20.4458 17.0659 20.5765L11.4781 25.3127V21.2131C11.4781 20.7441 11.0952 20.3678 10.6189 20.3678H7.4222C7.03173 20.3678 6.71957 20.0612 6.71957 19.6775V5.52178H26.2312C27.2085 4.19388 28.2393 3.05042 28.9816 2.27476C29.3013 1.94384 29.607 1.62978 29.9031 1.33786C29.6135 1.20717 29.2938 1.13867 28.958 1.13867H7.4222C6.0856 1.13867 5 2.2052 5 3.51834V19.6786C5 20.9917 6.0856 22.0583 7.4222 22.0583H9.75858V27.1559C9.75858 27.4868 9.95381 27.7861 10.267 27.9231C10.3765 27.9769 10.5009 28.0001 10.6189 28.0001C10.8216 28.0001 11.0244 27.9316 11.181 27.8009L17.9477 22.0583H28.958C30.2946 22.0583 31.3802 20.9917 31.3802 19.6786V15.9394C30.7945 16.4232 30.2153 16.7383 29.6607 16.9227V19.6786ZM12.8137 2.53612C13.2588 2.53612 13.6182 2.88917 13.6182 3.32654C13.6182 3.7639 13.2588 4.13276 12.8137 4.13276C12.3685 4.13276 12.0005 3.77127 12.0005 3.32654C12.0005 2.8818 12.3674 2.53612 12.8137 2.53612ZM10.3443 2.53612C10.798 2.53612 11.1649 2.88917 11.1649 3.32654C11.1649 3.7639 10.798 4.13276 10.3443 4.13276C9.89052 4.13276 9.53974 3.77127 9.53974 3.32654C9.53974 2.8818 9.8991 2.53612 10.3443 2.53612ZM7.89099 2.53612C8.33617 2.53612 8.69553 2.88917 8.69553 3.32654C8.69553 3.7639 8.33617 4.13276 7.89099 4.13276C7.44581 4.13276 7.08645 3.77127 7.08645 3.32654C7.08645 2.8818 7.44581 2.53612 7.89099 2.53612Z" fill="#B9D700"/>
</svg>
