<svg width="48" height="56" viewBox="0 0 48 56" fill="none" xmlns="http://www.w3.org/2000/svg">
<path d="M23.9794 10.0635C24.692 9.3315 25.6766 8.91696 26.6938 8.91696C27.186 8.91696 27.6693 9.01175 28.1358 9.20131L33.3699 11.3733C35.9831 8.05478 35.1851 2.87485 30.9861 0.685706C28.3313 -0.693784 25.0652 0.0998796 22.9522 2.24563L21.5529 3.66737L19.9659 2.05606C16.7593 -1.19396 11.1767 -0.564741 8.8951 3.96085C7.52951 6.65816 8.30952 9.9767 10.4225 12.1236L20.6616 22.5269C21.1539 23.027 21.9507 23.027 22.443 22.5269L25.336 19.5875L23.1646 14.2956C22.5622 12.8385 22.8847 11.1838 23.9794 10.0635Z" fill="#91A800"/>
<path d="M39.2852 23.0659L36.0742 19.8318L37.9298 18.4078C38.9829 17.5993 38.7682 15.9343 37.5465 15.4273L27.3322 11.1963C26.696 10.9325 25.9655 11.0844 25.4811 11.58C24.9978 12.0756 24.855 12.819 25.1203 13.4631L29.3744 23.8036C29.8835 25.0415 31.5245 25.2436 32.3101 24.1667L33.6959 22.2688L36.907 25.5028C37.569 26.1697 38.639 26.1651 39.2965 25.4925C39.9529 24.8199 39.9484 23.7328 39.2864 23.0647L39.2852 23.0659Z" fill="#B9D700"/>
<path d="M6.49946 35H7.72946L5.62946 40.24C5.3628 40.9267 5.07946 41.4033 4.77946 41.67C4.48613 41.93 4.1028 42.06 3.62946 42.06C3.32946 42.06 3.02613 42.04 2.71946 42V41.13C2.97946 41.1567 3.20613 41.17 3.39946 41.17C3.63946 41.17 3.83946 41.1133 3.99946 41C4.15946 40.8867 4.30613 40.67 4.43946 40.35L4.52946 40.1H4.03946L1.52946 35H2.77946L4.85946 39.52L6.49946 35Z" fill="#383838"/>
<path d="M8.03415 42V36.76H12.6142V42H11.5442V37.64H9.10415V42H8.03415Z" fill="#383838"/>
<path d="M13.6726 40.61C13.6726 39.65 14.3759 39.1033 15.7826 38.97L17.2626 38.83V38.43C17.2626 38.1233 17.1659 37.8767 16.9726 37.69C16.7859 37.5033 16.5026 37.41 16.1226 37.41C15.7826 37.41 15.5026 37.49 15.2826 37.65C15.0626 37.8033 14.9426 38.03 14.9226 38.33H13.9426C13.9626 37.75 14.1726 37.3233 14.5726 37.05C14.9726 36.7767 15.4893 36.64 16.1226 36.64C16.8359 36.64 17.3826 36.81 17.7626 37.15C18.1426 37.49 18.3326 37.99 18.3326 38.65V42H17.3426V40.98C17.1759 41.34 16.9259 41.62 16.5926 41.82C16.2593 42.02 15.8559 42.12 15.3826 42.12C14.8159 42.12 14.3893 41.98 14.1026 41.7C13.8159 41.42 13.6726 41.0567 13.6726 40.61ZM14.7326 40.56C14.7326 40.8 14.8126 40.9967 14.9726 41.15C15.1393 41.2967 15.3859 41.37 15.7126 41.37C16.1859 41.37 16.5626 41.2233 16.8426 40.93C17.1226 40.63 17.2626 40.2467 17.2626 39.78V39.5L15.9226 39.63C15.1293 39.71 14.7326 40.02 14.7326 40.56Z" fill="#383838"/>
<path d="M24.4364 42H23.1064L21.2964 39.77H20.6764V42H19.6064V36.76H20.6764V38.93H21.3164L23.0264 36.76H24.2964L22.0764 39.26L24.4364 42Z" fill="#383838"/>
<path d="M25.2313 41.39C24.7713 40.8967 24.5413 40.2267 24.5413 39.38C24.5413 38.5333 24.7713 37.8667 25.2313 37.38C25.6979 36.8867 26.3213 36.64 27.1013 36.64C27.8879 36.64 28.5113 36.8867 28.9713 37.38C29.4379 37.8667 29.6713 38.5333 29.6713 39.38C29.6713 40.2267 29.4379 40.8967 28.9713 41.39C28.5113 41.8767 27.8879 42.12 27.1013 42.12C26.3213 42.12 25.6979 41.8767 25.2313 41.39ZM26.0013 38C25.7346 38.3467 25.6013 38.8067 25.6013 39.38C25.6013 39.9533 25.7346 40.4133 26.0013 40.76C26.2746 41.1067 26.6413 41.28 27.1013 41.28C27.5613 41.28 27.9279 41.1067 28.2013 40.76C28.4746 40.4133 28.6113 39.9533 28.6113 39.38C28.6113 38.8067 28.4746 38.3467 28.2013 38C27.9279 37.6533 27.5613 37.48 27.1013 37.48C26.6413 37.48 26.2746 37.6533 26.0013 38Z" fill="#383838"/>
<path d="M33.6699 39.29C34.7166 39.3967 35.2399 39.8233 35.2399 40.57C35.2399 40.9767 35.0833 41.3167 34.7699 41.59C34.4633 41.8633 33.9633 42 33.2699 42H30.7099V36.76H33.1399C33.7799 36.76 34.2599 36.8833 34.5799 37.13C34.9066 37.37 35.0699 37.6867 35.0699 38.08C35.0699 38.76 34.6033 39.1633 33.6699 39.29ZM31.7799 37.56V38.98H33.0599C33.6866 38.98 33.9999 38.7433 33.9999 38.27C33.9999 37.7967 33.6699 37.56 33.0099 37.56H31.7799ZM33.1699 41.2C33.8366 41.2 34.1699 40.9433 34.1699 40.43C34.1699 39.93 33.8199 39.68 33.1199 39.68H31.7799V41.2H33.1699Z" fill="#383838"/>
<path d="M41.0966 42H39.7666L37.9566 39.77H37.3366V42H36.2666V36.76H37.3366V38.93H37.9766L39.6866 36.76H40.9566L38.7366 39.26L41.0966 42Z" fill="#383838"/>
<path d="M41.407 40.61C41.407 39.65 42.1103 39.1033 43.517 38.97L44.997 38.83V38.43C44.997 38.1233 44.9003 37.8767 44.707 37.69C44.5203 37.5033 44.237 37.41 43.857 37.41C43.517 37.41 43.237 37.49 43.017 37.65C42.797 37.8033 42.677 38.03 42.657 38.33H41.677C41.697 37.75 41.907 37.3233 42.307 37.05C42.707 36.7767 43.2236 36.64 43.857 36.64C44.5703 36.64 45.117 36.81 45.497 37.15C45.877 37.49 46.067 37.99 46.067 38.65V42H45.077V40.98C44.9103 41.34 44.6603 41.62 44.327 41.82C43.9936 42.02 43.5903 42.12 43.117 42.12C42.5503 42.12 42.1236 41.98 41.837 41.7C41.5503 41.42 41.407 41.0567 41.407 40.61ZM42.467 40.56C42.467 40.8 42.547 40.9967 42.707 41.15C42.8736 41.2967 43.1203 41.37 43.447 41.37C43.9203 41.37 44.297 41.2233 44.577 40.93C44.857 40.63 44.997 40.2467 44.997 39.78V39.5L43.657 39.63C42.8636 39.71 42.467 40.02 42.467 40.56Z" fill="#383838"/>
<path d="M0.552002 51.38C0.552002 50.5067 0.775335 49.8333 1.222 49.36C1.66867 48.88 2.27534 48.64 3.042 48.64C3.66867 48.64 4.19534 48.8067 4.622 49.14C5.04867 49.4667 5.302 49.93 5.382 50.53L4.352 50.62C4.28534 50.2467 4.132 49.9633 3.892 49.77C3.65867 49.5767 3.37534 49.48 3.042 49.48C2.60867 49.48 2.262 49.6467 2.002 49.98C1.742 50.3133 1.612 50.78 1.612 51.38C1.612 51.98 1.742 52.4467 2.002 52.78C2.26867 53.1133 2.62534 53.28 3.072 53.28C3.42534 53.28 3.71867 53.18 3.952 52.98C4.192 52.7733 4.34534 52.4767 4.412 52.09L5.442 52.17C5.362 52.79 5.10534 53.27 4.672 53.61C4.24534 53.95 3.712 54.12 3.072 54.12C2.292 54.12 1.67534 53.8833 1.222 53.41C0.775335 52.9367 0.552002 52.26 0.552002 51.38Z" fill="#383838"/>
<path d="M6.81817 53.39C6.35817 52.8967 6.12817 52.2267 6.12817 51.38C6.12817 50.5333 6.35817 49.8667 6.81817 49.38C7.28484 48.8867 7.90817 48.64 8.68817 48.64C9.47484 48.64 10.0982 48.8867 10.5582 49.38C11.0248 49.8667 11.2582 50.5333 11.2582 51.38C11.2582 52.2267 11.0248 52.8967 10.5582 53.39C10.0982 53.8767 9.47484 54.12 8.68817 54.12C7.90817 54.12 7.28484 53.8767 6.81817 53.39ZM7.58817 50C7.32151 50.3467 7.18817 50.8067 7.18817 51.38C7.18817 51.9533 7.32151 52.4133 7.58817 52.76C7.86151 53.1067 8.22817 53.28 8.68817 53.28C9.14817 53.28 9.51484 53.1067 9.78817 52.76C10.0615 52.4133 10.1982 51.9533 10.1982 51.38C10.1982 50.8067 10.0615 50.3467 9.78817 50C9.51484 49.6533 9.14817 49.48 8.68817 49.48C8.22817 49.48 7.86151 49.6533 7.58817 50Z" fill="#383838"/>
<path d="M12.2968 54V48.76H13.3668V53.12H15.8068V48.76H16.8768V53.12H17.5068V55.4H16.4968V54H12.2968Z" fill="#383838"/>
<path d="M20.3665 51.38C20.3665 50.5067 20.5898 49.8333 21.0365 49.36C21.4831 48.88 22.0898 48.64 22.8565 48.64C23.4831 48.64 24.0098 48.8067 24.4365 49.14C24.8631 49.4667 25.1165 49.93 25.1965 50.53L24.1665 50.62C24.0998 50.2467 23.9465 49.9633 23.7065 49.77C23.4731 49.5767 23.1898 49.48 22.8565 49.48C22.4231 49.48 22.0765 49.6467 21.8165 49.98C21.5565 50.3133 21.4265 50.78 21.4265 51.38C21.4265 51.98 21.5565 52.4467 21.8165 52.78C22.0831 53.1133 22.4398 53.28 22.8865 53.28C23.2398 53.28 23.5331 53.18 23.7665 52.98C24.0065 52.7733 24.1598 52.4767 24.2265 52.09L25.2565 52.17C25.1765 52.79 24.9198 53.27 24.4865 53.61C24.0598 53.95 23.5265 54.12 22.8865 54.12C22.1065 54.12 21.4898 53.8833 21.0365 53.41C20.5898 52.9367 20.3665 52.26 20.3665 51.38Z" fill="#383838"/>
<path d="M25.9426 51.38C25.9426 50.48 26.176 49.8 26.6426 49.34C27.1093 48.8733 27.7293 48.64 28.5026 48.64C30.136 48.64 30.9526 49.6133 30.9526 51.56V51.69H27.0126C27.0526 52.23 27.2093 52.6433 27.4826 52.93C27.7626 53.21 28.126 53.35 28.5726 53.35C29.206 53.35 29.636 53.08 29.8626 52.54L30.8826 52.61C30.7426 53.0833 30.4726 53.4533 30.0726 53.72C29.6793 53.9867 29.1793 54.12 28.5726 54.12C27.766 54.12 27.126 53.89 26.6526 53.43C26.1793 52.97 25.9426 52.2867 25.9426 51.38ZM27.0226 50.99H29.8926C29.8726 50.4967 29.7393 50.11 29.4926 49.83C29.246 49.55 28.916 49.41 28.5026 49.41C28.0893 49.41 27.7493 49.5433 27.4826 49.81C27.2226 50.0767 27.0693 50.47 27.0226 50.99Z" fill="#383838"/>
<path d="M31.3393 49.64V48.76H35.9293V49.64H34.1693V54H33.0993V49.64H31.3393Z" fill="#383838"/>
<path d="M36.3137 51.38C36.3137 50.48 36.5471 49.8 37.0137 49.34C37.4804 48.8733 38.1004 48.64 38.8737 48.64C40.5071 48.64 41.3237 49.6133 41.3237 51.56V51.69H37.3837C37.4237 52.23 37.5804 52.6433 37.8537 52.93C38.1337 53.21 38.4971 53.35 38.9437 53.35C39.5771 53.35 40.0071 53.08 40.2337 52.54L41.2537 52.61C41.1137 53.0833 40.8437 53.4533 40.4437 53.72C40.0504 53.9867 39.5504 54.12 38.9437 54.12C38.1371 54.12 37.4971 53.89 37.0237 53.43C36.5504 52.97 36.3137 52.2867 36.3137 51.38ZM37.3937 50.99H40.2637C40.2437 50.4967 40.1104 50.11 39.8637 49.83C39.6171 49.55 39.2871 49.41 38.8737 49.41C38.4604 49.41 38.1204 49.5433 37.8537 49.81C37.5937 50.0767 37.4404 50.47 37.3937 50.99Z" fill="#383838"/>
<path d="M45.8457 47.71C45.599 47.9633 45.2357 48.09 44.7557 48.09C44.2757 48.09 43.909 47.9633 43.6557 47.71C43.409 47.4567 43.279 47.1133 43.2657 46.68H43.9757C43.9957 46.8933 44.0657 47.08 44.1857 47.24C44.3123 47.3933 44.5023 47.47 44.7557 47.47C45.2157 47.47 45.4757 47.2067 45.5357 46.68H46.2357C46.2223 47.1133 46.0923 47.4567 45.8457 47.71ZM45.5757 48.76H47.1657V54H46.1357V49.54L43.9357 54H42.3457V48.76H43.3757V53.22L45.5757 48.76Z" fill="#383838"/>
</svg>
