<svg width="47" height="49" viewBox="0 0 47 49" fill="none" xmlns="http://www.w3.org/2000/svg">
<path d="M36.8198 19.998L30.9906 15.9571C30.6845 15.7443 30.2705 15.9927 30.3145 16.3628L31.1416 23.4068C31.1835 23.7632 31.6154 23.9162 31.8732 23.6667L33.3407 22.2391L34.5692 24.2862C34.6919 24.4906 34.9581 24.5577 35.1625 24.434L35.8344 24.0305C36.0399 23.9078 36.1059 23.6416 35.9822 23.4372L34.7527 21.39L36.7034 20.7653C37.0451 20.6563 37.1133 20.2024 36.8177 19.998H36.8198Z" fill="#91A800"/>
<path d="M29.0483 0H17.9613C16.8575 0 15.9634 0.895179 15.9634 1.9979V11.0524C15.9634 12.1562 16.8586 13.0503 17.9613 13.0503H18.8701L18.5944 16.2998C18.543 16.9099 19.2799 17.2526 19.7129 16.8197L23.4854 13.0503H29.0472C30.151 13.0503 31.0451 12.1562 31.0451 11.0524V1.99895C31.0451 0.895178 30.15 0.00104844 29.0472 0.00104844L29.0483 0ZM21.2569 2.45702C21.9141 2.45702 22.4466 2.98952 22.4466 3.64675C22.4466 4.30398 21.9141 4.83648 21.2569 4.83648C20.5996 4.83648 20.0672 4.30398 20.0672 3.64675C20.0672 2.98952 20.5996 2.45702 21.2569 2.45702ZM28.1426 10.5954H18.8669C18.5294 10.5954 18.3229 10.2254 18.5001 9.93816L20.7401 6.31447C20.8952 6.06394 21.259 6.06394 21.4131 6.31447L22.5839 8.2086L24.5294 5.05975C24.7506 4.70126 25.2716 4.70126 25.4927 5.05975L28.5074 9.93816C28.6846 10.2254 28.4781 10.5954 28.1405 10.5954H28.1426Z" fill="#B9D700"/>
<path d="M29.7002 22.6637L29.3333 19.5704H11.4623V6.952H14.6164V5.49707H10.5996C10.2694 5.49707 10 5.75388 10 6.08407V22.0778C10 22.408 10.2694 22.6648 10.5996 22.6648H20.7788L20.1436 26.279H18.3899C18.13 26.279 17.9193 26.4897 17.9193 26.7507V27.5285C17.9193 27.7885 18.13 28.0002 18.3899 28.0002H27.9927C28.2526 28.0002 28.4633 27.7885 28.4633 27.5285V26.7507C28.4633 26.4897 28.2526 26.279 27.9927 26.279H26.239L25.609 22.6648H29.6992L29.7002 22.6637ZM23.0304 20.5432H23.3543C23.6908 20.5432 23.9539 20.8115 23.9539 21.1417C23.9539 21.4719 23.6908 21.7413 23.3543 21.7413H23.0304C22.7002 21.7413 22.4308 21.4782 22.4308 21.1417C22.4308 20.8052 22.7002 20.5432 23.0304 20.5432Z" fill="#91A800"/>
<path d="M35.7893 5.49585H32.3899V6.95078H34.9213V17.0451L36.3826 18.0598V6.08285C36.3826 5.75266 36.1195 5.49585 35.7893 5.49585Z" fill="#91A800"/>
<path d="M3.83605 42.85C4.55605 42.85 5.14938 43.02 5.61604 43.36C6.08271 43.6933 6.31605 44.2133 6.31605 44.92C6.31605 45.6333 6.08271 46.16 5.61604 46.5C5.14938 46.8333 4.55605 47 3.83605 47H0.946045V40H5.79605V40.87H2.06604V42.85H3.83605ZM3.73605 46.13C4.20938 46.13 4.56938 46.0267 4.81605 45.82C5.06938 45.6067 5.19605 45.3067 5.19605 44.92C5.19605 44.5267 5.06938 44.2267 4.81605 44.02C4.56938 43.8133 4.20938 43.71 3.73605 43.71H2.06604V46.13H3.73605Z" fill="#383838"/>
<path d="M7.34855 49V41.76H8.33854V42.81C8.50521 42.4367 8.74855 42.15 9.06855 41.95C9.38855 41.7433 9.74855 41.64 10.1485 41.64C10.8019 41.64 11.3319 41.8867 11.7385 42.38C12.1519 42.8667 12.3585 43.5333 12.3585 44.38C12.3585 45.2267 12.1519 45.8967 11.7385 46.39C11.3319 46.8767 10.8052 47.12 10.1585 47.12C9.37188 47.12 8.79188 46.77 8.41854 46.07V49H7.34855ZM8.75854 43C8.49854 43.3467 8.36855 43.8067 8.36855 44.38C8.36855 44.9533 8.49854 45.4133 8.75854 45.76C9.02521 46.1067 9.38188 46.28 9.82854 46.28C10.2819 46.28 10.6385 46.1067 10.8985 45.76C11.1652 45.4133 11.2985 44.9533 11.2985 44.38C11.2985 43.8067 11.1652 43.3467 10.8985 43C10.6385 42.6533 10.2819 42.48 9.82854 42.48C9.38188 42.48 9.02521 42.6533 8.75854 43Z" fill="#383838"/>
<path d="M13.1232 44.38C13.1232 43.48 13.3566 42.8 13.8232 42.34C14.2899 41.8733 14.9099 41.64 15.6832 41.64C17.3166 41.64 18.1332 42.6133 18.1332 44.56V44.69H14.1932C14.2332 45.23 14.3899 45.6433 14.6632 45.93C14.9432 46.21 15.3066 46.35 15.7532 46.35C16.3866 46.35 16.8166 46.08 17.0432 45.54L18.0632 45.61C17.9232 46.0833 17.6532 46.4533 17.2532 46.72C16.8599 46.9867 16.3599 47.12 15.7532 47.12C14.9466 47.12 14.3066 46.89 13.8332 46.43C13.3599 45.97 13.1232 45.2867 13.1232 44.38ZM14.2032 43.99H17.0732C17.0532 43.4967 16.9199 43.11 16.6732 42.83C16.4266 42.55 16.0966 42.41 15.6832 42.41C15.2699 42.41 14.9299 42.5433 14.6632 42.81C14.4032 43.0767 14.2499 43.47 14.2032 43.99Z" fill="#383838"/>
<path d="M19.1552 47V41.76H20.2252V43.89H22.7252V41.76H23.7952V47H22.7252V44.77H20.2252V47H19.1552Z" fill="#383838"/>
<path d="M29.3922 46.12H30.0322V48.4H29.0222V47H25.5822V48.4H24.5722V46.12H24.9722C25.0789 45.8867 25.1655 45.54 25.2322 45.08C25.2989 44.6133 25.3456 44.1833 25.3722 43.79C25.3989 43.39 25.4389 42.7133 25.4922 41.76H29.3922V46.12ZM28.3222 46.12V42.64H26.4122C26.4055 42.7467 26.3922 42.91 26.3722 43.13C26.3589 43.35 26.3489 43.5067 26.3422 43.6C26.3355 43.6867 26.3256 43.8233 26.3122 44.01C26.2989 44.19 26.2889 44.3233 26.2822 44.41C26.2756 44.49 26.2655 44.6033 26.2522 44.75C26.2389 44.89 26.2256 45 26.2122 45.08C26.1989 45.16 26.1822 45.2567 26.1622 45.37C26.1489 45.4833 26.1322 45.5767 26.1122 45.65C26.0989 45.7233 26.0822 45.8033 26.0622 45.89C26.0422 45.97 26.0189 46.0467 25.9922 46.12H28.3222Z" fill="#383838"/>
<path d="M34.1039 41.76H35.6939V47H34.6639V42.54L32.4639 47H30.8739V41.76H31.9039V46.22L34.1039 41.76Z" fill="#383838"/>
<path d="M37.0165 47V41.76H38.0865V43.89H40.5865V41.76H41.6565V47H40.5865V44.77H38.0865V47H37.0165Z" fill="#383838"/>
<path d="M42.9735 47V41.76H46.6135V42.64H44.0435V47H42.9735Z" fill="#383838"/>
</svg>
