<svg width="56" height="56" viewBox="0 0 56 56" fill="none" xmlns="http://www.w3.org/2000/svg">
<path d="M0.0144043 43V36H2.8944C3.5944 36 4.1744 36.1767 4.6344 36.53C5.0944 36.8834 5.3244 37.4267 5.3244 38.16C5.3244 38.8934 5.10107 39.43 4.6544 39.77C4.20774 40.1034 3.63107 40.27 2.9244 40.27H1.1344V43H0.0144043ZM1.1344 39.41H2.7644C3.21107 39.41 3.56107 39.3067 3.8144 39.1C4.0744 38.8934 4.2044 38.58 4.2044 38.16C4.2044 37.7467 4.0744 37.4367 3.8144 37.23C3.56107 37.0234 3.21107 36.92 2.7644 36.92H1.1344V39.41Z" fill="#383838"/>
<path d="M5.81511 41.61C5.81511 40.65 6.51844 40.1034 7.92511 39.97L9.40511 39.83V39.43C9.40511 39.1234 9.30844 38.8767 9.11511 38.69C8.92844 38.5034 8.64511 38.41 8.26511 38.41C7.92511 38.41 7.64511 38.49 7.42511 38.65C7.20511 38.8034 7.08511 39.03 7.06511 39.33H6.08511C6.10511 38.75 6.31511 38.3234 6.71511 38.05C7.11511 37.7767 7.63177 37.64 8.26511 37.64C8.97844 37.64 9.52511 37.81 9.90511 38.15C10.2851 38.49 10.4751 38.99 10.4751 39.65V43H9.48511V41.98C9.31844 42.34 9.06844 42.62 8.73511 42.82C8.40177 43.02 7.99844 43.12 7.52511 43.12C6.95844 43.12 6.53177 42.98 6.24511 42.7C5.95844 42.42 5.81511 42.0567 5.81511 41.61ZM6.87511 41.56C6.87511 41.8 6.95511 41.9967 7.11511 42.15C7.28177 42.2967 7.52844 42.37 7.85511 42.37C8.32844 42.37 8.70511 42.2234 8.98511 41.93C9.26511 41.63 9.40511 41.2467 9.40511 40.78V40.5L8.06511 40.63C7.27177 40.71 6.87511 41.02 6.87511 41.56Z" fill="#383838"/>
<path d="M14.4189 40.29C15.4989 40.3967 16.0389 40.8367 16.0389 41.61C16.0389 42.0567 15.8623 42.42 15.5089 42.7C15.1556 42.98 14.5656 43.12 13.7389 43.12C12.2256 43.12 11.4289 42.5367 11.3489 41.37L12.3789 41.32C12.4323 41.9734 12.8856 42.3 13.7389 42.3C14.5589 42.3 14.9689 42.02 14.9689 41.46C14.9689 40.94 14.5289 40.68 13.6489 40.68H13.0389V39.98H13.5989C14.0056 39.98 14.3056 39.9134 14.4989 39.78C14.6989 39.64 14.7989 39.4567 14.7989 39.23C14.7989 38.99 14.7023 38.8034 14.5089 38.67C14.3223 38.53 14.0689 38.46 13.7489 38.46C13.4156 38.46 13.1389 38.5367 12.9189 38.69C12.7056 38.8434 12.5823 39.0767 12.5489 39.39L11.5189 39.33C11.5589 38.7567 11.7789 38.3334 12.1789 38.06C12.5856 37.78 13.1089 37.64 13.7489 37.64C14.4556 37.64 14.9856 37.7667 15.3389 38.02C15.6923 38.2667 15.8689 38.6 15.8689 39.02C15.8689 39.7267 15.3856 40.15 14.4189 40.29Z" fill="#383838"/>
<path d="M17.0712 45V37.76H18.0612V38.81C18.2279 38.4367 18.4712 38.15 18.7912 37.95C19.1112 37.7434 19.4712 37.64 19.8712 37.64C20.5245 37.64 21.0545 37.8867 21.4612 38.38C21.8745 38.8667 22.0812 39.5334 22.0812 40.38C22.0812 41.2267 21.8745 41.8967 21.4612 42.39C21.0545 42.8767 20.5279 43.12 19.8812 43.12C19.0945 43.12 18.5145 42.77 18.1412 42.07V45H17.0712ZM18.4812 39C18.2212 39.3467 18.0912 39.8067 18.0912 40.38C18.0912 40.9534 18.2212 41.4134 18.4812 41.76C18.7479 42.1067 19.1045 42.28 19.5512 42.28C20.0045 42.28 20.3612 42.1067 20.6212 41.76C20.8879 41.4134 21.0212 40.9534 21.0212 40.38C21.0212 39.8067 20.8879 39.3467 20.6212 39C20.3612 38.6534 20.0045 38.48 19.5512 38.48C19.1045 38.48 18.7479 38.6534 18.4812 39Z" fill="#383838"/>
<path d="M22.8073 41.61C22.8073 40.65 23.5106 40.1034 24.9173 39.97L26.3973 39.83V39.43C26.3973 39.1234 26.3006 38.8767 26.1073 38.69C25.9206 38.5034 25.6373 38.41 25.2573 38.41C24.9173 38.41 24.6373 38.49 24.4173 38.65C24.1973 38.8034 24.0773 39.03 24.0573 39.33H23.0773C23.0973 38.75 23.3073 38.3234 23.7073 38.05C24.1073 37.7767 24.624 37.64 25.2573 37.64C25.9706 37.64 26.5173 37.81 26.8973 38.15C27.2773 38.49 27.4673 38.99 27.4673 39.65V43H26.4773V41.98C26.3106 42.34 26.0606 42.62 25.7273 42.82C25.394 43.02 24.9906 43.12 24.5173 43.12C23.9506 43.12 23.524 42.98 23.2373 42.7C22.9506 42.42 22.8073 42.0567 22.8073 41.61ZM23.8673 41.56C23.8673 41.8 23.9473 41.9967 24.1073 42.15C24.274 42.2967 24.5206 42.37 24.8473 42.37C25.3206 42.37 25.6973 42.2234 25.9773 41.93C26.2573 41.63 26.3973 41.2467 26.3973 40.78V40.5L25.0573 40.63C24.264 40.71 23.8673 41.02 23.8673 41.56Z" fill="#383838"/>
<path d="M31.2911 37.93C31.9911 37.93 32.5578 38.1667 32.9911 38.64C33.4311 39.1067 33.6511 39.7367 33.6511 40.53C33.6511 41.33 33.4211 41.9634 32.9611 42.43C32.5011 42.89 31.8745 43.12 31.0811 43.12C29.3745 43.12 28.5211 42 28.5211 39.76C28.5211 38.6267 28.6845 37.7567 29.0111 37.15C29.3378 36.5367 29.8678 36.1467 30.6011 35.98C30.7145 35.9534 31.1811 35.8834 32.0011 35.77C32.4945 35.6967 32.8678 35.6134 33.1211 35.52V36.36C32.9278 36.4667 32.5945 36.5567 32.1211 36.63C31.9878 36.65 31.8178 36.6734 31.6111 36.7C31.4045 36.72 31.2445 36.7367 31.1311 36.75C30.8711 36.7834 30.6478 36.8434 30.4611 36.93C30.2745 37.0167 30.0945 37.1534 29.9211 37.34C29.7478 37.5267 29.6078 37.7967 29.5011 38.15C29.3945 38.4967 29.3211 38.9267 29.2811 39.44C29.4211 38.9667 29.6611 38.5967 30.0011 38.33C30.3478 38.0634 30.7778 37.93 31.2911 37.93ZM29.9811 41.81C30.2478 42.1234 30.6145 42.28 31.0811 42.28C31.5478 42.28 31.9145 42.1234 32.1811 41.81C32.4545 41.4967 32.5911 41.07 32.5911 40.53C32.5911 39.99 32.4545 39.5634 32.1811 39.25C31.9145 38.93 31.5478 38.77 31.0811 38.77C30.6211 38.77 30.2545 38.93 29.9811 39.25C29.7145 39.5634 29.5811 39.99 29.5811 40.53C29.5811 41.07 29.7145 41.4967 29.9811 41.81Z" fill="#383838"/>
<path d="M35.0984 42.39C34.6384 41.8967 34.4084 41.2267 34.4084 40.38C34.4084 39.5334 34.6384 38.8667 35.0984 38.38C35.5651 37.8867 36.1884 37.64 36.9684 37.64C37.7551 37.64 38.3784 37.8867 38.8384 38.38C39.3051 38.8667 39.5384 39.5334 39.5384 40.38C39.5384 41.2267 39.3051 41.8967 38.8384 42.39C38.3784 42.8767 37.7551 43.12 36.9684 43.12C36.1884 43.12 35.5651 42.8767 35.0984 42.39ZM35.8684 39C35.6017 39.3467 35.4684 39.8067 35.4684 40.38C35.4684 40.9534 35.6017 41.4134 35.8684 41.76C36.1417 42.1067 36.5084 42.28 36.9684 42.28C37.4284 42.28 37.7951 42.1067 38.0684 41.76C38.3417 41.4134 38.4784 40.9534 38.4784 40.38C38.4784 39.8067 38.3417 39.3467 38.0684 39C37.7951 38.6534 37.4284 38.48 36.9684 38.48C36.5084 38.48 36.1417 38.6534 35.8684 39Z" fill="#383838"/>
<path d="M39.9222 38.64V37.76H44.5122V38.64H42.7522V43H41.6822V38.64H39.9222Z" fill="#383838"/>
<path d="M50.2215 43H48.8915L47.0815 40.77H46.4615V43H45.3915V37.76H46.4615V39.93H47.1015L48.8115 37.76H50.0815L47.8615 40.26L50.2215 43Z" fill="#383838"/>
<path d="M50.5319 41.61C50.5319 40.65 51.2352 40.1034 52.6419 39.97L54.1219 39.83V39.43C54.1219 39.1234 54.0252 38.8767 53.8319 38.69C53.6452 38.5034 53.3619 38.41 52.9819 38.41C52.6419 38.41 52.3619 38.49 52.1419 38.65C51.9219 38.8034 51.8019 39.03 51.7819 39.33H50.8019C50.8219 38.75 51.0319 38.3234 51.4319 38.05C51.8319 37.7767 52.3486 37.64 52.9819 37.64C53.6952 37.64 54.2419 37.81 54.6219 38.15C55.0019 38.49 55.1919 38.99 55.1919 39.65V43H54.2019V41.98C54.0352 42.34 53.7852 42.62 53.4519 42.82C53.1186 43.02 52.7152 43.12 52.2419 43.12C51.6752 43.12 51.2486 42.98 50.9619 42.7C50.6752 42.42 50.5319 42.0567 50.5319 41.61ZM51.5919 41.56C51.5919 41.8 51.6719 41.9967 51.8319 42.15C51.9986 42.2967 52.2452 42.37 52.5719 42.37C53.0452 42.37 53.4219 42.2234 53.7019 41.93C53.9819 41.63 54.1219 41.2467 54.1219 40.78V40.5L52.7819 40.63C51.9886 40.71 51.5919 41.02 51.5919 41.56Z" fill="#383838"/>
<path d="M11.0539 52.38C11.0539 51.5067 11.2772 50.8334 11.7239 50.36C12.1706 49.88 12.7772 49.64 13.5439 49.64C14.1706 49.64 14.6972 49.8067 15.1239 50.14C15.5506 50.4667 15.8039 50.93 15.8839 51.53L14.8539 51.62C14.7872 51.2467 14.6339 50.9634 14.3939 50.77C14.1606 50.5767 13.8772 50.48 13.5439 50.48C13.1106 50.48 12.7639 50.6467 12.5039 50.98C12.2439 51.3134 12.1139 51.78 12.1139 52.38C12.1139 52.98 12.2439 53.4467 12.5039 53.78C12.7706 54.1134 13.1272 54.28 13.5739 54.28C13.9272 54.28 14.2206 54.18 14.4539 53.98C14.6939 53.7734 14.8472 53.4767 14.9139 53.09L15.9439 53.17C15.8639 53.79 15.6072 54.27 15.1739 54.61C14.7472 54.95 14.2139 55.12 13.5739 55.12C12.7939 55.12 12.1772 54.8834 11.7239 54.41C11.2772 53.9367 11.0539 53.26 11.0539 52.38Z" fill="#383838"/>
<path d="M16.6501 53.61C16.6501 52.65 17.3534 52.1034 18.7601 51.97L20.2401 51.83V51.43C20.2401 51.1234 20.1434 50.8767 19.9501 50.69C19.7634 50.5034 19.4801 50.41 19.1001 50.41C18.7601 50.41 18.4801 50.49 18.2601 50.65C18.0401 50.8034 17.9201 51.03 17.9001 51.33H16.9201C16.9401 50.75 17.1501 50.3234 17.5501 50.05C17.9501 49.7767 18.4667 49.64 19.1001 49.64C19.8134 49.64 20.3601 49.81 20.7401 50.15C21.1201 50.49 21.3101 50.99 21.3101 51.65V55H20.3201V53.98C20.1534 54.34 19.9034 54.62 19.5701 54.82C19.2367 55.02 18.8334 55.12 18.3601 55.12C17.7934 55.12 17.3667 54.98 17.0801 54.7C16.7934 54.42 16.6501 54.0567 16.6501 53.61ZM17.7101 53.56C17.7101 53.8 17.7901 53.9967 17.9501 54.15C18.1167 54.2967 18.3634 54.37 18.6901 54.37C19.1634 54.37 19.5401 54.2234 19.8201 53.93C20.1001 53.63 20.2401 53.2467 20.2401 52.78V52.5L18.9001 52.63C18.1067 52.71 17.7101 53.02 17.7101 53.56Z" fill="#383838"/>
<path d="M26.0839 48.71C25.8372 48.9634 25.4739 49.09 24.9939 49.09C24.5139 49.09 24.1472 48.9634 23.8939 48.71C23.6472 48.4567 23.5172 48.1134 23.5039 47.68H24.2139C24.2339 47.8934 24.3039 48.08 24.4239 48.24C24.5506 48.3934 24.7406 48.47 24.9939 48.47C25.4539 48.47 25.7139 48.2067 25.7739 47.68H26.4739C26.4606 48.1134 26.3306 48.4567 26.0839 48.71ZM25.8139 49.76H27.4039V55H26.3739V50.54L24.1739 55H22.5839V49.76H23.6139V54.22L25.8139 49.76Z" fill="#383838"/>
<path d="M28.2865 50.64V49.76H32.8765V50.64H31.1165V55H30.0465V50.64H28.2865Z" fill="#383838"/>
<path d="M33.9509 54.39C33.4909 53.8967 33.2609 53.2267 33.2609 52.38C33.2609 51.5334 33.4909 50.8667 33.9509 50.38C34.4176 49.8867 35.0409 49.64 35.8209 49.64C36.6076 49.64 37.2309 49.8867 37.6909 50.38C38.1576 50.8667 38.3909 51.5334 38.3909 52.38C38.3909 53.2267 38.1576 53.8967 37.6909 54.39C37.2309 54.8767 36.6076 55.12 35.8209 55.12C35.0409 55.12 34.4176 54.8767 33.9509 54.39ZM34.7209 51C34.4543 51.3467 34.3209 51.8067 34.3209 52.38C34.3209 52.9534 34.4543 53.4134 34.7209 53.76C34.9943 54.1067 35.3609 54.28 35.8209 54.28C36.2809 54.28 36.6476 54.1067 36.9209 53.76C37.1943 53.4134 37.3309 52.9534 37.3309 52.38C37.3309 51.8067 37.1943 51.3467 36.9209 51C36.6476 50.6534 36.2809 50.48 35.8209 50.48C35.3609 50.48 34.9943 50.6534 34.7209 51Z" fill="#383838"/>
<path d="M42.3896 52.29C43.4363 52.3967 43.9596 52.8234 43.9596 53.57C43.9596 53.9767 43.8029 54.3167 43.4896 54.59C43.1829 54.8634 42.6829 55 41.9896 55H39.4296V49.76H41.8596C42.4996 49.76 42.9796 49.8834 43.2996 50.13C43.6263 50.37 43.7896 50.6867 43.7896 51.08C43.7896 51.76 43.3229 52.1634 42.3896 52.29ZM40.4996 50.56V51.98H41.7796C42.4063 51.98 42.7196 51.7434 42.7196 51.27C42.7196 50.7967 42.3896 50.56 41.7296 50.56H40.4996ZM41.8896 54.2C42.5563 54.2 42.8896 53.9434 42.8896 53.43C42.8896 52.93 42.5396 52.68 41.8396 52.68H40.4996V54.2H41.8896Z" fill="#383838"/>
<path d="M41.4608 0H13.5392C11.5878 0 10 1.56155 10 3.4807V24.5193C10 26.4384 11.5878 28 13.5392 28H41.4608C43.4122 28 45 26.4384 45 24.5193V3.4807C45 1.56155 43.4122 0 41.4608 0ZM33.4179 3.05345H39.5106C40.0713 3.05345 40.5258 3.50043 40.5258 4.05191C40.5258 4.60339 40.0713 5.05038 39.5106 5.05038H33.4179C32.8572 5.05038 32.4027 4.60339 32.4027 4.05191C32.4027 3.50043 32.8572 3.05345 33.4179 3.05345ZM22.6315 2.82009C23.3233 2.82009 23.8852 3.37156 23.8852 4.05307C23.8852 4.73459 23.3245 5.28606 22.6315 5.28606C21.9386 5.28606 21.3778 4.73459 21.3778 4.05307C21.3778 3.37156 21.9386 2.82009 22.6315 2.82009ZM18.9318 2.82009C19.6236 2.82009 20.1855 3.37156 20.1855 4.05307C20.1855 4.73459 19.6248 5.28606 18.9318 5.28606C18.2388 5.28606 17.6781 4.73459 17.6781 4.05307C17.6781 3.37156 18.2388 2.82009 18.9318 2.82009ZM15.2321 2.82009C15.9238 2.82009 16.4858 3.37156 16.4858 4.05307C16.4858 4.73459 15.925 5.28606 15.2321 5.28606C14.5391 5.28606 13.9784 4.73459 13.9784 4.05307C13.9784 3.37156 14.5391 2.82009 15.2321 2.82009ZM42.8042 24.5205C42.8042 25.2484 42.2022 25.8405 41.462 25.8405H13.5404C12.8002 25.8405 12.1981 25.2484 12.1981 24.5205V8.11776H42.8054V24.5193L42.8042 24.5205Z" fill="#B9D700"/>
<path d="M16.6677 22.4911H21.2835C22.0237 22.4911 22.6258 21.899 22.6258 21.171V12.7502C22.6258 12.0223 22.0237 11.4302 21.2835 11.4302H16.6677C15.9275 11.4302 15.3254 12.0223 15.3254 12.7502V21.171C15.3254 21.899 15.9275 22.4911 16.6677 22.4911Z" fill="#91A800"/>
<path d="M26.1423 13.5896H38.5767C39.1835 13.5896 39.6746 13.1055 39.6746 12.5099C39.6746 11.9143 39.1823 11.4302 38.5767 11.4302H26.1423C25.5355 11.4302 25.0444 11.9143 25.0444 12.5099C25.0444 13.1055 25.5367 13.5896 26.1423 13.5896Z" fill="#91A800"/>
<path d="M26.1423 18.0398H38.5767C39.1835 18.0398 39.6746 17.5557 39.6746 16.9601C39.6746 16.3645 39.1823 15.8804 38.5767 15.8804H26.1423C25.5355 15.8804 25.0444 16.3645 25.0444 16.9601C25.0444 17.5557 25.5367 18.0398 26.1423 18.0398Z" fill="#91A800"/>
<path d="M26.1423 22.491H38.5767C39.1835 22.491 39.6746 22.0069 39.6746 21.4113C39.6746 20.8157 39.1823 20.3315 38.5767 20.3315H26.1423C25.5355 20.3315 25.0444 20.8157 25.0444 21.4113C25.0444 22.0069 25.5367 22.491 26.1423 22.491Z" fill="#91A800"/>
</svg>
