<?xml version="1.0" encoding="utf-8"?><svg xmlns="http://www.w3.org/2000/svg" xmlns:xlink="http://www.w3.org/1999/xlink"><symbol viewBox="-2 -2 22 16" id="icon-arrow-left" xmlns="http://www.w3.org/2000/svg"><path d="M6.086 0l1.065 1.05-4.26 4.2H18v1.5H2.891l4.26 4.2L6.086 12 0 6l6.086-6z"/></symbol><symbol viewBox="-2 -2 22 16" id="icon-arrow-right" xmlns="http://www.w3.org/2000/svg"><path d="M11.914 0l-1.065 1.05 4.26 4.2H0v1.5h15.109l-4.26 4.2L11.914 12 18 6l-6.086-6z"/></symbol><symbol viewBox="-2 -2 13 13" id="icon-box" xmlns="http://www.w3.org/2000/svg"><path d="M8.5 2.095a.084.084 0 00.032-.03.076.076 0 000-.08.084.084 0 00-.032-.029L5.196.174a1.47 1.47 0 00-1.392 0L.5 1.956a.084.084 0 00-.031.03.076.076 0 000 .08.084.084 0 00.031.03l3.957 2.16a.092.092 0 00.088 0L8.5 2.096zm-8.37.547a.092.092 0 00-.087 0 .084.084 0 00-.032.03.076.076 0 00-.011.04v3.493a.91.91 0 00.139.48c.09.145.22.266.377.351L4.024 8.99a.092.092 0 00.087 0 .084.084 0 00.031-.03.076.076 0 00.012-.04V4.868a.076.076 0 00-.012-.04.084.084 0 00-.031-.03L.13 2.643zm4.716 2.24v4.037c0 .014.004.028.012.04a.084.084 0 00.031.03.092.092 0 00.087 0l3.508-1.954a.996.996 0 00.377-.351.912.912 0 00.139-.48V2.713a.076.076 0 00-.012-.04.084.084 0 00-.031-.03.092.092 0 00-.087 0l-3.98 2.17a.084.084 0 00-.032.03.076.076 0 00-.012.04z"/></symbol><symbol viewBox="-2 -2 18 18" id="icon-instagram" xmlns="http://www.w3.org/2000/svg"><path d="M14 6.998v2.96c0 1.675-.813 2.836-2.269 3.583a4.142 4.142 0 01-1.916.446c-1.905.003-3.81.034-5.714-.011-1.532-.034-2.757-.705-3.581-2.025a3.374 3.374 0 01-.514-1.804C.003 8.061-.008 5.975.01 3.888.02 2.46.717 1.402 1.91.652 2.613.209 3.394.009 4.224.006 6.079.003 7.93-.008 9.785.01c1.43.014 2.62.567 3.495 1.72A3.51 3.51 0 0114 3.897v3.101zm-1.044.014V3.897c0-.564-.167-1.077-.5-1.525-.646-.871-1.54-1.3-2.607-1.314-1.882-.023-3.762-.009-5.644-.006-.584 0-1.14.138-1.645.429-.973.56-1.518 1.384-1.512 2.537.005 2.024 0 4.051.002 6.076 0 .566.167 1.085.506 1.539.649.871 1.543 1.297 2.61 1.308 1.89.023 3.781.008 5.672.006.432 0 .85-.093 1.247-.254 1.061-.429 1.913-1.418 1.88-2.746-.029-.978-.01-1.957-.01-2.935z"/><path d="M7.004 9.987A3.262 3.262 0 013.728 6.71c.005-1.77 1.493-3.214 3.304-3.209 1.81.006 3.276 1.466 3.27 3.257-.005 1.787-1.484 3.23-3.298 3.228zm.02-5.441c-1.242-.003-2.25.98-2.252 2.196-.003 1.21 1.002 2.199 2.23 2.204 1.244.003 2.254-.978 2.257-2.187.003-1.221-1-2.213-2.235-2.213zm4.352-1.309a.704.704 0 01-.697.716c-.381-.002-.689-.33-.683-.73a.705.705 0 01.691-.707c.378 0 .689.324.689.721z"/></symbol><symbol viewBox="-2 -2 18 18" id="icon-layers" xmlns="http://www.w3.org/2000/svg"><path fill-rule="evenodd" clip-rule="evenodd" d="M6.763 1.685a.584.584 0 01.474 0l4.781 2.125a.584.584 0 010 1.067L7.237 7.002a.584.584 0 01-.474 0L1.98 4.877a.584.584 0 010-1.067l4.782-2.125zM3.656 4.343L7 5.83l3.343-1.486L7 2.857 3.656 4.343zm-1.971 2.42a.584.584 0 01.77-.297L7 8.486l4.544-2.02a.584.584 0 01.474 1.067L7.237 9.658a.584.584 0 01-.474 0L1.98 7.533a.584.584 0 01-.296-.77zm.77 2.36a.584.584 0 10-.474 1.066l4.782 2.125a.584.584 0 00.474 0l4.781-2.125a.584.584 0 10-.474-1.067L7 11.142l-4.544-2.02z"/></symbol><symbol viewBox="-2 -2 22 21" id="icon-telegram" xmlns="http://www.w3.org/2000/svg"><path d="M1.237 7.318c4.832-2.399 8.054-3.98 9.666-4.744C15.506.392 16.463.013 17.086 0c.137-.002.444.036.642.22.168.155.214.364.236.511.022.147.05.482.028.744-.25 2.987-1.329 10.235-1.878 13.58-.232 1.416-.69 1.89-1.133 1.937-.962.1-1.693-.725-2.625-1.422-1.459-1.09-2.283-1.768-3.7-2.831-1.636-1.23-.575-1.905.358-3.009.244-.288 4.485-4.684 4.567-5.083.01-.05.02-.236-.077-.334-.097-.098-.24-.065-.343-.038-.147.038-2.477 1.793-6.992 5.266-.661.518-1.26.77-1.797.757-.592-.015-1.73-.382-2.577-.695C.757 9.218-.067 9.015.005 8.362c.037-.34.448-.688 1.232-1.044z"/></symbol><symbol viewBox="-2 -2 16 14" id="icon-union" xmlns="http://www.w3.org/2000/svg"><path fill-rule="evenodd" clip-rule="evenodd" d="M4.885 2.344A2.178 2.178 0 019.16 1.76h1.62a.584.584 0 110 1.168H9.16a2.179 2.179 0 01-4.276-.584zm2.178-1.01a1.01 1.01 0 100 2.02 1.01 1.01 0 000-2.02zM.688 1.76a.584.584 0 000 1.168h3.187a.584.584 0 000-1.168H.688zm0 5.312a.584.584 0 100 1.168h1.62a2.179 2.179 0 100-1.168H.688zm2.709.592a.546.546 0 000-.016 1.01 1.01 0 110 .016zm4.197-.592a.584.584 0 100 1.168h3.187a.584.584 0 100-1.168H7.594z"/></symbol><symbol viewBox="-2 -2 24 24" id="icon-whatsapp" xmlns="http://www.w3.org/2000/svg"><path fill-rule="evenodd" clip-rule="evenodd" d="M17.084 2.906A9.913 9.913 0 0010.04 0C4.55 0 .084 4.445.08 9.91c0 1.745.459 3.452 1.33 4.955L0 20l5.28-1.378a9.98 9.98 0 004.757 1.207h.005c5.488 0 9.956-4.446 9.958-9.912a9.833 9.833 0 00-2.914-7.011h-.002zM10.04 18.155h-.003a8.284 8.284 0 01-4.211-1.149l-.303-.178-3.132.817.837-3.04-.198-.312A8.196 8.196 0 011.765 9.91c0-4.543 3.714-8.238 8.282-8.238 2.211 0 4.288.859 5.85 2.415a8.161 8.161 0 012.422 5.827c0 4.543-3.714 8.238-8.277 8.238l-.002.003zm4.54-6.17c-.25-.126-1.473-.723-1.7-.806-.229-.084-.394-.126-.561.124-.166.248-.642.806-.789.97-.144.165-.29.186-.54.063-.248-.125-1.05-.384-2-1.23-.739-.657-1.239-1.467-1.383-1.715-.144-.248-.016-.382.11-.505.11-.11.248-.29.371-.433.124-.143.165-.247.25-.412.083-.164.041-.31-.022-.433-.063-.125-.56-1.343-.767-1.838-.202-.484-.407-.417-.56-.426a10.22 10.22 0 00-.477-.01.917.917 0 00-.663.31c-.228.249-.87.848-.87 2.066s.89 2.397 1.016 2.56c.124.165 1.754 2.668 4.251 3.74.593.255 1.059.408 1.42.521a3.413 3.413 0 001.567.097c.479-.071 1.472-.6 1.679-1.178.207-.579.207-1.074.144-1.179-.063-.104-.228-.164-.477-.29v.003z"/></symbol></svg>