<?xml version="1.0" encoding="utf-8"?><svg xmlns="http://www.w3.org/2000/svg" xmlns:xlink="http://www.w3.org/1999/xlink"><symbol viewBox="-2 -2 22 21" id="icon-telegram" xmlns="http://www.w3.org/2000/svg"><path d="M1.237 7.318c4.832-2.399 8.054-3.98 9.666-4.744C15.506.392 16.463.013 17.086 0c.137-.002.444.036.642.22.168.155.214.364.236.511.022.147.05.482.028.744-.25 2.987-1.329 10.235-1.878 13.58-.232 1.416-.69 1.89-1.133 1.937-.962.1-1.693-.725-2.625-1.422-1.459-1.09-2.283-1.768-3.7-2.831-1.636-1.23-.575-1.905.358-3.009.244-.288 4.485-4.684 4.567-5.083.01-.05.02-.236-.077-.334-.097-.098-.24-.065-.343-.038-.147.038-2.477 1.793-6.992 5.266-.661.518-1.26.77-1.797.757-.592-.015-1.73-.382-2.577-.695C.757 9.218-.067 9.015.005 8.362c.037-.34.448-.688 1.232-1.044z"/></symbol><symbol viewBox="-2 -2 24 24" id="icon-whatsapp" xmlns="http://www.w3.org/2000/svg"><path fill-rule="evenodd" clip-rule="evenodd" d="M17.084 2.906A9.913 9.913 0 0010.04 0C4.55 0 .084 4.445.08 9.91c0 1.745.459 3.452 1.33 4.955L0 20l5.28-1.378a9.98 9.98 0 004.757 1.207h.005c5.488 0 9.956-4.446 9.958-9.912a9.833 9.833 0 00-2.914-7.011h-.002zM10.04 18.155h-.003a8.284 8.284 0 01-4.211-1.149l-.303-.178-3.132.817.837-3.04-.198-.312A8.196 8.196 0 011.765 9.91c0-4.543 3.714-8.238 8.282-8.238 2.211 0 4.288.859 5.85 2.415a8.161 8.161 0 012.422 5.827c0 4.543-3.714 8.238-8.277 8.238l-.002.003zm4.54-6.17c-.25-.126-1.473-.723-1.7-.806-.229-.084-.394-.126-.561.124-.166.248-.642.806-.789.97-.144.165-.29.186-.54.063-.248-.125-1.05-.384-2-1.23-.739-.657-1.239-1.467-1.383-1.715-.144-.248-.016-.382.11-.505.11-.11.248-.29.371-.433.124-.143.165-.247.25-.412.083-.164.041-.31-.022-.433-.063-.125-.56-1.343-.767-1.838-.202-.484-.407-.417-.56-.426a10.22 10.22 0 00-.477-.01.917.917 0 00-.663.31c-.228.249-.87.848-.87 2.066s.89 2.397 1.016 2.56c.124.165 1.754 2.668 4.251 3.74.593.255 1.059.408 1.42.521a3.413 3.413 0 001.567.097c.479-.071 1.472-.6 1.679-1.178.207-.579.207-1.074.144-1.179-.063-.104-.228-.164-.477-.29v.003z"/></symbol></svg>