<svg width="102" height="37" viewBox="0 0 102 37" fill="none" xmlns="http://www.w3.org/2000/svg">
<g clip-path="url(#clip0_1_677)">
<path d="M38.0024 34.2089H63.3127V33.6987H38.0024V34.2089Z" fill="#383838"/>
<path d="M66.1165 31.917H65.5845V36.4358H69.5149V35.9323H66.1165V31.917Z" fill="#383838"/>
<path d="M72.4284 36.0678C71.1226 36.0678 70.2733 35.3899 70.2733 34.1762C70.2733 32.9628 71.1226 32.2853 72.4284 32.2853C73.7343 32.2853 74.5842 32.9628 74.5842 34.1762C74.5842 35.3899 73.7343 36.0678 72.4284 36.0678ZM72.4284 31.7815C70.7424 31.7815 69.7278 32.7045 69.7278 34.1762C69.7278 35.6482 70.7424 36.5714 72.4284 36.5714C74.1145 36.5714 75.1291 35.6482 75.1291 34.1762C75.1291 32.7045 74.1145 31.7815 72.4284 31.7815Z" fill="#383838"/>
<path d="M80.3049 34.2734C80.3049 35.3837 79.6523 36.0679 78.498 36.0679C77.3381 36.0679 76.6854 35.3837 76.6854 34.2734V31.917H76.1531V34.3056C76.1531 35.6223 76.9704 36.5714 78.498 36.5714C80.0262 36.5714 80.8373 35.6223 80.8373 34.3056V31.917H80.3049V34.2734Z" fill="#383838"/>
<path d="M86.3872 35.6416L82.7677 31.917H82.1909V36.4358H82.7108V32.6078L86.4379 36.4358H86.9077V31.917H86.3872V35.6416Z" fill="#383838"/>
<path d="M90.6886 34.5892H92.7047V35.177C92.3747 35.8032 91.6519 36.0678 90.7707 36.0678C89.4147 36.0678 88.5648 35.4288 88.5648 34.1762C88.5648 32.9244 89.4084 32.2853 90.7325 32.2853C91.5379 32.2853 92.1273 32.5433 92.5275 33.0534L92.9897 32.724C92.5463 32.1948 91.8172 31.7815 90.7325 31.7815C89.0339 31.7815 88.0193 32.7045 88.0193 34.1762C88.0193 35.6482 89.0339 36.5714 90.7519 36.5714C91.982 36.5714 92.8694 36.0421 93.2371 35.3381V34.086H90.6886V34.5892Z" fill="#383838"/>
<path d="M98.5551 31.9194H94.3325V36.4369H98.5551V35.9337H94.8655V34.3898H97.9939V33.8867H94.8655V32.4226H98.5551H98.5608V31.9194H98.5551Z" fill="#383838"/>
<path d="M5.59341 35.9267H3.96288V32.4188H5.59341C6.89088 32.4188 7.81003 33.0184 7.81003 34.1731C7.81003 35.3271 6.89088 35.9267 5.59341 35.9267ZM5.63223 31.9156H3.41528V36.4299H5.63223C7.30124 36.4299 8.3709 35.5591 8.3709 34.1731C8.3709 32.7863 7.30124 31.9156 5.63223 31.9156Z" fill="#383838"/>
<path d="M10.0958 34.3857H13.3174V33.8826H10.0958V32.4188H13.8977V31.9156H9.54858V36.4299H13.9628V35.9267H10.0958V34.3857Z" fill="#383838"/>
<path d="M19.4102 35.6365L15.6867 31.9156H15.0935V36.4299H15.6281V32.6058L19.4623 36.4299H19.9449V31.9156H19.4102V35.6365Z" fill="#383838"/>
<path d="M25.7063 31.9156H20.8481V32.4064H23V36.4299H23.5479V32.4064H25.7063V31.9156Z" fill="#383838"/>
<path d="M26.7457 34.7276L28.0173 32.4127L29.2889 34.7276H26.7457ZM27.7173 31.9156L25.2068 36.4299H25.8133L26.478 35.2172H29.5559L30.2213 36.4299H30.8401L28.3299 31.9156H27.7173Z" fill="#383838"/>
<path d="M32.2519 31.9156H31.7046V36.4299H35.7472V35.9267H32.2519V31.9156Z" fill="#383838"/>
<path d="M33.1053 23.1598C33.1053 22.3044 32.3949 21.6244 31.3968 21.6244C30.4204 21.6244 29.7114 22.3044 29.7114 23.1598C29.7114 24.0153 30.4204 24.6509 31.3968 24.6509C32.3949 24.6509 33.1053 24.0153 33.1053 23.1598Z" fill="#383838"/>
<path d="M38.2432 12.6295L45.629 21.4919H45.7849L53.1706 12.6295V24.4095H55.8341V9.05432H52.9715L45.7617 17.8511L38.5538 9.05432H35.6697V24.4095H38.2432V12.6295Z" fill="#383838"/>
<path d="M68.6557 24.871C74.1566 24.871 77.1078 21.7116 77.1078 17.171V9.0542H74.446V16.9955C74.446 20.4389 72.3816 22.5228 68.6557 22.5228C64.9515 22.5228 62.8878 20.4389 62.8878 16.9955V9.0542H60.2261V17.171C60.2261 21.7116 63.1766 24.871 68.6557 24.871Z" fill="#383838"/>
<path d="M84.0728 12.3007L96.2069 24.4095H98.5581V9.05432H95.9633V20.7032L84.3383 9.05432H81.4993V24.4095H84.0728V12.3007Z" fill="#383838"/>
<path d="M17.3367 11.3617C16.4439 12.7227 14.8208 13.5918 12.6308 13.8608V13.8092L12.6253 11.3617H17.3367ZM9.98573 24.4112H15.6184V22.1638H12.6478L12.6366 16.1536V16.0278C16.4214 15.7192 19.0947 14.038 20.1728 11.3617H20.1783C20.1908 11.3329 20.2014 11.2996 20.2133 11.2705H20.4367C22.9639 11.2705 24.244 12.1908 24.244 13.9863C24.244 15.7878 22.9639 16.7029 20.4367 16.7029H17.4716L24.115 24.4112H27.1646L22.1609 18.6985L22.3066 18.6699C25.171 18.1552 26.8107 16.4397 26.8107 13.9634C26.8107 11.0357 24.5025 9.18882 20.7906 9.13162H20.7456C20.735 9.13021 20.7259 9.13091 20.716 9.13021C20.7174 9.10732 20.7218 9.08621 20.7231 9.06293C20.7344 8.88576 20.7398 8.70821 20.7398 8.53104C20.7398 3.79625 17.0562 0.857056 11.2887 0.857056H3.41528V10.2135H6.07732V3.15578H11.0922C15.1747 3.15578 18.0107 4.98012 18.0107 8.53104C18.0107 8.71408 18.0053 8.88576 17.9882 9.05738H9.98573V13.9066H3.41528V16.2109H9.98573V24.4112Z" fill="#383838"/>
</g>
<defs>
<clipPath id="clip0_1_677">
<rect width="101.429" height="35.7143" fill="white" transform="translate(0.571533 0.857056)"/>
</clipPath>
</defs>
</svg>
