<svg width="100" height="31" viewBox="0 0 100 31" fill="none" xmlns="http://www.w3.org/2000/svg">
<g clip-path="url(#clip0_1_734)">
<path d="M13.2268 26.2684H14.4309V20.9275H20.8506V19.7767H14.4309V15.6969H21.4943V14.552H13.2268V26.2684Z" fill="#383838"/>
<path d="M60.1438 15.6969H64.6083V26.2684H65.8124V15.6969H70.277V14.552H60.1438V15.6969Z" fill="#383838"/>
<path d="M76.2854 26.2394H84.5532V25.0945H77.4893V20.8984H83.9093V19.7535H77.4893V15.6737H84.5532V14.5288H76.2854V26.2394Z" fill="#383838"/>
<path d="M96.4978 20.847C97.1878 20.6972 97.8132 20.3418 98.2863 19.83C98.8516 19.2145 99.1563 18.4127 99.1386 17.5866C99.1509 17.1361 99.0663 16.6881 98.8893 16.2717C98.7124 15.8552 98.4486 15.4795 98.1132 15.1689C97.7716 14.8534 97.3693 14.6068 96.9293 14.4432C96.4893 14.2797 96.0209 14.2024 95.5501 14.2158H90.5847V25.9497H91.777V20.9574H95.2163L98.3516 25.9497H99.717L96.4978 20.847ZM91.7593 19.8125V15.3607H95.5263C95.8424 15.3498 96.157 15.4001 96.4532 15.5088C96.7486 15.6176 97.0193 15.7826 97.2493 15.9942C97.677 16.4191 97.917 16.991 97.917 17.5866C97.917 18.1823 97.677 18.7541 97.2493 19.179C97.0193 19.3907 96.7486 19.5557 96.4532 19.6644C96.157 19.7732 95.8424 19.8235 95.5263 19.8125H91.7593Z" fill="#383838"/>
<path d="M49.7779 19.5676C48.8921 19.4725 48.039 19.1866 47.2804 18.7306C47.0876 18.5818 46.9354 18.3889 46.8376 18.1688C46.7399 17.9488 46.6995 17.7085 46.7201 17.4695C46.7201 16.2781 47.7334 15.5982 49.4978 15.5982C51.8344 15.5982 52.4126 16.6501 52.651 17.5567V17.638H53.8432V17.5219C53.7657 16.8244 53.2054 14.5579 49.5396 14.5579C47.1552 14.5579 45.522 15.7551 45.522 17.5451C45.522 19.2189 46.6128 20.0731 49.4262 20.6194C52.4066 21.2006 52.9372 21.9445 52.9372 23.1418C52.9372 24.4959 51.745 25.2746 49.7422 25.2746C47.7394 25.2746 46.5889 24.49 46.1658 22.886V22.8046H44.9736V22.9267C45.3372 25.0654 47.0718 26.2917 49.7422 26.2917C53.0146 26.2917 54.1829 24.6295 54.1829 23.0604C54.1829 21.4912 53.3902 20.265 49.7779 19.5676Z" fill="#383838"/>
<path d="M33.5231 14.5753V10.2165L17.3635 0.714355L0 10.2165V30.7144H33.5231V26.2336C35.0058 26.089 36.3805 25.4125 37.3803 24.3353C38.3802 23.2582 38.9338 21.8572 38.9338 20.4044C38.9338 18.9516 38.3802 17.5507 37.3803 16.4734C36.3805 15.3963 35.0058 14.7198 33.5231 14.5753ZM32.3309 29.5462H1.19215V10.879L17.3576 2.07429L32.3309 10.8732V14.5753C30.8483 14.7198 29.4736 15.3963 28.4738 16.4734C27.4739 17.5507 26.9202 18.9516 26.9202 20.4044C26.9202 21.8572 27.4739 23.2582 28.4738 24.3353C29.4736 25.4125 30.8483 26.089 32.3309 26.2336V29.5462ZM33.5231 25.0654C33.3252 25.0882 33.1262 25.0999 32.927 25.1002C32.7278 25.101 32.5287 25.0893 32.3309 25.0654C31.1748 24.916 30.1137 24.3621 29.3452 23.5068C28.5765 22.6515 28.1528 21.5531 28.1528 20.416C28.1528 19.2789 28.5765 18.1805 29.3452 17.3253C30.1137 16.47 31.1748 15.9161 32.3309 15.7666C32.5287 15.7427 32.7278 15.7311 32.927 15.7318C33.1265 15.7313 33.3257 15.745 33.5231 15.7725C34.6718 15.9313 35.7232 16.489 36.4838 17.3432C37.2445 18.1974 37.6633 19.2906 37.6633 20.4218C37.6633 21.553 37.2445 22.6462 36.4838 23.5005C35.7232 24.3547 34.6718 24.9124 33.5231 25.0712V25.0654Z" fill="#383838"/>
</g>
<defs>
<clipPath id="clip0_1_734">
<rect width="100" height="30" fill="white" transform="translate(0 0.714355)"/>
</clipPath>
</defs>
</svg>
