<svg width="72" height="74" viewBox="0 0 72 74" fill="none" xmlns="http://www.w3.org/2000/svg">
<path fill-rule="evenodd" clip-rule="evenodd" d="M61.066 16.9067L67.3746 18.4998L65.5882 24.7927L66.2747 25.0493C66.6448 24.3053 67.7498 24.9826 67.2649 25.6547L67.4461 25.8137C67.9795 25.3135 68.6609 26.0446 68.3521 26.5397V26.9169C69.0462 26.7219 69.3984 27.843 68.643 28.0482L68.6762 28.2124C69.498 28.0225 69.6587 29.354 68.8115 29.3668C68.8461 30.3824 68.7974 31.3992 68.666 32.4068C68.2577 35.9291 71.3252 36.2754 71.3329 36.2754C71.4384 36.2895 71.5351 36.3416 71.6052 36.4221C71.6753 36.5025 71.714 36.6059 71.714 36.7128C71.714 36.8198 71.6753 36.9231 71.6052 37.0035C71.5351 37.084 71.4384 37.1361 71.3329 37.1502C71.3329 37.1502 68.2577 37.4991 68.666 41.0188C68.7974 42.0264 68.8461 43.0432 68.8115 44.0588C69.6587 44.0588 69.498 45.4005 68.6762 45.2132L68.643 45.3774C69.4086 45.5827 69.0462 46.7037 68.3521 46.5088V46.8859C68.6609 47.381 67.9795 48.1096 67.4461 47.6119L67.2649 47.7709C67.7498 48.4431 66.6473 49.1203 66.2747 48.3764L65.5882 48.6329L67.3746 54.9258L61.0634 56.5241L61.1885 57.2475C62.0153 57.1987 61.9822 58.4994 61.1629 58.4096L61.117 58.6482C61.9133 58.9047 61.4233 60.1079 60.6832 59.7257L60.553 59.9283C61.1961 60.4414 60.3642 61.3778 59.7874 60.8057L59.6623 60.916C60.234 61.5471 59.1672 62.3398 58.7359 61.6112C57.8783 62.1496 56.9778 62.6155 56.0435 63.0042C52.8637 64.3844 54.0019 67.1525 54.0427 67.2577C54.1009 67.3597 54.1164 67.4808 54.0858 67.5944C54.0552 67.7079 53.9809 67.8046 53.8794 67.8631C53.7779 67.9216 53.6574 67.9372 53.5444 67.9064C53.4315 67.8756 53.3353 67.801 53.2771 67.6989C53.2771 67.6989 51.4396 65.1951 48.6094 67.3115C47.8053 67.9303 46.9517 68.4811 46.0573 68.9585C46.4733 69.7025 45.2432 70.2284 44.9957 69.4177L44.8375 69.469C45.0442 70.2566 43.8166 70.4952 43.6992 69.6948H43.4594C43.416 70.5311 42.1272 70.3464 42.3135 69.5332L42.0838 69.4536C41.7495 70.2232 40.6138 69.5896 41.063 68.8944L40.5015 68.4249L35.9997 73.1427V71.9575C40.0624 68.2434 43.2992 63.7089 45.4984 58.6508L45.279 58.4276L43.5614 58.7175C43.0615 59.8944 42.5027 61.0451 41.8873 62.1654L41.5887 62.6989C40.1314 65.2581 38.3591 67.6223 36.3136 69.7358L35.9997 70.0462V68.7815C37.87 66.7977 39.4978 64.5964 40.8486 62.2244C40.3696 61.6702 39.8583 61.1451 39.3174 60.6518L39.1158 59.4537C39.6466 58.4737 40.7363 58.4609 41.6678 58.543L39.9962 56.2342C38.9945 57.4057 37.9196 58.5119 36.7781 59.5461C37.582 60.6364 38.5288 62.9606 38.5288 64.092C38.5274 64.7658 38.2605 65.4117 37.7865 65.8881C37.3125 66.3646 36.67 66.6329 35.9997 66.6343V65.7518C36.2166 65.7521 36.4315 65.7094 36.632 65.6261C36.8325 65.5428 37.0146 65.4206 37.168 65.2664C37.3214 65.1122 37.443 64.9291 37.5259 64.7275C37.6087 64.526 37.6512 64.31 37.6509 64.092L36.1196 60.1259L35.9946 60.2336V58.7765L36.1018 58.856C37.9403 57.1827 39.5973 55.3184 41.0451 53.2942C39.7634 51.0989 38.0615 49.1807 36.038 47.6504L35.9971 47.6811L35.9563 47.6504C33.9328 49.1807 32.231 51.0989 30.9492 53.2942C32.3971 55.3183 34.0541 57.1826 35.8925 58.856L35.9997 58.7765V60.2157L35.8746 60.1079L34.3434 64.074C34.3431 64.2921 34.3856 64.5081 34.4684 64.7096C34.5513 64.9111 34.6729 65.0942 34.8263 65.2484C34.9797 65.4026 35.1618 65.5249 35.3623 65.6082C35.5628 65.6914 35.7777 65.7341 35.9946 65.7338V66.6163C35.3243 66.6149 34.6818 66.3467 34.2077 65.8702C33.7337 65.3937 33.4669 64.7478 33.4655 64.074C33.4655 62.9401 34.4123 60.6184 35.2162 59.5281C34.0757 58.4955 33.0017 57.391 32.0006 56.2213L30.329 58.5302C31.258 58.4481 32.3477 58.4609 32.8811 59.4409L32.682 60.6518C32.1412 61.1451 31.6299 61.6702 31.1508 62.2244C32.5016 64.5964 34.1294 66.7977 35.9997 68.7815V70.0462L35.6858 69.723C33.6402 67.6095 31.8679 65.2453 30.4107 62.6861L30.1121 62.1525C29.4966 61.0323 28.9379 59.8815 28.438 58.7046L26.7204 58.4147L26.5009 58.6379C28.6996 63.6979 31.9365 68.2342 35.9997 71.9498V73.1427L31.4672 68.448L30.8956 68.9098C31.3499 69.605 30.2142 70.2258 29.8748 69.469L29.6451 69.5485C29.8314 70.3618 28.5426 70.5465 28.4992 69.7102H28.2593C28.1521 70.5208 26.9144 70.272 27.1211 69.4844L26.9629 69.4331C26.7077 70.2438 25.4852 69.7179 25.9012 68.9739C25.0068 68.4965 24.1532 67.9457 23.3492 67.3269C20.5189 65.2105 18.6891 67.7092 18.6815 67.7143C18.6232 67.8164 18.5271 67.891 18.4141 67.9218C18.3012 67.9526 18.1807 67.937 18.0792 67.8785C17.9776 67.82 17.9034 67.7233 17.8728 67.6098C17.8421 67.4962 17.8576 67.3751 17.9158 67.273C17.9592 67.1679 19.0949 64.3998 15.915 63.0196C14.9808 62.6308 14.0803 62.1649 13.2226 61.6266C12.7913 62.3552 11.7246 61.5625 12.2962 60.9314L12.1712 60.8211C11.597 61.3932 10.765 60.444 11.4056 59.9437L11.2754 59.7411C10.5353 60.1233 10.0453 58.9073 10.8415 58.6636L10.7956 58.425C9.9764 58.5122 9.94322 57.2116 10.7701 57.2629L10.8951 56.5394L4.62474 54.9284L6.41118 48.6355L5.72468 48.3789C5.35463 49.1229 4.24959 48.4456 4.73448 47.7735L4.55329 47.6144C4.01991 48.1147 3.33851 47.3836 3.64731 46.8884V46.5113C2.95315 46.7063 2.60097 45.5852 3.35637 45.38L3.3232 45.2158C2.50144 45.4056 2.34066 44.0742 3.18794 44.0614C3.15331 43.0457 3.20197 42.029 3.33341 41.0214C3.74173 37.4991 0.674165 37.1528 0.666509 37.1528C0.561038 37.1387 0.464251 37.0866 0.394148 37.0061C0.324046 36.9256 0.2854 36.8223 0.2854 36.7154C0.2854 36.6084 0.324046 36.5051 0.394148 36.4247C0.464251 36.3442 0.561038 36.2921 0.666509 36.278C0.666509 36.278 3.73153 35.9291 3.33341 32.4068C3.20196 31.3992 3.1533 30.3824 3.18794 29.3668C2.34066 29.3668 2.50144 28.0251 3.3232 28.2124L3.35637 28.0482C2.59076 27.843 2.95315 26.7219 3.64731 26.9169V26.5397C3.33851 26.0446 4.01991 25.3135 4.55329 25.8137L4.73448 25.6547C4.24959 24.9826 5.35208 24.3053 5.72468 25.0493L6.41118 24.7927L4.62474 18.4998L10.936 16.9016L10.8084 16.191C9.98151 16.2397 10.0147 14.939 10.8339 15.0288L10.8798 14.7903C10.0836 14.5465 10.5736 13.3305 11.3137 13.7128L11.4438 13.5101C10.8007 12.997 11.6327 12.0607 12.2094 12.6328L12.3345 12.5224C11.7628 11.8914 12.8296 11.0987 13.2609 11.8272C14.1185 11.2889 15.0191 10.8229 15.9533 10.4342C19.1332 9.05403 17.995 6.28597 17.9541 6.18079C17.8959 6.07874 17.8804 5.95761 17.9111 5.84407C17.9417 5.73053 18.0159 5.63387 18.1175 5.57536C18.219 5.51685 18.3395 5.50127 18.4524 5.53206C18.5654 5.56286 18.6615 5.63749 18.7197 5.73955C18.7197 5.73955 20.5572 8.24337 23.3874 6.12692C24.1916 5.50822 25.0452 4.95736 25.9395 4.47994C25.5235 3.73598 26.7536 3.21007 27.0012 4.02073L27.1594 3.96943C26.9527 3.18185 28.1802 2.94327 28.2976 3.74367H28.5375C28.5809 2.90735 29.8697 3.09206 29.6834 3.90529L29.913 3.98482C30.2474 3.2152 31.383 3.84885 30.9339 4.54407L31.4953 5.01354L35.9997 0.285522V1.47073C31.9371 5.18485 28.7003 9.71928 26.5009 14.7774L26.7204 15.0006L28.438 14.7107C28.9379 13.5338 29.4966 12.383 30.1121 11.2628L30.4107 10.7292C31.8679 8.17008 33.6402 5.80581 35.6858 3.69236L35.9997 3.38195V4.64669C34.1294 6.63052 32.5016 8.83183 31.1508 11.2038L32.9959 13.2792C33.1822 14.1156 32.1333 14.9288 31.1636 14.9288C30.9083 14.9288 30.6072 14.9108 30.3265 14.8877L31.9981 17.1966C33.0013 16.024 34.0779 14.9169 35.2213 13.8821C34.4174 12.7918 33.4706 10.4676 33.4706 9.33623C33.4747 8.66416 33.7427 8.02093 34.2164 7.54667C34.6902 7.0724 35.3311 6.80553 35.9997 6.80418V7.68668C35.7828 7.68634 35.5679 7.72904 35.3674 7.81234C35.1669 7.89563 34.9848 8.01788 34.8314 8.17207C34.678 8.32627 34.5564 8.50938 34.4735 8.71091C34.3907 8.91244 34.3482 9.12842 34.3485 9.34649L35.8797 13.3126L36.0048 13.2048V14.6517L35.8976 14.5722C34.0592 16.2455 32.4021 18.1098 30.9543 20.134C32.2361 22.3292 33.9379 24.2475 35.9614 25.7778L36.0022 25.747L36.0431 25.7778C38.0666 24.2475 39.7684 22.3292 41.0502 20.134C39.6024 18.1098 37.9454 16.2455 36.1069 14.5722L35.9997 14.6517V13.2048L36.1247 13.3126L37.656 9.34649C37.6563 9.12799 37.6137 8.91158 37.5305 8.70972C37.4473 8.50785 37.3252 8.32451 37.1713 8.17025C37.0174 8.01599 36.8346 7.89385 36.6335 7.81086C36.4325 7.72787 36.2171 7.68566 35.9997 7.68668V6.80418C36.67 6.80554 37.3125 7.07382 37.7865 7.55031C38.2605 8.02679 38.5274 8.67264 38.5288 9.34649C38.5288 10.4804 37.582 12.8021 36.7781 13.8924C37.9186 14.925 38.9926 16.0295 39.9937 17.1992L41.6653 14.8903C41.3845 14.916 41.0961 14.9313 40.8282 14.9313C39.8584 14.9313 38.8095 14.1181 38.9958 13.2818L40.8486 11.2013C39.4976 8.83016 37.8698 6.62972 35.9997 4.64669V3.38195L36.3136 3.70519C38.359 5.81788 40.1313 8.18127 41.5887 10.7395L41.8873 11.2731C42.5027 12.3933 43.0615 13.5441 43.5614 14.721L45.279 15.0109L45.4984 14.7877C43.2994 9.72862 40.0626 5.19329 35.9997 1.47843V0.285522L40.5321 4.98019L41.1038 4.51842C40.6495 3.8232 41.7852 3.20237 42.1246 3.95916L42.3543 3.87964C42.168 3.06641 43.4568 2.8817 43.5002 3.71802H43.7401C43.8473 2.90735 45.085 3.1562 44.8783 3.94377L45.0365 3.99508C45.2917 3.18442 46.5142 3.71032 46.0982 4.45428C46.9926 4.93165 47.8461 5.48252 48.6502 6.10127C51.4805 8.21772 53.3103 5.71902 53.3179 5.71389C53.3761 5.61183 53.4723 5.5372 53.5853 5.50641C53.6982 5.47562 53.8187 5.49119 53.9202 5.54971C54.0217 5.60822 54.096 5.70488 54.1266 5.81842C54.1573 5.93196 54.1418 6.05308 54.0835 6.15514C54.0402 6.26032 52.9045 9.02838 56.0844 10.4086C57.0186 10.7972 57.9192 11.2632 58.7768 11.8016C59.2081 11.073 60.2748 11.8657 59.7032 12.4968L59.8282 12.6071C60.4024 12.035 61.2344 12.9842 60.5938 13.4845L60.724 13.6871C61.4641 13.3049 61.9541 14.5209 61.1578 14.7646L61.2038 15.0032C62.023 14.916 62.0562 16.2166 61.2293 16.1653L61.1042 16.8887L61.066 16.9067ZM36.7653 47.1835L38.7712 48.8894C38.5007 48.3182 38.2455 47.7496 38.0056 47.1835H36.7653ZM37.4773 45.7828H66.9689V27.6429H5.03052V45.7853H37.4722L37.4773 45.7828ZM39.1566 47.1835C39.7192 48.4931 40.3574 49.7686 41.0681 51.0033C42.3528 53.2648 43.8897 55.3717 45.649 57.2834L46.1441 57.7965C46.6886 58.069 47.1405 58.4975 47.4431 59.0279C48.2007 59.7013 49.0125 60.3106 49.8701 60.8493C49.8354 59.8338 49.7167 58.823 49.5154 57.8273C49.2095 57.2977 49.0665 56.6889 49.1045 56.0777L48.9054 55.3876C48.1363 52.8994 47.0874 50.5076 45.7792 48.2584C45.5682 47.8924 45.353 47.5323 45.1335 47.1783H43.6737C44.0242 47.7239 44.3696 48.2909 44.7099 48.8792C46.6877 52.3219 47.928 55.6646 48.2215 57.9889C46.3636 56.5702 44.105 53.8176 42.1297 50.3748C41.507 49.2896 40.9558 48.2147 40.4862 47.1758H39.1489L39.1566 47.1835ZM46.7745 47.1835C47.0862 47.9429 47.4459 48.6815 47.8514 49.3948C50.2789 49.1435 52.6737 48.6388 54.9972 47.8889L54.964 47.7684L55.135 47.694C55.0976 47.5229 55.0593 47.3519 55.0202 47.1809H52.1567C51.7467 47.2698 51.3282 47.3451 50.9011 47.4066C50.15 47.5125 49.3932 47.5734 48.6349 47.5888H48.3797L48.2521 47.3553L48.1551 47.1783H46.7694L46.7745 47.1835ZM56.0001 47.1835L56.0563 47.44C56.7071 47.3804 57.3623 47.3899 58.0112 47.4682C59.129 47.5888 60.285 47.8607 60.849 48.1891C61.4301 48.5262 61.8542 49.0816 62.0279 49.733C62.2016 50.3844 62.1108 51.0785 61.7754 51.6626C61.4401 52.2467 60.8876 52.673 60.2396 52.8476C59.5915 53.0223 58.901 52.931 58.32 52.5939C57.7815 52.2809 57.072 51.501 56.4544 50.6519C56.0218 50.0647 55.6426 49.4397 55.3213 48.7843C53.8486 49.2671 52.3466 49.6545 50.8246 49.9438L51.9832 52.558C52.1006 52.3014 52.2384 52.0449 52.366 51.8089C52.5937 51.4201 52.9388 51.1146 53.3511 50.9366C53.569 50.8402 53.8047 50.7913 54.0427 50.793C54.2861 50.7945 54.5204 50.8858 54.7011 51.0495L54.7216 51.0675C54.8616 51.2048 54.9515 51.3855 54.9768 51.5805C55.1324 52.2963 55.3301 53.0022 55.5688 53.6944C58.2863 53.7054 60.9953 53.3902 63.6384 52.7555C63.0731 50.8395 62.3404 48.9774 61.4488 47.1912H55.9925L56.0001 47.1835ZM62.4211 47.1835C63.3177 49.0349 64.048 50.9632 64.6031 52.9453L64.7231 53.3814L64.2867 53.4918C61.4431 54.2162 58.5201 54.5774 55.5867 54.5667C55.5409 54.6106 55.486 54.6439 55.4259 54.6641C55.3493 54.69 55.2671 54.6942 55.1883 54.6761C55.1094 54.6579 55.0371 54.6183 54.9793 54.5615C53.7074 54.5412 52.4374 54.4555 51.1742 54.305C50.9084 54.4435 50.6732 54.6347 50.4828 54.8671C50.2925 55.0994 50.1509 55.3681 50.0666 55.6569L50.1483 55.9597L50.5362 56.0007C55.8677 56.5461 61.2538 55.982 66.3589 54.3435C65.8259 51.8889 65.0602 49.4912 64.0723 47.1835H62.4135H62.4211ZM65.0344 47.1835C65.1229 47.3955 65.208 47.6076 65.2896 47.8197C65.5601 47.6529 66.0833 47.5452 66.5937 47.1835H65.0293H65.0344ZM68.3674 38.0173C68.7488 37.4489 69.2786 36.9972 69.8986 36.7115C69.2787 36.4258 68.7489 35.974 68.3674 35.4057V38.0173ZM66.5963 26.2396C66.0859 25.8779 65.5754 25.7701 65.2922 25.6034C65.2088 25.8155 65.1237 26.0275 65.037 26.2396H66.5988H66.5963ZM64.0825 26.2396C65.0667 23.9364 65.8298 21.544 66.3615 19.095C61.2564 17.4564 55.8702 16.8922 50.5387 17.4377L50.1508 17.4788L50.0692 17.7815C50.1534 18.0703 50.295 18.339 50.4854 18.5714C50.6757 18.8037 50.9109 18.9949 51.1768 19.1335C52.44 18.9829 53.71 18.8973 54.9819 18.8769C55.0397 18.8201 55.112 18.7805 55.1908 18.7624C55.2696 18.7443 55.3519 18.7484 55.4285 18.7743C55.4886 18.7945 55.5434 18.8278 55.5893 18.8718C58.5227 18.8611 61.4457 19.2223 64.2892 19.9467L64.718 20.039L64.598 20.4752C64.0426 22.4564 63.3123 24.3838 62.416 26.2345H64.0723L64.0825 26.2396ZM61.4437 26.2396C62.3351 24.4541 63.0679 22.593 63.6333 20.6778C60.9902 20.0432 58.2812 19.728 55.5637 19.7389C55.325 20.4312 55.1273 21.137 54.9717 21.8528C54.9464 22.0478 54.8565 22.2285 54.7165 22.3659L54.696 22.3838C54.5153 22.5476 54.2809 22.6388 54.0376 22.6404C53.7996 22.6421 53.5639 22.5931 53.346 22.4967C52.9337 22.3188 52.5886 22.0132 52.3609 21.6245C52.2282 21.391 52.1057 21.1319 51.9781 20.8754L50.8195 23.4895C52.3415 23.7788 53.8435 24.1661 55.3162 24.6491C55.6375 23.9937 56.0167 23.3686 56.4493 22.7814C57.0669 21.9297 57.7764 21.1524 58.3149 20.8394C58.8959 20.5023 59.5864 20.411 60.2345 20.5857C60.8825 20.7603 61.435 21.1866 61.7703 21.7707C62.1057 22.3548 62.1965 23.0489 62.0228 23.7003C61.8491 24.3517 61.425 24.9071 60.8439 25.2442C60.2774 25.5726 59.1239 25.8445 58.0061 25.9651C57.3572 26.0434 56.702 26.0528 56.0512 25.9933L55.995 26.2499H61.4411L61.4437 26.2396ZM55.0278 26.2396C55.0669 26.0686 55.1052 25.8975 55.1427 25.7265L54.9717 25.6521L55.0048 25.5315C52.6813 24.7817 50.2865 24.2771 47.8591 24.0257C47.4544 24.739 47.0955 25.4776 46.7847 26.237H48.1653L48.2598 26.06L48.3874 25.8266H48.6426C49.4009 25.842 50.1577 25.9028 50.9088 26.0087C51.3324 26.0686 51.7484 26.143 52.1567 26.2319H55.0278V26.2396ZM45.1412 26.2396C45.3606 25.8873 45.575 25.5273 45.7843 25.1596C47.0897 22.9108 48.136 20.5198 48.9029 18.0329L49.1019 17.3428C49.0639 16.7316 49.2069 16.1228 49.5128 15.5932C49.7142 14.5975 49.8328 13.5867 49.8676 12.5712C49.0099 13.1099 48.1981 13.7191 47.4406 14.3926C47.138 14.923 46.686 15.3515 46.1416 15.624L45.6465 16.1371C43.8849 18.0509 42.3463 20.1605 41.0604 22.4249C40.3495 23.6586 39.7112 24.9332 39.1489 26.2422H40.4862C40.9558 25.216 41.507 24.1308 42.1297 23.0457C44.1076 19.6029 46.3661 16.8503 48.224 15.4213C47.9305 17.7481 46.6928 21.0909 44.7124 24.531C44.3721 25.1194 44.0276 25.6863 43.6788 26.2319H45.1386L45.1412 26.2396ZM38.0235 26.2396C38.2787 25.6367 38.5186 25.0621 38.7687 24.5362L36.7653 26.2422H38.0235V26.2396ZM5.41333 26.2396H6.97519C6.88672 26.0292 6.80165 25.8172 6.71998 25.6034C6.44946 25.7701 5.92884 25.8779 5.41588 26.2396H5.41333ZM7.9271 26.2396H9.58594C8.68961 24.3889 7.95938 22.4615 7.40393 20.4803L7.28143 20.039L7.71783 19.9287C10.5614 19.2044 13.4844 18.8432 16.4178 18.8538C16.4636 18.8099 16.5185 18.7766 16.5786 18.7563C16.6552 18.7305 16.7374 18.7263 16.8162 18.7444C16.895 18.7625 16.9673 18.8022 17.0252 18.859C18.2971 18.8794 19.5671 18.965 20.8303 19.1155C21.0961 18.977 21.3313 18.7858 21.5217 18.5534C21.712 18.3211 21.8536 18.0524 21.9379 17.7635L21.8588 17.4736L21.4709 17.4326C16.1394 16.8871 10.7532 17.4512 5.64812 19.0898C6.17939 21.5415 6.94252 23.9365 7.9271 26.2422V26.2396ZM10.5659 26.2396H16.0069L15.9508 25.9831C15.3 26.0426 14.6447 26.0331 13.9959 25.9548C12.8781 25.8343 11.722 25.5623 11.158 25.234C10.5769 24.8968 10.1529 24.3415 9.97915 23.6901C9.80542 23.0386 9.89623 22.3445 10.2316 21.7604C10.567 21.1763 11.1195 20.75 11.7675 20.5754C12.4155 20.4008 13.106 20.4921 13.6871 20.8292C14.2256 21.1422 14.935 21.922 15.5526 22.7712C15.9852 23.3584 16.3644 23.9834 16.6858 24.6388C18.1584 24.1559 19.6604 23.7685 21.1825 23.4792L20.0238 20.8677C19.9039 21.1242 19.7686 21.3807 19.641 21.6168C19.4103 22.0062 19.0615 22.311 18.6457 22.4864C18.4279 22.5828 18.1922 22.6318 17.9541 22.6301C17.7108 22.6286 17.4765 22.5373 17.2957 22.3735L17.2778 22.3556C17.1376 22.2184 17.0477 22.0376 17.0226 21.8425C16.8669 21.1268 16.6692 20.4209 16.4305 19.7286C13.716 19.7227 11.0104 20.0422 8.37116 20.6804C8.93664 22.5955 9.66938 24.4567 10.5608 26.2422L10.5659 26.2396ZM16.9818 26.2396H19.8477C20.2561 26.1507 20.6721 26.0763 21.0957 26.0164C21.8468 25.9105 22.6036 25.8496 23.3619 25.8343H23.6171L23.7447 26.0677L23.8392 26.2447H25.2198C24.9089 25.4853 24.55 24.7467 24.1454 24.0334C21.718 24.2848 19.3232 24.7895 16.9997 25.5392L17.0328 25.6598L16.8618 25.7342C16.8993 25.9052 16.9376 26.0763 16.9767 26.2473L16.9818 26.2396ZM26.8684 26.2396H28.3282C27.9777 25.6957 27.6332 25.1288 27.2946 24.5387C25.3117 21.1011 24.0714 17.7584 23.7754 15.4213C25.6333 16.84 27.8918 19.5927 29.8671 23.0354C30.4898 24.1206 31.0385 25.1955 31.5106 26.2319H32.8479C32.2857 24.9229 31.6474 23.6483 30.9364 22.4146C29.6517 20.1531 28.1148 18.0462 26.3555 16.1345L25.8604 15.6214C25.3159 15.3489 24.864 14.9204 24.5614 14.39C23.8038 13.7166 22.992 13.1073 22.1344 12.5686C22.169 13.5841 22.2877 14.5949 22.4891 15.5907C22.7949 16.1203 22.9379 16.7291 22.9 17.3403L23.0991 18.0303C23.8659 20.5218 24.913 22.9171 26.2202 25.1698C26.4312 25.5358 26.6456 25.8958 26.8633 26.2499L26.8684 26.2396ZM33.9861 26.2396H35.2341L33.2282 24.5362C33.4834 25.0646 33.7386 25.6367 33.9734 26.2396H33.9861ZM35.2341 47.1835H33.9836C33.7505 47.7496 33.4953 48.3182 33.218 48.8894L35.2239 47.1835H35.2341ZM32.8428 47.1835H31.5055C31.0359 48.2096 30.4847 49.2948 29.862 50.3825C27.8842 53.8253 25.6256 56.5779 23.7703 57.9966C24.0637 55.6698 25.3015 52.3271 27.2844 48.8869C27.6247 48.2985 27.9701 47.7316 28.3206 47.186H26.8633C26.6439 47.54 26.4286 47.9001 26.2177 48.2661C24.9123 50.5148 23.866 52.9058 23.0991 55.3927L22.9 56.0828C22.938 56.694 22.795 57.3028 22.4891 57.8324C22.2877 58.8281 22.169 59.8389 22.1344 60.8544C22.992 60.3156 23.8038 59.7064 24.5614 59.033C24.864 58.5026 25.3159 58.0742 25.8604 57.8016L26.3555 57.2885C28.1148 55.3769 29.6517 53.2699 30.9364 51.0085C31.647 49.7737 32.2853 48.4982 32.8479 47.1886L32.8428 47.1835ZM25.2249 47.1835H23.8443L23.7473 47.3605L23.6197 47.5939H23.3645C22.6061 47.5785 21.8494 47.5177 21.0983 47.4118C20.6729 47.3519 20.2544 47.2767 19.8426 47.186H16.9767C16.9376 47.357 16.8993 47.5281 16.8618 47.6991L17.0328 47.7735L16.9997 47.8941C19.3231 48.644 21.718 49.1486 24.1454 49.4C24.5509 48.6866 24.9106 47.948 25.2224 47.1886L25.2249 47.1835ZM15.9992 47.1835H10.5608C9.6692 48.9697 8.93646 50.8318 8.37116 52.7478C11.0143 53.3825 13.7233 53.6977 16.4408 53.6867C16.6794 52.9945 16.8771 52.2886 17.0328 51.5728C17.0581 51.3778 17.148 51.1971 17.288 51.0598L17.3059 51.0418C17.4867 50.8781 17.721 50.7868 17.9643 50.7853C18.2024 50.7836 18.4381 50.8325 18.6559 50.9289C19.0683 51.1069 19.4134 51.4124 19.641 51.8012C19.7737 52.0346 19.8962 52.2937 20.0238 52.5503L21.1825 49.9361C19.6604 49.6468 18.1584 49.2595 16.6858 48.7766C16.3644 49.4319 15.9852 50.057 15.5526 50.6442C14.935 51.4959 14.2256 52.2732 13.6871 52.5862C13.3994 52.7531 13.0818 52.8614 12.7524 52.905C12.423 52.9485 12.0884 52.9264 11.7675 52.84C11.4466 52.7535 11.1458 52.6043 10.8823 52.401C10.6188 52.1977 10.3977 51.9442 10.2316 51.6549C10.0655 51.3657 9.95778 51.0464 9.91446 50.7154C9.87115 50.3843 9.89313 50.0478 9.97915 49.7253C10.0652 49.4028 10.2136 49.1004 10.4158 48.8355C10.6181 48.5706 10.8703 48.3483 11.158 48.1814C11.7246 47.853 12.8781 47.5811 13.9959 47.4605C14.6447 47.3822 15.3 47.3727 15.9508 47.4323L16.0069 47.1758L15.9992 47.1835ZM9.57828 47.1835H7.9271C6.94254 49.4874 6.17941 51.8807 5.64812 54.3306C10.7532 55.9692 16.1394 56.5333 21.4709 55.9879L21.8588 55.9468L21.9404 55.6441C21.8562 55.3553 21.7146 55.0866 21.5242 54.8542C21.3339 54.6219 21.0987 54.4307 20.8328 54.2922C19.5696 54.4427 18.2996 54.5283 17.0277 54.5487C16.9699 54.6055 16.8976 54.6451 16.8188 54.6632C16.74 54.6813 16.6577 54.6772 16.5811 54.6513C16.521 54.6312 16.4661 54.5979 16.4203 54.5538C13.4869 54.5646 10.5639 54.2034 7.72039 53.4789L7.28143 53.3891L7.40138 52.953C7.95652 50.9709 8.68676 49.0426 9.58339 47.1912L9.57828 47.1835ZM6.96498 47.1835H5.40822C5.91864 47.5452 6.42905 47.6529 6.71233 47.8197C6.79739 47.6059 6.88246 47.3938 6.96753 47.1835H6.96498ZM3.63965 38.0199V35.4083C3.25822 35.9767 2.72844 36.4285 2.10842 36.7141C2.72837 36.9998 3.25813 37.4516 3.63965 38.0199ZM10.1142 31.7655L9.85901 31.7449H9.68292C9.4762 31.7449 9.36901 31.8065 9.36901 31.9322C9.39944 31.9986 9.4493 32.0541 9.51193 32.0913C9.56448 32.1432 9.60465 32.2064 9.6294 32.2761C9.65415 32.3459 9.66285 32.4204 9.65484 32.494V40.6032C9.65668 40.7497 9.65072 40.8961 9.63698 41.0419C9.63049 41.1317 9.60528 41.2191 9.56297 41.2984L9.36391 41.4575C9.33266 41.4835 9.30803 41.5166 9.29205 41.5541C9.27607 41.5916 9.26921 41.6323 9.27203 41.673C9.26846 41.7089 9.27315 41.7452 9.28572 41.779C9.29829 41.8129 9.31841 41.8433 9.34454 41.8681C9.37068 41.8929 9.40212 41.9113 9.43645 41.922C9.47077 41.9326 9.50707 41.9352 9.54255 41.9295C9.61646 41.9228 9.6898 41.9108 9.76203 41.8936C9.88644 41.8692 10.013 41.8571 10.1397 41.8577H11.5153C11.5931 41.8594 11.6703 41.8715 11.745 41.8936C11.8603 41.9211 11.9787 41.9332 12.0972 41.9295C12.3039 41.9295 12.4111 41.8526 12.4111 41.6986C12.4115 41.6488 12.4001 41.5996 12.3779 41.555C12.3558 41.5104 12.3234 41.4717 12.2835 41.4421C12.2327 41.4056 12.1799 41.3722 12.1252 41.3421C12.086 41.2454 12.0711 41.1406 12.0818 41.0368V36.5679C12.0818 36.4806 12.0818 36.3832 12.064 36.2728C12.0638 36.1973 12.0587 36.1219 12.0487 36.0471C12.0487 36.0086 12.0283 35.9599 12.0155 35.9034C12.0011 35.8421 11.9942 35.7792 11.9951 35.7162C11.9889 35.668 11.9941 35.619 12.01 35.5731C12.0259 35.5273 12.0523 35.4858 12.087 35.4519C12.1216 35.4181 12.1637 35.3928 12.2097 35.3781C12.2558 35.3634 12.3046 35.3597 12.3524 35.3673C12.4304 35.3665 12.5074 35.3845 12.5771 35.4198C12.6468 35.4551 12.7071 35.5065 12.753 35.5699C12.8316 35.6939 12.8894 35.8299 12.924 35.9727C13.0946 36.7572 13.2021 37.5541 13.2456 38.3559C13.3358 39.483 13.3808 40.3929 13.3808 41.0855C13.3909 41.1807 13.3712 41.2766 13.3247 41.36L13.1818 41.4832C13.1584 41.5039 13.1398 41.5297 13.1275 41.5585C13.1151 41.5873 13.1093 41.6185 13.1103 41.6499C13.1111 41.6855 13.1192 41.7205 13.1341 41.7527C13.1491 41.785 13.1705 41.8137 13.1971 41.8372C13.2275 41.8666 13.2635 41.8895 13.303 41.9045C13.3425 41.9195 13.3846 41.9263 13.4268 41.9244L13.7994 41.8808L14.1847 41.8526H15.4301L15.716 41.9013C15.8002 41.9162 15.8856 41.9239 15.9712 41.9244C16.0509 41.9279 16.1301 41.9102 16.2009 41.8731C16.2317 41.8517 16.2562 41.8222 16.2715 41.7878C16.2868 41.7535 16.2924 41.7155 16.2876 41.6781C16.2934 41.6408 16.2878 41.6027 16.2713 41.5687C16.2549 41.5348 16.2285 41.5067 16.1958 41.4883C16.1377 41.4627 16.0822 41.4318 16.0299 41.3959C15.9636 41.3261 15.9231 41.2356 15.915 41.1394C15.8624 40.8314 15.8292 40.5204 15.8155 40.2082C15.8155 39.9311 15.8002 39.5899 15.8002 39.182C15.8202 38.2131 15.6849 37.2473 15.3995 36.3216C15.1879 35.7706 14.9389 35.2349 14.6543 34.7182C14.5595 34.5372 14.4801 34.3484 14.417 34.1538C14.374 34.009 14.3525 33.8586 14.3532 33.7075C14.3425 33.5268 14.3989 33.3485 14.5114 33.2072C14.5479 33.1565 14.5949 33.1142 14.649 33.0832C14.7031 33.0523 14.7633 33.0333 14.8253 33.0276C14.9154 33.0388 15.0023 33.0685 15.0805 33.1148C15.1681 33.1651 15.2658 33.1949 15.3663 33.2021C15.5561 33.203 15.7389 33.1304 15.8768 32.9994C15.9523 32.9263 16.0108 32.8374 16.0483 32.7389C16.0858 32.6405 16.1013 32.535 16.0937 32.4299C16.1023 32.3086 16.0839 32.1869 16.0397 32.0738C15.9956 31.9606 15.9268 31.8587 15.8385 31.7757C15.6763 31.6353 15.468 31.5604 15.254 31.5653C15.048 31.5606 14.8445 31.6118 14.6649 31.7133C14.4853 31.8149 14.3362 31.9631 14.2332 32.1426C14.0598 32.4438 13.9389 32.7726 13.8759 33.1148C13.8105 33.457 13.7007 33.7891 13.5493 34.1025C13.4001 34.3862 13.178 34.6245 12.9062 34.7926C12.8358 34.8379 12.7615 34.8765 12.6841 34.9081C12.6136 34.9367 12.5382 34.9515 12.4621 34.9517C12.3766 34.9536 12.2927 34.9284 12.2222 34.8798C12.1613 34.839 12.1163 34.7783 12.0946 34.708C12.0784 34.6564 12.069 34.6029 12.0665 34.5489V32.4607C12.0662 32.3973 12.0747 32.3343 12.0921 32.2734C12.1095 32.2176 12.1423 32.1678 12.1865 32.1297C12.2276 32.1055 12.2626 32.0721 12.2887 32.032C12.3148 31.992 12.3314 31.9464 12.3371 31.8988C12.3448 31.8678 12.3419 31.835 12.329 31.8057C12.316 31.7764 12.2937 31.7523 12.2656 31.7372C12.197 31.7163 12.1254 31.7068 12.0538 31.709L11.7833 31.7372L11.5 31.7655H10.1142ZM19.812 31.6064C18.8848 31.6064 18.1396 32.0528 17.5764 32.9455C17.0133 33.8383 16.7317 35.0355 16.7317 36.5371C16.7317 37.9959 16.9469 39.1769 17.3774 40.0799C17.6723 40.7366 18.1627 41.2852 18.781 41.6499C19.1827 41.8781 19.6365 41.9975 20.0978 41.9962C20.636 41.9875 21.1577 41.8079 21.5882 41.4832C22.2293 40.9913 22.6761 40.2868 22.849 39.495C23.0526 38.5828 23.1418 37.6486 23.1144 36.7141C23.123 36.0473 23.0658 35.3813 22.9434 34.7259C22.8167 33.9127 22.4697 33.1503 21.9404 32.5222C21.6722 32.2257 21.3419 31.9926 20.9732 31.8398C20.6029 31.6887 20.2065 31.6129 19.8069 31.6167L19.812 31.6064ZM19.4113 33.7382V40.3493C19.3984 40.6574 19.4737 40.9628 19.6283 41.2292C19.6871 41.3354 19.7735 41.4237 19.8781 41.4846C19.9828 41.5456 20.1019 41.577 20.2229 41.5755C20.2865 41.5808 20.3506 41.5721 20.4105 41.5499C20.4705 41.5278 20.5249 41.4927 20.57 41.4472C20.64 41.3798 20.682 41.2881 20.6874 41.1907C20.6847 41.0684 20.6632 40.9472 20.6236 40.8315C20.5827 40.6981 20.5521 40.5904 20.5342 40.5134C20.4699 40.1754 20.4442 39.8312 20.4577 39.4873V33.3073C20.4872 32.9612 20.4256 32.6135 20.279 32.299C20.2248 32.2129 20.1493 32.1423 20.0598 32.0942C19.9704 32.046 19.8701 32.0221 19.7686 32.0246C19.6974 32.0196 19.6259 32.0291 19.5584 32.0525C19.4909 32.0758 19.4287 32.1126 19.3756 32.1605C19.3333 32.2003 19.2994 32.2483 19.2762 32.3017C19.2529 32.3551 19.2407 32.4127 19.2404 32.4709C19.2982 32.6146 19.339 32.7249 19.3629 32.8019C19.3884 32.8854 19.4055 32.9714 19.4139 33.0584C19.4241 33.1542 19.4292 33.3799 19.4292 33.7357L19.4113 33.7382ZM24.8829 32.5838C24.4921 33.2264 24.2319 33.9405 24.1173 34.6849C24.0198 35.2594 23.972 35.8414 23.9744 36.4242C23.9744 38.1789 24.2943 39.5694 24.934 40.5955C25.4971 41.4951 26.1845 41.9458 26.996 41.9475C27.4719 41.9515 27.9303 41.7672 28.2721 41.4344C28.6447 41.0924 28.831 40.7503 28.831 40.4083C28.8362 40.2552 28.7933 40.1044 28.7085 39.9773C28.6686 39.9175 28.6141 39.8691 28.5501 39.8368C28.4862 39.8044 28.415 39.7892 28.3435 39.7926C28.26 39.7874 28.1766 39.803 28.1005 39.8379C28.0244 39.8728 27.958 39.9259 27.9071 39.9927C27.8091 40.1206 27.7562 40.2776 27.7566 40.439C27.7599 40.5022 27.7693 40.5649 27.7846 40.6263C27.8 40.6877 27.8094 40.7504 27.8127 40.8136C27.8172 40.99 27.7683 41.1635 27.6723 41.3113C27.633 41.3761 27.5774 41.4295 27.5111 41.4659C27.4448 41.5024 27.3702 41.5207 27.2946 41.5191C27.1981 41.5338 27.0993 41.5215 27.0093 41.4835C26.9192 41.4455 26.8413 41.3832 26.7842 41.3036C26.6875 41.1026 26.6436 40.88 26.6566 40.6571V32.866C26.6566 32.8079 26.6422 32.6736 26.6132 32.4632C26.5935 32.3685 26.5935 32.2707 26.6132 32.1759C26.6379 32.11 26.6803 32.0523 26.7357 32.0092C26.7976 31.9562 26.8766 31.9279 26.9578 31.9296C27.0635 31.9398 27.166 31.9719 27.2587 32.0241C27.3514 32.0762 27.4323 32.1471 27.4963 32.2324C27.717 32.501 27.8757 32.8155 27.9607 33.1533C28.0309 33.3903 28.088 33.6309 28.1317 33.8742C28.153 33.9637 28.2047 34.0428 28.2778 34.0981C28.351 34.1534 28.441 34.1812 28.5324 34.1769C28.5882 34.1747 28.6426 34.1583 28.6904 34.1291C28.7382 34.0999 28.7778 34.059 28.8055 34.0102C28.8972 33.8307 28.937 33.6289 28.9203 33.4278C28.9139 33.1742 28.8753 32.9225 28.8055 32.6787C28.768 32.5248 28.7059 32.2896 28.6192 31.9732C28.5817 31.8022 28.5485 31.6312 28.5196 31.4602C28.4813 31.3832 28.3384 31.3447 28.0909 31.3447C28.0415 31.3491 27.9942 31.3665 27.9538 31.3954C27.9134 31.4243 27.8815 31.4635 27.8612 31.5089C27.8354 31.5593 27.7962 31.6015 27.748 31.6309C27.6998 31.6603 27.6445 31.6758 27.5881 31.6757C27.5176 31.6764 27.4476 31.6643 27.3814 31.6397L27.0445 31.5038C26.8826 31.4371 26.7091 31.4031 26.5341 31.4037C26.213 31.4164 25.9043 31.5324 25.6537 31.7347C25.3458 31.9633 25.0813 32.2457 24.8727 32.5684L24.8829 32.5838ZM29.9539 39.8977C29.9539 40.6297 29.9113 41.0676 29.8263 41.2112L29.6196 41.4498C29.5548 41.5199 29.5169 41.6108 29.5124 41.7063C29.5124 41.8218 29.5889 41.8782 29.7421 41.8782L29.9794 41.85C30.053 41.8404 30.1272 41.8353 30.2014 41.8346H30.546L30.8012 41.8859C30.9119 41.9119 31.0246 41.929 31.138 41.9372C31.1752 41.9441 31.2134 41.9425 31.2498 41.9327C31.2863 41.923 31.3202 41.9051 31.349 41.8806C31.3778 41.8561 31.4008 41.8254 31.4164 41.7908C31.432 41.7563 31.4398 41.7186 31.4392 41.6807C31.439 41.6238 31.4234 41.568 31.3942 41.5192C31.365 41.4704 31.3232 41.4305 31.2733 41.4036C31.1789 41.3651 31.0844 41.3215 30.9849 41.2728C30.8977 41.239 30.826 41.1742 30.7833 41.0907C30.7471 40.9914 30.7306 40.8859 30.7348 40.7802V37.1887C30.7348 37.1887 30.7348 37.0681 30.7144 36.8629C30.694 36.6577 30.694 36.4935 30.694 36.3755C30.6879 36.2615 30.707 36.1476 30.7501 36.042C30.7681 36.0044 30.797 35.9733 30.833 35.9527C30.869 35.932 30.9104 35.9229 30.9517 35.9265C31.0741 35.9261 31.192 35.9729 31.2809 36.0574C31.3402 36.1206 31.3956 36.1874 31.4468 36.2575C31.5721 36.4111 31.7086 36.5552 31.8552 36.6884C31.9638 36.822 32.1081 36.9217 32.2711 36.9758C32.3766 36.9758 32.5102 36.8415 32.6718 36.573C32.842 36.2754 33.0121 35.9727 33.1822 35.6648C33.2428 35.5395 33.3201 35.423 33.4119 35.3185C33.4515 35.2565 33.5039 35.2038 33.5655 35.1639C33.6272 35.1241 33.6966 35.0981 33.7692 35.0876C33.8575 35.093 33.944 35.1147 34.0244 35.1518C34.0812 35.1829 34.1269 35.2309 34.1552 35.2893C34.1836 35.3477 34.1932 35.4135 34.1826 35.4776C34.1798 35.5769 34.16 35.675 34.1239 35.7675C34.0644 35.9349 34.0167 36.1064 33.981 36.2805C33.924 36.547 33.8949 36.8187 33.8943 37.0912V40.9393C33.9063 41.0693 33.8815 41.2 33.8228 41.3164L33.6799 41.4344C33.6438 41.4666 33.615 41.5061 33.5952 41.5503C33.5754 41.5945 33.5651 41.6425 33.565 41.691C33.565 41.8474 33.6646 41.9244 33.8662 41.9244C33.9447 41.9178 34.0219 41.9005 34.0959 41.8731C34.2355 41.8347 34.38 41.8174 34.5246 41.8218H35.7139C35.8303 41.8249 35.946 41.8421 36.0584 41.8731C36.1616 41.9024 36.2678 41.9196 36.3748 41.9244C36.412 41.9312 36.4502 41.9297 36.4867 41.9199C36.5231 41.9101 36.557 41.8923 36.5858 41.8678C36.6146 41.8432 36.6377 41.8126 36.6532 41.778C36.6688 41.7434 36.6766 41.7058 36.676 41.6679C36.6766 41.618 36.6653 41.5687 36.6431 41.524C36.6209 41.4794 36.5885 41.4408 36.5484 41.4113C36.511 41.3822 36.454 41.3438 36.3774 41.2959C36.3261 41.1873 36.3057 41.0665 36.3187 40.947C36.3289 40.1893 36.3383 39.4197 36.3468 38.6381C36.3468 37.8557 36.3595 37.2169 36.3595 36.7269C36.3595 35.1312 36.3527 34.0427 36.3391 33.4612C36.3255 32.8797 36.3187 32.5308 36.3187 32.4145C36.3137 32.3366 36.3223 32.2585 36.3442 32.1836C36.3722 32.1334 36.4095 32.089 36.454 32.0528C36.4984 32.0147 36.5402 31.9735 36.579 31.9296C36.5974 31.9045 36.6082 31.8745 36.61 31.8433C36.6118 31.8121 36.6045 31.781 36.5891 31.7539C36.5738 31.7267 36.5509 31.7047 36.5232 31.6903C36.4956 31.676 36.4645 31.67 36.4335 31.6731L35.9895 31.7167C35.8829 31.7116 35.777 31.697 35.673 31.6731C35.5884 31.6772 35.5055 31.6984 35.4292 31.7354C35.3529 31.7724 35.2848 31.8245 35.229 31.8886C35.0017 32.1556 34.7912 32.4367 34.5986 32.73C34.323 33.1225 34.1444 33.3893 34.0678 33.5253C33.9643 33.738 33.8234 33.93 33.6518 34.0923C33.5456 34.1764 33.4144 34.2224 33.2792 34.2231C33.1607 34.2283 33.043 34.2027 32.9372 34.1487C32.8204 34.0817 32.7159 33.9949 32.6284 33.8922C32.5456 33.8007 32.4689 33.7039 32.3987 33.6023C32.3375 33.5099 32.2762 33.4099 32.2201 33.3047C32.018 33.0059 31.7927 32.7237 31.5464 32.4607C31.1636 32.0322 30.9594 31.8091 30.9313 31.7885C30.8397 31.7229 30.7299 31.6879 30.6174 31.6885L30.2295 31.7603L29.8569 31.6885C29.8291 31.6818 29.8001 31.6816 29.7722 31.688C29.7444 31.6943 29.7183 31.707 29.6961 31.7252C29.6739 31.7433 29.6561 31.7663 29.6442 31.7924C29.6322 31.8185 29.6264 31.847 29.6272 31.8758C29.6241 31.9305 29.6349 31.9851 29.6586 32.0344C29.6822 32.0838 29.718 32.1263 29.7625 32.158C29.8005 32.1782 29.8341 32.2058 29.8612 32.2393C29.8884 32.2728 29.9086 32.3114 29.9207 32.3529C29.9335 32.4093 29.9403 32.467 29.9411 32.5248V39.89L29.9539 39.8977ZM38.7916 31.7655C38.5043 31.7689 38.2171 31.7543 37.9316 31.7218L37.5871 31.6936C37.3778 31.6936 37.2732 31.7655 37.2732 31.9091C37.2696 31.9414 37.277 31.9739 37.2941 32.0013C37.3113 32.0288 37.3372 32.0497 37.3676 32.0605C37.4238 32.0795 37.4716 32.1176 37.5029 32.1682C37.5385 32.2746 37.5524 32.3872 37.5437 32.4992V41.0522C37.5519 41.1335 37.5396 41.2155 37.508 41.2908C37.4646 41.341 37.4138 41.3842 37.3574 41.419C37.323 41.4418 37.2946 41.4726 37.2746 41.5087C37.2546 41.5449 37.2436 41.5854 37.2425 41.6268C37.2379 41.6616 37.2413 41.697 37.2525 41.7302C37.2637 41.7635 37.2824 41.7937 37.3071 41.8185C37.3318 41.8433 37.3618 41.8621 37.3949 41.8733C37.4279 41.8846 37.4631 41.888 37.4977 41.8834L37.753 41.8551C37.8504 41.8447 37.9484 41.8396 38.0464 41.8397H40.7261C40.8646 41.8309 41.0034 41.8501 41.1344 41.8962L41.3641 42.0039C41.4717 42.044 41.5864 42.0615 41.701 42.0552C41.7404 42.0612 41.7806 42.0585 41.8189 42.0474C41.8572 42.0364 41.8927 42.0172 41.923 41.9911C41.9677 41.8942 41.9853 41.7869 41.9741 41.6807C41.9766 41.2116 42.0489 40.7456 42.1884 40.2979C42.2134 40.2084 42.228 40.1163 42.2318 40.0234C42.2394 39.9576 42.2253 39.8911 42.1916 39.8341C42.158 39.7771 42.1067 39.7327 42.0455 39.7079C41.9989 39.6957 41.9507 39.6906 41.9026 39.6925C41.8031 39.6912 41.7054 39.7192 41.6215 39.773C41.5377 39.8268 41.4712 39.904 41.4305 39.9952C41.3479 40.1811 41.283 40.3743 41.2365 40.5724C41.1849 40.8155 41.0684 41.0399 40.8996 41.2215C40.7784 41.3459 40.6135 41.4177 40.4403 41.4216C40.3632 41.4327 40.2846 41.4239 40.2118 41.3961C40.1391 41.3683 40.0745 41.3223 40.0243 41.2625C39.9484 41.1165 39.914 40.9523 39.9248 40.7879C39.9248 40.6622 39.9426 40.5314 39.9528 40.4134C39.963 40.2954 39.9656 40.1568 39.9656 40.0542V36.9758C39.964 36.7962 40.0042 36.6187 40.083 36.4576C40.1299 36.3814 40.1978 36.3206 40.2784 36.2823C40.359 36.2441 40.4489 36.2301 40.5372 36.2421C40.6586 36.2396 40.7781 36.2721 40.8817 36.3357C40.9853 36.3994 41.0686 36.4915 41.1217 36.6012L41.3207 37.0322C41.3544 37.1071 41.4084 37.171 41.4766 37.2164C41.5448 37.2617 41.6243 37.2868 41.7061 37.2887C41.7664 37.2966 41.8277 37.2894 41.8846 37.268C41.9416 37.2465 41.9924 37.2114 42.0328 37.1656C42.0941 37.0742 42.1245 36.9653 42.1195 36.8552C42.1057 36.7537 42.0719 36.656 42.02 36.5679C41.8879 36.3259 41.7892 36.067 41.7265 35.7982C41.7157 35.6546 41.6634 35.5173 41.5759 35.4032C41.4894 35.353 41.3897 35.3306 41.2901 35.339C41.2353 35.3261 41.1781 35.3266 41.1235 35.3404C41.0689 35.3542 41.0184 35.381 40.9762 35.4186C40.9575 35.4716 40.9311 35.5391 40.8971 35.6212C40.8724 35.6907 40.8269 35.7507 40.7669 35.7931C40.694 35.8319 40.6119 35.8497 40.5296 35.8444C40.4215 35.8554 40.3129 35.8301 40.2206 35.7726C40.1283 35.7151 40.0575 35.6285 40.0192 35.5263C39.9734 35.3725 39.9544 35.212 39.963 35.0517V33.1944C39.963 33.1072 39.9426 33.0199 39.935 32.9378C39.9254 32.8526 39.9203 32.767 39.9197 32.6813C39.914 32.5659 39.9473 32.4521 40.0141 32.3581C40.0521 32.3143 40.0999 32.2802 40.1536 32.2588C40.2073 32.2374 40.2654 32.2292 40.3229 32.2349C40.4172 32.2422 40.5091 32.2687 40.5929 32.3128C40.6767 32.3569 40.7506 32.4177 40.8103 32.4915C40.9712 32.653 41.0896 32.8522 41.1548 33.0712C41.1753 33.1379 41.2084 33.2713 41.2544 33.4637C41.2779 33.5716 41.3377 33.6681 41.4237 33.7368C41.5097 33.8055 41.6167 33.8422 41.7265 33.8409C41.7894 33.8532 41.8545 33.8461 41.9133 33.8205C41.9721 33.7948 42.0218 33.7518 42.0557 33.6972C42.0704 33.6125 42.0747 33.5264 42.0685 33.4407C42.0607 33.2891 42.0341 33.1392 41.9894 32.9943C41.9513 32.8669 41.9198 32.7376 41.8949 32.6069L41.8235 32.0938C41.8235 31.8732 41.7929 31.7501 41.7291 31.727C41.6391 31.6991 41.545 31.687 41.4509 31.6911C41.3456 31.6878 41.2403 31.6964 41.137 31.7167C41.0885 31.7398 41.0426 31.7629 41.0017 31.7783C40.9485 31.7971 40.8922 31.8058 40.8358 31.8039H38.7738L38.7916 31.7655ZM44.1203 37.2451V40.7931C44.1245 40.9175 44.1107 41.042 44.0795 41.1625C44.0612 41.2313 44.0241 41.2935 43.9723 41.3421C43.9304 41.3784 43.8861 41.4118 43.8396 41.4421C43.795 41.4727 43.7583 41.5136 43.7325 41.5613C43.7068 41.6091 43.6927 41.6623 43.6916 41.7166C43.6915 41.7481 43.6985 41.7792 43.7121 41.8076C43.7257 41.8359 43.7456 41.8608 43.7702 41.8803C43.7947 41.8999 43.8234 41.9135 43.854 41.9202C43.8846 41.927 43.9163 41.9267 43.9468 41.9193C44.0328 41.9149 44.1182 41.9029 44.202 41.8834C44.3111 41.8604 44.4223 41.8484 44.5338 41.8474H45.8787C45.9068 41.8474 46.0114 41.8474 46.19 41.8834C46.3261 41.9039 46.4634 41.9159 46.6009 41.9193C46.8281 41.9193 46.9403 41.832 46.9403 41.6627C46.9341 41.6091 46.915 41.5578 46.8848 41.5131C46.8546 41.4685 46.8141 41.4318 46.7668 41.4062C46.6699 41.3492 46.5979 41.2576 46.5652 41.1497C46.5454 41.0069 46.5369 40.8628 46.5397 40.7187V33.8409C46.5397 33.5843 46.5397 33.3765 46.5397 33.2277C46.5332 33.1019 46.5179 32.9768 46.4937 32.8532C46.4733 32.7531 46.458 32.6762 46.4478 32.6223C46.444 32.5668 46.444 32.5111 46.4478 32.4555C46.4412 32.4089 46.4457 32.3614 46.4608 32.3169C46.4758 32.2723 46.5011 32.2319 46.5346 32.199C46.61 32.1492 46.6999 32.1266 46.7898 32.1349C46.838 32.1349 46.8857 32.1452 46.9297 32.1651C46.9737 32.185 47.013 32.2141 47.045 32.2503C47.1232 32.3319 47.1687 32.4397 47.1726 32.553V33.0148C47.1668 33.163 47.219 33.3076 47.3181 33.4176C47.3731 33.4732 47.4394 33.5163 47.5126 33.5437C47.5857 33.5712 47.6638 33.5824 47.7417 33.5766C47.7829 33.5845 47.8254 33.5821 47.8655 33.5696C47.9055 33.5571 47.9419 33.5348 47.9714 33.5048C47.9972 33.4307 48.0084 33.3523 48.0046 33.2739C48.0043 33.1723 47.9949 33.071 47.9765 32.9712C47.9578 32.8652 47.9339 32.7454 47.905 32.612L47.8183 31.8912C47.8261 31.8455 47.8233 31.7986 47.8099 31.7542C47.7966 31.7098 47.7731 31.6692 47.7414 31.6356C47.7097 31.6019 47.6706 31.5762 47.6272 31.5605C47.5838 31.5447 47.5374 31.5394 47.4916 31.5448C47.415 31.5448 47.3387 31.5543 47.2645 31.573L47.0373 31.6295C46.8587 31.6859 46.7311 31.7244 46.6596 31.7372C46.5593 31.7537 46.4576 31.7606 46.3559 31.7578H44.1969C44.0785 31.7501 43.9626 31.7205 43.8549 31.6705C43.712 31.6141 43.615 31.5756 43.564 31.5628C43.4869 31.5462 43.408 31.5393 43.3292 31.5423C43.2824 31.5345 43.2343 31.5389 43.1896 31.5551C43.145 31.5712 43.1052 31.5986 43.074 31.6346C43.0334 31.7138 43.0141 31.8022 43.0178 31.8912C42.9794 32.1252 42.9231 32.3559 42.8494 32.5812C42.7781 32.7911 42.7335 33.0092 42.7167 33.2303C42.708 33.3206 42.7306 33.4112 42.7805 33.4868C42.8141 33.5189 42.8546 33.5428 42.8989 33.5566C42.9431 33.5704 42.99 33.5737 43.0357 33.5664C43.1579 33.5836 43.2819 33.5526 43.3818 33.4799C43.4817 33.4072 43.5498 33.2984 43.5716 33.1764V32.6633C43.5564 32.5228 43.5947 32.3816 43.6788 32.2683C43.7122 32.2343 43.7519 32.2072 43.7957 32.1887C43.8395 32.1702 43.8865 32.1607 43.934 32.1605C43.9788 32.1577 44.0236 32.165 44.0651 32.1819C44.1067 32.1987 44.144 32.2247 44.1744 32.2579C44.2047 32.2911 44.2272 32.3306 44.2404 32.3737C44.2536 32.4168 44.257 32.4623 44.2505 32.5069C44.2552 32.564 44.2552 32.6215 44.2505 32.6787C44.1997 33.0468 44.1759 33.418 44.179 33.7895C44.179 34.2693 44.179 34.767 44.179 35.2749V37.2349L44.1203 37.2451ZM54.2239 41.8449C54.3393 41.8391 54.4547 41.8565 54.5633 41.8962C54.6491 41.9317 54.7411 41.9492 54.8339 41.9475C54.8692 41.9565 54.9061 41.9572 54.9418 41.9497C54.9775 41.9421 55.011 41.9265 55.0398 41.904C55.0686 41.8815 55.0919 41.8527 55.108 41.8198C55.124 41.7869 55.1324 41.7507 55.1324 41.714C55.1326 41.664 55.1208 41.6146 55.0982 41.57C55.0755 41.5254 55.0427 41.4868 55.0023 41.4575C54.938 41.4084 54.8862 41.3447 54.8511 41.2715C54.8161 41.1984 54.7988 41.1179 54.8007 41.0368C54.8185 40.2928 54.839 39.6181 54.8568 39.0076C54.8747 38.397 54.8849 37.494 54.8849 36.2857V34.6772C54.8747 34.2907 54.8653 33.9041 54.8568 33.5176C54.8568 33.1302 54.8441 32.7942 54.8441 32.5043C54.8333 32.4344 54.8408 32.3628 54.8659 32.2967C54.8909 32.2306 54.9327 32.1722 54.987 32.1272C55.033 32.1094 55.0719 32.0769 55.0977 32.0347C55.1235 31.9926 55.1349 31.943 55.1299 31.8937C55.1315 31.8664 55.127 31.8391 55.1165 31.8138C55.106 31.7886 55.09 31.7661 55.0696 31.748C55.0491 31.7299 55.0249 31.7168 54.9986 31.7096C54.9723 31.7024 54.9448 31.7013 54.9181 31.7064L54.6986 31.7449C54.6261 31.7579 54.5527 31.7647 54.4791 31.7655H53.0985L52.8152 31.709H52.5447C52.3558 31.709 52.2614 31.7808 52.2614 31.9245C52.2629 31.9704 52.2753 32.0153 52.2975 32.0554C52.3197 32.0955 52.351 32.1298 52.389 32.1554C52.4249 32.1784 52.4555 32.2089 52.4788 32.2447C52.5021 32.2805 52.5176 32.3209 52.5242 32.3632C52.5242 32.435 52.5242 32.494 52.5242 32.5428C52.5245 32.8058 52.4769 33.0666 52.3839 33.3124C52.1491 33.8887 51.9203 34.46 51.6974 35.0261C51.6106 35.2467 51.5315 35.4622 51.4575 35.6725C51.3529 35.9522 51.2584 36.0907 51.1742 36.0907C51.1529 36.0912 51.1317 36.0868 51.1124 36.0779C51.093 36.069 51.0759 36.0557 51.0623 36.0392C51.0488 36.0226 51.0392 36.0032 51.0343 35.9823C51.0293 35.9614 51.0292 35.9397 51.0338 35.9188C51.0338 35.8136 51.0338 35.6212 51.0543 35.3467C51.0747 35.0722 51.0747 34.808 51.0747 34.5592V32.5325C51.0699 32.4566 51.0812 32.3805 51.1079 32.3093C51.1355 32.2625 51.1764 32.225 51.2253 32.2016C51.2748 32.1592 51.3209 32.1128 51.3631 32.063C51.3916 32.0237 51.406 31.9757 51.4039 31.9271C51.4039 31.7834 51.3095 31.7116 51.1206 31.7116C51.0483 31.7122 50.9763 31.7217 50.9062 31.7398C50.7937 31.7621 50.679 31.7715 50.5643 31.768H49.0968L48.9258 31.7398C48.8324 31.7221 48.7376 31.7126 48.6426 31.7116C48.4724 31.7116 48.3874 31.7689 48.3874 31.8835C48.4251 31.982 48.4954 32.0644 48.5864 32.1169C48.6267 32.161 48.6566 32.2136 48.6738 32.2709C48.6911 32.3282 48.6952 32.3887 48.686 32.4478C48.6672 33.474 48.6502 34.3993 48.6349 35.2236C48.6196 36.0479 48.6119 36.8244 48.6119 37.553C48.6119 37.7197 48.6119 38.1764 48.6477 38.9357C48.6834 39.6951 48.6834 40.3826 48.6834 41.0086C48.6834 41.2497 48.6324 41.3934 48.5328 41.437C48.48 41.4646 48.4371 41.5082 48.4101 41.5615C48.3831 41.6149 48.3734 41.6754 48.3823 41.7346C48.3812 41.7668 48.3874 41.7989 48.4005 41.8284C48.4136 41.8578 48.4331 41.884 48.4577 41.9047C48.4823 41.9255 48.5113 41.9403 48.5424 41.9482C48.5735 41.956 48.606 41.9567 48.6375 41.9501C48.7539 41.9468 48.8696 41.9296 48.982 41.8988C49.1657 41.8598 49.3532 41.8426 49.5409 41.8474H50.4724C50.5859 41.8554 50.6985 41.8726 50.8093 41.8988C50.92 41.9247 51.0327 41.9419 51.1461 41.9501C51.198 41.9437 51.2473 41.9236 51.2889 41.8917C51.3305 41.8599 51.3628 41.8174 51.3826 41.7688C51.4024 41.7201 51.4088 41.667 51.4014 41.615C51.3939 41.563 51.3727 41.5139 51.3401 41.4729C51.3063 41.4415 51.2705 41.4124 51.2329 41.3857C51.1925 41.3678 51.1574 41.3398 51.131 41.3043C51.1047 41.2688 51.0879 41.227 51.0823 41.183C51.0823 41.106 51.0823 41.0163 51.0823 40.9265V39.3513C51.0823 39.223 51.0619 39.0948 51.0543 38.9537C51.0466 38.8126 51.0415 38.6561 51.0415 38.4842C51.0431 38.3429 51.0577 38.2021 51.0849 38.0635C51.1223 37.8806 51.1753 37.7012 51.2431 37.5273C51.4439 37.057 51.6446 36.5798 51.8454 36.0958C51.95 35.8393 52.0547 35.5597 52.1593 35.2441C52.1852 35.1536 52.2239 35.0672 52.2741 34.9876C52.2914 34.9479 52.319 34.9136 52.354 34.8883C52.3891 34.863 52.4302 34.8477 52.4732 34.8439C52.5778 34.8439 52.6314 34.9158 52.6314 35.0594C52.6279 35.1128 52.6211 35.1659 52.611 35.2185C52.6043 35.2721 52.5941 35.3252 52.5804 35.3775C52.5259 35.6481 52.4935 35.9226 52.4834 36.1984C52.4579 36.5833 52.4451 36.8885 52.4451 37.1194V40.8777C52.464 41.0372 52.4328 41.1987 52.3558 41.3395L52.2537 41.4626C52.2048 41.5159 52.1767 41.5851 52.1746 41.6576C52.1682 41.6976 52.1743 41.7386 52.1922 41.7749C52.21 41.8112 52.2387 41.8411 52.2741 41.8603C52.3502 41.8914 52.4319 41.9063 52.514 41.9039C52.625 41.9049 52.7358 41.8981 52.8458 41.8834C52.9898 41.867 53.1347 41.8601 53.2797 41.8628H54.2163L54.2239 41.8449ZM56.5412 31.7655L56.286 31.7449H56.1099C55.9032 31.7449 55.796 31.8065 55.796 31.9322C55.8263 31.9987 55.8762 32.0542 55.9389 32.0913C55.9915 32.1432 56.0316 32.2064 56.0564 32.2761C56.0811 32.3459 56.0898 32.4204 56.0818 32.494V40.6032C56.0835 40.7497 56.0776 40.8961 56.0639 41.0419C56.0575 41.1317 56.0322 41.2191 55.9899 41.2984L55.7883 41.4575C55.7571 41.4835 55.7324 41.5166 55.7165 41.5541C55.7005 41.5916 55.6936 41.6323 55.6964 41.673C55.6929 41.7089 55.6976 41.7452 55.7101 41.779C55.7227 41.8129 55.7428 41.8433 55.769 41.8681C55.7951 41.8929 55.8265 41.9113 55.8609 41.922C55.8952 41.9326 55.9315 41.9352 55.967 41.9295C56.0409 41.9228 56.1142 41.9108 56.1864 41.8936C56.3109 41.8692 56.4374 41.8572 56.5641 41.8577H57.9474C58.0252 41.8593 58.1024 41.8714 58.177 41.8936C58.2932 41.9213 58.4125 41.9334 58.5318 41.9295C58.7385 41.9295 58.8431 41.8526 58.8431 41.6986C58.8435 41.6488 58.8322 41.5996 58.81 41.555C58.7878 41.5104 58.7554 41.4717 58.7155 41.4421C58.6647 41.4057 58.6119 41.3723 58.5573 41.3421C58.5178 41.2455 58.5029 41.1406 58.5139 41.0368V36.5679C58.5139 36.4806 58.5139 36.3832 58.4961 36.2728C58.4961 36.1973 58.491 36.1219 58.4807 36.0471C58.4807 36.0086 58.4629 35.9599 58.4476 35.9034C58.4332 35.8421 58.4263 35.7792 58.4271 35.7162C58.4209 35.6677 58.426 35.6185 58.4421 35.5724C58.4582 35.5263 58.4848 35.4846 58.5198 35.4507C58.5547 35.4168 58.5971 35.3916 58.6435 35.3771C58.6899 35.3626 58.7391 35.3592 58.787 35.3673C58.865 35.3663 58.9422 35.3842 59.0119 35.4195C59.0816 35.4548 59.1419 35.5064 59.1877 35.5699C59.2663 35.6938 59.324 35.8299 59.3586 35.9727C59.5288 36.7572 59.6364 37.5542 59.6802 38.3559C59.7704 39.483 59.8155 40.3929 59.8155 41.0855C59.8247 41.1809 59.8042 41.2769 59.7568 41.36L59.6138 41.4832C59.5904 41.5039 59.5719 41.5297 59.5596 41.5585C59.5472 41.5873 59.5413 41.6185 59.5424 41.6499C59.5432 41.6855 59.5513 41.7205 59.5662 41.7527C59.5811 41.785 59.6026 41.8137 59.6292 41.8372C59.6596 41.8666 59.6956 41.8895 59.7351 41.9045C59.7746 41.9195 59.8167 41.9263 59.8588 41.9244L60.2314 41.8808L60.6194 41.8526H61.8648L62.1506 41.9013C62.2349 41.9162 62.3202 41.9239 62.4058 41.9244C62.4855 41.9278 62.5647 41.9101 62.6355 41.8731C62.6661 41.8515 62.6904 41.822 62.7057 41.7877C62.721 41.7533 62.7267 41.7155 62.7223 41.6781C62.7278 41.6406 62.7218 41.6022 62.7049 41.5682C62.688 41.5342 62.6611 41.5063 62.6278 41.4883C62.5699 41.4626 62.5144 41.4317 62.4619 41.3959C62.3955 41.3262 62.355 41.2356 62.3471 41.1394C62.2941 40.8314 62.2608 40.5204 62.2476 40.2082C62.2476 39.9311 62.2323 39.5899 62.2323 39.182C62.2522 38.2131 62.1169 37.2473 61.8316 36.3216C61.6199 35.7707 61.3709 35.235 61.0864 34.7182C60.9917 34.5371 60.9123 34.3483 60.849 34.1538C60.8061 34.009 60.7846 33.8586 60.7852 33.7075C60.7748 33.5268 60.8312 33.3486 60.9435 33.2072C60.9803 33.1562 61.0276 33.1137 61.0822 33.0827C61.1368 33.0517 61.1974 33.0329 61.2599 33.0276C61.3501 33.0388 61.4369 33.0685 61.5151 33.1148C61.6027 33.1651 61.7004 33.1949 61.801 33.2021C61.9907 33.203 62.1735 33.1304 62.3114 32.9994C62.3868 32.9276 62.4457 32.8401 62.484 32.7431C62.5224 32.6461 62.5392 32.5418 62.5334 32.4376C62.542 32.3163 62.5236 32.1946 62.4795 32.0815C62.4353 31.9683 62.3665 31.8664 62.2782 31.7834C62.116 31.643 61.9078 31.5681 61.6938 31.573C61.4878 31.5683 61.2843 31.6194 61.1047 31.721C60.9251 31.8226 60.7759 31.9708 60.673 32.1503C60.4991 32.4513 60.3783 32.7802 60.3157 33.1225C60.2501 33.4647 60.1403 33.7967 59.989 34.1102C59.8398 34.3939 59.6177 34.6322 59.3459 34.8003C59.2756 34.8455 59.2012 34.8842 59.1239 34.9158C59.0533 34.9445 58.9779 34.9593 58.9018 34.9594C58.8155 34.962 58.7305 34.9368 58.6594 34.8875C58.5977 34.8469 58.5517 34.7863 58.5292 34.7157C58.513 34.6641 58.5036 34.6106 58.5012 34.5566V32.4684C58.5007 32.405 58.5093 32.342 58.5267 32.2811C58.5443 32.2253 58.577 32.1756 58.6211 32.1374C58.6622 32.1132 58.6972 32.0798 58.7233 32.0397C58.7494 31.9997 58.766 31.9541 58.7717 31.9065C58.7776 31.874 58.7722 31.8405 58.7564 31.8115C58.7406 31.7825 58.7154 31.7599 58.6849 31.7475C58.6163 31.7266 58.5447 31.717 58.4731 31.7193L58.2026 31.7475L57.9193 31.7757H56.5437L56.5412 31.7655ZM13.2354 21.5885C12.856 21.3684 12.4052 21.3088 11.9821 21.4229C11.559 21.5369 11.1983 21.8152 10.9794 22.1965C10.7604 22.5779 10.7011 23.0311 10.8145 23.4564C10.928 23.8817 11.2048 24.2442 11.5842 24.4643C12.0487 24.7209 13.0644 24.962 14.0776 25.0723C14.6372 25.1406 15.2021 25.1552 15.7645 25.116L15.7313 24.9543L15.8385 24.9184C15.5489 24.3474 15.2126 23.8017 14.833 23.2868C14.2792 22.5172 13.6667 21.8374 13.2354 21.586V21.5885ZM23.8927 6.82471C21.7694 8.41269 20.0647 7.88935 19.0566 7.21721C19.1255 8.43834 18.7274 10.1751 16.3004 11.2295C14.5344 11.9991 13.2379 12.7379 12.4723 13.6127C11.7526 14.4337 11.5025 15.4085 11.7833 16.663C11.7878 16.6988 11.7878 16.735 11.7833 16.7707C13.174 16.5674 14.5745 16.4381 15.9788 16.3834L15.7236 16.3013C15.0371 16.0447 14.5752 15.5778 14.7028 15.2546C14.8304 14.9313 15.4684 14.8775 16.16 15.1314C16.5132 15.2484 16.8286 15.4583 17.0737 15.7394C17.2088 15.4768 17.3807 15.2349 17.5841 15.0211C17.2388 14.883 16.9365 14.6545 16.7087 14.3593C16.2417 13.7923 16.0733 13.1561 16.3361 12.9355C16.599 12.7148 17.1911 12.997 17.6606 13.5614C17.9034 13.8424 18.0672 14.1833 18.1353 14.5491C18.3818 14.3884 18.65 14.264 18.9316 14.1797C18.7012 13.8864 18.5532 13.5365 18.5028 13.1664C18.3778 12.4404 18.5513 11.8067 18.8882 11.7477C19.225 11.6887 19.6002 12.23 19.7227 12.956C19.8018 13.3205 19.7824 13.6996 19.6665 14.054C20.2156 14.0238 20.7627 14.1416 21.2514 14.3952C21.1358 13.5109 21.0931 12.6185 21.1238 11.7272L21.1595 10.8652L21.9251 11.2654C22.7087 11.6849 23.4565 12.1688 24.1607 12.7123C24.1782 12.3067 24.2745 11.9084 24.444 11.5399C24.5055 11.406 24.5763 11.2765 24.6558 11.1525C24.2915 11.0801 23.9531 10.9109 23.6758 10.6625C23.1118 10.1931 22.8336 9.59533 23.0531 9.33109C23.2726 9.06686 23.9055 9.23361 24.4695 9.70564C24.7633 9.93455 24.9906 10.2384 25.1279 10.5856C25.3412 10.3807 25.5827 10.2079 25.8451 10.0725C25.5656 9.82604 25.3568 9.50895 25.2402 9.15408C24.985 8.46399 25.0412 7.80725 25.3627 7.68924C25.6843 7.57124 26.1488 8.03301 26.404 8.7154C26.5444 9.06126 26.5902 9.43859 26.5367 9.80826C26.8222 9.73896 27.1161 9.71131 27.4095 9.72617C27.2873 9.38082 27.2574 9.0093 27.3227 8.6487C27.4478 7.92269 27.8331 7.3814 28.1572 7.4404C28.4813 7.49941 28.6676 8.13306 28.5426 8.85906L28.4839 9.1156C29.2377 7.92594 30.0529 6.77678 30.9262 5.67285L30.8394 5.60871C29.8901 4.73135 28.9331 4.46455 27.8663 4.6826C26.7281 4.91349 25.4367 5.67798 23.8953 6.82984L23.8927 6.82471ZM18.3905 15.447C18.1007 15.689 17.8775 16.0017 17.7423 16.3551C19.0098 16.3551 20.279 16.4244 21.55 16.5629H21.624L21.453 15.6522C21.0684 15.226 20.5342 14.9663 19.963 14.9281C19.3917 14.8898 18.828 15.0758 18.3905 15.447ZM22.752 20.3212L21.8358 20.1699L20.5827 20.0006L22.0604 23.3356C22.6763 23.2347 23.2956 23.1492 23.9183 23.079C23.4793 22.1529 23.0889 21.2319 22.752 20.3238V20.3212ZM19.4854 19.8851C18.781 19.8167 18.0758 19.774 17.3697 19.7568C17.5889 20.4035 17.7679 21.0632 17.9056 21.7322L17.9899 21.7553C18.8014 21.7758 19.2429 20.5059 19.5007 19.8826L19.4854 19.8851ZM15.767 48.3045C15.2046 48.2654 14.6398 48.28 14.0801 48.3481C13.0593 48.4585 12.0385 48.6868 11.5867 48.9561C11.2074 49.1763 10.9305 49.5388 10.8171 49.9641C10.7037 50.3894 10.763 50.8426 10.9819 51.2239C11.2009 51.6053 11.5616 51.8836 11.9847 51.9976C12.4077 52.1116 12.8586 52.0521 13.2379 51.8319C13.6692 51.5754 14.2817 50.8956 14.8355 50.1311C15.218 49.6216 15.5578 49.081 15.8512 48.5149L15.744 48.479L15.7772 48.3174L15.767 48.3045ZM17.8929 51.696C17.7552 52.365 17.5762 53.0247 17.3569 53.6713C18.0647 53.6508 18.7742 53.6098 19.4854 53.5482C19.2301 52.9248 18.7886 51.6549 17.9745 51.6755L17.8903 51.6986L17.8929 51.696ZM21.5525 56.8627C20.2833 56.9927 19.0141 57.0619 17.7449 57.0705C17.8791 57.4264 18.102 57.7418 18.3922 57.9864C18.6824 58.231 19.0302 58.3966 19.4023 58.4674C19.7744 58.5382 20.1584 58.5118 20.5174 58.3907C20.8765 58.2697 21.1986 58.058 21.453 57.776L21.6418 56.8576H21.5678L21.5525 56.8627ZM22.2977 18.9975L22.0425 19.3002L22.4151 19.3592L22.2952 18.9975H22.2977ZM26.4678 10.76C25.9356 10.9577 25.4993 11.3533 25.249 11.8651C24.9987 12.3769 24.9535 12.9658 25.1228 13.5101L25.8272 14.1386L25.8578 14.0694C26.3802 12.8996 26.9552 11.7605 27.583 10.6523C27.2105 10.593 26.8291 10.631 26.4754 10.7626L26.4678 10.76ZM29.275 14.9416L28.7952 16.1166L28.4686 16.9888C29.0811 17.7379 29.6783 18.528 30.255 19.3823C30.6242 18.8692 31.007 18.3724 31.4034 17.8918L29.2725 14.939L29.275 14.9416ZM27.9531 15.8652L27.5779 15.9344L27.8331 16.2192L27.9684 15.8652H27.9531ZM22.0757 50.1054L20.598 53.4404L21.8511 53.2711L22.7673 53.1198C23.1067 52.2142 23.4946 51.2907 23.9336 50.3645C23.3126 50.2961 22.6933 50.2106 22.0757 50.108V50.1054ZM24.1556 60.7082C23.4514 61.2517 22.7036 61.7356 21.92 62.1551L21.1544 62.5553L21.1187 61.6933C21.088 60.802 21.1307 59.9096 21.2463 59.0253C20.7597 59.2799 20.2144 59.3994 19.6665 59.3716C19.7862 59.7259 19.8091 60.106 19.7329 60.4722C19.6079 61.1982 19.2225 61.7369 18.8984 61.6805C18.5743 61.6241 18.388 60.9878 18.513 60.2618C18.5634 59.8916 18.7115 59.5418 18.9418 59.2485C18.6566 59.1653 18.3849 59.0409 18.1353 58.8791C18.0632 59.2453 17.8949 59.5855 17.6479 59.8642C17.1808 60.4311 16.5862 60.7108 16.3234 60.4901C16.0605 60.2695 16.2264 59.6333 16.696 59.0664C16.9238 58.7712 17.226 58.5426 17.5713 58.4045C17.3679 58.1908 17.196 57.9489 17.0609 57.6862C16.8159 57.9673 16.5004 58.1772 16.1473 58.2942C15.4608 58.5507 14.8074 58.4943 14.69 58.171C14.5727 57.8478 15.032 57.3809 15.7109 57.1244L15.9661 57.0423C14.5617 56.9875 13.1613 56.8582 11.7705 56.6549C11.775 56.6907 11.775 56.7269 11.7705 56.7626C11.4898 58.0274 11.7399 58.9945 12.4595 59.8129C13.2252 60.6877 14.5318 61.4316 16.2876 62.1961C18.7172 63.2505 19.1153 64.9873 19.0438 66.2084C20.0647 65.5363 21.7567 65.0155 23.88 66.6009C25.4112 67.7553 26.7128 68.5173 27.851 68.7481C28.9177 68.9662 29.8748 68.6994 30.8241 67.822L30.9109 67.7579C30.0406 66.6488 29.2287 65.4945 28.4788 64.2998L28.5375 64.5563C28.6625 65.2823 28.489 65.9159 28.1521 65.975C27.8153 66.034 27.4401 65.4927 27.3176 64.7667C27.2421 64.4012 27.265 64.0222 27.384 63.6687C27.0906 63.6835 26.7967 63.6559 26.5112 63.5866C26.5647 63.9562 26.5189 64.3336 26.3785 64.6794C26.1232 65.3695 25.6588 65.8339 25.3372 65.7056C25.0157 65.5773 24.9621 64.936 25.2147 64.2407C25.3313 63.8859 25.5401 63.5688 25.8196 63.3223C25.5572 63.1869 25.3156 63.0141 25.1024 62.8093C24.9651 63.1564 24.7377 63.4603 24.444 63.6892C23.8825 64.1587 23.2471 64.328 23.0276 64.0637C22.8081 63.7995 23.0889 63.2043 23.6503 62.7323C23.9276 62.484 24.266 62.3148 24.6303 62.2423C24.5508 62.1183 24.48 61.9889 24.4185 61.8549C24.2489 61.4864 24.1527 61.0882 24.1352 60.6826L24.1556 60.7082ZM25.2351 61.5112C25.4365 61.9507 25.7749 62.3122 26.199 62.5409C26.6232 62.7696 27.11 62.853 27.5856 62.7785C26.9578 61.6702 26.3827 60.5312 25.8604 59.3614L25.8298 59.2921L25.133 59.9155C24.9686 60.4417 25.005 61.0105 25.2351 61.5112ZM28.808 57.3091L29.2878 58.484L31.4188 55.5312C31.024 55.0438 30.6412 54.547 30.2703 54.0407C29.691 54.8873 29.0938 55.6852 28.4839 56.4343L28.8106 57.3065L28.808 57.3091ZM27.8306 57.2064L27.5779 57.4938L27.9658 57.563L27.8331 57.2064H27.8306ZM30.7042 12.0145C30.3639 12.6405 30.0449 13.2792 29.7472 13.9308L30.4081 14.0052C32.1027 14.154 32.1435 13.4716 32.141 13.4691C31.6334 13.0155 31.1544 12.5305 30.7067 12.0171L30.7042 12.0145ZM30.4056 59.4229L29.7446 59.4973C30.0475 60.149 30.3665 60.7877 30.7016 61.4137C31.1493 60.9002 31.6283 60.4153 32.1359 59.9617C32.1359 59.9617 32.0976 59.2742 30.403 59.4255L30.4056 59.4229ZM35.9997 48.8689L35.6935 49.1716C35.174 49.6888 34.6881 50.2389 34.2388 50.8186C33.7767 51.4194 33.3506 52.0473 32.9628 52.6991L32.8249 52.9274L32.9628 53.1557C33.3506 53.8074 33.7767 54.4353 34.2388 55.0361C34.6881 55.6159 35.174 56.166 35.6935 56.6831L35.9997 56.9807V55.7365C35.621 55.3392 35.2624 54.9231 34.9253 54.4897C34.5351 53.9867 34.1713 53.4635 33.8356 52.9222C34.1711 52.3808 34.5349 51.8576 34.9253 51.3548C35.2623 50.9213 35.6209 50.5052 35.9997 50.108V48.8638V48.8689ZM35.6935 16.7476C35.1739 17.2647 34.688 17.8148 34.2388 18.3946C33.7767 18.9954 33.3506 19.6234 32.9628 20.2751L32.8249 20.5034L32.9372 20.7291C33.325 21.3809 33.7511 22.0088 34.2133 22.6096C34.6626 23.1893 35.1485 23.7394 35.6679 24.2565L35.9742 24.5593V23.315C35.5954 22.9179 35.2368 22.5018 34.8998 22.0683C34.5093 21.5654 34.1456 21.0422 33.81 20.5008C34.1458 19.9596 34.5096 19.4364 34.8998 18.9334C35.2452 18.5002 35.6123 18.0849 35.9997 17.6891V16.4475L35.6935 16.7502V16.7476ZM58.764 21.5885C58.3327 21.8451 57.7202 22.5249 57.1664 23.2894C56.7867 23.8042 56.4504 24.35 56.1609 24.921L56.2681 24.9569L56.2349 25.1185C56.7973 25.1577 57.3622 25.1431 57.9218 25.0749C58.9427 24.9646 59.9635 24.7363 60.4152 24.4669C60.603 24.3579 60.7677 24.2128 60.8998 24.0399C61.0318 23.8669 61.1287 23.6695 61.1848 23.4589C61.241 23.2483 61.2554 23.0287 61.2271 22.8125C61.1988 22.5964 61.1284 22.3879 61.02 22.1991C60.9116 22.0103 60.7673 21.8448 60.5952 21.712C60.4232 21.5793 60.2268 21.4819 60.0173 21.4254C59.8078 21.369 59.5893 21.3545 59.3743 21.383C59.1592 21.4114 58.9519 21.4821 58.764 21.5911V21.5885ZM48.1066 6.82471C46.5754 5.67028 45.2739 4.90836 44.1356 4.67747C43.0689 4.45942 42.1119 4.72622 41.1625 5.60358L41.0757 5.66772C41.946 6.77691 42.7578 7.93121 43.5078 9.12586L43.4491 8.86932C43.3241 8.14332 43.4976 7.50967 43.8345 7.45066C44.1714 7.39166 44.5465 7.93296 44.669 8.65896C44.7446 9.02437 44.7216 9.40342 44.6027 9.75695C44.896 9.7421 45.19 9.76975 45.4755 9.83904C45.4219 9.46938 45.4677 9.09204 45.6082 8.74619C45.8634 8.0561 46.3279 7.59176 46.6494 7.72003C46.971 7.8483 47.0246 8.48965 46.7719 9.18487C46.6554 9.53973 46.4465 9.85682 46.1671 10.1033C46.4295 10.2387 46.671 10.4115 46.8842 10.6164C47.0215 10.2692 47.2489 9.96533 47.5426 9.73643C48.1066 9.26696 48.7395 9.09764 48.959 9.36188C49.1785 9.62612 48.8978 10.2213 48.3363 10.6933C48.059 10.9417 47.7207 11.1109 47.3563 11.1833C47.4358 11.3073 47.5066 11.4367 47.5682 11.5707C47.7377 11.9392 47.8339 12.3374 47.8514 12.7431C48.5557 12.1996 49.3034 11.7157 50.087 11.2962L50.8526 10.896L50.8884 11.758C50.919 12.6493 50.8763 13.5417 50.7608 14.426C51.2427 14.164 51.7853 14.0356 52.3328 14.054C52.2136 13.7005 52.1907 13.3214 52.2665 12.956C52.3915 12.23 52.7769 11.6913 53.101 11.7477C53.4251 11.8041 53.6114 12.4404 53.4864 13.1664C53.4359 13.5365 53.2878 13.8864 53.0576 14.1797C53.3428 14.2631 53.6144 14.3875 53.8641 14.5491C53.9361 14.1829 54.1045 13.8427 54.3515 13.564C54.8185 12.9996 55.4132 12.7174 55.676 12.938C55.9389 13.1587 55.773 13.7949 55.3034 14.3618C55.0756 14.657 54.7734 14.8855 54.4281 15.0237C54.6315 15.2374 54.8034 15.4793 54.9385 15.742C55.1835 15.4609 55.499 15.251 55.8521 15.134C56.5386 14.8775 57.192 14.9339 57.3093 15.2572C57.4267 15.5804 56.9674 16.0473 56.2885 16.3038L56.0333 16.3859C57.4377 16.4407 58.8381 16.57 60.2289 16.7733C60.2244 16.7375 60.2244 16.7013 60.2289 16.6656C60.5096 15.4008 60.2595 14.4337 59.5398 13.6153C58.7742 12.7405 57.4676 11.9965 55.7118 11.2321C53.2822 10.1777 52.8841 8.4409 52.9555 7.21978C51.9347 7.89191 50.2427 8.41269 48.1194 6.82727L48.1066 6.82471ZM53.5961 15.447C53.1598 15.082 52.6006 14.8997 52.0342 14.9379C51.4679 14.9761 50.9379 15.2319 50.5541 15.6522L50.3652 16.5706H50.4392C51.7084 16.4407 52.9777 16.3714 54.2469 16.3628C54.1117 16.0093 53.8885 15.6966 53.5987 15.4547L53.5961 15.447ZM49.2346 20.3212C48.8952 21.2268 48.5073 22.1504 48.0684 23.0765C48.6894 23.1449 49.3087 23.2304 49.9263 23.333L51.4039 19.998L50.1508 20.1673L49.2346 20.3187V20.3212ZM52.5013 19.8851C52.7565 20.5085 53.198 21.7784 54.0121 21.7579L54.0963 21.7348C54.2341 21.0658 54.4131 20.4061 54.6322 19.7594C53.9245 19.7799 53.215 19.821 52.5038 19.8826L52.5013 19.8851ZM56.2324 48.3045L56.2656 48.4662L56.1584 48.5021C56.4478 49.0731 56.7841 49.6189 57.1639 50.1337C57.7177 50.9033 58.3327 51.5831 58.7615 51.8345C58.9493 51.9435 59.1567 52.0142 59.3717 52.0427C59.5867 52.0711 59.8052 52.0567 60.0147 52.0002C60.2242 51.9437 60.4206 51.8464 60.5927 51.7136C60.7647 51.5809 60.9091 51.4153 61.0175 51.2265C61.1259 51.0377 61.1963 50.8292 61.2245 50.6131C61.2528 50.3969 61.2385 50.1773 61.1823 49.9667C61.1261 49.7561 61.0293 49.5587 60.8972 49.3858C60.7651 49.2128 60.6005 49.0677 60.4126 48.9587C59.9482 48.7022 58.9325 48.461 57.9193 48.3507C57.3596 48.2826 56.7948 48.268 56.2324 48.3071V48.3045ZM54.1065 51.696L54.0223 51.6729C53.2107 51.6524 52.7692 52.9222 52.5115 53.5456C53.2227 53.6072 53.9321 53.6482 54.6399 53.6688C54.4207 53.0221 54.2417 52.3624 54.104 51.6934L54.1065 51.696ZM50.4469 56.8627H50.3729L50.5464 57.776C50.801 58.0544 51.122 58.263 51.4791 58.382C51.8361 58.5011 52.2175 58.5266 52.5872 58.4562C52.9568 58.3859 53.3025 58.2219 53.5916 57.9799C53.8806 57.7379 54.1035 57.4258 54.2392 57.073C52.9717 57.073 51.7025 57.0038 50.4316 56.8652L50.4469 56.8627ZM49.7017 18.9975L49.5817 19.3592L49.9543 19.3002L49.6991 18.9975H49.7017ZM45.524 10.7626C45.1703 10.631 44.7889 10.593 44.4164 10.6523C45.0425 11.7605 45.6175 12.8996 46.1416 14.0694L46.1722 14.1386L46.8689 13.5153C47.0382 12.9709 46.9931 12.382 46.7428 11.8702C46.4925 11.3584 46.0561 10.9628 45.524 10.7651V10.7626ZM42.7167 14.9442L40.5857 17.8969C40.9805 18.3844 41.3633 18.8812 41.7342 19.3874C42.3135 18.5409 42.9107 17.743 43.5206 16.9939L43.1939 16.1217L42.7141 14.9467L42.7167 14.9442ZM44.0387 15.8677L44.1663 16.2217L44.4215 15.9344L44.0336 15.8652L44.0387 15.8677ZM49.9237 50.1054C49.3078 50.2063 48.6885 50.2919 48.0658 50.362C48.5048 51.2881 48.8952 52.2091 49.2321 53.1172L50.1483 53.2686L51.4013 53.4379L49.9237 50.1029V50.1054ZM47.8438 60.7082C47.8263 61.1138 47.73 61.5121 47.5605 61.8806C47.499 62.0145 47.4282 62.144 47.3487 62.268C47.713 62.3404 48.0514 62.5096 48.3287 62.758C48.8901 63.2274 49.1708 63.8252 48.9514 64.0894C48.7319 64.3536 48.099 64.1869 47.535 63.7148C47.2412 63.4859 47.0139 63.1821 46.8765 62.8349C46.6633 63.0398 46.4218 63.2126 46.1594 63.348C46.4389 63.5945 46.6477 63.9115 46.7643 64.2664C47.0195 64.9565 46.9633 65.6132 46.6418 65.7312C46.3202 65.8492 45.8557 65.3875 45.6005 64.7051C45.4601 64.3592 45.4143 63.9819 45.4678 63.6122C45.1823 63.6815 44.8884 63.7092 44.595 63.6943C44.714 64.0479 44.7369 64.4269 44.6614 64.7923C44.5363 65.5183 44.151 66.0596 43.8268 66.0006C43.5027 65.9416 43.3164 65.308 43.4415 64.5819L43.5002 64.3254C42.751 65.5103 41.9409 66.6552 41.0732 67.7553L41.16 67.8195C42.1093 68.6968 43.0663 68.9636 44.1331 68.7456C45.2713 68.5147 46.5626 67.7502 48.1041 66.5983C50.2274 65.0104 51.9322 65.5337 52.9402 66.2058C52.8713 64.9847 53.2694 63.2479 55.6964 62.1936C57.4625 61.424 58.7589 60.6851 59.5245 59.8103C60.2442 58.9894 60.4943 58.0145 60.2136 56.7601C60.2091 56.7243 60.2091 56.6881 60.2136 56.6523C58.8228 56.8556 57.4223 56.9849 56.018 57.0397L56.2732 57.1218C56.9597 57.3783 57.4216 57.8452 57.294 58.1685C57.1664 58.4917 56.5284 58.5456 55.8368 58.2916C55.4837 58.1746 55.1683 57.9646 54.9232 57.6836C54.7881 57.9463 54.6162 58.1882 54.4128 58.4019C54.7581 58.5401 55.0603 58.7686 55.2881 59.0638C55.7551 59.6282 55.9236 60.267 55.6607 60.4876C55.3979 60.7082 54.8058 60.426 54.3362 59.8616C54.0951 59.5819 53.9322 59.2428 53.8641 58.8791C53.6177 59.04 53.3495 59.1644 53.0678 59.2485C53.298 59.5418 53.4461 59.8917 53.4966 60.2618C53.6216 60.9878 53.4481 61.6215 53.1112 61.6805C52.7743 61.7395 52.3992 61.1982 52.2767 60.4722C52.2005 60.106 52.2234 59.7259 52.343 59.3716C51.7916 59.4005 51.2425 59.28 50.7531 59.0227C50.8687 59.907 50.9114 60.7994 50.8807 61.6908L50.845 62.5527L50.0794 62.1525C49.2957 61.733 48.548 61.2491 47.8438 60.7056V60.7082ZM46.7643 61.5112C46.9944 61.0105 47.0308 60.4417 46.8663 59.9155L46.1722 59.2895L46.1416 59.3588C45.6192 60.5286 45.0442 61.6677 44.4164 62.7759C44.892 62.8504 45.3787 62.767 45.8029 62.5383C46.2271 62.3096 46.5655 61.9481 46.7668 61.5086L46.7643 61.5112ZM43.1914 57.3091L43.518 56.4368C42.9056 55.6877 42.3084 54.8976 41.7316 54.0433C41.3624 54.5564 40.9796 55.0532 40.5832 55.5338L42.7141 58.4866L43.1939 57.3116L43.1914 57.3091ZM44.1688 57.2064L44.0336 57.5605L44.4215 57.4938L44.1663 57.209L44.1688 57.2064ZM41.2952 12.0145C40.8476 12.528 40.3686 13.0129 39.861 13.4665C39.861 13.4665 39.8992 14.154 41.5938 14.0027L42.2548 13.9283C41.9519 13.2767 41.6321 12.6379 41.2952 12.0119V12.0145ZM41.5938 59.4229C39.8992 59.2742 39.8584 59.9565 39.861 59.9591C40.3686 60.4127 40.8476 60.8977 41.2952 61.4111C41.6355 60.7852 41.9553 60.1464 42.2548 59.4948L41.5938 59.4204V59.4229ZM35.9997 48.8689V50.1131C36.3784 50.5103 36.737 50.9264 37.0741 51.3599C37.4654 51.8627 37.83 52.3859 38.1664 52.9274C37.8297 53.4686 37.4651 53.9918 37.0741 54.4948C36.737 54.9283 36.3784 55.3444 35.9997 55.7416V56.9807L36.3059 56.678C36.8254 56.1608 37.3112 55.6107 37.7606 55.031C38.2227 54.4302 38.6488 53.8022 39.0366 53.1506L39.1745 52.9222L39.0366 52.6939C38.6488 52.0422 38.2227 51.4143 37.7606 50.8135C37.3112 50.2338 36.8253 49.6837 36.3059 49.1665L35.9997 48.8638V48.8689ZM36.3059 16.7476L35.9997 16.4475V17.6917C36.3784 18.0889 36.737 18.505 37.0741 18.9385C37.4651 19.4415 37.8297 19.9647 38.1664 20.5059C37.83 21.0474 37.4654 21.5706 37.0741 22.0734C36.7369 22.5051 36.3783 22.9196 35.9997 23.315V24.5593L36.3059 24.2565C36.8253 23.7394 37.3112 23.1892 37.7606 22.6096C38.2227 22.0088 38.6488 21.3809 39.0366 20.7291L39.1745 20.5008L39.0622 20.2751C38.6743 19.6234 38.2482 18.9955 37.7861 18.3946C37.3294 17.8142 36.8359 17.264 36.3085 16.7476H36.3059Z" fill="#E4007D"/>
</svg>
