<svg width="100" height="20" viewBox="0 0 100 20" fill="none" xmlns="http://www.w3.org/2000/svg">
<g clip-path="url(#clip0_1_621)">
<path fill-rule="evenodd" clip-rule="evenodd" d="M22.1954 8.73529C22.2042 13.1152 22.2107 13.7635 22.2478 13.9629C22.3871 14.7115 22.6371 15.2208 23.0727 15.6425C23.6378 16.1899 24.3567 16.4368 25.3847 16.4364C26.2804 16.4361 26.9484 16.2375 27.5112 15.8043C27.8928 15.5105 28.1723 15.1079 28.366 14.5726C28.5798 13.9819 28.5688 14.299 28.5688 8.7154V3.7485L27.5692 3.74156L26.5696 3.7346L26.5623 8.7482L26.5549 13.7617L26.4935 13.9185C26.2811 14.4615 25.9106 14.6769 25.2471 14.6432C25.019 14.6315 24.9647 14.6185 24.7866 14.5329C24.4922 14.3912 24.3518 14.2164 24.2315 13.8413C24.1938 13.7235 24.188 13.1538 24.1806 8.72203L24.1721 3.73526H23.1787H22.1853L22.1954 8.73529ZM30.6968 3.75219C30.6735 3.77491 30.6721 14.8073 30.6954 15.6209L30.7136 16.2615L31.6687 16.2699C32.194 16.2745 32.6335 16.2713 32.6454 16.2625C32.6574 16.2539 32.6746 15.2615 32.6839 14.0572L32.7007 11.8677L32.8255 11.8659C33.8055 11.8517 34.3963 11.796 34.801 11.6797C35.5373 11.4681 36.1846 10.9306 36.4728 10.2916C36.5711 10.0733 36.7 9.64871 36.7543 9.36437C36.8116 9.0638 36.8149 8.9774 36.8147 7.775C36.8144 6.56128 36.8116 6.489 36.7522 6.18557C36.6838 5.83609 36.5407 5.39899 36.4139 5.15248C36.0312 4.40813 35.256 3.90999 34.2728 3.7765C34.0255 3.74291 33.6665 3.73526 32.3416 3.73526C31.4466 3.73526 30.7064 3.74289 30.6968 3.75219ZM38.4886 9.99483V16.2572L39.4472 16.2713C39.9744 16.279 40.4214 16.2795 40.4405 16.2724C40.4683 16.262 40.4752 15.8206 40.4752 14.0636C40.4752 12.8559 40.4783 11.8672 40.482 11.8667C40.4858 11.8661 40.7767 11.8594 41.1284 11.8518C42.2298 11.8281 42.7837 11.7012 43.3388 11.3454C43.8299 11.0307 44.1694 10.5946 44.3684 10.0231C44.5859 9.3986 44.612 9.15477 44.6116 7.74951C44.6114 6.77946 44.6046 6.59323 44.5585 6.30477C44.3992 5.30657 44.0282 4.6685 43.3534 4.23242C43.0708 4.04986 43.0209 4.02567 42.7205 3.92559C42.1999 3.75221 42.1909 3.75152 40.2507 3.74151L38.4886 3.73242V9.99483ZM46.272 10V16.2651L48.5784 16.2672C49.847 16.2684 51.2795 16.2804 51.2795 16.2804L51.7422 16.2783L51.7558 15.3588V14.477L50.0072 14.4702L48.2587 14.4633V12.6612V10.8589L49.6943 10.8611C50.4838 10.8623 51.2382 10.8611 51.2382 10.8611V9.967L51.2376 9.073L49.7482 9.06614L48.2587 9.05929V7.29791V5.53658H49.9975C51.3846 5.53658 51.7391 5.52973 51.7497 5.5027C51.7571 5.48406 51.7615 5.08175 51.7594 4.60866L51.7558 3.7485L49.0139 3.74175L46.272 3.73499V10ZM53.7833 10.0001V16.2651H54.7726H55.7619L55.7815 15.3903C55.7924 14.9092 55.7923 13.824 55.7815 12.9788L55.7617 11.4422L56.099 11.4496L56.4363 11.4571L56.5257 11.7883C56.5748 11.9704 56.6693 12.2982 56.7354 12.5167C57.0519 13.5613 57.3578 14.5825 57.5086 15.0995C57.6 15.4127 57.7155 15.8001 57.7652 15.9604L57.8555 16.2518L58.8538 16.2588C59.4029 16.2626 59.852 16.2582 59.852 16.2491C59.852 16.2159 59.4355 14.9168 59.2795 14.4637C59.1366 14.0473 58.868 13.2312 58.3846 11.7437C58.2938 11.4641 58.2195 11.2169 58.2195 11.1943C58.2195 11.1692 58.2875 11.1228 58.3932 11.0763C58.6435 10.9659 58.8743 10.8052 59.1023 10.5835C59.4069 10.2868 59.5589 10.0432 59.6978 9.62928C59.8692 9.11768 59.9063 8.76191 59.9063 7.64277C59.9063 6.46186 59.8646 6.10077 59.6549 5.49205C59.5309 5.13242 59.3629 4.85483 59.1115 4.59542C58.6618 4.13144 58.1258 3.87431 57.4052 3.7765C57.1578 3.74286 56.796 3.73526 55.4424 3.73526H53.7833V10.0001ZM34.1218 5.5987C34.4 5.68511 34.6299 5.8986 34.7348 6.16808C34.7836 6.29328 34.7977 6.41203 34.8203 6.88757C34.8503 7.52049 34.829 9.02723 34.7871 9.22951C34.7235 9.53711 34.5276 9.79283 34.2569 9.92174C34.1375 9.9786 34.0546 9.99283 33.7102 10.0157C33.4868 10.0305 33.1634 10.039 32.9912 10.0346L32.6782 10.0267L32.6712 7.81471C32.6674 6.5982 32.6706 5.58654 32.6783 5.56665C32.6999 5.51182 33.9299 5.53912 34.1218 5.5987ZM41.7184 5.56524C42.2399 5.63547 42.5456 5.96768 42.6035 6.52734C42.6172 6.65991 42.6244 7.31077 42.6194 7.97369C42.6106 9.15529 42.6091 9.18243 42.5472 9.35397C42.4273 9.6862 42.172 9.91923 41.8535 9.98706C41.7766 10.0035 41.4366 10.0239 41.0981 10.0324L40.4826 10.0479L40.4673 9.09683C40.4543 8.28694 40.4568 5.67038 40.4707 5.5697C40.4766 5.52689 41.4088 5.52358 41.7184 5.56524ZM57.0355 5.56413C57.512 5.63049 57.8275 5.95146 57.8972 6.44203C57.9126 6.55311 57.9195 7.10597 57.9132 7.78568C57.9029 8.85443 57.8978 8.95243 57.8475 9.09974C57.7326 9.43477 57.544 9.62666 57.2355 9.72323C57.0614 9.7778 56.9893 9.78334 56.4276 9.78569L55.8108 9.78826L55.8038 7.66243L55.7968 5.53658L56.3209 5.53711C56.6091 5.53741 56.9307 5.54957 57.0355 5.56413Z" fill="#383838"/>
<path d="M62.4325 4.42162C62.8623 3.9716 63.312 3.75251 64.0845 3.61683C64.3005 3.57889 64.5531 3.55388 64.7354 3.55235C65.268 3.54784 66.0022 3.69624 66.3971 3.88832C66.8257 4.09669 67.1908 4.45341 67.4217 4.88904C67.7594 5.52591 67.88 6.16408 67.88 7.3174L67.8805 7.76043L66.9074 7.76768C66.372 7.77168 65.9194 7.77071 65.9005 7.76551C65.8742 7.75825 65.8662 7.59471 65.8662 7.06357C65.8657 6.28894 65.8445 6.10037 65.7291 5.8654C65.564 5.52904 65.2914 5.37939 64.8028 5.35759C64.2708 5.3338 63.9605 5.49036 63.7537 5.88734C63.6394 6.10745 63.6074 6.35283 63.608 7.01574C63.608 7.5222 63.6165 7.65025 63.6617 7.83477C63.8062 8.42231 64.0674 8.63494 65.1668 9.06014C65.9005 9.34408 66.0817 9.42254 66.3365 9.56705C67.0714 9.98448 67.5028 10.5052 67.7537 11.2773C67.8565 11.5947 67.9085 11.9815 67.9262 12.5697C67.988 14.6252 67.3274 15.8764 65.9697 16.276C65.1582 16.515 64.2308 16.5054 63.4462 16.2499C63.0171 16.1101 62.7565 15.9487 62.4268 15.6179C62.0537 15.2432 61.7937 14.6902 61.6725 14.0119C61.5971 13.5917 61.5611 12.1689 61.6251 12.1296C61.6451 12.1172 62.0937 12.1068 62.6211 12.1065L63.5805 12.1061V12.828C63.5805 13.7208 63.6154 13.9579 63.7857 14.2424C63.872 14.3861 63.9891 14.4805 64.2062 14.5801C64.3754 14.6577 64.3988 14.6613 64.7371 14.6616C65.18 14.662 65.3383 14.6106 65.5605 14.3939C65.8605 14.1023 65.9354 13.8067 65.9325 12.9273C65.9303 12.2245 65.8891 11.9764 65.7257 11.6775C65.492 11.2509 65.3028 11.1344 63.9068 10.5564C63.196 10.262 62.9011 10.0888 62.5405 9.75311C62.1451 9.38574 61.8514 8.85031 61.7314 8.27831C61.548 7.40791 61.6217 6.04454 61.8902 5.3293C62.0302 4.95632 62.2114 4.65338 62.4325 4.42162Z" fill="#6A3EE7"/>
<path d="M69.6492 3.76289L70.1869 3.75571C70.4823 3.75176 71.7103 3.74854 72.9149 3.74854H75.1057L75.1195 4.62271C75.1269 5.1035 75.1292 5.50599 75.1246 5.51712C75.1195 5.52824 74.332 5.53685 73.3743 5.53621C72.4166 5.53561 71.6235 5.54086 71.612 5.5479C71.6 5.55492 71.5926 5.62978 71.5949 5.7142C71.5972 5.79863 71.6012 6.59188 71.604 7.47703L71.6086 9.08628H73.1057H74.6023L74.6029 9.83463C74.6029 10.2462 74.6103 10.6455 74.62 10.7221L74.6372 10.8611H73.1052H71.5732L71.5909 11.1724C71.6006 11.3435 71.6092 12.1343 71.6097 12.9295C71.6109 13.7247 71.6183 14.4012 71.6269 14.4328L71.6423 14.4903H73.3806H75.1195V15.2547C75.1195 15.6753 75.1275 16.0746 75.1366 16.1423L75.1543 16.2654L72.4086 16.2586L69.6629 16.2518L69.656 10.0074L69.6492 3.76289Z" fill="#6A3EE7"/>
<path d="M76.8885 3.76198L79.5622 3.7551C81.0325 3.75131 82.4514 3.7453 82.7148 3.74172L83.1937 3.73523L83.2114 4.31139C83.2211 4.62826 83.2291 5.03356 83.2291 5.21205V5.53656H82.1268H81.0245L81.0251 10.9047C81.0257 13.8572 81.0228 16.2758 81.0188 16.2795C81.0148 16.2831 80.5708 16.2784 80.0331 16.269L79.0542 16.2518L79.052 15.722C79.0502 15.4306 79.0468 13.0197 79.044 10.3644L79.0382 5.53656H77.9634C77.372 5.53656 76.888 5.52763 76.8874 5.51669C76.8845 5.45939 76.8822 3.87197 76.8851 3.82145L76.8885 3.76198Z" fill="#6A3EE7"/>
<path d="M84.9441 3.76393L85.1687 3.755C85.2921 3.7501 85.7321 3.74364 86.147 3.7407L86.9007 3.73529L86.9115 8.65583C86.923 13.995 86.9155 13.7379 87.0709 14.0677C87.1092 14.1485 87.1807 14.2591 87.2298 14.3137C87.5875 14.7101 88.4287 14.7817 88.871 14.4534C89.1178 14.2699 89.2801 13.977 89.3264 13.6296C89.3407 13.5239 89.3515 11.3597 89.3521 8.60543L89.3527 3.76689L89.4955 3.75503C89.5744 3.74849 90.015 3.74107 90.4755 3.73853L91.3121 3.73389V8.63286C91.3121 13.3261 91.3098 13.5462 91.2601 13.873C91.1761 14.4223 91.0915 14.699 90.9041 15.0386C90.575 15.6355 90.1024 16.023 89.4378 16.2418C88.6435 16.5034 87.6801 16.5055 86.839 16.2474C86.5607 16.1619 86.3669 16.067 86.1412 15.9059C85.5115 15.4556 85.1544 14.8019 85.0001 13.8185C84.9452 13.4677 84.9441 13.3729 84.9441 8.61257V3.76393Z" fill="#6A3EE7"/>
<path fill-rule="evenodd" clip-rule="evenodd" d="M93.3058 3.75487L93.1355 3.7643L93.1424 10.006L93.1492 16.2477L94.1224 16.2593L95.0949 16.2709V14.056V11.8412L95.5784 11.841C96.9715 11.8404 97.7012 11.6386 98.3029 11.0877C98.6972 10.7268 98.9818 10.2037 99.1058 9.6122C99.2166 9.08506 99.2315 8.87317 99.2315 7.86432C99.2315 6.60152 99.1892 6.14643 99.0246 5.63802C98.7658 4.83964 98.2206 4.25164 97.4789 3.97124C96.9109 3.75654 96.6606 3.7341 94.9058 3.74038C94.1195 3.74319 93.3995 3.7497 93.3058 3.75487ZM97.1172 6.08529C96.9824 5.82078 96.7635 5.64973 96.4686 5.57892C96.2995 5.53826 95.7904 5.51648 95.3332 5.53042L95.0681 5.5385L95.0715 7.25277C95.0738 8.19563 95.0829 9.2114 95.0921 9.51009L95.1086 10.0532L95.7075 10.0444C96.3286 10.0353 96.5235 10.0089 96.7309 9.90603C96.9412 9.80169 97.1081 9.57506 97.2086 9.25729C97.2544 9.11317 97.2589 8.98615 97.2589 7.78826C97.2589 6.38506 97.2566 6.35792 97.1172 6.08529Z" fill="#6A3EE7"/>
<path d="M4.6333 2.45045V1.22685V0.00012207C4.6333 0.00012207 5.01823 0.184731 5.33117 0.360599L6.21176 0.855648C6.54856 1.045 7.0629 1.33321 7.35479 1.49609C8.41422 2.08738 10.481 3.2472 10.898 3.48446C11.2191 3.66712 11.3174 3.73504 11.294 3.75784C11.2768 3.77453 11.2542 3.7882 11.2436 3.7882C11.2223 3.7882 11.191 3.8055 10.2123 4.35832C9.37187 4.83308 9.14907 4.95215 9.09941 4.95308C9.06696 4.95366 8.95444 4.894 8.40256 4.58349C8.35764 4.55821 8.21679 4.47766 8.08959 4.40446C7.96233 4.33128 7.76027 4.21837 7.64056 4.15361C7.4401 4.04518 6.77759 3.67488 5.68107 3.05842C5.44158 2.9238 5.20277 2.79016 5.15038 2.7615C4.83844 2.59072 4.6333 2.45045 4.6333 2.45045Z" fill="#6A3EE7"/>
<path d="M0.162354 4.94054V2.53296C0.162354 2.53296 0.673531 2.76713 1.58517 3.28062C2.01176 3.52088 2.50163 3.79436 2.67376 3.88835C2.84589 3.98234 2.99898 4.06819 3.01394 4.0791C3.02891 4.09004 3.4208 4.31105 3.88482 4.57023L5.36802 5.39881C6.27208 5.90397 7.52865 6.60545 8.29362 7.03208C8.65282 7.23242 8.98425 7.41854 9.03014 7.44568L9.11345 7.49505L9.39751 7.33368C9.55374 7.24494 10.2204 6.87162 10.879 6.50408C12.1389 5.80088 14.9797 4.20922 15.3967 3.97277C15.5314 3.8964 15.6814 3.81751 15.73 3.79746L15.8185 3.76101V4.98991C15.8185 5.94116 15.8108 6.22488 15.7845 6.24551C15.7658 6.26014 15.4749 6.42659 15.1381 6.61534C14.8013 6.80408 13.9563 7.27854 13.2603 7.66968C11.8981 8.43516 11.2574 8.79448 9.98111 9.50837L9.16488 9.96494L9.05774 9.93368C8.95014 9.90231 8.26025 9.52025 4.12975 7.20471C2.90236 6.51665 1.36745 5.65688 1.36745 5.65688L0.162354 4.94054Z" fill="#6A3EE7"/>
<path d="M7.23235 11.0651C7.96578 10.6556 8.65772 10.2643 8.76995 10.1958C8.88223 10.1271 9.00166 10.0699 9.03532 10.0687L9.09652 10.0664V10.6618C9.09652 11.2507 9.09583 11.2577 9.03532 11.2941C8.91355 11.3675 5.95103 13.0269 5.86612 13.0693C5.81823 13.0932 5.75841 13.1127 5.73321 13.1127C5.70806 13.1127 5.4619 12.9797 5.18624 12.817C4.76643 12.5693 4.69099 12.5155 4.72163 12.4857C4.76033 12.448 5.08799 12.2626 7.23235 11.0651Z" fill="#6A3EE7"/>
<path d="M0.169922 15.0179V13.7886V12.5593L0.288932 12.6106C0.443974 12.6773 1.00332 12.9782 1.51705 13.271C1.74157 13.3991 2.25593 13.6884 2.66007 13.9139L3.74866 14.5214C3.94325 14.63 4.29227 14.8244 4.52428 14.9534C4.75629 15.0824 5.11895 15.2873 5.33022 15.4086C5.54149 15.5299 5.72783 15.6292 5.74429 15.6292C5.76074 15.6292 5.88817 15.5652 6.02737 15.487C6.16657 15.4088 6.42114 15.2677 6.59303 15.1737C7.07012 14.9126 9.35891 13.6367 9.7984 13.3868C10.1701 13.1755 10.2786 13.1358 10.336 13.1901C10.3697 13.2219 11.1285 13.6472 11.2259 13.6888C11.2671 13.7064 11.3007 13.7321 11.3007 13.746C11.3007 13.7697 11.159 13.8809 11.1288 13.8809C11.1134 13.8809 10.4481 14.2553 10.1305 14.4426C10.0183 14.5088 9.7856 14.64 9.61343 14.734C9.44131 14.8281 9.14126 14.9945 8.94669 15.1038C8.75212 15.2131 8.34183 15.4428 8.03497 15.6142C7.72812 15.7856 7.422 15.9592 7.35463 15.9999C7.28726 16.0406 7.1556 16.1121 7.06206 16.1589C6.96851 16.2056 6.89194 16.253 6.89194 16.2642C6.89194 16.2874 6.95497 16.3237 8.18823 17.009C8.68412 17.2845 9.10434 17.51 9.12206 17.51C9.13977 17.51 9.48109 17.3264 9.88051 17.102C11.0526 16.4434 14.3515 14.5956 14.4849 14.5228C14.7749 14.3647 15.1976 14.1267 15.4374 13.9865C15.5796 13.9033 15.7233 13.8269 15.7566 13.8167L15.8173 13.7982L15.8247 15.0222L15.832 16.2462L15.7231 16.3134C15.5429 16.4248 14.1707 17.1959 10.3754 19.3186C10.0387 19.507 9.72029 19.6852 9.66789 19.7146L9.36583 19.8841C9.25211 19.9478 9.14006 20.0001 9.11686 20.0001C9.06434 20.0001 8.8588 19.8954 8.47823 19.6749C8.31674 19.5813 7.97034 19.3856 7.7084 19.24C6.99817 18.8452 6.92097 18.7984 6.90732 18.755C6.9004 18.7332 6.89234 18.4769 6.88932 18.1855C6.88343 17.6142 6.8784 17.563 6.828 17.563C6.80983 17.563 6.56977 17.6881 6.29452 17.8412C6.01932 17.9941 5.77069 18.1193 5.74194 18.1193C5.69866 18.1193 5.48923 18.0152 5.31351 17.9064C5.24825 17.866 4.11293 17.2315 3.67507 16.9907C3.45496 16.8697 3.2284 16.7414 3.1716 16.7057C3.11478 16.67 2.81111 16.4981 2.49678 16.3237C2.18245 16.1493 1.73545 15.8998 1.50345 15.7694C1.27144 15.639 1.02651 15.5021 0.959149 15.4653C0.745349 15.3484 0.652086 15.2958 0.408051 15.1552L0.169922 15.0179Z" fill="#6A3EE7"/>
</g>
<defs>
<clipPath id="clip0_1_621">
<rect width="100" height="20" fill="white"/>
</clipPath>
</defs>
</svg>
